<svg xmlns="http://www.w3.org/2000/svg" viewBox="0 0 504 504">

  <path class="cls-10" d="M52,0C23.2,0,0,23.2,0,52v400c0,28.8,23.2,52,52,52h400c28.8,0,52-23.2,52-52V52c0-28.8-23.2-52-52-52H52ZM52,24h400c15.6,0,28,12.4,28,28v60H24v-60c0-15.6,12.4-28,28-28ZM68,56c-6.8,0-12,5.2-12,12s5.2,12,12,12h16c6.8,0,12-5.2,12-12s-5.2-12-12-12h-16ZM132,56c-6.8,0-12,5.2-12,12s5.2,12,12,12h16c6.8,0,12-5.2,12-12s-5.2-12-12-12h-16ZM24,136h456v316c0,15.6-12.4,28-28,28H52c-15.6,0-28-12.4-28-28V136Z"/>
  <text class="cls-17" transform="translate(179.85 74.75)"><tspan x="0" y="0">Вино.... вино... я и</tspan><tspan class="cls-14" x="171.92" y="0">щ</tspan><tspan x="189.08" y="0">у вино....</tspan></text>
  <text/>
  <text class="cls-17" transform="translate(38.77 169.25)"><tspan class="cls-15" x="0" y="0">И</tspan><tspan x="15.25" y="0">звин</tspan><tspan class="cls-16" x="61.96" y="0">и</tspan><tspan class="cls-13" x="74.63" y="0">т</tspan><tspan x="83.63" y="0">е, з</tspan><tspan class="cls-7" x="114.7" y="0">д</tspan><tspan x="126.8" y="0">есь </tspan><tspan class="cls-3" x="164.95" y="0">к</tspan><tspan class="cls-13" x="176.36" y="0">т</tspan><tspan x="185.35" y="0">о-ни</tspan><tspan class="cls-5" x="230.34" y="0">б</tspan><tspan class="cls-13" x="242.26" y="0">у</tspan><tspan class="cls-1" x="252.63" y="0">дь е</tspan><tspan class="cls-8" x="292.67" y="0">с</tspan><tspan class="cls-4" x="303.34" y="0">т</tspan><tspan x="312.63" y="0">ь?</tspan></text>
  <g>
    <path d="M46.89,193.17v1.49h-5.68v-1.49h5.68Z"/>
    <path d="M62.24,184.64v6.88h.62l5.31-6.88h2.41l-5.86,7.11c2.55.34,3.54,1.91,4.35,4,.57,1.59,1.01,3.01,1.7,4.39h-2.16c-.55-1.06-.99-2.44-1.4-3.66-.71-2.05-1.7-3.45-4.32-3.45h-.64v7.11h-1.98v-15.5h1.98Z"/>
    <path d="M79.65,189.01v1.61h-3.47v9.52h-2v-9.52h-3.47v-1.61h8.94Z"/>
    <path d="M91.2,194.48c0,4.12-2.85,5.91-5.54,5.91-3.01,0-5.33-2.21-5.33-5.73,0-3.73,2.44-5.91,5.52-5.91s5.36,2.32,5.36,5.73ZM82.37,194.6c0,2.44,1.4,4.28,3.38,4.28s3.38-1.82,3.38-4.32c0-1.89-.94-4.28-3.33-4.28s-3.43,2.21-3.43,4.32Z"/>
    <path d="M99.55,193.68h.97c1.7,0,2.85-.78,2.85-1.82s-.9-1.61-2.16-1.61c-.9,0-1.91.3-2.69.78l-.51-1.24c1.13-.69,2.41-1.01,3.7-1.01,1.7,0,3.77.76,3.77,2.92,0,1.38-1.26,2.28-2.51,2.53v.05c1.66.14,3.04,1.15,3.04,2.78,0,2.41-2.46,3.31-4.81,3.31-1.31,0-2.62-.34-3.61-.9l.53-1.36c.8.44,1.89.76,2.94.76,1.68,0,2.74-.8,2.74-1.91,0-1.49-1.56-1.91-3.24-1.91h-1.01v-1.38Z"/>
    <path d="M117.17,189.01v9.61l1.15.02-.12,5.04h-1.59l-.09-3.54h-7.7l-.09,3.54h-1.59l-.09-5.04.94-.02c.48-.71.85-1.47,1.1-2.28.44-1.38.64-2.87.64-4.44v-2.9h7.43ZM111.53,192.39c0,1.47-.21,2.9-.57,4.14-.23.76-.55,1.45-.9,2.07h5.13v-8.05h-3.66v1.84Z"/>
    <path d="M121.77,194.94c.05,2.74,1.79,3.86,3.82,3.86,1.45,0,2.32-.25,3.08-.58l.34,1.45c-.71.32-1.93.69-3.7.69-3.43,0-5.47-2.25-5.47-5.61s1.98-6,5.22-6c3.63,0,4.6,3.2,4.6,5.24,0,.41-.05.74-.07.94h-7.82ZM127.7,193.49c.02-1.29-.53-3.29-2.81-3.29-2.05,0-2.94,1.89-3.1,3.29h5.91Z"/>
    <path d="M140.1,199.73c-.53.28-1.7.64-3.2.64-3.36,0-5.54-2.28-5.54-5.68s2.35-5.91,5.98-5.91c1.2,0,2.25.3,2.81.57l-.46,1.56c-.48-.28-1.24-.53-2.35-.53-2.55,0-3.93,1.89-3.93,4.21,0,2.58,1.66,4.16,3.86,4.16,1.15,0,1.91-.3,2.48-.55l.34,1.52Z"/>
    <path d="M144.42,189.01v3.77c.46-.09,1.24-.11,1.84-.11,2.51,0,5.15.78,5.15,3.75,0,1.15-.46,1.95-1.17,2.55-1.22,1.03-3.2,1.29-4.83,1.29-1.13,0-2.16-.07-2.99-.16v-11.08h2ZM144.42,198.74c.39.05.83.09,1.49.09,1.52,0,3.47-.51,3.47-2.37s-2.02-2.35-3.52-2.35c-.53,0-.99.05-1.45.12v4.51Z"/>
    <path d="M155.49,195.75l-.05-.6c-.14-1.24.28-2.6,1.43-3.98,1.04-1.22,1.61-2.12,1.61-3.15,0-1.17-.74-1.95-2.18-1.98-.83,0-1.75.28-2.32.71l-.55-1.45c.76-.55,2.07-.92,3.29-.92,2.64,0,3.84,1.63,3.84,3.38,0,1.56-.87,2.69-1.98,4-1.01,1.2-1.38,2.21-1.31,3.38l.02.6h-1.79ZM154.98,198.97c0-.85.58-1.45,1.38-1.45s1.36.6,1.36,1.45c0,.8-.53,1.43-1.38,1.43-.8,0-1.36-.62-1.36-1.43Z"/>
  </g>
  <text class="cls-17" transform="translate(40.52 263.14)"><tspan x="0" y="0">Про</tspan><tspan class="cls-8" x="40.41" y="0">с</tspan><tspan class="cls-4" x="51.08" y="0">т</tspan><tspan class="cls-14" x="60.37" y="0">и</tspan><tspan class="cls-13" x="73.05" y="0">т</tspan><tspan class="cls-6" x="82.04" y="0">е! Ме</tspan><tspan class="cls-11" x="133.74" y="0">н</tspan><tspan class="cls-6" x="146.39" y="0">я зо</tspan><tspan class="cls-9" x="185.22" y="0">в</tspan><tspan class="cls-2" x="196.46" y="0">у</tspan><tspan class="cls-12" x="207.8" y="0">т</tspan><tspan x="215.51" y="0">...</tspan></text>
  <g>
    <path d="M46.89,288.98v1.5h-5.68v-1.5h5.68Z"/>
    <path d="M73.33,289.14c-.11-2.16-.25-4.76-.23-6.69h-.07c-.53,1.82-1.17,3.75-1.95,5.89l-2.74,7.52h-1.52l-2.51-7.38c-.74-2.18-1.36-4.18-1.79-6.02h-.05c-.05,1.93-.16,4.53-.3,6.85l-.41,6.65h-1.91l1.08-15.5h2.55l2.64,7.5c.64,1.91,1.17,3.61,1.56,5.22h.07c.39-1.56.94-3.27,1.63-5.22l2.76-7.5h2.55l.97,15.5h-1.95l-.39-6.81Z"/>
    <path d="M88.76,290.29c0,4.12-2.85,5.91-5.54,5.91-3.01,0-5.33-2.21-5.33-5.73,0-3.73,2.44-5.91,5.52-5.91s5.36,2.32,5.36,5.73ZM79.93,290.4c0,2.44,1.4,4.28,3.38,4.28s3.38-1.82,3.38-4.32c0-1.89-.94-4.28-3.33-4.28s-3.43,2.21-3.43,4.32Z"/>
    <path d="M92.08,284.81l3.68,4.85h.41v-4.85h1.93v4.85h.39l3.68-4.85h2.32l-4.39,5.06c1.68.18,2.67,1.17,3.33,2.94.39,1.08.76,2.25,1.22,3.13h-2.02c-.37-.67-.69-1.59-1.01-2.55-.69-1.82-1.72-2.37-3.17-2.37h-.35v4.92h-1.93v-4.92h-.37c-1.56,0-2.51.58-3.2,2.39-.37.97-.67,1.84-1.06,2.53h-1.95c.46-.9.83-2.07,1.22-3.1.69-1.79,1.68-2.78,3.36-2.97l-4.42-5.06h2.32Z"/>
    <path d="M107.46,290.75c.05,2.74,1.79,3.86,3.82,3.86,1.45,0,2.32-.25,3.08-.57l.34,1.45c-.71.32-1.93.69-3.7.69-3.43,0-5.47-2.25-5.47-5.61s1.98-6,5.22-6c3.63,0,4.6,3.2,4.6,5.24,0,.41-.05.74-.07.94h-7.82ZM113.4,289.3c.02-1.29-.53-3.29-2.81-3.29-2.05,0-2.94,1.89-3.1,3.29h5.91Z"/>
    <path d="M125.29,284.81v1.61h-3.47v9.52h-2v-9.52h-3.47v-1.61h8.95Z"/>
    <path d="M127.89,290.75c.05,2.74,1.79,3.86,3.82,3.86,1.45,0,2.32-.25,3.08-.57l.34,1.45c-.71.32-1.93.69-3.7.69-3.43,0-5.47-2.25-5.47-5.61s1.98-6,5.22-6c3.63,0,4.6,3.2,4.6,5.24,0,.41-.05.74-.07.94h-7.82ZM133.82,289.3c.02-1.29-.53-3.29-2.81-3.29-2.05,0-2.94,1.89-3.1,3.29h5.91Z"/>
    <path d="M145.11,284.81v4.48h5.29v-4.48h2v11.13h-2v-5.04h-5.29v5.04h-2v-11.13h2Z"/>
    <path d="M156.84,290.75c.05,2.74,1.79,3.86,3.82,3.86,1.45,0,2.32-.25,3.08-.57l.34,1.45c-.71.32-1.93.69-3.7.69-3.43,0-5.47-2.25-5.47-5.61s1.98-6,5.22-6c3.63,0,4.6,3.2,4.6,5.24,0,.41-.05.74-.07.94h-7.82ZM162.77,289.3c.02-1.29-.53-3.29-2.81-3.29-2.05,0-2.94,1.89-3.1,3.29h5.91Z"/>
    <path d="M181.27,284.81v11.13h-2.02v-9.52h-5.17v9.52h-2v-11.13h9.2Z"/>
    <path d="M184.56,288.45c0-1.43-.05-2.58-.09-3.63h1.82l.09,1.91h.05c.83-1.36,2.14-2.16,3.96-2.16,2.69,0,4.71,2.28,4.71,5.66,0,4-2.44,5.98-5.06,5.98-1.47,0-2.76-.64-3.43-1.75h-.05v6.05h-2v-12.05ZM186.56,291.41c0,.3.05.58.09.83.37,1.4,1.59,2.37,3.04,2.37,2.14,0,3.38-1.75,3.38-4.3,0-2.23-1.17-4.14-3.31-4.14-1.38,0-2.67.99-3.06,2.51-.07.25-.14.55-.14.83v1.91Z"/>
    <path d="M207.72,290.29c0,4.12-2.85,5.91-5.54,5.91-3.01,0-5.33-2.21-5.33-5.73,0-3.73,2.44-5.91,5.52-5.91s5.36,2.32,5.36,5.73ZM198.89,290.4c0,2.44,1.4,4.28,3.38,4.28s3.38-1.82,3.38-4.32c0-1.89-.94-4.28-3.33-4.28s-3.43,2.21-3.43,4.32Z"/>
    <path d="M218.73,284.81v9.61l1.15.02-.11,5.04h-1.59l-.09-3.54h-7.7l-.09,3.54h-1.59l-.09-5.04.94-.02c.48-.71.85-1.47,1.1-2.28.44-1.38.64-2.88.64-4.44v-2.9h7.43ZM213.1,288.19c0,1.47-.21,2.9-.58,4.14-.23.76-.55,1.45-.9,2.07h5.13v-8.05h-3.66v1.84Z"/>
    <path d="M232.28,290.29c0,4.12-2.85,5.91-5.54,5.91-3.01,0-5.33-2.21-5.33-5.73,0-3.73,2.44-5.91,5.52-5.91s5.36,2.32,5.36,5.73ZM223.45,290.4c0,2.44,1.4,4.28,3.38,4.28s3.38-1.82,3.38-4.32c0-1.89-.94-4.28-3.33-4.28s-3.43,2.21-3.43,4.32Z"/>
    <path d="M243.27,284.81v11.13h-2v-9.54h-3.82v2.9c0,3.13-.3,5.22-1.75,6.16-.55.44-1.17.69-2.21.69l-.21-1.59c.39-.07.83-.23,1.1-.46,1.04-.76,1.15-2.32,1.15-4.81v-4.48h7.73Z"/>
    <path d="M247.53,284.81l3.68,4.85h.41v-4.85h1.93v4.85h.39l3.68-4.85h2.32l-4.39,5.06c1.68.18,2.67,1.17,3.34,2.94.39,1.08.76,2.25,1.22,3.13h-2.02c-.37-.67-.69-1.59-1.01-2.55-.69-1.82-1.72-2.37-3.17-2.37h-.35v4.92h-1.93v-4.92h-.37c-1.56,0-2.51.58-3.2,2.39-.37.97-.67,1.84-1.06,2.53h-1.96c.46-.9.83-2.07,1.22-3.1.69-1.79,1.68-2.78,3.36-2.97l-4.42-5.06h2.32Z"/>
    <path d="M268.32,295.94l-.16-1.4h-.07c-.62.87-1.82,1.66-3.4,1.66-2.25,0-3.4-1.59-3.4-3.2,0-2.69,2.39-4.16,6.69-4.14v-.23c0-.92-.25-2.58-2.53-2.58-1.03,0-2.12.32-2.9.83l-.46-1.33c.92-.6,2.25-.99,3.66-.99,3.4,0,4.23,2.32,4.23,4.55v4.16c0,.97.04,1.91.18,2.67h-1.84ZM268.02,290.26c-2.21-.05-4.71.34-4.71,2.51,0,1.31.88,1.93,1.91,1.93,1.45,0,2.37-.92,2.69-1.86.07-.21.12-.44.12-.64v-1.93Z"/>
    <path d="M280.6,284.81v1.61h-3.47v9.52h-2v-9.52h-3.47v-1.61h8.95Z"/>
    <path d="M284.33,284.81v3.77c.46-.09,1.24-.12,1.84-.12,2.51,0,5.15.78,5.15,3.75,0,1.15-.46,1.96-1.17,2.55-1.22,1.04-3.2,1.29-4.83,1.29-1.13,0-2.16-.07-2.99-.16v-11.08h2ZM284.33,294.54c.39.05.83.09,1.49.09,1.52,0,3.47-.51,3.47-2.37s-2.02-2.34-3.52-2.34c-.53,0-.99.05-1.45.11v4.51Z"/>
    <path d="M293.35,294.75c0-.85.57-1.45,1.38-1.45s1.36.6,1.36,1.45-.53,1.45-1.38,1.45c-.8,0-1.36-.62-1.36-1.45Z"/>
    <path d="M59.67,308.96c1.06-.69,2.41-1.17,4.09-1.17,2.69,0,4.55,1.4,4.55,3.79,0,1.91-1.38,3.36-3.2,3.77v.05c2.18.23,3.77,1.66,3.77,3.89,0,3.22-2.78,4.51-5.61,4.51-1.4,0-2.87-.3-4.05-1.01l.53-1.56c.83.48,2.21.94,3.47.94,2.3,0,3.56-1.24,3.56-2.94,0-2.32-2.23-2.99-4.21-2.99h-.92v-1.52h.92c2.05,0,3.63-1.26,3.63-2.85s-1.1-2.44-2.78-2.44c-1.17,0-2.39.48-3.22,1.01l-.55-1.47Z"/>
    <path d="M80.04,312.41v9.61l1.15.02-.12,5.04h-1.59l-.09-3.54h-7.7l-.09,3.54h-1.59l-.09-5.04.94-.02c.48-.71.85-1.47,1.1-2.28.44-1.38.64-2.88.64-4.44v-2.9h7.43ZM74.41,315.79c0,1.47-.21,2.9-.57,4.14-.23.76-.55,1.45-.9,2.07h5.13v-8.05h-3.66v1.84Z"/>
    <path d="M84.65,318.35c.05,2.74,1.79,3.86,3.82,3.86,1.45,0,2.32-.25,3.08-.57l.34,1.45c-.71.32-1.93.69-3.7.69-3.43,0-5.47-2.25-5.47-5.61s1.98-6,5.22-6c3.63,0,4.6,3.2,4.6,5.24,0,.41-.05.74-.07.94h-7.82ZM90.58,316.9c.02-1.29-.53-3.29-2.81-3.29-2.05,0-2.94,1.89-3.1,3.29h5.91Z"/>
    <path d="M102.98,323.13c-.53.28-1.7.64-3.2.64-3.36,0-5.54-2.28-5.54-5.68s2.35-5.91,5.98-5.91c1.2,0,2.25.3,2.81.58l-.46,1.56c-.48-.28-1.24-.53-2.35-.53-2.55,0-3.93,1.89-3.93,4.21,0,2.58,1.66,4.16,3.86,4.16,1.15,0,1.91-.3,2.48-.55l.34,1.52Z"/>
    <path d="M107.3,312.41v3.77c.46-.09,1.24-.12,1.84-.12,2.51,0,5.15.78,5.15,3.75,0,1.15-.46,1.96-1.17,2.55-1.22,1.04-3.2,1.29-4.83,1.29-1.13,0-2.16-.07-2.99-.16v-11.08h2ZM107.3,322.14c.39.05.83.09,1.49.09,1.52,0,3.47-.51,3.47-2.37s-2.02-2.34-3.52-2.34c-.53,0-.99.05-1.45.11v4.51Z"/>
    <path d="M121.63,312.55c.78-.14,2.23-.25,3.54-.25,1.86,0,4.94.3,4.94,2.78,0,1.38-1.06,2.23-2.32,2.51v.05c1.63.23,2.83,1.15,2.83,2.76,0,2.92-3.68,3.29-5.86,3.29-1.24,0-2.53-.09-3.13-.14v-10.99ZM123.54,322.21c.57.07.99.09,1.63.09,1.36,0,3.38-.32,3.38-1.93s-1.61-1.96-3.54-1.96h-1.47v3.79ZM123.56,317.08h1.52c1.5,0,3.04-.44,3.04-1.75,0-1.1-.97-1.63-2.99-1.63-.67,0-1.08.05-1.56.09v3.29Z"/>
    <path d="M135.13,312.41v3.79c.44-.09,1.08-.14,1.82-.14,2.39,0,4.81.99,4.81,3.73,0,1.17-.44,1.98-1.15,2.58-1.22,1.04-3.01,1.29-4.48,1.29-1.13,0-2.16-.07-2.99-.16v-11.08h2ZM135.13,322.14c.39.05.83.09,1.4.09,1.54,0,3.22-.64,3.22-2.37s-1.61-2.34-3.13-2.34c-.58,0-1.08.05-1.5.11v4.51ZM145.16,312.41v11.13h-2v-11.13h2Z"/>
    <path d="M155.3,312.41v4.48h5.29v-4.48h2v11.13h-2v-5.04h-5.29v5.04h-2v-11.13h2Z"/>
    <path d="M167.77,312.41v4.69c0,1.77-.02,2.87-.12,4.46l.07.02c.67-1.36,1.06-2.14,1.79-3.43l3.47-5.75h2.37v11.13h-1.93v-4.71c0-1.82.05-2.76.14-4.55h-.07c-.71,1.43-1.2,2.32-1.84,3.45-1.06,1.72-2.28,3.86-3.47,5.82h-2.32v-11.13h1.91Z"/>
    <path d="M180.23,312.41v3.66c0,1.4.53,2.37,2.3,2.37.87,0,1.77-.32,2.39-.78v-5.24h2v11.13h-2v-4.46h-.05c-.76.51-1.95.85-3.01.85-2.12,0-3.66-1.08-3.66-3.63v-3.89h2.02Z"/>
    <path d="M191.36,318.35c.05,2.74,1.79,3.86,3.82,3.86,1.45,0,2.32-.25,3.08-.57l.34,1.45c-.71.32-1.93.69-3.7.69-3.43,0-5.47-2.25-5.47-5.61s1.98-6,5.22-6c3.63,0,4.6,3.2,4.6,5.24,0,.41-.05.74-.07.94h-7.82ZM197.3,316.9c.02-1.29-.53-3.29-2.81-3.29-2.05,0-2.94,1.89-3.1,3.29h5.91Z"/>
    <path d="M208.54,312.41v1.63h-4.83v9.5h-2v-11.13h6.83Z"/>
    <path d="M220.23,317.89c0,4.12-2.85,5.91-5.54,5.91-3.01,0-5.33-2.21-5.33-5.73,0-3.73,2.44-5.91,5.52-5.91s5.36,2.32,5.36,5.73ZM211.4,318c0,2.44,1.4,4.28,3.38,4.28s3.38-1.82,3.38-4.32c0-1.89-.94-4.28-3.33-4.28s-3.43,2.21-3.43,4.32Z"/>
    <path d="M229.61,312.41v4.48h5.29v-4.48h2v11.13h-2v-5.04h-5.29v5.04h-2v-11.13h2Z"/>
    <path d="M241.34,318.35c.05,2.74,1.79,3.86,3.82,3.86,1.45,0,2.32-.25,3.08-.57l.34,1.45c-.71.32-1.93.69-3.7.69-3.43,0-5.47-2.25-5.47-5.61s1.98-6,5.22-6c3.63,0,4.6,3.2,4.6,5.24,0,.41-.05.74-.07.94h-7.82ZM247.28,316.9c.02-1.29-.53-3.29-2.81-3.29-2.05,0-2.94,1.89-3.1,3.29h5.91Z"/>
    <path d="M258.57,312.41v4.48h5.29v-4.48h2v11.13h-2v-5.04h-5.29v5.04h-2v-11.13h2Z"/>
    <path d="M275.34,323.54l-.16-1.4h-.07c-.62.87-1.82,1.66-3.4,1.66-2.25,0-3.4-1.59-3.4-3.2,0-2.69,2.39-4.16,6.69-4.14v-.23c0-.92-.25-2.58-2.53-2.58-1.03,0-2.12.32-2.9.83l-.46-1.33c.92-.6,2.25-.99,3.66-.99,3.4,0,4.23,2.32,4.23,4.55v4.16c0,.97.04,1.91.18,2.67h-1.84ZM275.04,317.86c-2.21-.05-4.71.34-4.71,2.51,0,1.31.88,1.93,1.91,1.93,1.45,0,2.37-.92,2.69-1.86.07-.21.12-.44.12-.64v-1.93Z"/>
    <path d="M282.12,312.41v4.69c0,1.77-.02,2.87-.12,4.46l.07.02c.67-1.36,1.06-2.14,1.79-3.43l3.47-5.75h2.37v11.13h-1.93v-4.71c0-1.82.05-2.76.14-4.55h-.07c-.71,1.43-1.2,2.32-1.84,3.45-1.06,1.72-2.28,3.86-3.47,5.82h-2.32v-11.13h1.91ZM283.43,307.88c.07.99.55,1.75,1.47,1.75.99,0,1.45-.74,1.56-1.75h1.45c-.09,1.88-1.29,2.85-3.06,2.85-2.02,0-2.8-1.26-2.9-2.85h1.47Z"/>
    <path d="M301.62,312.41v9.61l1.15.02-.12,5.04h-1.59l-.09-3.54h-7.71l-.09,3.54h-1.59l-.09-5.04.94-.02c.48-.71.85-1.47,1.1-2.28.44-1.38.64-2.88.64-4.44v-2.9h7.43ZM295.99,315.79c0,1.47-.21,2.9-.58,4.14-.23.76-.55,1.45-.9,2.07h5.13v-8.05h-3.66v1.84Z"/>
    <path d="M306.22,318.35c.05,2.74,1.79,3.86,3.82,3.86,1.45,0,2.32-.25,3.08-.57l.35,1.45c-.71.32-1.93.69-3.7.69-3.43,0-5.47-2.25-5.47-5.61s1.98-6,5.22-6c3.63,0,4.6,3.2,4.6,5.24,0,.41-.04.74-.07.94h-7.82ZM312.16,316.9c.02-1.29-.53-3.29-2.81-3.29-2.05,0-2.94,1.89-3.1,3.29h5.91Z"/>
    <path d="M324.05,312.41v1.61h-3.47v9.52h-2v-9.52h-3.47v-1.61h8.95Z"/>
    <path d="M326.65,318.35c.05,2.74,1.79,3.86,3.82,3.86,1.45,0,2.32-.25,3.08-.57l.35,1.45c-.71.32-1.93.69-3.7.69-3.43,0-5.47-2.25-5.47-5.61s1.98-6,5.22-6c3.63,0,4.6,3.2,4.6,5.24,0,.41-.04.74-.07.94h-7.82ZM332.58,316.9c.02-1.29-.53-3.29-2.81-3.29-2.05,0-2.94,1.89-3.1,3.29h5.91Z"/>
    <path d="M336.56,322.35c0-.85.57-1.45,1.38-1.45s1.36.6,1.36,1.45-.53,1.45-1.38,1.45c-.8,0-1.36-.62-1.36-1.45Z"/>
    <path d="M62.27,335.64v6.49h7.5v-6.49h2.02v15.5h-2.02v-7.27h-7.5v7.27h-2v-15.5h2Z"/>
    <path d="M85.27,345.49c0,4.12-2.85,5.91-5.54,5.91-3.01,0-5.33-2.21-5.33-5.73,0-3.73,2.44-5.91,5.52-5.91s5.36,2.32,5.36,5.73ZM76.44,345.6c0,2.44,1.4,4.28,3.38,4.28s3.38-1.82,3.38-4.32c0-1.89-.94-4.28-3.33-4.28s-3.43,2.21-3.43,4.32Z"/>
    <path d="M100.81,351.14h-2v-4.67h-1.49c-.85,0-1.43.23-1.86.62-.83.67-1.13,2.05-1.56,3.13-.14.34-.3.64-.46.92h-2.16c.25-.37.48-.78.69-1.26.48-1.08.76-2.53,1.75-3.36.34-.3.76-.55,1.26-.64v-.07c-1.45-.16-2.94-1.06-2.94-2.76,0-1.15.62-1.93,1.47-2.41.92-.53,2.28-.76,3.73-.76,1.33,0,2.62.12,3.59.23v11.04ZM98.81,341.35c-.51-.07-.97-.12-1.68-.12-1.38,0-3.01.39-3.01,1.93,0,1.43,1.77,1.93,2.97,1.93h1.72v-3.75Z"/>
    <path d="M109.9,344.68h.97c1.7,0,2.85-.78,2.85-1.82s-.9-1.61-2.16-1.61c-.9,0-1.91.3-2.69.78l-.51-1.24c1.13-.69,2.41-1.01,3.7-1.01,1.7,0,3.77.76,3.77,2.92,0,1.38-1.26,2.28-2.51,2.53v.05c1.66.14,3.04,1.15,3.04,2.78,0,2.41-2.46,3.31-4.81,3.31-1.31,0-2.62-.34-3.61-.9l.53-1.36c.8.44,1.89.76,2.94.76,1.68,0,2.74-.8,2.74-1.91,0-1.5-1.56-1.91-3.24-1.91h-1.01v-1.38Z"/>
    <path d="M120.85,340.01v4.48h5.29v-4.48h2v11.13h-2v-5.04h-5.29v5.04h-2v-11.13h2Z"/>
    <path d="M137.61,351.14l-.16-1.4h-.07c-.62.87-1.82,1.66-3.4,1.66-2.25,0-3.4-1.59-3.4-3.2,0-2.69,2.39-4.16,6.69-4.14v-.23c0-.92-.25-2.58-2.53-2.58-1.03,0-2.12.32-2.9.83l-.46-1.33c.92-.6,2.25-.99,3.66-.99,3.4,0,4.23,2.32,4.23,4.55v4.16c0,.97.05,1.91.18,2.67h-1.84ZM137.31,345.46c-2.21-.05-4.71.34-4.71,2.51,0,1.31.87,1.93,1.91,1.93,1.45,0,2.37-.92,2.69-1.86.07-.21.11-.44.11-.64v-1.93Z"/>
    <path d="M144.47,340.01v4.69h1.91c.34-2.94,2.28-4.94,4.94-4.94,2.9,0,4.88,2.3,4.88,5.73,0,3.61-2.21,5.91-5.01,5.91s-4.62-1.98-4.85-5.15h-1.86v4.9h-1.98v-11.13h1.98ZM154.17,345.53c0-2.09-.94-4.25-2.92-4.25s-2.99,2.12-2.99,4.37.99,4.25,2.94,4.25,2.97-2.25,2.97-4.37Z"/>
    <path d="M157.44,353.97c.51-1.36,1.13-3.82,1.38-5.5l2.25-.23c-.53,1.96-1.54,4.51-2.18,5.59l-1.45.14Z"/>
    <path d="M175.17,340.01v1.63h-4.83v9.5h-2v-11.13h6.83Z"/>
    <path d="M185.02,340.01v9.61l1.15.02-.11,5.04h-1.59l-.09-3.54h-7.7l-.09,3.54h-1.59l-.09-5.04.94-.02c.48-.71.85-1.47,1.1-2.28.44-1.38.64-2.88.64-4.44v-2.9h7.43ZM179.38,343.39c0,1.47-.21,2.9-.58,4.14-.23.76-.55,1.45-.9,2.07h5.13v-8.05h-3.66v1.84Z"/>
    <path d="M189.62,345.95c.05,2.74,1.79,3.86,3.82,3.86,1.45,0,2.32-.25,3.08-.57l.34,1.45c-.71.32-1.93.69-3.7.69-3.43,0-5.47-2.25-5.47-5.61s1.98-6,5.22-6c3.63,0,4.6,3.2,4.6,5.24,0,.41-.05.74-.07.94h-7.82ZM195.55,344.5c.02-1.29-.53-3.29-2.81-3.29-2.05,0-2.94,1.89-3.1,3.29h5.91Z"/>
    <path d="M206.84,340.01v4.48h5.29v-4.48h2v11.13h-2v-5.04h-5.29v5.04h-2v-11.13h2Z"/>
    <path d="M223.61,351.14l-.16-1.4h-.07c-.62.87-1.82,1.66-3.4,1.66-2.25,0-3.4-1.59-3.4-3.2,0-2.69,2.39-4.16,6.69-4.14v-.23c0-.92-.25-2.58-2.53-2.58-1.03,0-2.12.32-2.9.83l-.46-1.33c.92-.6,2.25-.99,3.66-.99,3.4,0,4.23,2.32,4.23,4.55v4.16c0,.97.05,1.91.18,2.67h-1.84ZM223.31,345.46c-2.21-.05-4.71.34-4.71,2.51,0,1.31.87,1.93,1.91,1.93,1.45,0,2.37-.92,2.69-1.86.07-.21.11-.44.11-.64v-1.93Z"/>
    <path d="M229.47,340.01l1.59,2.39c.41.62.76,1.2,1.13,1.82h.07c.37-.67.74-1.24,1.1-1.84l1.56-2.37h2.18l-3.79,5.38,3.91,5.75h-2.3l-1.63-2.51c-.44-.64-.8-1.26-1.2-1.93h-.05c-.37.67-.76,1.27-1.17,1.93l-1.61,2.51h-2.23l3.96-5.68-3.77-5.45h2.25Z"/>
    <path d="M248.93,345.49c0,4.12-2.85,5.91-5.54,5.91-3.01,0-5.33-2.21-5.33-5.73,0-3.73,2.44-5.91,5.52-5.91s5.36,2.32,5.36,5.73ZM240.1,345.6c0,2.44,1.4,4.28,3.38,4.28s3.38-1.82,3.38-4.32c0-1.89-.94-4.28-3.33-4.28s-3.43,2.21-3.43,4.32Z"/>
    <path d="M259.95,340.01v9.61l1.15.02-.11,5.04h-1.59l-.09-3.54h-7.7l-.09,3.54h-1.59l-.09-5.04.94-.02c.48-.71.85-1.47,1.1-2.28.44-1.38.64-2.88.64-4.44v-2.9h7.43ZM254.31,343.39c0,1.47-.21,2.9-.57,4.14-.23.76-.55,1.45-.9,2.07h5.13v-8.05h-3.66v1.84Z"/>
    <path d="M265.38,340.01v4.69c0,1.77-.02,2.87-.12,4.46l.07.02c.67-1.36,1.06-2.14,1.79-3.43l3.47-5.75h2.37v11.13h-1.93v-4.71c0-1.82.04-2.76.14-4.55h-.07c-.71,1.43-1.2,2.32-1.84,3.45-1.06,1.72-2.28,3.86-3.47,5.82h-2.32v-11.13h1.91Z"/>
    <path d="M283.71,340.01v1.61h-3.47v9.52h-2v-9.52h-3.47v-1.61h8.95Z"/>
    <path d="M293.12,350.73c-.53.28-1.7.64-3.2.64-3.36,0-5.54-2.28-5.54-5.68s2.35-5.91,5.98-5.91c1.2,0,2.25.3,2.8.58l-.46,1.56c-.48-.28-1.24-.53-2.35-.53-2.55,0-3.93,1.89-3.93,4.21,0,2.58,1.66,4.16,3.86,4.16,1.15,0,1.91-.3,2.48-.55l.35,1.52Z"/>
    <path d="M303.81,351.14h-2v-4.67h-1.49c-.85,0-1.43.23-1.86.62-.83.67-1.13,2.05-1.56,3.13-.14.34-.3.64-.46.92h-2.16c.25-.37.48-.78.69-1.26.48-1.08.76-2.53,1.75-3.36.35-.3.76-.55,1.27-.64v-.07c-1.45-.16-2.94-1.06-2.94-2.76,0-1.15.62-1.93,1.47-2.41.92-.53,2.28-.76,3.73-.76,1.33,0,2.62.12,3.59.23v11.04ZM301.81,341.35c-.51-.07-.97-.12-1.68-.12-1.38,0-3.01.39-3.01,1.93,0,1.43,1.77,1.93,2.97,1.93h1.72v-3.75Z"/>
    <path d="M311.93,340.15c.78-.14,2.23-.25,3.54-.25,1.86,0,4.94.3,4.94,2.78,0,1.38-1.06,2.23-2.32,2.51v.05c1.63.23,2.83,1.15,2.83,2.76,0,2.92-3.68,3.29-5.86,3.29-1.24,0-2.53-.09-3.13-.14v-10.99ZM313.84,349.81c.57.07.99.09,1.63.09,1.36,0,3.38-.32,3.38-1.93s-1.61-1.96-3.54-1.96h-1.47v3.79ZM313.86,344.68h1.52c1.49,0,3.04-.44,3.04-1.75,0-1.1-.97-1.63-2.99-1.63-.67,0-1.08.05-1.56.09v3.29Z"/>
    <path d="M325.34,340.01v4.69c0,1.77-.02,2.87-.12,4.46l.07.02c.67-1.36,1.06-2.14,1.79-3.43l3.47-5.75h2.37v11.13h-1.93v-4.71c0-1.82.05-2.76.14-4.55h-.07c-.71,1.43-1.2,2.32-1.84,3.45-1.06,1.72-2.28,3.86-3.47,5.82h-2.32v-11.13h1.91Z"/>
    <path d="M338.17,340.01v4.48h5.29v-4.48h2v11.13h-2v-5.04h-5.29v5.04h-2v-11.13h2Z"/>
    <path d="M358.85,345.49c0,4.12-2.85,5.91-5.54,5.91-3.01,0-5.33-2.21-5.33-5.73,0-3.73,2.44-5.91,5.52-5.91s5.36,2.32,5.36,5.73ZM350.02,345.6c0,2.44,1.4,4.28,3.38,4.28s3.38-1.82,3.38-4.32c0-1.89-.94-4.28-3.33-4.28s-3.43,2.21-3.43,4.32Z"/>
    <path d="M360.09,353.97c.51-1.36,1.13-3.82,1.38-5.5l2.25-.23c-.53,1.96-1.54,4.51-2.19,5.59l-1.45.14Z"/>
    <path d="M70.27,373.09c0,4.12-2.85,5.91-5.54,5.91-3.01,0-5.33-2.21-5.33-5.73,0-3.73,2.44-5.91,5.52-5.91s5.36,2.32,5.36,5.73ZM61.44,373.2c0,2.44,1.4,4.28,3.38,4.28s3.38-1.82,3.38-4.32c0-1.89-.94-4.28-3.33-4.28s-3.43,2.21-3.43,4.32Z"/>
    <path d="M79.7,367.61v4.83h.48l4.19-4.83h2.46l-4.85,5.04c1.79.18,2.87,1.38,3.75,3.38.3.74.69,1.82,1.2,2.71h-2.12c-.3-.48-.69-1.36-1.03-2.28-.76-1.79-1.79-2.62-3.68-2.62h-.39v4.9h-2v-11.13h2Z"/>
    <path d="M98.65,373.09c0,4.12-2.85,5.91-5.54,5.91-3.01,0-5.33-2.21-5.33-5.73,0-3.73,2.44-5.91,5.52-5.91s5.36,2.32,5.36,5.73ZM89.82,373.2c0,2.44,1.4,4.28,3.38,4.28s3.38-1.82,3.38-4.32c0-1.89-.94-4.28-3.33-4.28s-3.43,2.21-3.43,4.32Z"/>
    <path d="M108.54,367.61v1.61h-3.47v9.52h-2v-9.52h-3.47v-1.61h8.94Z"/>
    <path d="M120.09,373.09c0,4.12-2.85,5.91-5.54,5.91-3.01,0-5.33-2.21-5.33-5.73,0-3.73,2.44-5.91,5.52-5.91s5.36,2.32,5.36,5.73ZM111.26,373.2c0,2.44,1.4,4.28,3.38,4.28s3.38-1.82,3.38-4.32c0-1.89-.94-4.28-3.33-4.28s-3.43,2.21-3.43,4.32Z"/>
    <path d="M122.64,371.25c0-1.43-.05-2.58-.09-3.63h1.82l.09,1.91h.05c.83-1.36,2.14-2.16,3.96-2.16,2.69,0,4.71,2.28,4.71,5.66,0,4-2.44,5.98-5.06,5.98-1.47,0-2.76-.64-3.43-1.75h-.05v6.05h-2v-12.05ZM124.64,374.21c0,.3.05.58.09.83.37,1.4,1.59,2.37,3.04,2.37,2.14,0,3.38-1.75,3.38-4.3,0-2.23-1.17-4.14-3.31-4.14-1.38,0-2.67.99-3.06,2.51-.07.25-.14.55-.14.83v1.91Z"/>
    <path d="M145.8,373.09c0,4.12-2.85,5.91-5.54,5.91-3.01,0-5.33-2.21-5.33-5.73,0-3.73,2.44-5.91,5.52-5.91s5.36,2.32,5.36,5.73ZM136.97,373.2c0,2.44,1.4,4.28,3.38,4.28s3.38-1.82,3.38-4.32c0-1.89-.94-4.28-3.33-4.28s-3.43,2.21-3.43,4.32Z"/>
    <path d="M148.47,367.61h2.48l2.02,5.61c.28.83.76,2.18,1.01,3.06h.05c.25-.83.87-2.6,1.31-3.82l1.79-4.85h2.51l.78,11.13h-1.93l-.25-5.31c-.07-1.2-.16-2.62-.21-3.98h-.07c-.3,1.01-.6,1.91-1.22,3.61l-2.14,5.61h-1.47l-1.98-5.5c-.35-1.06-.83-2.67-1.1-3.7h-.09c-.05,1.31-.12,2.78-.18,4l-.28,5.27h-1.86l.83-11.13Z"/>
    <path d="M167.88,367.75c.78-.14,2.23-.25,3.54-.25,1.86,0,4.94.3,4.94,2.78,0,1.38-1.06,2.23-2.32,2.51v.05c1.63.23,2.83,1.15,2.83,2.76,0,2.92-3.68,3.29-5.86,3.29-1.24,0-2.53-.09-3.13-.14v-10.99ZM169.79,377.41c.58.07.99.09,1.63.09,1.36,0,3.38-.32,3.38-1.93s-1.61-1.96-3.54-1.96h-1.47v3.79ZM169.81,372.28h1.52c1.49,0,3.04-.44,3.04-1.75,0-1.1-.97-1.63-2.99-1.63-.67,0-1.08.05-1.56.09v3.29Z"/>
    <path d="M187.36,378.33c-.53.28-1.7.64-3.2.64-3.36,0-5.54-2.28-5.54-5.68s2.35-5.91,5.98-5.91c1.2,0,2.25.3,2.81.58l-.46,1.56c-.48-.28-1.24-.53-2.35-.53-2.55,0-3.93,1.89-3.93,4.21,0,2.58,1.66,4.16,3.86,4.16,1.15,0,1.91-.3,2.48-.55l.35,1.52Z"/>
    <path d="M190.72,373.55c.05,2.74,1.79,3.86,3.82,3.86,1.45,0,2.32-.25,3.08-.57l.34,1.45c-.71.32-1.93.69-3.7.69-3.43,0-5.47-2.25-5.47-5.61s1.98-6,5.22-6c3.63,0,4.6,3.2,4.6,5.24,0,.41-.05.74-.07.94h-7.82ZM196.65,372.1c.02-1.29-.53-3.29-2.81-3.29-2.05,0-2.94,1.89-3.1,3.29h5.91Z"/>
    <path d="M212.78,367.61v1.63h-4.83v9.5h-2v-11.13h6.83Z"/>
    <path d="M224.46,373.09c0,4.12-2.85,5.91-5.54,5.91-3.01,0-5.33-2.21-5.33-5.73,0-3.73,2.44-5.91,5.52-5.91s5.36,2.32,5.36,5.73ZM215.63,373.2c0,2.44,1.4,4.28,3.38,4.28s3.38-1.82,3.38-4.32c0-1.89-.94-4.28-3.33-4.28s-3.43,2.21-3.43,4.32Z"/>
    <path d="M226.97,367.75c.78-.14,2.23-.25,3.54-.25,1.86,0,4.94.3,4.94,2.78,0,1.38-1.06,2.23-2.32,2.51v.05c1.63.23,2.83,1.15,2.83,2.76,0,2.92-3.68,3.29-5.86,3.29-1.24,0-2.53-.09-3.13-.14v-10.99ZM228.88,377.41c.58.07.99.09,1.63.09,1.36,0,3.38-.32,3.38-1.93s-1.61-1.96-3.54-1.96h-1.47v3.79ZM228.9,372.28h1.52c1.49,0,3.04-.44,3.04-1.75,0-1.1-.97-1.63-2.99-1.63-.67,0-1.08.05-1.56.09v3.29Z"/>
    <path d="M248.59,373.09c0,4.12-2.85,5.91-5.54,5.91-3.01,0-5.33-2.21-5.33-5.73,0-3.73,2.44-5.91,5.52-5.91s5.36,2.32,5.36,5.73ZM239.76,373.2c0,2.44,1.4,4.28,3.38,4.28s3.38-1.82,3.38-4.32c0-1.89-.94-4.28-3.33-4.28s-3.43,2.21-3.43,4.32Z"/>
    <path d="M251.14,371.25c0-1.43-.05-2.58-.09-3.63h1.82l.09,1.91h.05c.83-1.36,2.14-2.16,3.96-2.16,2.69,0,4.71,2.28,4.71,5.66,0,4-2.44,5.98-5.06,5.98-1.47,0-2.76-.64-3.43-1.75h-.05v6.05h-2v-12.05ZM253.14,374.21c0,.3.05.58.09.83.37,1.4,1.59,2.37,3.04,2.37,2.14,0,3.38-1.75,3.38-4.3,0-2.23-1.17-4.14-3.31-4.14-1.38,0-2.67.99-3.06,2.51-.07.25-.14.55-.14.83v1.91Z"/>
    <path d="M272.35,378.74h-2v-4.67h-1.49c-.85,0-1.43.23-1.86.62-.83.67-1.13,2.05-1.56,3.13-.14.34-.3.64-.46.92h-2.16c.25-.37.48-.78.69-1.26.48-1.08.76-2.53,1.75-3.36.35-.3.76-.55,1.27-.64v-.07c-1.45-.16-2.94-1.06-2.94-2.76,0-1.15.62-1.93,1.47-2.41.92-.53,2.28-.76,3.73-.76,1.33,0,2.62.12,3.59.23v11.04ZM270.35,368.95c-.51-.07-.97-.12-1.68-.12-1.38,0-3.01.39-3.01,1.93,0,1.43,1.77,1.93,2.97,1.93h1.72v-3.75Z"/>
    <path d="M283.09,367.61v1.61h-3.47v9.52h-2v-9.52h-3.47v-1.61h8.95Z"/>
    <path d="M282.79,377.55c0-.85.58-1.45,1.38-1.45s1.36.6,1.36,1.45-.53,1.45-1.38,1.45c-.8,0-1.36-.62-1.36-1.45Z"/>
    <path d="M294.86,363.24v6.53c0,2.46-.04,4.48-.18,6.55l.05.02c.78-1.61,1.75-3.29,2.87-5.13l5.01-7.98h2v15.5h-1.88v-6.6c0-2.51.02-4.35.18-6.3l-.07-.02c-.76,1.7-1.82,3.5-2.88,5.22l-4.85,7.7h-2.14v-15.5h1.88Z"/>
    <path d="M312.87,367.75c.78-.14,2.23-.25,3.54-.25,1.86,0,4.94.3,4.94,2.78,0,1.38-1.06,2.23-2.32,2.51v.05c1.63.23,2.83,1.15,2.83,2.76,0,2.92-3.68,3.29-5.86,3.29-1.24,0-2.53-.09-3.13-.14v-10.99ZM314.78,377.41c.57.07.99.09,1.63.09,1.36,0,3.38-.32,3.38-1.93s-1.61-1.96-3.54-1.96h-1.47v3.79ZM314.8,372.28h1.52c1.49,0,3.04-.44,3.04-1.75,0-1.1-.97-1.63-2.99-1.63-.67,0-1.08.05-1.56.09v3.29Z"/>
    <path d="M330.58,378.74l-.16-1.4h-.07c-.62.87-1.82,1.66-3.4,1.66-2.25,0-3.4-1.59-3.4-3.2,0-2.69,2.39-4.16,6.69-4.14v-.23c0-.92-.25-2.58-2.53-2.58-1.04,0-2.12.32-2.9.83l-.46-1.33c.92-.6,2.25-.99,3.66-.99,3.4,0,4.23,2.32,4.23,4.55v4.16c0,.97.05,1.91.18,2.67h-1.84ZM330.28,373.06c-2.21-.05-4.71.34-4.71,2.51,0,1.31.87,1.93,1.91,1.93,1.45,0,2.37-.92,2.69-1.86.07-.21.11-.44.11-.64v-1.93Z"/>
    <path d="M335.62,367.61h2.48l2.02,5.61c.28.83.76,2.18,1.01,3.06h.04c.25-.83.88-2.6,1.31-3.82l1.79-4.85h2.51l.78,11.13h-1.93l-.25-5.31c-.07-1.2-.16-2.62-.21-3.98h-.07c-.3,1.01-.6,1.91-1.22,3.61l-2.14,5.61h-1.47l-1.98-5.5c-.35-1.06-.83-2.67-1.11-3.7h-.09c-.04,1.31-.12,2.78-.18,4l-.28,5.27h-1.86l.83-11.13Z"/>
    <path d="M348.89,381.57c.51-1.36,1.13-3.82,1.38-5.5l2.25-.23c-.53,1.96-1.54,4.51-2.18,5.59l-1.45.14Z"/>
    <path d="M367.77,378.33c-.53.28-1.7.64-3.2.64-3.36,0-5.54-2.28-5.54-5.68s2.35-5.91,5.98-5.91c1.2,0,2.25.3,2.81.58l-.46,1.56c-.48-.28-1.24-.53-2.35-.53-2.55,0-3.93,1.89-3.93,4.21,0,2.58,1.66,4.16,3.86,4.16,1.15,0,1.91-.3,2.48-.55l.35,1.52Z"/>
    <path d="M372.14,367.61v4.83h.48l4.19-4.83h2.46l-4.85,5.04c1.79.18,2.87,1.38,3.75,3.38.3.74.69,1.82,1.2,2.71h-2.12c-.3-.48-.69-1.36-1.04-2.28-.76-1.79-1.79-2.62-3.68-2.62h-.39v4.9h-2v-11.13h2Z"/>
    <path d="M387.55,378.74l-.16-1.4h-.07c-.62.87-1.82,1.66-3.4,1.66-2.25,0-3.4-1.59-3.4-3.2,0-2.69,2.39-4.16,6.69-4.14v-.23c0-.92-.25-2.58-2.53-2.58-1.03,0-2.12.32-2.9.83l-.46-1.33c.92-.6,2.25-.99,3.66-.99,3.4,0,4.23,2.32,4.23,4.55v4.16c0,.97.04,1.91.18,2.67h-1.84ZM387.25,373.06c-2.21-.05-4.71.34-4.71,2.51,0,1.31.88,1.93,1.91,1.93,1.45,0,2.37-.92,2.69-1.86.07-.21.12-.44.12-.64v-1.93Z"/>
    <path d="M393.42,367.61l3.68,4.85h.41v-4.85h1.93v4.85h.39l3.68-4.85h2.32l-4.39,5.06c1.68.18,2.67,1.17,3.34,2.94.39,1.08.76,2.25,1.22,3.13h-2.02c-.37-.67-.69-1.59-1.01-2.55-.69-1.82-1.72-2.37-3.17-2.37h-.35v4.92h-1.93v-4.92h-.37c-1.56,0-2.51.58-3.2,2.39-.37.97-.67,1.84-1.06,2.53h-1.96c.46-.9.83-2.07,1.22-3.1.69-1.79,1.68-2.78,3.36-2.97l-4.42-5.06h2.32Z"/>
    <path d="M408.71,367.61l2.44,6.58c.25.74.53,1.61.71,2.28h.05c.21-.67.44-1.52.71-2.32l2.21-6.53h2.14l-3.04,7.93c-1.45,3.82-2.44,5.77-3.82,6.97-.99.87-1.98,1.22-2.48,1.31l-.51-1.7c.51-.16,1.17-.48,1.77-.99.55-.44,1.24-1.22,1.7-2.25.09-.21.16-.37.16-.48s-.04-.28-.14-.53l-4.12-10.26h2.21Z"/>
    <path d="M431.8,378.74h-2v-4.67h-1.49c-.85,0-1.43.23-1.86.62-.83.67-1.13,2.05-1.56,3.13-.14.34-.3.64-.46.92h-2.16c.25-.37.48-.78.69-1.26.48-1.08.76-2.53,1.75-3.36.35-.3.76-.55,1.27-.64v-.07c-1.45-.16-2.94-1.06-2.94-2.76,0-1.15.62-1.93,1.47-2.41.92-.53,2.28-.76,3.73-.76,1.33,0,2.62.12,3.59.23v11.04ZM429.8,368.95c-.51-.07-.97-.12-1.68-.12-1.38,0-3.01.39-3.01,1.93,0,1.43,1.77,1.93,2.97,1.93h1.72v-3.75Z"/>
    <path d="M433.78,381.57c.51-1.36,1.13-3.82,1.38-5.5l2.25-.23c-.53,1.96-1.54,4.51-2.18,5.59l-1.45.14Z"/>
    <path d="M70.27,400.69c0,4.12-2.85,5.91-5.54,5.91-3.01,0-5.33-2.21-5.33-5.73,0-3.73,2.44-5.91,5.52-5.91s5.36,2.32,5.36,5.73ZM61.44,400.8c0,2.44,1.4,4.28,3.38,4.28s3.38-1.82,3.38-4.32c0-1.89-.94-4.28-3.33-4.28s-3.43,2.21-3.43,4.32Z"/>
    <path d="M74.43,395.21v3.66c0,1.4.53,2.37,2.3,2.37.87,0,1.77-.32,2.39-.78v-5.24h2v11.13h-2v-4.46h-.05c-.76.51-1.95.85-3.01.85-2.12,0-3.66-1.08-3.66-3.63v-3.89h2.02Z"/>
    <path d="M85.57,401.15c.05,2.74,1.79,3.86,3.82,3.86,1.45,0,2.32-.25,3.08-.57l.34,1.45c-.71.32-1.93.69-3.7.69-3.43,0-5.47-2.25-5.47-5.61s1.98-6,5.22-6c3.63,0,4.6,3.2,4.6,5.24,0,.41-.05.74-.07.94h-7.82ZM91.5,399.7c.02-1.29-.53-3.29-2.81-3.29-2.05,0-2.94,1.89-3.1,3.29h5.91Z"/>
    <path d="M97.92,395.21v4.48h5.29v-4.48h2v11.13h-2v-5.04h-5.29v5.04h-2v-11.13h2Z"/>
    <path d="M110.48,395.21v3.77c.46-.09,1.24-.12,1.84-.12,2.51,0,5.15.78,5.15,3.75,0,1.15-.46,1.96-1.17,2.55-1.22,1.04-3.2,1.29-4.83,1.29-1.13,0-2.16-.07-2.99-.16v-11.08h2ZM110.48,404.94c.39.05.83.09,1.49.09,1.52,0,3.47-.51,3.47-2.37s-2.02-2.34-3.52-2.34c-.53,0-.99.05-1.45.11v4.51Z"/>
    <path d="M134,395.21v11.13h-2.02v-9.52h-5.17v9.52h-2v-11.13h9.2Z"/>
    <path d="M147.36,400.69c0,4.12-2.85,5.91-5.54,5.91-3.01,0-5.33-2.21-5.33-5.73,0-3.73,2.44-5.91,5.52-5.91s5.36,2.32,5.36,5.73ZM138.53,400.8c0,2.44,1.4,4.28,3.38,4.28s3.38-1.82,3.38-4.32c0-1.89-.94-4.28-3.33-4.28s-3.43,2.21-3.43,4.32Z"/>
    <path d="M149.87,395.35c.78-.14,2.23-.25,3.54-.25,1.86,0,4.94.3,4.94,2.78,0,1.38-1.06,2.23-2.32,2.51v.05c1.63.23,2.83,1.15,2.83,2.76,0,2.92-3.68,3.29-5.86,3.29-1.24,0-2.53-.09-3.13-.14v-10.99ZM151.78,405.01c.58.07.99.09,1.63.09,1.36,0,3.38-.32,3.38-1.93s-1.61-1.96-3.54-1.96h-1.47v3.79ZM151.81,399.88h1.52c1.49,0,3.04-.44,3.04-1.75,0-1.1-.97-1.63-2.99-1.63-.67,0-1.08.05-1.56.09v3.29Z"/>
    <path d="M162.55,401.15c.05,2.74,1.79,3.86,3.82,3.86,1.45,0,2.32-.25,3.08-.57l.34,1.45c-.71.32-1.93.69-3.7.69-3.43,0-5.47-2.25-5.47-5.61s1.98-6,5.22-6c3.63,0,4.6,3.2,4.6,5.24,0,.41-.05.74-.07.94h-7.82ZM168.48,399.7c.02-1.29-.53-3.29-2.81-3.29-2.05,0-2.94,1.89-3.1,3.29h5.91Z"/>
    <path d="M173.93,399.88h.97c1.7,0,2.85-.78,2.85-1.82s-.9-1.61-2.16-1.61c-.9,0-1.91.3-2.69.78l-.51-1.24c1.13-.69,2.42-1.01,3.7-1.01,1.7,0,3.77.76,3.77,2.92,0,1.38-1.26,2.28-2.51,2.53v.05c1.66.14,3.04,1.15,3.04,2.78,0,2.41-2.46,3.31-4.81,3.31-1.31,0-2.62-.34-3.61-.9l.53-1.36c.8.44,1.89.76,2.94.76,1.68,0,2.74-.8,2.74-1.91,0-1.5-1.56-1.91-3.24-1.91h-1.01v-1.38Z"/>
    <path d="M191.43,395.21v11.13h-2v-9.54h-3.82v2.9c0,3.13-.3,5.22-1.75,6.16-.55.44-1.17.69-2.21.69l-.21-1.59c.39-.07.83-.23,1.1-.46,1.04-.76,1.15-2.32,1.15-4.81v-4.48h7.73Z"/>
    <path d="M204.82,400.69c0,4.12-2.85,5.91-5.54,5.91-3.01,0-5.33-2.21-5.33-5.73,0-3.73,2.44-5.91,5.52-5.91s5.36,2.32,5.36,5.73ZM195.99,400.8c0,2.44,1.4,4.28,3.38,4.28s3.38-1.82,3.38-4.32c0-1.89-.94-4.28-3.33-4.28s-3.43,2.21-3.43,4.32Z"/>
    <path d="M206.06,409.17c.51-1.36,1.13-3.82,1.38-5.5l2.25-.23c-.53,1.96-1.54,4.51-2.18,5.59l-1.45.14Z"/>
    <path d="M216.96,395.35c.78-.14,2.23-.25,3.54-.25,1.86,0,4.94.3,4.94,2.78,0,1.38-1.06,2.23-2.32,2.51v.05c1.63.23,2.83,1.15,2.83,2.76,0,2.92-3.68,3.29-5.86,3.29-1.24,0-2.53-.09-3.13-.14v-10.99ZM218.87,405.01c.58.07.99.09,1.63.09,1.36,0,3.38-.32,3.38-1.93s-1.61-1.96-3.54-1.96h-1.47v3.79ZM218.89,399.88h1.52c1.49,0,3.04-.44,3.04-1.75,0-1.1-.97-1.63-2.99-1.63-.67,0-1.08.05-1.56.09v3.29Z"/>
    <path d="M230.46,395.21v3.79c.44-.09,1.08-.14,1.82-.14,2.39,0,4.81.99,4.81,3.73,0,1.17-.44,1.98-1.15,2.58-1.22,1.04-3.01,1.29-4.48,1.29-1.13,0-2.16-.07-2.99-.16v-11.08h2ZM230.46,404.94c.39.05.83.09,1.4.09,1.54,0,3.22-.64,3.22-2.37s-1.61-2.34-3.13-2.34c-.58,0-1.08.05-1.5.11v4.51ZM240.49,395.21v11.13h-2v-11.13h2Z"/>
    <path d="M256.61,405.93c-.53.28-1.7.64-3.2.64-3.36,0-5.54-2.28-5.54-5.68s2.35-5.91,5.98-5.91c1.2,0,2.25.3,2.8.58l-.46,1.56c-.48-.28-1.24-.53-2.35-.53-2.55,0-3.93,1.89-3.93,4.21,0,2.58,1.66,4.16,3.86,4.16,1.15,0,1.91-.3,2.48-.55l.35,1.52Z"/>
    <path d="M268.92,400.69c0,4.12-2.85,5.91-5.54,5.91-3.01,0-5.33-2.21-5.33-5.73,0-3.73,2.44-5.91,5.52-5.91s5.36,2.32,5.36,5.73ZM260.09,400.8c0,2.44,1.4,4.28,3.38,4.28s3.38-1.82,3.38-4.32c0-1.89-.94-4.28-3.33-4.28s-3.43,2.21-3.43,4.32Z"/>
    <path d="M271.43,395.35c.78-.14,2.23-.25,3.54-.25,1.86,0,4.95.3,4.95,2.78,0,1.38-1.06,2.23-2.32,2.51v.05c1.63.23,2.83,1.15,2.83,2.76,0,2.92-3.68,3.29-5.87,3.29-1.24,0-2.53-.09-3.13-.14v-10.99ZM273.33,405.01c.58.07.99.09,1.63.09,1.36,0,3.38-.32,3.38-1.93s-1.61-1.96-3.54-1.96h-1.47v3.79ZM273.36,399.88h1.52c1.49,0,3.04-.44,3.04-1.75,0-1.1-.96-1.63-2.99-1.63-.67,0-1.08.05-1.56.09v3.29Z"/>
    <path d="M290.91,405.93c-.53.28-1.7.64-3.2.64-3.36,0-5.54-2.28-5.54-5.68s2.35-5.91,5.98-5.91c1.2,0,2.25.3,2.8.58l-.46,1.56c-.48-.28-1.24-.53-2.35-.53-2.55,0-3.93,1.89-3.93,4.21,0,2.58,1.66,4.16,3.86,4.16,1.15,0,1.91-.3,2.48-.55l.35,1.52Z"/>
    <path d="M294.27,401.15c.04,2.74,1.79,3.86,3.82,3.86,1.45,0,2.32-.25,3.08-.57l.34,1.45c-.71.32-1.93.69-3.7.69-3.43,0-5.47-2.25-5.47-5.61s1.98-6,5.22-6c3.63,0,4.6,3.2,4.6,5.24,0,.41-.05.74-.07.94h-7.82ZM300.2,399.7c.02-1.29-.53-3.29-2.8-3.29-2.05,0-2.94,1.89-3.11,3.29h5.91Z"/>
    <path d="M304.78,395.21h2.48l2.02,5.61c.28.83.76,2.18,1.01,3.06h.05c.25-.83.87-2.6,1.31-3.82l1.79-4.85h2.51l.78,11.13h-1.93l-.25-5.31c-.07-1.2-.16-2.62-.21-3.98h-.07c-.3,1.01-.6,1.91-1.22,3.61l-2.14,5.61h-1.47l-1.98-5.5c-.35-1.06-.83-2.67-1.1-3.7h-.09c-.05,1.31-.12,2.78-.18,4l-.28,5.27h-1.86l.83-11.13Z"/>
    <path d="M324.23,398.85c0-1.43-.05-2.58-.09-3.63h1.82l.09,1.91h.04c.83-1.36,2.14-2.16,3.96-2.16,2.69,0,4.71,2.28,4.71,5.66,0,4-2.44,5.98-5.06,5.98-1.47,0-2.76-.64-3.43-1.75h-.05v6.05h-2v-12.05ZM326.23,401.81c0,.3.05.58.09.83.37,1.4,1.59,2.37,3.04,2.37,2.14,0,3.38-1.75,3.38-4.3,0-2.23-1.17-4.14-3.31-4.14-1.38,0-2.67.99-3.06,2.51-.07.25-.14.55-.14.83v1.91Z"/>
    <path d="M345.44,406.34h-2v-4.67h-1.49c-.85,0-1.43.23-1.86.62-.83.67-1.13,2.05-1.56,3.13-.14.34-.3.64-.46.92h-2.16c.25-.37.48-.78.69-1.26.48-1.08.76-2.53,1.75-3.36.35-.3.76-.55,1.27-.64v-.07c-1.45-.16-2.94-1.06-2.94-2.76,0-1.15.62-1.93,1.47-2.42.92-.53,2.28-.76,3.73-.76,1.33,0,2.62.12,3.59.23v11.04ZM343.44,396.55c-.51-.07-.97-.12-1.68-.12-1.38,0-3.01.39-3.01,1.93,0,1.43,1.77,1.93,2.97,1.93h1.72v-3.75Z"/>
    <path d="M357.35,395.21v9.61l1.15.02-.11,5.04h-1.59l-.09-3.54h-7.7l-.09,3.54h-1.59l-.09-5.04.94-.02c.48-.71.85-1.47,1.1-2.28.44-1.38.64-2.88.64-4.44v-2.9h7.43ZM351.72,398.59c0,1.47-.21,2.9-.57,4.14-.23.76-.55,1.45-.9,2.07h5.13v-8.05h-3.66v1.84Z"/>
    <path d="M370.9,400.69c0,4.12-2.85,5.91-5.54,5.91-3.01,0-5.34-2.21-5.34-5.73,0-3.73,2.44-5.91,5.52-5.91s5.36,2.32,5.36,5.73ZM362.07,400.8c0,2.44,1.4,4.28,3.38,4.28s3.38-1.82,3.38-4.32c0-1.89-.94-4.28-3.33-4.28s-3.43,2.21-3.43,4.32Z"/>
    <path d="M373.57,395.21h2.48l2.02,5.61c.28.83.76,2.18,1.01,3.06h.04c.25-.83.88-2.6,1.31-3.82l1.79-4.85h2.51l.78,11.13h-1.93l-.25-5.31c-.07-1.2-.16-2.62-.21-3.98h-.07c-.3,1.01-.6,1.91-1.22,3.61l-2.14,5.61h-1.47l-1.98-5.5c-.35-1.06-.83-2.67-1.11-3.7h-.09c-.04,1.31-.12,2.78-.18,4l-.28,5.27h-1.86l.83-11.13Z"/>
    <path d="M387.76,405.17c0-.83.57-1.43,1.36-1.43.83,0,1.36.6,1.36,1.43s-.53,1.43-1.36,1.43-1.36-.62-1.36-1.43ZM388.33,401.88l-.32-11.04h2.21l-.32,11.04h-1.56Z"/>
  </g>
</svg>