<svg xmlns="http://www.w3.org/2000/svg" viewBox="0 0 24 24">
  <path d="M5.0292969 3.0097656C3.8992969 3.0097656 2.9592969 3.9500781 3.0292969 5.0800781C3.2942969 9.3490781 5.1336562 13.188344 7.9726562 16.027344C10.811656 18.866344 14.650922 20.705703 18.919922 20.970703C20.049922 21.040703 20.990234 20.100703 20.990234 18.970703L20.990234 17.240234C20.990234 16.220234 20.230703 15.37 19.220703 15.25L16.699219 14.960938C16.089219 14.890937 15.490547 15.099297 15.060547 15.529297L13.210938 17.380859C11.791937 16.660859 10.504578 15.720422 9.3925781 14.607422C8.2795781 13.495422 7.3391406 12.208063 6.6191406 10.789062L8.4707031 8.9394531C8.9007031 8.5094531 9.1090625 7.9107813 9.0390625 7.3007812L8.75 4.7792969C8.63 3.7692969 7.7797656 3.0097656 6.7597656 3.0097656L5.0292969 3.0097656 z M 13.078125 3.0625C12.505125 2.9955 12 3.4464844 12 4.0214844L12 4.1054688C12 4.5814687 12.349266 4.9938281 12.822266 5.0488281C14.549266 5.2508281 16.085359 6.0806875 17.193359 7.3046875C18.135359 8.3466875 18.769219 9.673625 18.949219 11.140625C19.009219 11.633625 19.433641 12 19.931641 12L19.933594 12C20.533594 12 21.007594 11.473906 20.933594 10.878906C20.425594 6.7899062 17.173125 3.5505 13.078125 3.0625 z M 12.972656 7.1152344C12.452893 7.1114473 12 7.530375 12 8.078125L12 8.1601562C12 8.6181563 12.329484 8.9835625 12.771484 9.1015625C13.264484 9.2325625 13.707406 9.4851719 14.066406 9.8261719C14.456406 10.197172 14.748531 10.672031 14.894531 11.207031C15.019531 11.662031 15.397141 12 15.869141 12C16.522141 12 17.004797 11.382 16.841797 10.75C16.384797 8.976 14.979266 7.5835312 13.197266 7.1445312C13.121391 7.1259062 13.046908 7.1157754 12.972656 7.1152344 z" />
</svg>