<svg xmlns="http://www.w3.org/2000/svg" viewBox="0 0 449.08 467.93"><path d="M206.2,.03c-4.31-.4-8.32,2.72-8.8,7.11l-1.69,15.91c-.46,4.39,2.72,8.34,7.11,8.81,.29,.02,.57,.03,.86,.03,4.04,0,7.5-3.06,7.94-7.16l1.69-15.91c.46-4.39-2.72-8.32-7.11-8.8Zm-45.27,9.16c-1.03,.13-2.06,.45-3.02,1-3.83,2.2-5.15,7.09-2.95,10.92l7.97,13.88c1.48,2.58,4.16,4.02,6.94,4.02,1.35,0,2.73-.34,3.98-1.06,3.83-2.2,5.15-7.09,2.95-10.92l-7.97-13.88c-1.65-2.87-4.81-4.33-7.91-3.95Zm84.58,8.8c-2.04,.11-4.04,1.01-5.52,2.66l-10.69,11.91c-2.95,3.29-2.68,8.34,.61,11.3,1.52,1.38,3.44,2.05,5.34,2.05,2.19,0,4.37-.9,5.95-2.66l10.69-11.91c2.95-3.29,2.68-8.34-.61-11.3-1.65-1.48-3.74-2.16-5.78-2.05Zm82.08,26.84c-1.02,.09-2.03,.27-3.05,.56l-123.84,35.97c-1.22,.35-2.33,.88-3.39,1.48v-3.45c.33-8.43-5.99-15.69-14.39-16.53L54.6,49.99c-8.4-.8-16.03,5.03-17.34,13.06L5.56,221.18c-.06,.27-.09,.53-.11,.8-4.34,44.42,22.52,84.81,62.61,99.58l-8.42,83.97-25.33,1.66c-17.76,.19-32.49,13.66-34.27,31.33-.22,2.1,.42,4.22,1.77,5.86,1.34,1.64,3.28,2.68,5.39,2.89l143.28,14.38c.27,.03,.55,.03,.81,.03,4.06,0,7.54-3.08,7.95-7.2,1.78-17.67-9.99-33.79-26.94-37.41l-24.92-6.75,8.42-83.94c42.22-6.52,76.57-40.78,81.14-85.17,.02-.27,.03-.54,.03-.81l.2-99.3,21.94,117.39c.04,.27,.09,.54,.17,.8,12.28,41.88,50.79,69.14,92.42,69.14,.94,0,1.89-.07,2.83-.09l23.53,80.97-22.88,11c-16.41,6.81-25.03,24.8-20.08,41.86,.6,2.04,1.97,3.76,3.83,4.78,1.19,.66,2.52,1,3.86,1,.75,0,1.49-.11,2.2-.33l138.3-40.17c4.25-1.23,6.69-5.67,5.45-9.91-4.96-17.06-21.8-27.63-38.95-24.66l-25.64,3.03-23.55-81.03c36.75-21.8,55.85-66.38,43.52-109.28-.08-.26-.16-.52-.27-.77l-59.81-149.45c-2.48-6.95-9.36-11.16-16.47-10.53Zm1.52,16.22l23.78,59.42-52.59,15.28c-4.25,1.23-6.69,5.67-5.45,9.91,1.02,3.5,4.22,5.78,7.69,5.78,.74,0,1.47-.11,2.22-.33l53.78-15.61c.11-.03,.19-.12,.3-.16l30.03,75.05c11.94,42.29-12.6,86.57-54.84,98.84l-.19,.05c-42.2,12.15-86.51-12.09-99.06-54.14l-29.61-158.41h.02l123.94-35.69Zm-276.11,4.89l128.31,12.86v.28l-.33,160.86c-4.71,43.7-43.96,75.63-87.77,71.22-43.77-4.38-75.95-43.47-71.89-87.23l15.89-79.25c.11,.02,.2,.08,.31,.09l55.72,5.59c.27,.03,.55,.03,.81,.03,4.06,0,7.55-3.08,7.95-7.2,.44-4.4-2.77-8.33-7.17-8.77l-54.48-5.45,12.64-63.03Zm73.69,71.69c-4.39-.45-8.3,2.78-8.75,7.17-.44,4.4,2.76,8.33,7.16,8.77l31.84,3.19c.27,.03,.55,.03,.81,.03,4.06,0,7.54-3.08,7.95-7.2,.44-4.4-2.77-8.31-7.17-8.75l-31.84-3.2Zm146.03,6.78c-1.03-.12-2.1-.04-3.16,.27l-30.72,8.92c-4.25,1.23-6.7,5.68-5.47,9.92,1.02,3.5,4.22,5.77,7.69,5.77,.74,0,1.5-.1,2.23-.31l30.72-8.94c4.25-1.23,6.7-5.67,5.47-9.91-.92-3.19-3.67-5.35-6.77-5.72Zm73.45,177.95l24.53,84.52c1.1,3.75,4.74,6.15,8.62,5.7l32.81-3.89c6.66-1.17,13.14,1.32,17.34,6.09l-119.52,34.72c1.02-6.3,5.25-11.91,11.77-14.62l29.39-14.11c3.53-1.69,5.31-5.69,4.22-9.44l-24.55-84.5,15.38-4.47Zm-262.5,3.92l7.95,.8h.02l7.95,.8-8.78,87.56c-.39,3.89,2.08,7.49,5.86,8.52l31.88,8.64c6.61,1.42,11.69,6.12,13.81,12.12l-123.81-12.41c3.29-5.46,9.31-9.1,16.38-9.19l32.53-2.11c3.9-.25,7.05-3.28,7.44-7.17l8.78-87.56Z"/></svg>