<svg xmlns="http://www.w3.org/2000/svg" viewBox="0 0 24 24">
  <path d="M6.2 9C6.1 10 6 11 6 12s.1 2 .2 3H2.5C2.2 14 2 13 2 12s.2-2 .5-3H6.2zM15.8 9c.1.9.2 2 .2 3s-.1 2.1-.2 3H8.2C8.1 14.1 8 13 8 12s.1-2.1.2-3H15.8zM22 12c0 1-.2 2-.5 3h-3.7c.1-1 .2-2 .2-3s-.1-2-.2-3h3.7C21.8 10 22 11 22 12zM8.1 2.8C7.4 3.9 6.9 5.3 6.5 7H3.3C4.4 5.1 6.1 3.7 8.1 2.8zM15.4 7H8.6c.7-2.9 2-4.8 3.2-5 .1 0 .1 0 .2 0s.1 0 .2 0C13.4 2.2 14.7 4.1 15.4 7zM20.7 7h-3.2c-.4-1.7-.9-3.1-1.6-4.2C17.9 3.7 19.6 5.1 20.7 7zM6.5 17c.4 1.7.9 3.1 1.6 4.2-2-.9-3.6-2.3-4.7-4.2H6.5zM8.6 17h6.8c-.7 2.9-2 4.8-3.2 5-.1 0-.1 0-.2 0s-.1 0-.2 0C10.6 21.8 9.3 19.9 8.6 17zM20.7 17c-1.1 1.9-2.7 3.3-4.7 4.2.7-1.1 1.2-2.5 1.6-4.2H20.7z" />
</svg>