

<svg xmlns="http://www.w3.org/2000/svg" viewBox="0 0 364 364">
  <path d="M181.52,147.39c34.22,24.24,74.14-118.33,89.82-142.57,15.68-24.24-49.9,47.05-74.14,122.61-15.68,19.96-84.12-112.63-106.93-106.93,0,0,57.03,102.65,91.24,126.89Z"/>
  <path d="M182.48,216.61c-34.22-24.24-74.14,118.33-89.82,142.57-15.68,24.24,49.9-47.05,74.14-122.61,15.68-19.96,84.12,112.63,106.93,106.93,0,0-57.02-102.65-91.24-126.89Z"/>
  <path d="M236.57,197.2c-19.96-15.68,112.63-84.12,106.93-106.93,0,0-102.65,57.03-126.89,91.24-24.24,34.22,118.33,74.14,142.57,89.82,24.24,15.68-47.05-49.9-122.61-74.14Z"/>
  <path d="M147.39,182.49C171.62,148.27,29.05,108.35,4.82,92.67c-24.24-15.68,47.05,49.9,122.61,74.14,19.96,15.68-112.62,84.12-106.93,106.93,0,0,102.65-57.03,126.89-91.24Z"/>
  <path d="M182,330.94c8.43,23.52,46.92-9.62,23.4-31.01,0,0-31.82,7.48-23.4,31.01Z"/>
  <path d="M175.46,68.97c19.25-10.69,0-44.91-16.04-40.63-5.17,1.38-3.21,51.32,16.04,40.63Z"/>
</svg>
