<svg xmlns="http://www.w3.org/2000/svg" viewBox="0 0 30 30">
  <path d="M8.6738281 4C8.1768281 4 7.7565469 4.3634688 7.6855469 4.8554688C7.6565469 5.0474688 7 9.575 7 11C7 15.071519 10.060397 18.43685 14 18.931641L14 21 A 1.0001 1.0001 0 1 0 16 21L16 18.931641C19.939603 18.43685 23 15.071519 23 11C23 9.572 22.345406 5.0474688 22.316406 4.8554688C22.245406 4.3634688 21.823172 4 21.326172 4L8.6738281 4 z M 9.5429688 6L20.457031 6C20.575031 6.857 20.725891 7.995 20.837891 9L12.005859 9C11.521859 9 11.114313 9.3715156 11.070312 9.8535156C11.027312 10.323516 11 10.727 11 11C11 12.364 11.647047 13.680516 12.373047 14.728516C12.760047 15.287516 12.061719 15.961547 11.511719 15.560547C10.230719 14.627547 9 13.167 9 11C9 10.124 9.3249688 7.579 9.5429688 6 z M 20.451172 18.990234 A 1.0001 1.0001 0 0 0 20.158203 20.939453L23.074219 22L15 24.935547L6.9257812 22L9.8417969 20.939453 A 1.0001 1.0001 0 0 0 9.5195312 18.994141 A 1.0001 1.0001 0 0 0 9.1582031 19.060547L3.6582031 21.060547 A 1.0001 1.0001 0 0 0 3.6582031 22.939453L14.658203 26.939453 A 1.0001 1.0001 0 0 0 15.341797 26.939453L26.341797 22.939453 A 1.0001 1.0001 0 0 0 26.341797 21.060547L20.841797 19.060547 A 1.0001 1.0001 0 0 0 20.451172 18.990234 z" />
</svg>