<svg viewBox="0 0 245.01 412.78">
  <path class="cls-1" d="M95.04,179.43l1.49,64.54,47.25-1.09c17.82-.41,31.94-15.19,31.52-33.01-.41-17.82-15.19-31.94-33.01-31.52l-47.25,1.09Z"/>
  <path class="cls-1" d="M77.25,18.74L9.37,86.63C3.58,92.42-.01,100.42,0,109.25v271.53C0,398.45,14.32,412.78,32,412.78h181.02c17.67,0,32-14.32,32-32,0-8.85,0-262.68,0-271.53.01-8.84-3.58-16.83-9.37-22.63L167.76,18.74c-24.99-24.99-65.52-24.99-90.51,0ZM197.2,209.36c.65,28.01-22.56,51.26-51.84,51.93-2.45.06-48.4,1.12-48.4,1.12l.35,14.98,36.88-.85.43,18.44-36.88.85.72,31.12-12.68.29-9.83.23h-.54s-.72-31.1-.72-31.1l-23.05.53-.43-18.44,23.05-.53-.35-14.98-23.05.53-.43-18.44,23.05-.53-1.92-82.98s68.7-1.59,71.45-1.65c29.28-.68,53.54,21.47,54.18,49.48ZM145.13,86.63c-12.5,12.5-32.75,12.5-45.25,0-12.5-12.5-12.5-32.75,0-45.25,12.5-12.5,32.75-12.5,45.25,0,12.5,12.5,12.5,32.75,0,45.25Z"/>
</svg>