<svg xmlns="http://www.w3.org/2000/svg" xmlns:xlink="http://www.w3.org/1999/xlink" viewBox="0 0 364 364"><defs><style>.h{fill:url(#c);}.i{fill:url(#f);}.j{fill:url(#g);}.k{fill:url(#b);}.l{fill:url(#d);}.m{fill:url(#e);}</style><linearGradient id="b" x1="90.27" y1="75.07" x2="273.73" y2="75.07" gradientTransform="matrix(1, 0, 0, 1, 0, 0)" gradientUnits="userSpaceOnUse"><stop offset="0" stop-color="#edd3a4"/><stop offset=".5" stop-color="#e7c88c"/><stop offset="1" stop-color="#d6a439"/></linearGradient><linearGradient id="c" x1="90.27" y1="288.93" x2="273.72" y2="288.93" xlink:href="#b"/><linearGradient id="d" x1="213.85" y1="182" x2="364" y2="182" xlink:href="#b"/><linearGradient id="e" x1="0" y1="182" x2="150.15" y2="182" xlink:href="#b"/><linearGradient id="f" x1="180.58" y1="319.48" x2="212.9" y2="319.48" xlink:href="#b"/><linearGradient id="g" x1="156.96" y1="49.22" x2="183.51" y2="49.22" xlink:href="#b"/></defs><path class="k" d="M181.52,147.39c34.22,24.24,74.14-118.33,89.82-142.57,15.68-24.24-49.9,47.05-74.14,122.61-15.68,19.96-84.12-112.63-106.93-106.93,0,0,57.03,102.65,91.24,126.89Z"/><path class="h" d="M182.48,216.61c-34.22-24.24-74.14,118.33-89.82,142.57-15.68,24.24,49.9-47.05,74.14-122.61,15.68-19.96,84.12,112.63,106.93,106.93,0,0-57.02-102.65-91.24-126.89Z"/><path class="l" d="M236.57,197.2c-19.96-15.68,112.63-84.12,106.93-106.93,0,0-102.65,57.03-126.89,91.24-24.24,34.22,118.33,74.14,142.57,89.82,24.24,15.68-47.05-49.9-122.61-74.14Z"/><path class="m" d="M147.39,182.49C171.62,148.27,29.05,108.35,4.82,92.67c-24.24-15.68,47.05,49.9,122.61,74.14,19.96,15.68-112.62,84.12-106.93,106.93,0,0,102.65-57.03,126.89-91.24Z"/><path class="i" d="M182,330.94c8.43,23.52,46.92-9.62,23.4-31.01,0,0-31.82,7.48-23.4,31.01Z"/><path class="j" d="M175.46,68.97c19.25-10.69,0-44.91-16.04-40.63-5.17,1.38-3.21,51.32,16.04,40.63Z"/></svg>