<?xml version="1.0" encoding="UTF-8"?><svg id="a" xmlns="http://www.w3.org/2000/svg" viewBox="0 0 74.23 8.66"><defs><style>.b{fill:none;}</style></defs><path d="M37.84,.02s-.07,.03-.1,.06c-.45,.6-.7,1.36-.74,2.27-.05-.05-.1-.1-.15-.14v-.03s-.13-1.23-.9-1.67c-.77-.46-1.85,.02-1.89,.04l-.1,.04v.1s.16,1.19,.91,1.67c.28,.18,.58,.24,.85,.24,.39,0,.73-.13,.92-.22,.13,.12,.25,.24,.36,.37v.16c-.37,.05-.69,.27-.87,.59-.2-.36-.58-.6-1.01-.6-.64,0-1.15,.52-1.15,1.15s.52,1.15,1.15,1.15h0c-.1,.17-.16,.37-.16,.58,0,.64,.52,1.15,1.15,1.15h0c-.1,.17-.16,.37-.16,.58,0,.64,.52,1.15,1.15,1.15s1.15-.52,1.15-1.15c0-.21-.06-.4-.16-.58h.01c.64,0,1.15-.52,1.15-1.15,0-.21-.06-.4-.16-.58h.01c.64,0,1.15-.52,1.15-1.15s-.52-1.15-1.15-1.15c-.43,0-.81,.24-1.01,.6-.17-.32-.49-.54-.87-.59v-.47c.12-.08,.28-.17,.47-.25,.15,.11,.61,.42,1.1,.42,.09,0,.18,0,.27-.04,.68-.18,1.01-1.05,1.03-1.08l.04-.1-.08-.07s-.75-.61-1.43-.43c-.56,.15-.88,.76-.99,.99-.14,.06-.27,.13-.39,.19,.07-.73,.29-1.35,.66-1.84,.05-.06,.04-.15-.03-.2-.03-.02-.07-.03-.11-.03h0l.06,.02Zm-2.67,.58c.22,0,.45,.04,.64,.15,.43,.25,.63,.82,.71,1.17-.28-.22-.58-.41-.89-.58-.07-.04-.16,0-.19,.06-.04,.07,0,.16,.06,.19,.32,.17,.62,.37,.9,.59-.31,.13-.87,.26-1.37-.06-.52-.32-.7-1.07-.75-1.35,.17-.06,.52-.18,.89-.18h0Zm3.76,.58c.37-.02,.76,.21,.93,.33-.1,.21-.37,.7-.79,.81-.36,.1-.75-.1-.98-.24,.23-.08,.46-.15,.67-.17,.08,0,.14-.08,.13-.16,0-.08-.08-.13-.16-.13-.19,.02-.4,.07-.6,.14,.14-.22,.36-.48,.65-.56,.05,0,.11-.02,.16-.02h-.01Zm-3.81,2.02c.48,0,.87,.39,.87,.87s-.39,.87-.87,.87-.87-.39-.87-.87,.39-.87,.87-.87Zm2.02,0c.48,0,.87,.39,.87,.87,0,.42-.32,.67-.51,.79-.15,.09-.27,.23-.36,.39-.09-.16-.21-.3-.36-.39-.19-.12-.51-.37-.51-.79,0-.48,.39-.87,.87-.87Zm2.02,0c.48,0,.87,.39,.87,.87s-.39,.87-.87,.87-.87-.39-.87-.87,.39-.87,.87-.87Zm.43,.72c-.08,0-.14,.06-.14,.14,0,.16-.13,.29-.29,.29-.08,0-.14,.06-.14,.14s.06,.14,.14,.14c.32,0,.58-.26,.58-.58,0-.08-.06-.14-.14-.14h-.01Zm-3.45,.7c.11,.19,.28,.36,.49,.49,.21,.13,.36,.42,.36,.69,0,.48-.39,.87-.87,.87s-.87-.39-.87-.87c0-.27,.12-.52,.33-.68,.23-.11,.42-.28,.54-.51h.02Zm2,.01c.12,.23,.32,.4,.55,.51h0c.2,.17,.32,.42,.32,.68,0,.48-.39,.87-.87,.87s-.87-.39-.87-.87c0-.28,.15-.56,.36-.69,.22-.13,.39-.3,.5-.49h0Zm.44,1.03c-.08,0-.14,.06-.14,.14,0,.16-.13,.29-.29,.29-.08,0-.14,.06-.14,.14s.06,.14,.14,.14c.32,0,.58-.26,.58-.58,0-.08-.06-.14-.14-.14h-.01Zm-1.44,.71c.12,.22,.31,.39,.53,.49,.21,.17,.33,.41,.33,.68,0,.48-.39,.87-.87,.87s-.87-.39-.87-.87c0-.27,.12-.52,.33-.68,.23-.1,.41-.28,.53-.49h.02Zm.43,1.03c-.08,0-.14,.06-.14,.14,0,.16-.13,.29-.29,.29-.08,0-.14,.06-.14,.14s.06,.14,.14,.14c.32,0,.58-.26,.58-.58,0-.08-.06-.14-.14-.14h0Z"/><g><path class="b" d="M31.07,4.31l.14,.21s.04,.08,.04,.12l.79,1.41,1.03-1.9-1.03-1.9-1.07,1.9,.07,.13,.02,.03Z"/><polygon class="b" points="37.44 .29 35.26 4.15 37.44 8.02 39.53 4.15 37.44 .29"/><path class="b" d="M43.02,4.5h0l.14-.22s.06-.09,.1-.14l-1.03-1.9-1.07,1.9,1.07,1.9,.74-1.37c0-.06,0-.13,.04-.19Z"/><path d="M43.61,4.66l.04-.06c.04-.07,.08-.12,.13-.18,.05-.05,.09-.1,.14-.15,.06-.04,.11-.09,.17-.13,.23-.16,.51-.24,.8-.25,.28,0,.57,.08,.81,.23,.06,.03,.11,.09,.17,.13,.05,.05,.1,.1,.15,.15,.04,.06,.09,.11,.13,.18l.14,.21h0s.05,.06,.08,.08c.12,.08,.28,.04,.36-.08l.14-.21c.04-.07,.09-.12,.13-.18,.05-.05,.1-.11,.15-.16,.06-.04,.11-.1,.17-.13,.24-.16,.53-.25,.82-.25,.29,0,.58,.08,.83,.24,.06,.04,.12,.09,.17,.13,.05,.05,.1,.1,.15,.16,.04,.06,.09,.11,.13,.18l.14,.21h0s.04,.05,.07,.07c.11,.07,.24,.04,.31-.07l.14-.21c.04-.07,.09-.12,.13-.18,.05-.05,.1-.11,.15-.16,.06-.04,.11-.1,.17-.13,.24-.16,.54-.25,.83-.26,.3,0,.59,.08,.84,.24,.06,.04,.12,.09,.18,.13,.05,.05,.11,.1,.16,.16,.04,.06,.09,.12,.14,.18l.14,.21h0s.03,.04,.06,.06c.09,.06,.21,.03,.26-.06l.14-.21c.05-.07,.09-.12,.13-.19,.05-.06,.1-.11,.15-.16,.06-.04,.11-.1,.18-.14,.25-.17,.55-.26,.85-.26,.3,0,.61,.09,.86,.25,.07,.04,.12,.09,.18,.14,.05,.05,.11,.11,.16,.16,.05,.06,.09,.12,.14,.19l.14,.21h0s.03,.04,.05,.05c.07,.05,.17,.02,.22-.05l.14-.21c.05-.07,.09-.13,.14-.19,.05-.06,.1-.11,.16-.17,.06-.05,.12-.1,.18-.14,.26-.17,.56-.26,.87-.27,.31,0,.62,.09,.88,.26,.07,.04,.12,.09,.19,.14,.06,.05,.11,.11,.16,.17,.05,.06,.09,.12,.14,.19l.14,.21h0s.06,.06,.1,.06l14.79-.12-14.73-.12-.1-.16c-.05-.07-.1-.15-.16-.22-.06-.07-.12-.13-.19-.2-.07-.06-.14-.12-.22-.17-.3-.2-.66-.31-1.03-.32-.36,0-.73,.1-1.04,.3-.08,.05-.15,.11-.22,.16-.07,.06-.13,.13-.19,.2-.05,.07-.11,.15-.16,.22h0c-.05-.07-.11-.15-.16-.22-.06-.07-.12-.14-.19-.2-.07-.06-.14-.12-.22-.17-.31-.2-.68-.32-1.05-.32-.37,0-.74,.11-1.06,.31-.08,.05-.15,.11-.22,.17-.07,.06-.13,.13-.2,.2-.05,.06-.09,.12-.14,.19-.04-.06-.09-.13-.14-.19-.06-.07-.13-.14-.19-.2-.07-.06-.14-.12-.22-.17-.31-.21-.69-.32-1.07-.33-.38,0-.75,.11-1.07,.31-.08,.05-.15,.11-.23,.17-.07,.06-.14,.13-.2,.2-.04,.05-.07,.1-.11,.15-.04-.05-.07-.1-.11-.15-.06-.07-.13-.14-.2-.21-.08-.06-.14-.13-.23-.18-.32-.21-.7-.33-1.08-.33-.38,0-.77,.11-1.09,.32-.08,.05-.15,.12-.23,.17-.07,.07-.14,.14-.2,.21-.03,.04-.06,.07-.08,.11-.03-.04-.06-.08-.09-.12-.06-.07-.13-.14-.2-.21-.08-.06-.15-.13-.23-.18-.33-.22-.71-.33-1.1-.34-.39,0-.78,.11-1.11,.32-.04,.02-.07,.05-.11,.08l-1.42-2.63-1.71,3.04,1.71,3.04,1.37-2.53Zm-2.45-.51l1.07-1.9,1.03,1.9s-.07,.09-.1,.14l-.14,.21h0c-.04,.06-.05,.13-.04,.19l-.74,1.37-1.07-1.9Z"/><path d="M14.9,4.75h0l.14-.21c.05-.07,.09-.13,.14-.19,.05-.06,.11-.11,.16-.17,.06-.05,.12-.1,.19-.14,.26-.17,.57-.26,.88-.26,.31,0,.62,.1,.87,.27,.07,.04,.12,.09,.18,.14,.05,.05,.11,.11,.16,.17,.04,.06,.09,.12,.14,.19l.14,.21s.03,.03,.05,.05c.07,.05,.17,.03,.22-.05h0l.14-.21c.05-.07,.09-.12,.14-.19,.05-.06,.11-.11,.16-.16,.06-.04,.12-.1,.18-.14,.26-.16,.56-.25,.86-.25,.3,0,.6,.1,.85,.26,.06,.04,.12,.09,.18,.14,.05,.05,.1,.11,.15,.16,.04,.06,.09,.12,.13,.19l.14,.21s.03,.04,.06,.06c.09,.06,.21,.03,.27-.05h0l.14-.21c.05-.07,.09-.12,.14-.18,.05-.05,.1-.11,.16-.16,.06-.04,.11-.1,.18-.13,.25-.16,.55-.24,.84-.24,.3,0,.59,.1,.83,.26,.06,.04,.12,.09,.17,.13,.05,.05,.1,.11,.15,.16,.04,.06,.09,.11,.13,.18l.14,.21s.04,.05,.07,.07c.1,.07,.24,.04,.31-.06h0l.14-.21c.05-.07,.09-.12,.13-.18,.05-.05,.1-.11,.15-.16,.06-.04,.11-.09,.17-.13,.24-.16,.53-.24,.83-.24,.29,0,.58,.09,.82,.25,.06,.04,.11,.09,.17,.13,.05,.05,.1,.1,.15,.16,.04,.06,.08,.11,.13,.18l.14,.21s.05,.06,.08,.08c.12,.08,.28,.05,.36-.07h0l.14-.21c.05-.07,.09-.12,.13-.18,.05-.05,.1-.1,.15-.15,.06-.04,.11-.09,.17-.13,.24-.15,.52-.23,.81-.23,.28,0,.56,.09,.8,.25,.06,.04,.11,.09,.17,.13,.05,.05,.1,.1,.14,.15,.04,.06,.08,.11,.13,.18l.14,.21h0s.03,.04,.05,.06l1.29,2.29,1.65-3.04-1.65-3.04-1.5,2.66s-.07-.05-.1-.07c-.33-.21-.72-.32-1.11-.32-.39,0-.78,.12-1.1,.34-.08,.05-.15,.12-.23,.18-.07,.07-.14,.14-.2,.21-.03,.04-.06,.08-.09,.12-.03-.04-.06-.08-.08-.11-.06-.07-.13-.14-.2-.21-.08-.06-.15-.13-.23-.17-.33-.21-.71-.32-1.09-.32-.38,0-.76,.12-1.08,.33-.08,.05-.15,.12-.23,.18-.07,.07-.13,.14-.2,.21-.04,.05-.08,.1-.11,.15-.04-.05-.07-.1-.11-.15-.06-.07-.13-.14-.2-.2-.08-.06-.15-.12-.23-.17-.32-.21-.7-.31-1.07-.31-.38,0-.75,.12-1.07,.33-.08,.05-.15,.12-.22,.17-.07,.07-.13,.13-.19,.2-.05,.06-.09,.13-.14,.19-.04-.06-.09-.12-.14-.19-.06-.07-.13-.14-.2-.2-.07-.06-.14-.12-.22-.17-.31-.2-.69-.31-1.06-.31-.37,0-.74,.12-1.05,.32-.08,.05-.15,.11-.22,.17-.07,.06-.13,.13-.19,.2-.05,.07-.11,.15-.16,.22h0c-.05-.07-.11-.14-.16-.22-.06-.07-.13-.13-.19-.2-.07-.05-.14-.12-.22-.16-.31-.2-.67-.3-1.04-.3-.36,0-.73,.12-1.03,.32-.08,.05-.14,.11-.22,.17-.06,.06-.13,.13-.19,.2-.05,.07-.11,.15-.16,.22l-.1,.16-14.73,.12,14.8,.12s.08-.02,.1-.06Zm17.15-2.51l1.03,1.9-1.03,1.9-.79-1.41s-.02-.09-.04-.12l-.14-.21-.02-.03-.07-.13,1.07-1.9Z"/></g></svg>