<?xml version="1.0" encoding="utf-8"?>
<svg xmlns="http://www.w3.org/2000/svg" width="480" height="480" viewBox="0 0 24 24">
  <path d="M11 0L11 3L13 3L13 0L11 0 z M 4.2226562 2.8085938L2.8085938 4.2226562L4.9296875 6.34375L6.34375 4.9296875L4.2226562 2.8085938 z M 19.777344 2.8085938L17.65625 4.9296875L19.070312 6.34375L21.191406 4.2226562L19.777344 2.8085938 z M 12 5 A 7 7 0 0 0 5 12 A 7 7 0 0 0 12 19 A 7 7 0 0 0 19 12 A 7 7 0 0 0 12 5 z M 0 11L0 13L3 13L3 11L0 11 z M 21 11L21 13L24 13L24 11L21 11 z M 4.9296875 17.65625L2.8085938 19.777344L4.2226562 21.191406L6.34375 19.070312L4.9296875 17.65625 z M 19.070312 17.65625L17.65625 19.070312L19.777344 21.191406L21.191406 19.777344L19.070312 17.65625 z M 11 21L11 24L13 24L13 21L11 21 z" fill="#A2A2A2" />
</svg>