<svg xmlns="http://www.w3.org/2000/svg" viewBox="0 0 101.84 101.83">
  <path d="M44.25,49.14c-1.91-2.05-4.44-4.51-7.57-7.38-1.3-1.17-1.94-1.74-1.9-1.7.13-.21.89-1.3,2.29-3.27l.98-1.37v.33c0,1.82.51,3.42,1.53,4.8s2.38,2.07,4.07,2.07c.4,0,.83-.08,1.34-.27.5-.17.83-.45,1.02-.85-2.09-1.49-3.14-3.72-3.14-6.72,0-1.13.21-2.24.65-3.32.44-1.09,1.06-2.39,1.9-3.92.65-1.26,1.13-2.24,1.44-2.9.3-.68.45-1.34.45-1.99,0-1.39-.42-2.49-1.27-3.27-.85-.78-1.73-1.17-2.65-1.17.48.69.72,1.61.72,2.74,0,.78-.21,1.58-.62,2.42-.41.82-1.03,1.9-1.87,3.2l-1.1,1.77c.13-.61.2-1.22.2-1.82,0-1.49-.4-2.86-1.17-4.14-.78-1.29-1.87-2.29-3.27-3.04-1.4-.74-2.94-1.1-4.64-1.1-2.43,0-4.47.52-6.07,1.57-1.61,1.05-2.79,2.38-3.52,4.02-.75,1.63-1.12,3.37-1.12,5.19,0,2.66.61,5.25,1.82,7.77.08-.04.28-.07.59-.07.52,0,.96.17,1.3.52.34.35.52.78.52,1.3s-.17.96-.52,1.34c-.35.37-.78.55-1.3.55-.61,0-1.12-.24-1.5-.72-.88.88-1.3,2.05-1.3,3.52,0,1.17.31,2.29.92,3.34,1.22-.78,2.67-1.17,4.37-1.17.86,0,1.81.11,2.8.33-1.05,1.78-1.82,3.27-2.35,4.44-2.43.08-4.65.72-6.66,1.9-1.99,1.17-3.58,2.84-4.74,5.02s-1.73,4.72-1.73,7.64c0,3.62.86,6.78,2.57,9.46,1.73,2.7,4.02,4.78,6.89,6.24s6.01,2.19,9.41,2.19c3.88,0,7.26-.81,10.16-2.42s5.11-3.81,6.66-6.59c1.54-2.79,2.32-5.87,2.32-9.27,0-2.87-.68-5.6-2.02-8.19-1.36-2.59-2.98-4.91-4.89-6.96h-.01ZM27.73,32.29c-1.26-1.91-1.9-3.83-1.9-5.74s.57-3.51,1.7-4.67c1.13-1.15,2.5-1.73,4.12-1.73,1.43,0,2.56.41,3.37,1.2.81.81,1.2,1.77,1.2,2.9,0,.88-.25,1.67-.78,2.38-.52.72-1.26,1.08-2.22,1.08-.88,0-1.57-.17-2.09-.52-.17.35-.27.78-.27,1.3,0,1.09.41,2.08,1.24,2.97.82.89,1.94,1.34,3.32,1.34.74,0,1.46-.16,2.15-.45-1.57,2.14-3.04,4.2-4.44,6.21-2.35-2.26-4.16-4.36-5.42-6.27h.01ZM42.38,71.11c-.98,1.46-2.29,2.4-3.95,2.84-.04.17-.07.44-.07.78,0,.82.25,1.57.75,2.25.5.68,1.1,1.15,1.8,1.4-.78.57-1.97,1.09-3.56,1.57-1.58.48-3.38.72-5.39.72-2.39,0-4.7-.54-6.92-1.6s-4.03-2.67-5.42-4.8c-1.4-2.14-2.09-4.68-2.09-7.64,0-2.14.5-4.06,1.5-5.79,1-1.71,2.48-2.82,4.44-3.3-.57,2.26-.85,4.33-.85,6.21s.3,3.69.88,5.45c.59,1.77,1.4,3.18,2.45,4.27,1.05,1.09,2.26,1.63,3.65,1.63.82,0,1.54-.31,2.15-.92s.92-1.3.92-2.09-.3-1.53-.88-2.09c-.59-.57-1.32-.85-2.19-.85-.61,0-1.16.17-1.63.5-.48.33-.82.75-1.05,1.27-1.3-1.17-1.97-3.59-1.97-7.24,0-1.99.31-4.12.92-6.34,1.91.13,3.42.83,4.54,2.12,1.1,1.29,1.75,2.73,1.92,4.34,1.26-.48,2.22-1.16,2.87-2.05s.98-1.88.98-2.97c0-2.26-.72-4.14-2.19-5.64-1.46-1.5-3.25-2.45-5.39-2.84.61-1.26,1.33-2.59,2.15-3.99,2.35.92,4.53,2.36,6.54,4.34,1.99,1.98,3.59,4.27,4.77,6.89,1.17,2.62,1.77,5.26,1.77,7.96,0,2.26-.5,4.13-1.47,5.59h.03ZM88.29,49.69c-.24-.33-.58-.54-1-.62v-21.16c0-.61.14-1.36.42-2.25.28-.89.58-1.53.88-1.92-1-.17-2.01-.44-3-.82-1-.37-2.21-.88-3.59-1.53-2.22-1-4.22-1.77-5.97-2.32-1.77-.54-3.71-.82-5.84-.82-1.87,0-3.82.27-5.84.82s-3.56,1.08-4.6,1.6c-.17-1.13-.64-2.04-1.37-2.72s-1.64-1.02-2.67-1.02l-.59.07c.48.35.89.86,1.24,1.53.35.68.52,1.39.52,2.12,0,1-.3,2.05-.88,3.14-.59,1.09-1.51,2.57-2.77,4.44-1.66,2.43-2.93,4.58-3.82,6.44-.89,1.85-1.34,3.76-1.34,5.72,0,1.78.44,3.2,1.3,4.24.88,1.05,2.02,1.57,3.47,1.57,1.34,0,2.5-.4,3.47-1.2s1.54-1.81,1.77-3.04c-1.49-.13-2.62-.75-3.4-1.85-.78-1.1-1.17-2.43-1.17-3.95,0-2.31.65-4.6,1.95-6.89,1.3-2.29,3.08-4.23,5.35-5.84s4.77-2.62,7.51-3c-.61.48-1.29,1.33-2.02,2.55-.65,1.05-1.29,1.91-1.9,2.57-.61.68-1.5,1.34-2.67,1.99-.35.21-.76.38-1.24.5-.48.11-.85.14-1.1.1-.08.52.07.98.5,1.34.41.37.99.55,1.73.55v22.73c.3.13.54.37.72.72.17.35.25.72.25,1.1,0,.48-.2.88-.59,1.2s-.82.5-1.3.5c-.52,0-.98-.18-1.34-.55-.37-.37-.55-.82-.55-1.34,0-.48.08-.82.25-1.05-1.05-.08-2.04.17-2.97.78s-1.58,1.49-1.92,2.62c2.26,1.05,4.07,2.83,5.42,5.36,1.34,2.52,2.02,5.42,2.02,8.69,0,6.71-1.54,10.55-4.64,11.56v.33h16.13v-.33c-1.44-.48-2.57-1.44-3.4-2.87-.82-1.44-1.24-3.07-1.24-4.89v-20.82c.78.78,1.68,1.37,2.72,1.77,1.02.4,2.04.59,3.04.59,1.78,0,3.41-.3,4.87-.88,1.46-.59,2.97-1.39,4.54-2.38.92-.57,1.66-.98,2.22-1.24.57-.25,1.06-.4,1.5-.4.57,0,1,.11,1.3.33.04-.13.07-.35.07-.65,0-.44-.13-.82-.35-1.15l-.03-.06h0ZM80.43,49.86c-.35,1.17-1.08,2.21-2.19,3.1-1.12.89-2.48,1.34-4.09,1.34-1.05,0-1.95-.27-2.7-.82-.76-.54-1.15-1.27-1.15-2.19,0-.74.25-1.33.75-1.77s1.08-.65,1.73-.65c.57,0,1.05.25,1.44.75s.64,1.06.72,1.67c.69-.31,1.33-.83,1.9-1.6.57-.76.85-1.6.85-2.52,0-1.34-.52-2.49-1.57-3.42-1.05-.93-2.31-1.4-3.79-1.4s-2.79.52-3.92,1.57v-17.63c0-2.31.59-4.31,1.77-6.01h.33c2.22,0,4.22.47,5.97,1.4,1.77.93,3.08,2.12,3.95,3.56v24.62s.01,0,.01,0ZM50.93,0C22.84,0,0,22.84,0,50.92s22.84,50.92,50.93,50.92,50.92-22.84,50.92-50.92S79,0,50.93,0ZM50.92,101.76C22.88,101.76.06,78.95.06,50.9S22.88.06,50.92.06s50.86,22.8,50.86,50.86-22.82,50.86-50.86,50.86h0Z"/>
</svg>