
<svg preserveAspectRatio="xMidYMid meet" xmlns="http://www.w3.org/2000/svg" viewBox="0 0 103.56 103.55">
  <path d="m47.07,51.31c-1.35-1.45-3.14-3.19-5.35-5.22-.92-.83-1.37-1.23-1.34-1.2.09-.15.63-.92,1.62-2.31l.69-.97v.23c0,1.29.36,2.42,1.08,3.39s1.68,1.46,2.88,1.46c.28,0,.59-.06.95-.19.35-.12.59-.32.72-.6-1.48-1.05-2.22-2.63-2.22-4.75,0-.8.15-1.58.46-2.35.31-.77.75-1.69,1.34-2.77.46-.89.8-1.58,1.02-2.05.21-.48.32-.95.32-1.41,0-.98-.3-1.76-.9-2.31-.6-.55-1.22-.83-1.87-.83.34.49.51,1.14.51,1.94,0,.55-.15,1.12-.44,1.71-.29.58-.73,1.34-1.32,2.26l-.78,1.25c.09-.43.14-.86.14-1.29,0-1.05-.28-2.02-.83-2.93-.55-.91-1.32-1.62-2.31-2.15-.99-.52-2.08-.78-3.28-.78-1.72,0-3.16.37-4.29,1.11-1.14.74-1.97,1.68-2.49,2.84-.53,1.15-.79,2.38-.79,3.67,0,1.88.43,3.71,1.29,5.49.06-.03.2-.05.42-.05.37,0,.68.12.92.37.24.25.37.55.37.92s-.12.68-.37.95c-.25.26-.55.39-.92.39-.43,0-.79-.17-1.06-.51-.62.62-.92,1.45-.92,2.49,0,.83.22,1.62.65,2.36.86-.55,1.89-.83,3.09-.83.61,0,1.28.08,1.98.23-.74,1.26-1.29,2.31-1.66,3.14-1.72.06-3.29.51-4.71,1.34-1.41.83-2.53,2.01-3.35,3.55s-1.22,3.34-1.22,5.4c0,2.56.61,4.79,1.82,6.69,1.22,1.91,2.84,3.38,4.87,4.41s4.25,1.55,6.65,1.55c2.74,0,5.13-.57,7.18-1.71s3.61-2.69,4.71-4.66c1.09-1.97,1.64-4.15,1.64-6.55,0-2.03-.48-3.96-1.43-5.79-.96-1.83-2.11-3.47-3.46-4.92h0Zm-11.68-11.91c-.89-1.35-1.34-2.71-1.34-4.06s.4-2.48,1.2-3.3c.8-.81,1.77-1.22,2.91-1.22,1.01,0,1.81.29,2.38.85.57.57.85,1.25.85,2.05,0,.62-.18,1.18-.55,1.68-.37.51-.89.76-1.57.76-.62,0-1.11-.12-1.48-.37-.12.25-.19.55-.19.92,0,.77.29,1.47.88,2.1.58.63,1.37.95,2.35.95.52,0,1.03-.11,1.52-.32-1.11,1.51-2.15,2.97-3.14,4.39-1.66-1.6-2.94-3.08-3.83-4.43h0Zm10.36,27.44c-.69,1.03-1.62,1.7-2.79,2.01-.03.12-.05.31-.05.55,0,.58.18,1.11.53,1.59.35.48.78.81,1.27.99-.55.4-1.39.77-2.52,1.11-1.12.34-2.39.51-3.81.51-1.69,0-3.32-.38-4.89-1.13s-2.85-1.89-3.83-3.39c-.99-1.51-1.48-3.31-1.48-5.4,0-1.51.35-2.87,1.06-4.09.71-1.21,1.75-1.99,3.14-2.33-.4,1.6-.6,3.06-.6,4.39s.21,2.61.62,3.85c.42,1.25.99,2.25,1.73,3.02.74.77,1.6,1.15,2.58,1.15.58,0,1.09-.22,1.52-.65s.65-.92.65-1.48-.21-1.08-.62-1.48c-.42-.4-.93-.6-1.55-.6-.43,0-.82.12-1.15.35-.34.23-.58.53-.74.9-.92-.83-1.39-2.54-1.39-5.12,0-1.41.22-2.91.65-4.48,1.35.09,2.42.59,3.21,1.5.78.91,1.24,1.93,1.36,3.07.89-.34,1.57-.82,2.03-1.45s.69-1.33.69-2.1c0-1.6-.51-2.93-1.55-3.99-1.03-1.06-2.3-1.73-3.81-2.01.43-.89.94-1.83,1.52-2.82,1.66.65,3.2,1.67,4.62,3.07,1.41,1.4,2.54,3.02,3.37,4.87.83,1.85,1.25,3.72,1.25,5.63,0,1.6-.35,2.92-1.04,3.95h.02Zm32.45-15.14c-.17-.23-.41-.38-.71-.44v-14.96c0-.43.1-.96.3-1.59.2-.63.41-1.08.62-1.36-.71-.12-1.42-.31-2.12-.58-.71-.26-1.56-.62-2.54-1.08-1.57-.71-2.98-1.25-4.22-1.64-1.25-.38-2.62-.58-4.13-.58-1.32,0-2.7.19-4.13.58s-2.52.76-3.25,1.13c-.12-.8-.45-1.44-.97-1.92s-1.16-.72-1.89-.72l-.42.05c.34.25.63.61.88,1.08.25.48.37.98.37,1.5,0,.71-.21,1.45-.62,2.22-.42.77-1.07,1.82-1.96,3.14-1.17,1.72-2.07,3.24-2.7,4.55-.63,1.31-.95,2.66-.95,4.04,0,1.26.31,2.26.92,3,.62.74,1.43,1.11,2.45,1.11.95,0,1.77-.28,2.45-.85s1.09-1.28,1.25-2.15c-1.05-.09-1.85-.53-2.4-1.31-.55-.78-.83-1.72-.83-2.79,0-1.63.46-3.25,1.38-4.87.92-1.62,2.18-2.99,3.78-4.13s3.37-1.85,5.31-2.12c-.43.34-.91.94-1.43,1.8-.46.74-.91,1.35-1.34,1.82-.43.48-1.06.95-1.89,1.41-.25.15-.54.27-.88.35-.34.08-.6.1-.78.07-.06.37.05.69.35.95.29.26.7.39,1.22.39v16.07c.21.09.38.26.51.51.12.25.18.51.18.78,0,.34-.14.62-.42.85s-.58.35-.92.35c-.37,0-.69-.13-.95-.39-.26-.26-.39-.58-.39-.95,0-.34.06-.58.18-.74-.74-.06-1.44.12-2.1.55s-1.12,1.05-1.36,1.85c1.6.74,2.88,2,3.83,3.79.95,1.78,1.43,3.83,1.43,6.14,0,4.74-1.09,7.46-3.28,8.17v.23h11.4v-.23c-1.02-.34-1.82-1.02-2.4-2.03-.58-1.02-.88-2.17-.88-3.46v-14.72c.55.55,1.19.97,1.92,1.25.72.28,1.44.42,2.15.42,1.26,0,2.41-.21,3.44-.62,1.03-.42,2.1-.98,3.21-1.68.65-.4,1.17-.69,1.57-.88.4-.18.75-.28,1.06-.28.4,0,.71.08.92.23.03-.09.05-.25.05-.46,0-.31-.09-.58-.25-.81l-.02-.04h0Zm-5.56.12c-.25.83-.76,1.56-1.55,2.19-.79.63-1.75.95-2.89.95-.74,0-1.38-.19-1.91-.58-.54-.38-.81-.9-.81-1.55,0-.52.18-.94.53-1.25s.76-.46,1.22-.46c.4,0,.74.18,1.02.53s.45.75.51,1.18c.49-.22.94-.59,1.34-1.13.4-.54.6-1.13.6-1.78,0-.95-.37-1.76-1.11-2.42-.74-.66-1.63-.99-2.68-.99s-1.97.37-2.77,1.11v-12.46c0-1.63.42-3.05,1.25-4.25h.23c1.57,0,2.98.33,4.22.99,1.25.66,2.18,1.5,2.79,2.52v17.4s.01,0,.01,0ZM43.41,13.03l-1.19-4.52-.82.22,1.01,3.84-1.82.48-1.01-3.84-.83.22,1.19,4.52,3.47-.91h0Zm-10.21,3.36c.38.09.84.01,1.4-.26.51-.25.87-.47,1.13-.66l-2.02-4.14-.76.37.77,1.59c-.12.03-.24.08-.39.15-.54.26-.94.64-1.1,1.1-.12.34-.09.72.11,1.12.19.39.51.64.86.73Zm.43-2.35c.15-.08.27-.13.39-.15l.68,1.41c-.07.06-.21.15-.42.25-.53.26-.97.17-1.2-.29-.24-.48-.03-.94.55-1.22Zm-5.8,6.31c1.05-.8,1.15-2.16.29-3.29-.83-1.08-2.1-1.39-3.15-.58h0c-1.01.78-1.23,2.06-.28,3.31.81,1.06,2.07,1.39,3.15.57h-.01Zm-2.48-3.31h0c.65-.5,1.5-.16,2.06.58s.7,1.65.02,2.17-1.53.12-2.06-.58c-.59-.78-.69-1.66-.03-2.16h.01Zm-4.17,9.6l-.77-2.3c-.2-.58-.44-1.17-.67-1.69h.02c.44.43.95.89,1.52,1.37l1.25,1.08.52-.6-3.53-3.05-.62.72.72,2.19c.19.55.42,1.16.68,1.68v.02c-.43-.44-.87-.84-1.43-1.32l-1.25-1.08-.52.6,3.53,3.05.57-.65s-.02-.02-.02-.02Zm-7.46,5.16c.56.32,1.17.1,1.54-.4h.01c-.16.54,0,1.09.5,1.38.61.35,1.3.08,1.77-.73.29-.5.37-.98.35-1.35l-.63-.12c-.01.3-.07.7-.25,1.01-.23.41-.58.55-.91.36-.36-.21-.41-.71-.14-1.18l.18-.32-.55-.32-.19.32c-.25.44-.68.89-1.19.59-.39-.22-.47-.68-.17-1.2.2-.35.56-.67.79-.81l-.47-.5c-.38.22-.71.59-.93.99-.43.75-.58,1.76.3,2.26v.02h-.01Zm-3.03,7.47c.6.21,1.12-.09,1.4-.51h.02c0,.55.29.93.69,1.07.38.13.73.05.99-.17.31-.22.51-.57.72-1.16.16-.46.27-.94.31-1.21l-4.33-1.51c-.1.2-.25.52-.4.97-.28.81-.33,1.37-.16,1.78.12.32.37.6.76.73h0Zm1.97-1.37l.14-.41,1.21.42c0,.09-.04.23-.13.47-.18.51-.48.76-.9.61-.37-.13-.53-.53-.33-1.09h0Zm-2.04-.7c.06-.18.11-.32.17-.42l1.44.5-.14.4c-.19.56-.56.93-1.07.76-.55-.19-.58-.72-.4-1.24Zm-1.83,7.58l1.36.21-.26,1.74.68.1.26-1.74,1.19.18-.28,1.84.69.11.41-2.69-4.62-.7-.42,2.79.69.1.3-1.95h0Zm3.39,7.48l-1.22.05c-.68.03-1.24,0-1.74-.13-.37-.09-.72-.24-1.05-.41l-.04-.37-1.81.12.03.65h1.16l.12,2.83-1.15.1.03.65,1.81-.03v-.44l3.99-.16-.12-2.85h-.01Zm-3.89,2.16l-.07-1.78c.24.11.54.23.85.31.5.13,1.07.18,1.71.15l.73-.03.05,1.21s-3.27.14-3.27.14Zm2.74,8.39l.67-.16-.41-1.71,1.17-.28.43,1.81.68-.16-.63-2.64-4.54,1.08.65,2.74.68-.16-.45-1.91,1.33-.32.41,1.71h0Zm5.1,6.22l-1.7.77-.82-1.8,1.7-.77-.35-.78-4.25,1.93.35.78,1.87-.85.82,1.8-1.87.85.35.78,4.25-1.93-.35-.78Zm.53,5.82c-1.1.81-1.42,2.08-.64,3.15h0c.75,1.03,2.04,1.27,3.3.34,1.07-.79,1.43-2.05.62-3.14-.78-1.06-2.14-1.19-3.29-.34h0Zm2.11,2.78c-.79.58-1.68.66-2.17,0h0c-.48-.66-.13-1.51.62-2.06.75-.55,1.66-.67,2.17.01.5.69.09,1.53-.62,2.05Zm10.13,6.42c-.4-.28-.83-.52-1.08-.63l-2.63,3.76c.17.15.44.38.82.65.71.49,1.24.69,1.68.64.34-.03.68-.19.91-.53.37-.52.22-1.1-.11-1.48v-.02c.53.14.98-.03,1.22-.38.23-.33.25-.69.11-1-.13-.35-.41-.65-.92-1.01Zm-1.02,3.35c-.33.48-.85.36-1.3.05-.16-.11-.28-.19-.36-.28l.87-1.25.35.24c.48.34.75.79.44,1.24Zm1.07-1.76c-.23.32-.65.36-1.14.02l-.36-.25.73-1.05c.08.03.21.11.42.25.44.31.6.66.34,1.03,0,0,.01,0,.01,0Zm12.2,4.3l-1.95,1.5-.13-.04.58-1.91-.81-.25-1.35,4.47.81.25.59-1.95.18.06c.64.2.76.66.78,1.26,0,.37,0,.77.06,1.13l.87.27c-.08-.49-.07-.98-.1-1.5-.04-.63-.18-1.13-.79-1.45l2.23-1.53-.98-.3h0Zm6.27,1.16c-.56-.06-.99-.07-1.31-.04l-.49,4.58.84.09.19-1.76c.11.04.25.06.41.08.6.06,1.14-.05,1.52-.35.28-.22.46-.56.5-1,.05-.43-.09-.82-.34-1.07-.27-.28-.7-.46-1.32-.53Zm-.29,2.29c-.17-.02-.3-.04-.41-.09l.17-1.56c.09-.01.26-.01.49.01.58.06.91.38.86.89-.06.54-.48.81-1.11.74h0Zm10.01-2.35l.46,4.65.85-.08-.46-4.65-.85.08Zm-2.12,1.86c-.17.02-.4.05-.53.1l-.17-1.68-.84.08.46,4.64c.22,0,.58,0,1.04-.04.65-.06,1.36-.27,1.74-.75.2-.26.31-.6.27-1.03-.1-1.04-1.01-1.41-1.96-1.32h-.01Zm.11,2.43c-.17.02-.31.02-.42.01l-.17-1.7c.09-.02.24-.05.41-.07.5-.05,1.07.14,1.13.75s-.41.95-.96,1.01h0Zm10.54-6.43v1.98c0,.58.03,1.17.08,1.69h-.02c-.28-.45-.59-.92-.93-1.39l-1.18-1.58-1.06.36,1.21,4.52.75-.26-.51-1.81c-.17-.61-.39-1.32-.56-1.91h0c.31.5.67,1.05,1.03,1.56l1.23,1.68.62-.21v-2.14c0-.62-.02-1.28-.06-1.87h.02c.2.6.46,1.27.69,1.83l.7,1.77.79-.27-1.76-4.33-1.05.36v.02h.01Zm8.07-4.09l-.77.46.4,1.86c.09.37.17.67.22.88h-.02c-.23-.17-.46-.36-.73-.56l-1.61-1.16-.83.49,2.98,1.95c.09.06.13.11.15.2.03.29-.01.7-.35.9-.11.07-.2.11-.27.13l.3.62c.11-.02.23-.06.41-.17.42-.25.62-.62.69-1.11.06-.55-.05-1.3-.16-2.03l-.41-2.49v.03h0Zm17.2-15.32c-.57-.29-1.12-.06-1.45.33h-.02c.06-.55-.17-.96-.55-1.15-.36-.18-.72-.14-1,.04-.33.18-.58.5-.86,1.05-.22.43-.4.9-.47,1.16l4.1,2.06c.12-.18.31-.48.53-.91.39-.77.5-1.32.39-1.75-.08-.33-.29-.64-.66-.83h0Zm-2.13,1.11l-.2.39-1.15-.58c.02-.09.08-.23.19-.45.24-.48.57-.69.97-.49.35.18.45.59.19,1.13Zm1.94.96c-.09.17-.15.3-.22.39l-1.36-.68.19-.38c.26-.53.68-.85,1.16-.61.52.26.48.79.23,1.28Zm-.49-10.23l1.69,1.74c.43.43.9.87,1.33,1.24v.02c-.6-.2-1.26-.4-1.97-.59l-1.59-.43-.21.76,4.5,1.23.25-.91-1.59-1.66c-.4-.41-.88-.86-1.34-1.22v-.02c.57.21,1.14.38,1.86.58l1.59.43.21-.76-4.5-1.23-.23.83h0Zm5.78-7.76l.05-.85-4.66-.28-.05.85,1.87.11-.12,1.97-1.87-.11-.05.85,4.66.28.05-.85-2.05-.12.12-1.97s2.05.12,2.05.12Zm-3.11-10.03c-1.32.19-2.22,1.13-2.03,2.48.19,1.3,1.33,2.05,2.74,1.85,1.35-.2,2.23-1.16,2.04-2.47h0c-.18-1.27-1.2-2.08-2.75-1.85h0Zm2.07,1.92c.12.81-.59,1.39-1.51,1.52-.92.13-1.78-.19-1.91-1.03-.12-.84.64-1.39,1.51-1.52.97-.14,1.79.21,1.91,1.03h0Zm-6.54-8.76l.98,2.68,1.14-.42c.64-.23,1.18-.37,1.7-.4.38-.03.76,0,1.12.07l.15.34,1.69-.66-.22-.61-1.1.34-.97-2.66,1.07-.44-.22-.61-1.72.58.13.42-3.75,1.36h0Zm4.63,1.11c-.26-.04-.59-.06-.91-.04-.51.02-1.08.16-1.68.38l-.69.25-.42-1.14,3.08-1.12.61,1.67h.01Zm-7.44-7.95l-.6.36,1.4,2.33,4-2.4-1.45-2.41-.6.36,1.01,1.68-1.17.7-.91-1.51-.59.36.91,1.51-1.03.62-.96-1.6h-.01Zm-2-4.87c.54-.48,1.13-.93,1.59-.91.16,0,.36.07.53.22l.44-.54c-.22-.24-.49-.4-.72-.47-.77-.22-1.6.38-2.43,1.13l-.93.83-.85-.95,2.96-2.65-.57-.63-3.48,3.11,1.97,2.21,1.5-1.34h0Zm-6.91-6.04c.14.11.35.25.48.31l-1.01,1.34.67.51,2.81-3.71c-.16-.15-.42-.4-.8-.68-.55-.42-1.21-.74-1.81-.65-.32.05-.63.23-.9.58-.63.83-.22,1.71.56,2.3Zm.18-1.79c.37-.49.94-.42,1.4-.07.14.1.24.19.33.29l-1.03,1.36c-.12-.07-.25-.15-.37-.25-.46-.35-.7-.84-.33-1.33Zm-7.94-3.14l1.78.86-.81,1.68.77.37,2.03-4.2-.77-.37-.9,1.85-1.78-.86.9-1.85-.77-.37-2.04,4.2.77.37.81-1.68s.01,0,.01,0Zm-6.02-.6c.32-.14.58-.42.69-.82.17-.64-.18-1.13-.69-1.36v-.02c.16-.01.31-.06.44-.13.45-.26.71-.8,1.03-1.27.1-.15.21-.3.33-.41l-.89-.23c-.1.12-.17.21-.25.32-.25.37-.52.94-.9,1.16-.18.1-.37.11-.61.05l-.33-.08.48-1.86-.82-.21-1.15,4.46c.3.14.73.29,1.17.4.58.15,1.11.17,1.49,0,0,0,0,0,.01,0Zm-1.33-2.18c.1.01.27.05.43.1.55.14.9.51.78.99-.14.53-.61.62-1.11.49-.23-.06-.38-.13-.46-.17l.36-1.41ZM51.78,0C23.23,0,0,23.23,0,51.77s23.23,51.78,51.78,51.78,51.78-23.23,51.78-51.78S80.32,0,51.78,0Zm0,102.56C23.77,102.56.99,79.78.99,51.77S23.77.99,51.78.99s50.79,22.78,50.79,50.78-22.78,50.79-50.79,50.79Zm0-99.59C24.86,2.97,2.97,24.86,2.97,51.77s21.89,48.81,48.81,48.81,48.81-21.89,48.81-48.81S78.69,2.97,51.78,2.97Zm0,96.62c-26.37,0-47.82-21.45-47.82-47.82S25.41,3.96,51.78,3.96s47.82,21.45,47.82,47.82-21.45,47.82-47.82,47.82h0Zm0-84.75c-20.37,0-36.94,16.57-36.94,36.93s16.57,36.93,36.94,36.93,36.93-16.57,36.93-36.93S72.14,14.84,51.78,14.84Zm0,72.88c-19.82,0-35.95-16.12-35.95-35.95S31.96,15.83,51.78,15.83s35.95,16.12,35.95,35.95-16.13,35.95-35.95,35.95h0Z"/>
</svg>