<svg xmlns="http://www.w3.org/2000/svg" xmlns:xlink="http://www.w3.org/1999/xlink" x="0px" y="0px"
	 viewBox="0 0 103.6 103.6">
<path d="M43.4,13l-1.2-4.5l-0.8,0.2l1,3.8l-1.8,0.5l-1-3.8l-0.8,0.2l1.2,4.5L43.4,13L43.4,13L43.4,13z M33.2,16.4
	c0.4,0.1,0.8,0,1.4-0.3c0.5-0.2,0.9-0.5,1.1-0.7l-2-4.1L33,11.7l0.8,1.6c-0.1,0-0.2,0.1-0.4,0.1c-0.5,0.3-0.9,0.6-1.1,1.1
	c-0.1,0.3-0.1,0.7,0.1,1.1C32.5,16,32.9,16.3,33.2,16.4z M33.6,14c0.2-0.1,0.3-0.1,0.4-0.1l0.7,1.4c-0.1,0.1-0.2,0.1-0.4,0.2
	c-0.5,0.3-1,0.2-1.2-0.3C32.8,14.8,33.1,14.3,33.6,14z M27.8,20.3c1-0.8,1.1-2.2,0.3-3.3C27.3,16,26,15.7,25,16.5l0,0
	c-1,0.8-1.2,2.1-0.3,3.3C25.5,20.8,26.8,21.2,27.8,20.3L27.8,20.3L27.8,20.3z M25.4,17L25.4,17c0.6-0.5,1.5-0.2,2.1,0.6
	s0.7,1.6,0,2.2s-1.5,0.1-2.1-0.6C24.8,18.4,24.7,17.5,25.4,17L25.4,17L25.4,17z M21.2,26.6l-0.8-2.3c-0.2-0.6-0.4-1.2-0.7-1.7h0
	c0.4,0.4,1,0.9,1.5,1.4l1.2,1.1l0.5-0.6l-3.5-3l-0.6,0.7l0.7,2.2c0.2,0.5,0.4,1.2,0.7,1.7v0c-0.4-0.4-0.9-0.8-1.4-1.3l-1.2-1.1
	l-0.5,0.6l3.5,3L21.2,26.6C21.2,26.7,21.2,26.6,21.2,26.6z M13.7,31.8c0.6,0.3,1.2,0.1,1.5-0.4h0c-0.2,0.5,0,1.1,0.5,1.4
	c0.6,0.3,1.3,0.1,1.8-0.7c0.3-0.5,0.4-1,0.4-1.4l-0.6-0.1c0,0.3-0.1,0.7-0.2,1c-0.2,0.4-0.6,0.6-0.9,0.4c-0.4-0.2-0.4-0.7-0.1-1.2
	l0.2-0.3l-0.6-0.3l-0.2,0.3c-0.2,0.4-0.7,0.9-1.2,0.6c-0.4-0.2-0.5-0.7-0.2-1.2c0.2-0.4,0.6-0.7,0.8-0.8l-0.5-0.5
	c-0.4,0.2-0.7,0.6-0.9,1C13,30.3,12.9,31.3,13.7,31.8L13.7,31.8L13.7,31.8z M10.7,39.3c0.6,0.2,1.1-0.1,1.4-0.5h0
	c0,0.5,0.3,0.9,0.7,1.1c0.4,0.1,0.7,0,1-0.2c0.3-0.2,0.5-0.6,0.7-1.2c0.2-0.5,0.3-0.9,0.3-1.2l-4.3-1.5c-0.1,0.2-0.2,0.5-0.4,1
	c-0.3,0.8-0.3,1.4-0.2,1.8C10.1,38.9,10.3,39.1,10.7,39.3L10.7,39.3L10.7,39.3z M12.7,37.9l0.1-0.4l1.2,0.4c0,0.1,0,0.2-0.1,0.5
	c-0.2,0.5-0.5,0.8-0.9,0.6C12.6,38.9,12.5,38.5,12.7,37.9L12.7,37.9L12.7,37.9z M10.6,37.2c0.1-0.2,0.1-0.3,0.2-0.4l1.4,0.5
	l-0.1,0.4c-0.2,0.6-0.6,0.9-1.1,0.8C10.5,38.3,10.4,37.7,10.6,37.2z M8.8,44.8l1.4,0.2l-0.3,1.7l0.7,0.1l0.3-1.7l1.2,0.2l-0.3,1.8
	l0.7,0.1l0.4-2.7l-4.6-0.7l-0.4,2.8l0.7,0.1L8.8,44.8L8.8,44.8L8.8,44.8z M12.2,52.3l-1.2,0c-0.7,0-1.2,0-1.7-0.1
	c-0.4-0.1-0.7-0.2-1.1-0.4l0-0.4l-1.8,0.1l0,0.7h1.2L7.6,55l-1.2,0.1l0,0.7l1.8,0v-0.4l4-0.2L12.2,52.3L12.2,52.3L12.2,52.3z
	 M8.3,54.4l-0.1-1.8c0.2,0.1,0.5,0.2,0.9,0.3c0.5,0.1,1.1,0.2,1.7,0.2l0.7,0l0.1,1.2C11.6,54.3,8.3,54.4,8.3,54.4z M11,62.8l0.7-0.2
	l-0.4-1.7l1.2-0.3l0.4,1.8l0.7-0.2l-0.6-2.6l-4.5,1.1l0.6,2.7l0.7-0.2l-0.4-1.9l1.3-0.3L11,62.8L11,62.8L11,62.8z M16.1,69l-1.7,0.8
	L13.6,68l1.7-0.8L15,66.4l-4.2,1.9l0.4,0.8l1.9-0.8l0.8,1.8L11.9,71l0.4,0.8l4.2-1.9L16.1,69z M16.7,74.8c-1.1,0.8-1.4,2.1-0.6,3.2
	l0,0c0.8,1,2,1.3,3.3,0.3c1.1-0.8,1.4-2.1,0.6-3.1C19.2,74.1,17.8,74,16.7,74.8L16.7,74.8L16.7,74.8z M18.8,77.6
	c-0.8,0.6-1.7,0.7-2.2,0l0,0c-0.5-0.7-0.1-1.5,0.6-2.1c0.8-0.6,1.7-0.7,2.2,0C19.9,76.3,19.5,77.1,18.8,77.6z M28.9,84
	c-0.4-0.3-0.8-0.5-1.1-0.6l-2.6,3.8c0.2,0.2,0.4,0.4,0.8,0.7c0.7,0.5,1.2,0.7,1.7,0.6c0.3,0,0.7-0.2,0.9-0.5
	c0.4-0.5,0.2-1.1-0.1-1.5v0c0.5,0.1,1,0,1.2-0.4c0.2-0.3,0.2-0.7,0.1-1C29.7,84.7,29.4,84.4,28.9,84z M27.9,87.4
	c-0.3,0.5-0.9,0.4-1.3,0.1c-0.2-0.1-0.3-0.2-0.4-0.3l0.9-1.2l0.4,0.2C27.9,86.5,28.2,86.9,27.9,87.4z M29,85.6
	c-0.2,0.3-0.6,0.4-1.1,0l-0.4-0.2l0.7-1.1c0.1,0,0.2,0.1,0.4,0.2C29,84.9,29.2,85.3,29,85.6C28.9,85.6,29,85.6,29,85.6z M41.2,89.9
	l-2,1.5l-0.1,0l0.6-1.9l-0.8-0.2l-1.3,4.5l0.8,0.2l0.6-1.9l0.2,0.1c0.6,0.2,0.8,0.7,0.8,1.3c0,0.4,0,0.8,0.1,1.1l0.9,0.3
	c-0.1-0.5-0.1-1-0.1-1.5c0-0.6-0.2-1.1-0.8-1.4l2.2-1.5L41.2,89.9L41.2,89.9L41.2,89.9z M47.4,91.1c-0.6-0.1-1-0.1-1.3,0l-0.5,4.6
	l0.8,0.1l0.2-1.8c0.1,0,0.2,0.1,0.4,0.1c0.6,0.1,1.1-0.1,1.5-0.3c0.3-0.2,0.5-0.6,0.5-1c0-0.4-0.1-0.8-0.3-1.1
	C48.5,91.3,48,91.2,47.4,91.1z M47.1,93.4c-0.2,0-0.3,0-0.4-0.1l0.2-1.6c0.1,0,0.3,0,0.5,0c0.6,0.1,0.9,0.4,0.9,0.9
	C48.2,93.2,47.8,93.5,47.1,93.4L47.1,93.4L47.1,93.4z M57.1,91l0.5,4.7l0.8-0.1L58,91L57.1,91z M55,92.9c-0.2,0-0.4,0.1-0.5,0.1
	l-0.2-1.7l-0.8,0.1l0.5,4.6c0.2,0,0.6,0,1,0c0.7-0.1,1.4-0.3,1.7-0.8c0.2-0.3,0.3-0.6,0.3-1C56.9,93.2,56,92.8,55,92.9
	C55,92.9,55,92.9,55,92.9z M55.1,95.3c-0.2,0-0.3,0-0.4,0l-0.2-1.7c0.1,0,0.2-0.1,0.4-0.1c0.5-0.1,1.1,0.1,1.1,0.8
	S55.7,95.3,55.1,95.3L55.1,95.3L55.1,95.3z M65.7,88.9v2c0,0.6,0,1.2,0.1,1.7h0c-0.3-0.4-0.6-0.9-0.9-1.4l-1.2-1.6L62.6,90l1.2,4.5
	l0.7-0.3L64,92.4c-0.2-0.6-0.4-1.3-0.6-1.9l0,0c0.3,0.5,0.7,1.1,1,1.6l1.2,1.7l0.6-0.2v-2.1c0-0.6,0-1.3-0.1-1.9h0
	c0.2,0.6,0.5,1.3,0.7,1.8l0.7,1.8l0.8-0.3l-1.8-4.3L65.7,88.9L65.7,88.9C65.7,88.9,65.7,88.9,65.7,88.9z M73.7,84.8L73,85.3l0.4,1.9
	c0.1,0.4,0.2,0.7,0.2,0.9h0c-0.2-0.2-0.5-0.4-0.7-0.6l-1.6-1.2l-0.8,0.5l3,1.9c0.1,0.1,0.1,0.1,0.2,0.2c0,0.3,0,0.7-0.3,0.9
	c-0.1,0.1-0.2,0.1-0.3,0.1l0.3,0.6c0.1,0,0.2-0.1,0.4-0.2c0.4-0.2,0.6-0.6,0.7-1.1c0.1-0.6-0.1-1.3-0.2-2L73.7,84.8L73.7,84.8
	L73.7,84.8L73.7,84.8z M90.9,69.5c-0.6-0.3-1.1-0.1-1.4,0.3h0c0.1-0.6-0.2-1-0.6-1.2c-0.4-0.2-0.7-0.1-1,0c-0.3,0.2-0.6,0.5-0.9,1.1
	c-0.2,0.4-0.4,0.9-0.5,1.2l4.1,2.1c0.1-0.2,0.3-0.5,0.5-0.9c0.4-0.8,0.5-1.3,0.4-1.8C91.5,70,91.3,69.7,90.9,69.5L90.9,69.5
	L90.9,69.5z M88.8,70.6L88.6,71l-1.2-0.6c0-0.1,0.1-0.2,0.2-0.4c0.2-0.5,0.6-0.7,1-0.5C89,69.7,89.1,70.1,88.8,70.6z M90.8,71.6
	c-0.1,0.2-0.2,0.3-0.2,0.4l-1.4-0.7l0.2-0.4c0.3-0.5,0.7-0.8,1.2-0.6C91,70.5,91,71.1,90.8,71.6z M90.3,61.3l1.7,1.7
	c0.4,0.4,0.9,0.9,1.3,1.2v0c-0.6-0.2-1.3-0.4-2-0.6l-1.6-0.4l-0.2,0.8l4.5,1.2l0.2-0.9l-1.6-1.7c-0.4-0.4-0.9-0.9-1.3-1.2v0
	c0.6,0.2,1.1,0.4,1.9,0.6l1.6,0.4l0.2-0.8l-4.5-1.2L90.3,61.3L90.3,61.3L90.3,61.3z M96,53.6l0.1-0.8l-4.7-0.3l-0.1,0.8l1.9,0.1
	l-0.1,2l-1.9-0.1l-0.1,0.8l4.7,0.3l0.1-0.8l-2.1-0.1l0.1-2C94,53.5,96,53.6,96,53.6z M92.9,43.5c-1.3,0.2-2.2,1.1-2,2.5
	c0.2,1.3,1.3,2,2.7,1.8c1.3-0.2,2.2-1.2,2-2.5l0,0C95.5,44.1,94.5,43.3,92.9,43.5L92.9,43.5L92.9,43.5z M95,45.5
	c0.1,0.8-0.6,1.4-1.5,1.5c-0.9,0.1-1.8-0.2-1.9-1c-0.1-0.8,0.6-1.4,1.5-1.5C94.1,44.3,94.9,44.6,95,45.5L95,45.5z M88.5,36.7l1,2.7
	l1.1-0.4c0.6-0.2,1.2-0.4,1.7-0.4c0.4,0,0.8,0,1.1,0.1l0.2,0.3l1.7-0.7L95,37.7L93.9,38l-1-2.7l1.1-0.4l-0.2-0.6l-1.7,0.6l0.1,0.4
	L88.5,36.7L88.5,36.7L88.5,36.7z M93.1,37.8c-0.3,0-0.6-0.1-0.9,0c-0.5,0-1.1,0.2-1.7,0.4l-0.7,0.2l-0.4-1.1l3.1-1.1L93.1,37.8
	L93.1,37.8z M85.7,29.9l-0.6,0.4l1.4,2.3l4-2.4L89,27.7l-0.6,0.4l1,1.7l-1.2,0.7L87.3,29l-0.6,0.4l0.9,1.5l-1,0.6L85.7,29.9
	L85.7,29.9L85.7,29.9z M83.7,25c0.5-0.5,1.1-0.9,1.6-0.9c0.2,0,0.4,0.1,0.5,0.2l0.4-0.5c-0.2-0.2-0.5-0.4-0.7-0.5
	c-0.8-0.2-1.6,0.4-2.4,1.1l-0.9,0.8l-0.8-1l3-2.6L83.7,21l-3.5,3.1l2,2.2L83.7,25L83.7,25L83.7,25z M76.7,18.9
	c0.1,0.1,0.3,0.2,0.5,0.3l-1,1.3l0.7,0.5l2.8-3.7c-0.2-0.1-0.4-0.4-0.8-0.7c-0.6-0.4-1.2-0.7-1.8-0.6c-0.3,0-0.6,0.2-0.9,0.6
	C75.6,17.5,76,18.4,76.7,18.9z M76.9,17.2c0.4-0.5,0.9-0.4,1.4-0.1c0.1,0.1,0.2,0.2,0.3,0.3l-1,1.4c-0.1-0.1-0.2-0.1-0.4-0.2
	C76.8,18.1,76.6,17.6,76.9,17.2z M69,14l1.8,0.9L70,16.6l0.8,0.4l2-4.2L72,12.4l-0.9,1.9l-1.8-0.9l0.9-1.9l-0.8-0.4l-2,4.2l0.8,0.4
	L69,14C69,14,69,14,69,14z M63,13.4c0.3-0.1,0.6-0.4,0.7-0.8c0.2-0.6-0.2-1.1-0.7-1.4v0c0.2,0,0.3-0.1,0.4-0.1
	c0.5-0.3,0.7-0.8,1-1.3c0.1-0.1,0.2-0.3,0.3-0.4l-0.9-0.2c-0.1,0.1-0.2,0.2-0.2,0.3c-0.2,0.4-0.5,0.9-0.9,1.2
	c-0.2,0.1-0.4,0.1-0.6,0.1l-0.3-0.1l0.5-1.9l-0.8-0.2L60.3,13c0.3,0.1,0.7,0.3,1.2,0.4C62,13.6,62.6,13.6,63,13.4
	C62.9,13.4,62.9,13.4,63,13.4z M61.6,11.2c0.1,0,0.3,0.1,0.4,0.1c0.5,0.1,0.9,0.5,0.8,1c-0.1,0.5-0.6,0.6-1.1,0.5
	c-0.2-0.1-0.4-0.1-0.5-0.2L61.6,11.2z M51.8,0C23.2,0,0,23.2,0,51.8s23.2,51.8,51.8,51.8s51.8-23.2,51.8-51.8S80.3,0,51.8,0z
	 M51.8,102.6C23.8,102.6,1,79.8,1,51.8S23.8,1,51.8,1s50.8,22.8,50.8,50.8S79.8,102.6,51.8,102.6z M51.8,3C24.9,3,3,24.9,3,51.8
	s21.9,48.8,48.8,48.8s48.8-21.9,48.8-48.8S78.7,3,51.8,3z M51.8,99.6C25.4,99.6,4,78.1,4,51.8S25.4,4,51.8,4s47.8,21.5,47.8,47.8
	S78.1,99.6,51.8,99.6L51.8,99.6L51.8,99.6z M52.4,15.5c-20.4,0-36.9,16.6-36.9,36.9s16.6,36.9,36.9,36.9s36.9-16.6,36.9-36.9
	S72.8,15.5,52.4,15.5z M52.4,88.4c-19.8,0-36-16.1-36-36s16.1-35.9,36-35.9s35.9,16.1,35.9,35.9S72.2,88.4,52.4,88.4L52.4,88.4
	L52.4,88.4z"/>
</svg>
