<?xml version="1.0" encoding="UTF-8"?>
<svg id="_Слой_1" data-name="Слой 1" xmlns="http://www.w3.org/2000/svg" viewBox="0 0 832.59 1347.63">
  <defs>
    <style>
      .cls-1 {
        stroke-width: 0px;
      }
    </style>
  </defs>
  <path class="cls-1" d="M825.34,672.8l-.58-1.16h0c-4.93-6.67-11.89-11.02-20.59-12.76V225.04c0-12.47,2.9-27.84,8.7-46.11,5.8-18.27,11.89-31.32,17.98-39.44-20.59-3.48-41.18-8.99-61.48-16.82-20.59-7.54-45.24-17.98-73.66-31.32-45.53-20.59-86.42-36.25-122.38-47.56-36.25-11.02-75.98-16.82-119.77-16.82-38.28,0-78.3,5.51-119.77,16.82-41.47,11.31-73.08,22.04-94.25,32.77-3.48-23.2-13.05-41.76-28.13-55.68S177.77,0,156.6,0l-12.18,1.45c9.86,7.25,18.27,17.69,25.52,31.32,7.25,13.92,10.73,28.42,10.73,43.5,0,20.59-6.09,42.05-17.98,64.38-12.18,22.33-31.03,52.78-56.84,91.06-33.93,49.88-60.03,93.96-78.3,131.95C9.28,401.65,0,440.8,0,480.82c0,36.54,8.99,65.54,26.68,87,17.98,21.46,41.47,32.19,71.05,32.19,27.55,0,51.33-8.12,71.05-24.65,19.72-16.53,31.61-37.12,36.25-62.35-30.45-2.61-53.65-15.37-69.6-37.99-15.95-22.62-24.07-49.88-24.07-80.91,0-47.27,13.34-94.25,40.02-141.23,26.68-46.98,63.22-86.71,109.62-119.77,46.4-33.06,97.73-53.65,153.99-61.48-12.47,9.86-26.39,27.26-41.47,52.2-13.34,21.46-26.39,39.15-38.86,52.78-12.47,13.92-30.74,27.55-54.81,40.89-7.25,4.35-15.66,7.83-25.52,10.15-9.86,2.32-17.4,2.9-22.62,2.03-1.74,10.73,1.45,20.01,10.15,27.55,8.41,7.54,20.3,11.31,35.38,11.31v466.03c6.09,2.61,11.02,7.54,14.79,14.79,3.48,7.25,5.22,14.79,5.22,22.62,0,9.86-4.06,17.98-12.18,24.65-8.12,6.67-16.82,10.15-26.68,10.15-10.73,0-20.01-3.77-27.55-11.31-7.54-7.54-11.31-16.82-11.31-27.55,0-9.86,1.74-16.82,5.22-21.46-21.46-1.74-41.76,3.48-60.9,15.95-19.14,12.47-32.48,30.45-39.44,53.65,46.4,21.46,83.52,58,111.07,109.91,27.55,51.62,41.47,111.07,41.47,178.06,0,137.46-31.61,216.34-95.12,236.93v6.67h330.6v-6.67c-29.58-9.86-52.78-29.58-69.6-58.87-16.82-29.58-25.52-62.93-25.52-100.34v-426.88c15.95,15.95,34.51,28.13,55.68,36.25,20.88,8.12,41.76,12.18,62.35,12.18,36.54,0,69.89-6.09,99.76-17.98,29.87-12.18,60.9-28.42,93.09-48.72,18.85-11.6,33.93-20.01,45.53-25.52,11.6-5.22,21.75-8.12,30.74-8.12,11.6,0,20.59,2.32,26.68,6.67.87-2.61,1.45-7.25,1.45-13.34,0-8.99-2.61-16.82-7.25-23.49ZM618.57,738.63c-22.91,18.27-50.75,27.55-83.81,27.55-21.46,0-40.02-5.51-55.39-16.82-15.66-11.02-23.49-26.1-23.49-44.95,0-15.08,5.22-27.26,15.37-36.25,10.15-8.99,22.04-13.34,35.38-13.34,11.6,0,21.46,5.22,29.58,15.37,8.12,10.15,13.05,21.75,14.79,34.22,14.21-6.38,27.26-17.11,38.86-32.77,11.6-15.66,17.4-32.77,17.4-51.62,0-27.55-10.73-51.04-32.19-70.18-21.46-19.14-47.27-28.71-77.72-28.71s-57.13,10.73-80.33,32.19V191.98c0-47.27,12.18-88.45,36.25-123.25h6.67c45.53,0,86.42,9.57,122.38,28.71,36.25,19.14,63.22,43.5,80.91,73.08v504.6s.29,0,.29,0c-7.25,24.07-22.04,45.24-44.95,63.51Z"/>
</svg>