<svg xmlns="http://www.w3.org/2000/svg" viewBox="0 0 937.09 1587.51">
  <defs>
  </defs>
  <path d="M887.22,935c-33.48-63.82-73.59-121.02-120.67-171.59l-.35-.35c-47.08-50.57-109.51-111.25-186.58-182.05-30.02-27.09-45.69-41.04-46.72-41.86,3.16-5.26,21.99-32.11,56.49-80.55l24.06-33.83v8.02c0,44.99,12.56,84.4,37.67,118.23,25.11,33.83,58.59,50.92,100.44,50.92,9.77,0,20.58-2.09,33.13-6.63,12.21-4.18,20.58-11.16,25.11-20.92-51.61-36.62-77.42-91.72-77.42-165.66,0-27.9,5.23-55.1,16.04-81.96,10.81-26.85,26.16-58.94,46.73-96.6,16.04-31.04,27.9-55.1,35.57-71.49,7.32-16.74,11.16-33.13,11.16-49.17,0-34.18-10.46-61.38-31.39-80.56-20.92-19.18-42.55-28.95-65.22-28.95,11.86,17.09,17.79,39.76,17.79,67.66,0,19.18-5.23,39.06-15.34,59.64-10.11,20.23-25.46,46.73-46.03,78.82l-27.2,43.59c3.14-15,4.88-29.99,4.88-44.99,0-36.62-9.76-70.45-28.95-102.18-19.18-31.74-46.03-56.5-80.56-74.98C535.33,9.42,497.32.35,455.47.35c-59.99,0-110.2,12.9-149.61,38.71-39.76,25.81-68.7,58.59-86.84,99.05-18.48,40.11-27.55,83-27.55,127.99,0,65.57,15,129.39,44.99,191.46,2.09-1.05,6.98-1.74,14.65-1.74,12.9,0,23.71,4.18,32.08,12.9,8.37,8.72,12.9,19.18,12.9,32.08s-4.18,23.72-12.9,33.13c-8.72,9.07-19.18,13.6-32.08,13.6-15,0-27.55-5.93-36.97-17.79-21.62,21.62-32.08,50.57-32.08,86.84,0,28.95,7.67,56.5,22.67,82.31,29.99-19.18,65.91-28.95,107.76-28.95,21.27,0,44.64,2.79,69.05,8.02-25.81,43.94-44.99,80.56-57.89,109.51-59.99,2.09-114.74,17.79-164.26,46.73-49.17,28.95-88.23,70.1-116.83,123.81C13.95,1011.72,0,1074.5,0,1146.34c0,89.28,21.27,167.05,63.47,233.31,42.55,66.61,99.04,117.88,169.84,153.8,70.8,35.92,148.22,54.06,231.92,54.06,95.56,0,178.91-19.88,250.4-59.64,71.49-39.76,125.9-93.81,164.26-162.52,38.01-68.7,57.2-144.73,57.2-228.43,0-70.8-16.74-138.1-49.87-201.93ZM358.52,347.7h.35c-31.04-47.08-46.73-94.51-46.73-141.59s13.95-86.49,41.85-115.09c27.9-28.25,61.73-42.55,101.49-42.55,35.22,0,63.12,10.11,83,29.64,19.88,19.88,29.64,43.59,29.64,71.49,0,21.62-6.28,41.15-19.18,58.59-12.9,17.79-31.04,26.5-54.75,26.5-21.62,0-38.71-4.18-51.61-12.9-4.18,8.72-6.63,19.18-6.63,32.08,0,26.85,10.11,51.27,30.69,73.24,20.23,21.97,47.78,33.13,81.96,33.13,18.14,0,35.92-3.84,53.01-11.16-38.71,52.66-74.98,103.58-109.51,153.1-57.89-55.8-102.53-107.41-133.57-154.5ZM720.17,1304.33v.35c-24.06,35.92-56.5,59.29-97.3,70.1-1.05,4.19-1.74,10.81-1.74,19.18,0,20.23,6.28,38.71,18.48,55.45,12.21,16.74,27.2,28.25,44.29,34.53-19.18,13.95-48.48,26.85-87.89,38.71-39.06,11.86-83.35,17.79-132.87,17.79-58.94,0-115.78-13.25-170.54-39.41-54.75-26.16-99.39-65.91-133.57-118.23-34.53-52.66-51.61-115.44-51.61-188.32,0-52.66,12.21-100.09,36.97-142.64,24.76-42.2,61.03-69.4,109.51-81.26-13.95,55.8-20.92,106.72-20.92,153.1s7.32,91.02,21.62,134.27c14.65,43.59,34.53,78.47,60.33,105.32,25.81,26.85,55.8,40.11,89.98,40.11,20.23,0,38.01-7.67,53.01-22.67,15-15,22.67-32.08,22.67-51.62s-7.32-37.67-21.62-51.62c-14.65-13.95-32.43-20.92-54.06-20.92-15,0-28.6,4.19-40.11,12.21-11.86,8.02-20.23,18.48-25.81,31.39-32.08-28.95-48.48-88.58-48.48-178.56,0-49.17,7.67-101.49,22.67-156.24,47.08,3.14,84.4,20.58,111.95,52.31,27.2,31.74,43.25,67.31,47.43,107.07,31.04-11.86,54.75-28.6,70.8-50.57,16.04-21.97,24.06-46.38,24.06-73.24,0-55.8-17.79-102.18-54.06-139.15-35.92-36.97-80.21-60.33-132.87-70.1,15-31.04,32.78-63.82,53.01-98.35,57.89,22.67,111.6,58.24,161.12,107.07,49.17,48.83,88.58,105.32,117.53,169.84s43.59,129.74,43.59,196.35c0,55.8-12.21,101.84-36.27,137.76h.7Z"/>
</svg>