<svg id="_Слой_1" data-name="Слой 1" xmlns="http://www.w3.org/2000/svg" viewBox="0 0 1822 1822">
  <polygon class="cls-1" points="750.62 194.73 728.63 111.22 713.48 115.28 732.15 186.23 698.52 195.1 679.85 124.15 664.52 128.22 686.51 211.73 750.62 194.92 750.62 194.92 750.62 194.73"/>
  <path class="cls-1" d="M571.39,163.32l-14.04,6.84,14.23,29.38c-2.22.55-4.43,1.48-7.21,2.77-9.98,4.8-17.37,11.83-20.32,20.32-2.22,6.28-1.66,13.3,2.03,20.69,3.51,7.21,9.42,11.83,15.89,13.49,7.02,1.66,15.52.18,25.87-4.8,9.42-4.62,16.08-8.68,20.88-12.19l-37.32-76.5ZM581.93,241.3c-9.79,4.8-17.92,3.14-22.17-5.36s-.55-17.37,10.16-22.54c2.77-1.48,4.99-2.4,7.21-2.77l12.56,26.05c-1.29,1.11-3.88,2.77-7.76,4.62Z"/>
  <path class="cls-1" d="M468.11,269.2c-15.34-19.96-38.8-25.68-58.2-10.72-18.66,14.41-22.73,38.06-5.17,61.16,14.97,19.59,38.25,25.68,58.2,10.53h-.18v-.18c19.4-14.78,21.25-39.91,5.36-60.79ZM455.36,319.64c-12.56,9.61-28.27,2.22-38.06-10.72-10.9-14.41-12.75-30.67-.55-39.91h.18v-.18c12.01-9.24,27.72-2.96,38.06,10.72,10.35,13.67,12.93,30.49.37,40.1Z"/>
  <path class="cls-1" d="M339.88,446.21l-14.23-42.5c-3.7-10.72-8.13-21.62-12.38-31.23h.37c8.13,7.95,17.55,16.44,28.09,25.31l23.1,19.96,9.61-11.09-65.22-56.36-11.46,13.3,13.3,40.47c3.51,10.16,7.76,21.43,12.56,31.04v.37c-7.95-8.13-16.08-15.52-26.42-24.39l-23.1-19.96-9.61,11.09,65.22,56.36,10.53-12.01s-.37-.37-.37-.37Z"/>
  <path class="cls-1" d="M202.04,541.55c10.35,5.91,21.62,1.85,28.45-7.39h.18c-2.96,9.98,0,20.14,9.24,25.5,11.27,6.47,24.02,1.48,32.7-13.49,5.36-9.24,6.84-18.11,6.47-24.94l-11.64-2.22c-.18,5.54-1.29,12.93-4.62,18.66-4.25,7.58-10.72,10.16-16.81,6.65-6.65-3.88-7.58-13.12-2.59-21.8l3.33-5.91-10.16-5.91-3.51,5.91c-4.62,8.13-12.56,16.44-21.99,10.9-7.21-4.06-8.68-12.56-3.14-22.17,3.7-6.47,10.35-12.38,14.6-14.97l-8.68-9.24c-7.02,4.06-13.12,10.9-17.18,18.29-7.95,13.86-10.72,32.52,5.54,41.76v.37h-.18Z"/>
  <path class="cls-1" d="M142.35,615.09c-1.85,3.7-4.62,9.61-7.39,17.92-5.17,14.97-6.1,25.31-2.96,32.89,2.22,5.91,6.84,11.09,14.04,13.49v.18c11.09,3.88,20.69-1.66,25.87-9.42h.37c0,10.16,5.36,17.18,12.75,19.77,7.02,2.4,13.49.92,18.29-3.14,5.73-4.07,9.42-10.53,13.3-21.43,2.96-8.5,4.99-17.37,5.73-22.36l-80.01-27.9ZM171.92,650.2c-3.51,10.35-10.35,17.18-19.77,14.04-10.16-3.51-10.72-13.3-7.39-22.91,1.11-3.33,2.03-5.91,3.14-7.76l26.61,9.24-2.59,7.39ZM204.99,663.13c-3.33,9.42-8.87,14.04-16.63,11.27-6.84-2.4-9.79-9.79-6.1-20.14h.18l2.59-7.58,22.36,7.76c0,1.66-.74,4.25-2.4,8.68Z"/>
  <polygon class="cls-1" points="110.94 781.38 136.07 785.26 131.27 817.41 143.83 819.26 148.64 787.11 170.62 790.44 165.45 824.43 178.2 826.47 185.78 776.76 100.41 763.83 92.65 815.38 105.4 817.23 110.94 781.2 110.94 781.2 110.94 781.38"/>
  <path class="cls-1" d="M173.77,919.78h-.18v-.18l-22.54.92c-12.56.55-22.91,0-32.15-2.4-6.84-1.66-13.3-4.43-19.4-7.58l-.74-6.84-33.44,2.22.55,12.01h21.43l2.22,52.29-21.25,1.85.55,12.01,33.44-.55v-8.13l73.72-2.96-2.22-52.66ZM101.7,959.5l-1.29-32.89c4.43,2.03,9.98,4.25,15.71,5.73,9.24,2.4,19.77,3.33,31.6,2.77l13.49-.55.92,22.36s-60.42,2.59-60.42,2.59Z"/>
  <polygon class="cls-1" points="152.33 1114.53 164.71 1111.57 157.14 1079.97 178.75 1074.8 186.7 1108.24 199.26 1105.29 187.62 1056.51 103.74 1076.46 115.75 1127.09 128.31 1124.13 120 1088.84 144.57 1082.93 152.15 1114.53 152.15 1114.53 152.33 1114.53"/>
  <polygon class="cls-1" points="246.57 1229.45 215.15 1243.68 200 1210.42 231.41 1196.2 224.95 1181.78 146.42 1217.44 152.89 1231.86 187.44 1216.15 202.59 1249.41 168.04 1265.12 174.5 1279.53 253.03 1243.87 246.57 1229.45"/>
  <path class="cls-1" d="M316.96,1343.46c-14.41-19.59-39.54-21.99-60.79-6.28l.18-.18c-20.32,14.97-26.24,38.43-11.83,58.2,13.86,19.03,37.69,23.47,60.97,6.28,19.77-14.6,26.42-37.88,11.46-58.02ZM295.35,1388.36c-14.6,10.72-31.04,12.19-40.1,0-8.87-12.2-2.4-27.9,11.46-38.06,13.86-10.16,30.67-12.38,40.1.18,9.24,12.75,1.66,28.27-11.46,37.88Z"/>
  <path class="cls-1" d="M499.52,1525.64c-2.4-6.47-7.58-12.01-17-18.66-7.39-5.17-15.34-9.61-19.96-11.64l-48.59,69.47c3.14,2.77,8.13,7.02,15.15,12.01,13.12,9.05,22.91,12.75,31.04,11.83,6.28-.55,12.56-3.51,16.81-9.79,6.84-9.61,4.07-20.32-2.03-27.35v-.37c9.79,2.59,18.11-.55,22.54-7.02,4.25-6.1,4.62-12.75,2.03-18.48ZM463.67,1568.88c-6.1,8.87-15.71,6.65-24.02.92-2.96-2.03-5.17-3.51-6.65-5.17l16.08-23.1,6.47,4.43c8.87,6.28,13.86,14.6,8.13,22.91ZM483.44,1536.36c-4.25,5.91-12.01,6.65-21.06.37l-6.65-4.62,13.49-19.4c1.48.55,3.88,2.03,7.76,4.62,8.13,5.73,11.09,12.19,6.28,19.03,0,0,.18,0,.18,0Z"/>
  <path class="cls-1" d="M708.86,1615.81l-36.03,27.72-2.4-.74,10.72-35.29-14.97-4.62-24.94,82.59,14.97,4.62,10.9-36.03,3.33,1.11c11.83,3.7,14.04,12.19,14.41,23.28,0,6.84,0,14.23,1.11,20.88l16.08,4.99c-1.48-9.05-1.29-18.11-1.85-27.72-.74-11.64-3.33-20.88-14.6-26.79l41.2-28.27-18.11-5.54h0l.18-.18Z"/>
  <path class="cls-1" d="M849.11,1647.04c-4.99-5.17-12.93-8.5-24.39-9.79-10.35-1.11-18.29-1.29-24.21-.74l-9.05,84.63,15.52,1.66,3.51-32.52c2.03.74,4.62,1.11,7.58,1.48,11.09,1.11,21.06-.92,28.09-6.47,5.17-4.06,8.5-10.35,9.24-18.48.92-7.95-1.66-15.15-6.28-19.77ZM839.87,1665.7c-1.11,9.98-8.87,14.97-20.51,13.67v.18c-3.14-.37-5.54-.74-7.58-1.66l3.14-28.82c1.66-.18,4.8-.18,9.05.18,10.72,1.11,16.81,7.02,15.89,16.44Z"/>
  <polygon class="cls-1" points="1004.31 1636.14 1012.81 1722.06 1028.52 1720.58 1020.02 1634.66 1004.31 1636.14"/>
  <path class="cls-1" d="M1001.54,1694.89c-1.85-19.22-18.66-26.05-36.22-24.39h-.18c-3.14.37-7.39.92-9.79,1.85l-3.14-31.04-15.52,1.48,8.5,85.73c4.07,0,10.72,0,19.22-.74,12.01-1.11,25.13-4.99,32.15-13.86,3.7-4.8,5.73-11.09,4.99-19.03ZM966.99,1715.4h.18c-3.14.37-5.73.37-7.76.18l-3.14-31.41c1.66-.37,4.43-.92,7.58-1.29,9.24-.92,19.77,2.59,20.88,13.86,1.11,11.27-7.58,17.55-17.74,18.66Z"/>
  <path class="cls-1" d="M1161.92,1596.6v36.58c0,10.72.55,21.62,1.48,31.23h-.37c-5.17-8.31-10.9-17-17.18-25.68l-21.8-29.19-19.59,6.65,22.36,83.52,13.86-4.8-9.42-33.44c-3.14-11.27-7.21-24.39-10.35-35.29h0c5.73,9.24,12.38,19.4,19.03,28.82l22.73,31.04,11.46-3.88v-39.54c0-11.46-.37-23.65-1.11-34.55h.37c3.7,11.09,8.5,23.47,12.75,33.81l12.93,32.7,14.6-4.99-32.52-80.01-19.4,6.65v.37s.18,0,.18,0Z"/>
  <path class="cls-1" d="M1311.04,1521.02l-14.23,8.5,7.39,34.37c1.66,6.84,3.14,12.38,4.06,16.26h-.37c-4.25-3.14-8.5-6.65-13.49-10.35l-29.75-21.43-15.34,9.05,55.06,36.03c1.66,1.11,2.4,2.03,2.77,3.7.55,5.36-.18,12.93-6.47,16.63-2.03,1.29-3.7,2.03-4.99,2.4l5.54,11.46c2.03-.37,4.25-1.11,7.58-3.14,7.76-4.62,11.46-11.46,12.75-20.51,1.11-10.16-.92-24.02-2.96-37.51l-7.58-46.01v.55h0Z"/>
  <path class="cls-1" d="M1641.22,1253.29c-1.48-6.1-5.36-11.83-12.2-15.34h-.18c-10.53-5.36-20.69-1.11-26.79,6.1h-.37c1.11-10.16-3.14-17.74-10.16-21.25-6.65-3.33-13.3-2.59-18.48.74-6.1,3.33-10.72,9.24-15.89,19.4-4.07,7.95-7.39,16.63-8.68,21.43l75.76,38.06c2.22-3.33,5.73-8.87,9.79-16.81,7.21-14.23,9.24-24.39,7.21-32.34ZM1589.49,1258.46l-3.7,7.21-21.25-10.72c.37-1.66,1.48-4.25,3.51-8.31,4.43-8.87,10.53-12.75,17.92-9.05,6.47,3.33,8.31,10.9,3.51,20.88ZM1625.33,1276.2c-1.66,3.14-2.77,5.54-4.06,7.21l-25.13-12.56,3.51-7.02c4.8-9.79,12.56-15.71,21.43-11.27,9.61,4.8,8.87,14.6,4.25,23.65Z"/>
  <path class="cls-1" d="M1616.28,1087.18l31.23,32.15c7.95,7.95,16.63,16.08,24.57,22.91v.37c-11.09-3.7-23.28-7.39-36.4-10.9l-29.38-7.95-3.88,14.04,83.15,22.73,4.62-16.81-29.38-30.67c-7.39-7.58-16.26-15.89-24.76-22.54v-.37c10.53,3.88,21.06,7.02,34.37,10.72l29.38,7.95,3.88-14.04-83.15-22.73-4.25,15.34h0v-.18Z"/>
  <polygon class="cls-1" points="1723.08 943.8 1724 928.09 1637.9 922.92 1636.97 938.62 1671.52 940.66 1669.31 977.06 1634.76 975.02 1633.83 990.73 1719.93 995.9 1720.86 980.2 1682.98 977.98 1685.2 941.58 1723.08 943.8"/>
  <path class="cls-1" d="M1716.42,792.84c-3.33-23.47-22.17-38.43-50.81-34.18v-.18c-24.39,3.51-41.02,20.88-37.51,45.82,3.51,24.02,24.57,37.88,50.63,34.18,24.94-3.7,41.2-21.43,37.69-45.64ZM1675.96,822.03c-17,2.4-32.89-3.51-35.29-19.03-2.22-15.52,11.83-25.68,27.9-28.09,17.92-2.59,33.07,3.88,35.29,19.03,2.22,14.97-10.9,25.68-27.9,28.09Z"/>
  <path class="cls-1" d="M1704.23,650.56l-20.32,6.28-17.92-49.15,19.77-8.13-4.06-11.27-31.78,10.72,2.4,7.76-69.29,25.13v.18l18.11,49.52,21.06-7.76c11.83-4.25,21.8-6.84,31.41-7.39,7.02-.55,14.04,0,20.69,1.29l2.77,6.28,31.23-12.19-4.06-11.27ZM1668.38,652.6v-.03c-4.78-.72-10.79-1.08-16.63-.71-9.42.37-19.96,2.96-31.04,7.02l-12.75,4.62-7.76-21.06,56.91-20.69,11.26,30.83c.06,0,.13.02.19.03h-.18Z"/>
  <polygon class="cls-1" points="1531.1 505.7 1520.01 512.36 1545.88 555.41 1619.79 511.06 1593 466.53 1581.91 473.18 1600.57 504.23 1578.95 517.16 1562.14 489.26 1551.24 495.91 1568.05 523.81 1549.02 535.27 1531.28 505.7 1531.1 505.7 1531.1 505.7"/>
  <path class="cls-1" d="M1494.14,415.72c9.98-8.87,20.88-17.18,29.38-16.81,2.96,0,6.65,1.29,9.79,4.06l8.13-9.98c-4.06-4.43-9.05-7.39-13.3-8.68-14.23-4.06-29.56,7.02-44.9,20.88l-17.18,15.34-15.71-17.55,54.69-48.96-10.53-11.64-64.3,57.46,36.4,40.83,27.72-24.76h0l-.18-.18Z"/>
  <path class="cls-1" d="M1406.19,262.91c-10.16-7.76-22.36-13.67-33.44-12.01-5.91.92-11.64,4.25-16.63,10.72-11.64,15.34-4.07,31.6,10.35,42.5,2.59,2.03,6.47,4.62,8.87,5.73l-18.66,24.76,12.38,9.42,51.92-68.55c-2.96-2.77-7.76-7.39-14.78-12.56ZM1382.73,300.24c-2.22-1.29-4.62-2.77-6.84-4.62-8.5-6.47-12.93-15.52-6.1-24.57,6.84-9.05,17.37-7.76,25.87-1.29,2.59,1.85,4.43,3.51,6.1,5.36l-19.03,25.13Z"/>
  <polygon class="cls-1" points="1223.08 213.03 1255.97 228.92 1241.01 259.96 1255.23 266.79 1292.74 189.19 1278.52 182.35 1261.89 216.54 1229 200.65 1245.63 166.46 1231.4 159.63 1193.71 237.23 1207.93 244.07 1222.9 213.03 1223.08 213.03"/>
  <path class="cls-1" d="M1128.67,123.6c-1.85,2.22-3.14,3.88-4.62,5.91-4.62,6.84-9.61,17.37-16.63,21.43-3.33,1.85-6.84,2.03-11.27.92l-6.1-1.48,8.87-34.37-15.15-3.88-21.25,82.41c5.54,2.59,13.49,5.36,21.62,7.39,10.72,2.77,20.51,3.14,27.53,0h.18c5.91-2.59,10.72-7.76,12.75-15.15,3.14-11.83-3.33-20.88-12.75-25.13v-.37c2.96-.18,5.73-1.11,8.13-2.4,8.31-4.8,13.12-14.78,19.03-23.47,1.85-2.77,3.88-5.54,6.1-7.58l-16.44-4.25ZM1109.63,181.8c-2.59,9.79-11.27,11.46-20.51,9.05-4.25-1.11-7.02-2.4-8.5-3.14l6.65-26.05c1.85.18,4.99.92,7.95,1.85,10.16,2.59,16.63,9.42,14.41,18.29Z"/>
  <path class="cls-1" d="M911,234c-373.9,0-677,303.1-677,677s303.1,677,677,677,677-303.1,677-677S1284.9,234,911,234ZM911,1568.94c-363.37,0-657.94-294.57-657.94-657.94S547.63,253.06,911,253.06s657.94,294.57,657.94,657.94-294.57,657.94-657.94,657.94Z"/>
  <path class="cls-1" d="M911,0C407.87,0,0,407.87,0,911s407.87,911,911,911,911-407.87,911-911S1414.13,0,911,0ZM911,1796.35c-488.97,0-885.35-396.39-885.35-885.35S422.03,25.65,911,25.65s885.35,396.39,885.35,885.35-396.39,885.35-885.35,885.35Z"/>
  <circle class="cls-1" cx="909" cy="136" r="29"/>
  <circle class="cls-1" cx="1472" cy="1441" r="29"/>
</svg>