<svg xmlns="http://www.w3.org/2000/svg" viewBox="0 0 48 48">
  <path d="M24 5.9960938C16.106 5.9960938 9.4475469 7.6979219 6.1855469 10.544922C4.4925469 12.022922 3.71075 14.179406 4.09375 16.316406L4.4179688 17.457031C4.9659688 19.698031 7.1848906 21.213656 9.5878906 20.972656L12.126953 20.654297C14.165953 20.456297 15.842344 19.040891 16.277344 17.212891L16.976562 14.111328C17.027563 13.898328 17.170328 13.70475 17.361328 13.59375C17.931328 13.28875 21.158 13 24 13C26.842 13 30.067719 13.28875 30.636719 13.59375C30.826719 13.70475 30.971875 13.897406 31.046875 14.191406L31.697266 17.130859C32.156266 19.040859 33.83375 20.455391 35.84375 20.650391L38.439453 20.976562C38.602453 20.992563 38.764781 21 38.925781 21C41.117781 21 43.069313 19.546094 43.570312 17.496094L43.880859 16.416016L43.904297 16.318359C44.287297 14.181359 43.5055 12.022922 41.8125 10.544922C38.5525 7.6969219 31.894 5.9960938 24 5.9960938 z M 20.476562 16.978516 A 1.50015 1.50015 0 0 0 19 18.5L19 21.074219L15.431641 22.857422C10.230641 25.458422 7 30.685 7 36.5C7 39.533 9.467 42 12.5 42L35.5 42C38.533 42 41 39.533 41 36.5C41 30.685 37.769359 25.458422 32.568359 22.857422L29 21.074219L29 18.5 A 1.50015 1.50015 0 1 0 26 18.5L26 20L22 20L22 18.5 A 1.50015 1.50015 0 0 0 20.476562 16.978516 z M 18.5 28C19.328 28 20 28.672 20 29.5C20 30.328 19.328 31 18.5 31C17.672 31 17 30.328 17 29.5C17 28.672 17.672 28 18.5 28 z M 24 28C24.828 28 25.5 28.672 25.5 29.5C25.5 30.328 24.828 31 24 31C23.172 31 22.5 30.328 22.5 29.5C22.5 28.672 23.172 28 24 28 z M 29.5 28C30.328 28 31 28.672 31 29.5C31 30.328 30.328 31 29.5 31C28.672 31 28 30.328 28 29.5C28 28.672 28.672 28 29.5 28 z M 18.5 33C19.328 33 20 33.672 20 34.5C20 35.328 19.328 36 18.5 36C17.672 36 17 35.328 17 34.5C17 33.672 17.672 33 18.5 33 z M 24 33C24.828 33 25.5 33.672 25.5 34.5C25.5 35.328 24.828 36 24 36C23.172 36 22.5 35.328 22.5 34.5C22.5 33.672 23.172 33 24 33 z M 29.5 33C30.328 33 31 33.672 31 34.5C31 35.328 30.328 36 29.5 36C28.672 36 28 35.328 28 34.5C28 33.672 28.672 33 29.5 33 z" />
</svg>