<svg id="a" xmlns="http://www.w3.org/2000/svg" viewBox="0 0 77.46 78.39"><defs><style>.cls-1,.cls-3{fill:none;}.cls-1,.cls-2,.cls-3{fill:#e2dfcf;stroke-miterlimit:10;}.cls-3{stroke-width:0.5px;}</style></defs><title>from_site</title><path class="cls-1" d="M56.21,38.19a1.72,1.72,0,1,0,1.89,1.52A1.71,1.71,0,0,0,56.21,38.19Z" transform="translate(-11.84 -10.72)"/><path class="cls-1" d="M56.4,36a1.72,1.72,0,1,0,1.52-1.89A1.71,1.71,0,0,0,56.4,36Z" transform="translate(-11.84 -10.72)"/><path class="cls-1" d="M55.38,34.41a1.72,1.72,0,1,0-1.89-1.52A1.71,1.71,0,0,0,55.38,34.41Z" transform="translate(-11.84 -10.72)"/><path class="cls-1" d="M59.58,33.53A1.72,1.72,0,1,0,57.69,32,1.71,1.71,0,0,0,59.58,33.53Z" transform="translate(-11.84 -10.72)"/><path class="cls-1" d="M65.32,30.76a1.72,1.72,0,1,0-1.52,1.89A1.71,1.71,0,0,0,65.32,30.76Z" transform="translate(-11.84 -10.72)"/><path class="cls-1" d="M62.14,33.26A1.72,1.72,0,1,0,64,34.78,1.71,1.71,0,0,0,62.14,33.26Z" transform="translate(-11.84 -10.72)"/><path class="cls-1" d="M60.42,37.32a1.72,1.72,0,1,0,1.89,1.52A1.71,1.71,0,0,0,60.42,37.32Z" transform="translate(-11.84 -10.72)"/><path class="cls-1" d="M60.7,44a.64.64,0,0,0-.39-.53.66.66,0,0,0-.65.09c-.4.32-1.06.15-2-.17a5.06,5.06,0,0,0-2-.37,3.63,3.63,0,0,0-3,1.63,1.87,1.87,0,0,0,.56.76c.66.5,1.78.54,3.23.11a.43.43,0,0,1,.24.82c-1.76.52-3.1.43-4-.26a2.67,2.67,0,0,1-.83-1.09,3.4,3.4,0,0,1-.54-3c0-.09.08-.18.12-.27a4.66,4.66,0,0,0,.25-.4.36.36,0,0,0,0-.09,3.81,3.81,0,0,1,2.07-1.32,2.35,2.35,0,0,1,.07-.6l-.15,0a2.61,2.61,0,0,1-1.34-.22,4.49,4.49,0,0,0-2,2h0a1.14,1.14,0,0,1-.17.35,1.16,1.16,0,0,1-.14.24.87.87,0,0,1-.11.38.39.39,0,0,1,0,.15v.59A4.92,4.92,0,0,0,51.07,46h0l0,0h0a3.88,3.88,0,0,0,1.84,1.5.71.71,0,0,0,.08.15,3.79,3.79,0,0,0,3.47,1.19,5.27,5.27,0,0,0,1.42-.35,4.25,4.25,0,0,0,2.81-4.58v0Z" transform="translate(-11.84 -10.72)"/><path class="cls-1" d="M53.66,38.46a1.72,1.72,0,1,0-1.89-1.52A1.71,1.71,0,0,0,53.66,38.46Z" transform="translate(-11.84 -10.72)"/><path class="cls-2" d="M73.23,11.22a1.52,1.52,0,0,0-1.1.46l-.29.29a1.56,1.56,0,0,0,0,2.2l.38.38a.89.89,0,0,0,.22.75l1.88,1.86-.28.28a.92.92,0,0,0,0,1.29l.55.55-1.33,1.35v1l-2.53-1.12.83,2.73-2.66-.79.83,2.46-2-.24V26.2l-.71.72a.25.25,0,0,0,0,.37.26.26,0,0,0,.37,0h0l.87-.87V25.29l2.23.27-.77-2.29,2.63.78-.78-2.56,2.23,1V20.85L75,19.65l.55.55a.92.92,0,0,0,1.29,0l.28-.28L79,21.78a.84.84,0,0,0,.75.22l.38.38a1.56,1.56,0,0,0,2.2,0l.29-.29a1.57,1.57,0,0,0,0-2.2l-.38-.38a.89.89,0,0,0-.22-.75l-1.88-1.86,0,0a.92.92,0,0,0,0-1.29l-1.48-1.46a.92.92,0,0,0-1.29,0l0,0-1.88-1.86a.84.84,0,0,0-.75-.22l-.38-.38a1.52,1.52,0,0,0-1.1-.46h0Zm0,.53a1,1,0,0,1,.72.3l.24.24a.27.27,0,0,0-.17.25.26.26,0,0,0,.26.26.27.27,0,0,0,.26-.23h.14a.37.37,0,0,1,.4.09l2.07,2a.27.27,0,0,0,.37,0l.2-.2a.38.38,0,0,1,.54,0L79.74,16a.38.38,0,0,1,0,.54l-.2.2a.27.27,0,0,0,0,.37l2.07,2.05a.37.37,0,0,1,.09.4.17.17,0,0,0,0,.14.27.27,0,0,0-.23.26.26.26,0,0,0,.26.26A.27.27,0,0,0,82,20l.24.24a1,1,0,0,1,0,1.45l-.29.29a1,1,0,0,1-1.45,0l-.24-.24a.27.27,0,0,0,.17-.25.26.26,0,0,0-.26-.26.27.27,0,0,0-.26.23h-.14a.37.37,0,0,1-.4-.09l-2.07-2.05a.27.27,0,0,0-.37,0l-.47.47a.38.38,0,0,1-.54,0l-1.48-1.46a.38.38,0,0,1,0-.54l.47-.47a.27.27,0,0,0,0-.37l-2.07-2a.37.37,0,0,1-.09-.4.17.17,0,0,0,0-.14.27.27,0,0,0,.23-.26.26.26,0,0,0-.26-.26.27.27,0,0,0-.25.17l-.24-.24a1,1,0,0,1,0-1.45l.29-.29a1,1,0,0,1,.73-.3Zm.27,1.32a.26.26,0,0,0-.26.26.26.26,0,1,0,.26-.26Zm3.18,1.57a.26.26,0,0,0-.26.26.26.26,0,1,0,.26-.26Zm-.79.79a.26.26,0,0,0-.26.26.26.26,0,1,0,.26-.26Zm-.79.79a.26.26,0,0,0-.26.26.26.26,0,1,0,.26-.26Zm4.24,1a.26.26,0,0,0-.26.26.26.26,0,1,0,.26-.26Zm-.79.79a.26.26,0,0,0-.26.26.26.26,0,1,0,.26-.26Zm-.79.79a.26.26,0,0,0-.26.26.26.26,0,1,0,.26-.26Zm3.18,1.57a.26.26,0,0,0-.26.26.26.26,0,1,0,.26-.26Z" transform="translate(-11.84 -10.72)"/><path class="cls-2" d="M23.89,79.45A1.64,1.64,0,0,0,25,79l.31-.29a1.59,1.59,0,0,0,.07-2.24l-.37-.4a.93.93,0,0,0-.2-.78l-1.85-2,.3-.28a.93.93,0,0,0,0-1.31l-.54-.58,1.41-1.33,0-1L26.79,70,26,67.22l2.69.9L28,65.58l2,.32,0-1.54.76-.7a.27.27,0,1,0-.36-.4h0l-.92.86,0,1.16-2.27-.35.71,2.37-2.65-.89.7,2.64L23.73,68l-.05,1.65L22.43,70.8l-.54-.58a.93.93,0,0,0-1.31,0l-.3.28-1.85-2a.91.91,0,0,0-.76-.26l-.37-.4a1.59,1.59,0,0,0-2.24-.07l-.31.29a1.59,1.59,0,0,0-.07,2.24l.37.4a.93.93,0,0,0,.2.78l1.85,2,0,0a.93.93,0,0,0,0,1.31l1.45,1.54a.93.93,0,0,0,1.31,0l0,0,1.85,2a.91.91,0,0,0,.76.26l.37.4a1.52,1.52,0,0,0,1.11.49h0Zm0-.55a1,1,0,0,1-.73-.33l-.24-.25a.26.26,0,0,0,.18-.25.28.28,0,0,0-.26-.28.27.27,0,0,0-.27.22h-.14a.37.37,0,0,1-.4-.1l-2-2.16a.26.26,0,0,0-.38,0l-.22.2a.38.38,0,0,1-.55,0l-1.45-1.54a.38.38,0,0,1,0-.55l.22-.2a.26.26,0,0,0,0-.38l-2-2.16a.37.37,0,0,1-.07-.41.32.32,0,0,0,0-.14.29.29,0,0,0,.24-.26.28.28,0,0,0-.26-.28.27.27,0,0,0-.26.17l-.24-.25a1,1,0,0,1,0-1.48l.31-.29a1,1,0,0,1,1.48,0l.24.25a.26.26,0,0,0-.18.25.28.28,0,0,0,.26.28.27.27,0,0,0,.27-.22h.14a.37.37,0,0,1,.4.1l2,2.16a.26.26,0,0,0,.38,0l.5-.46a.38.38,0,0,1,.55,0l1.45,1.54a.38.38,0,0,1,0,.55l-.5.46a.26.26,0,0,0,0,.38l2,2.16a.37.37,0,0,1,.07.41.32.32,0,0,0,0,.14.27.27,0,0,0-.24.26.28.28,0,0,0,.26.28.27.27,0,0,0,.26-.17l.24.25a1,1,0,0,1,0,1.48l-.31.29a1,1,0,0,1-.75.28Zm-.23-1.35a.28.28,0,0,0,.28-.26.27.27,0,1,0-.28.26Zm-3.19-1.71a.28.28,0,0,0,.28-.26.27.27,0,1,0-.28.26Zm.84-.78a.28.28,0,0,0,.28-.26.27.27,0,1,0-.28.26Zm.84-.78a.28.28,0,0,0,.28-.26.27.27,0,1,0-.28.26Zm-4.29-1.21a.28.28,0,0,0,.28-.26.27.27,0,1,0-.28.26Zm.84-.78A.28.28,0,0,0,19,72a.27.27,0,1,0-.28.26Zm.84-.78a.28.28,0,0,0,.28-.26.27.27,0,1,0-.28.26ZM16.37,69.8a.28.28,0,0,0,.28-.26.27.27,0,1,0-.28.26Z" transform="translate(-11.84 -10.72)"/><path class="cls-2" d="M12.34,23.34a1.49,1.49,0,0,0,.46,1.08l.29.29a1.52,1.52,0,0,0,2.16,0l.37-.37a.88.88,0,0,0,.74-.22l1.83-1.85.28.28a.9.9,0,0,0,1.27,0l.54-.54,1.33,1.31h1l-1.1,2.49L24.2,25l-.78,2.62,2.43-.82-.24,2H27.1l.7.69a.26.26,0,0,0,.37,0,.25.25,0,0,0,0-.37h0l-.86-.86H26.2l.26-2.2-2.26.76L25,24.18,22.45,25l1-2.19H21.82L20.64,21.6l.54-.54a.9.9,0,0,0,0-1.27l-.28-.28,1.83-1.85a.88.88,0,0,0,.22-.74l.37-.37a1.52,1.52,0,0,0,0-2.16L23,14.1a1.53,1.53,0,0,0-2.16,0l-.37.37a.88.88,0,0,0-.74.22l-1.83,1.85,0,0a.9.9,0,0,0-1.27,0L15.2,18a.9.9,0,0,0,0,1.27l0,0-1.83,1.85a.88.88,0,0,0-.22.74l-.37.37A1.61,1.61,0,0,0,12.34,23.34Zm.52,0a1,1,0,0,1,.3-.71l.24-.24a.26.26,0,0,0,.24.17.26.26,0,0,0,.26-.26.26.26,0,0,0-.22-.26.53.53,0,0,0,0-.13.36.36,0,0,1,.09-.39l2-2a.27.27,0,0,0,0-.37l-.2-.2a.37.37,0,0,1,0-.53L17,16.94a.37.37,0,0,1,.53,0l.2.2a.27.27,0,0,0,.37,0l2-2A.38.38,0,0,1,20.5,15a.17.17,0,0,0,.14,0,.26.26,0,0,0,.26.22.26.26,0,0,0,.26-.26.25.25,0,0,0-.17-.24l.24-.24a1,1,0,0,1,1.43,0l.29.29a1,1,0,0,1,0,1.43l-.24.24a.26.26,0,0,0-.24-.17.26.26,0,0,0-.26.26.26.26,0,0,0,.22.26.53.53,0,0,0,0,.13.36.36,0,0,1-.09.39l-2,2a.27.27,0,0,0,0,.37l.46.46a.37.37,0,0,1,0,.53l-1.43,1.45a.37.37,0,0,1-.53,0l-.46-.46a.27.27,0,0,0-.37,0l-2,2a.38.38,0,0,1-.39.09.15.15,0,0,0-.13,0,.26.26,0,0,0-.26-.22.26.26,0,0,0-.26.26.25.25,0,0,0,.17.24l-.24.24a1,1,0,0,1-1.43,0l-.29-.29a1,1,0,0,1-.3-.71h0Zm1.3-.28a.26.26,0,1,0,.26-.26A.26.26,0,0,0,14.16,23.06Zm1.54-3.13a.26.26,0,1,0,.26-.26A.26.26,0,0,0,15.7,19.93Zm.78.78a.26.26,0,1,0,.26-.26A.26.26,0,0,0,16.48,20.71Zm.78.78a.26.26,0,1,0,.26-.26A.26.26,0,0,0,17.26,21.49Zm1-4.17a.26.26,0,1,0,.26-.26A.26.26,0,0,0,18.28,17.32Zm.78.78a.26.26,0,1,0,.26-.26A.26.26,0,0,0,19.06,18.1Zm.78.78a.26.26,0,1,0,.26-.26A.26.26,0,0,0,19.84,18.88Zm1.54-3.13a.26.26,0,1,0,.26-.26A.26.26,0,0,0,21.38,15.75Z" transform="translate(-11.84 -10.72)"/><path class="cls-1" d="M44.71,42.62a.69.69,0,0,0-.53.83,3.27,3.27,0,0,0,1.36,2.12,1.06,1.06,0,0,0,.21.11A9.5,9.5,0,0,0,44.5,48a.7.7,0,0,0,1.32.44h0a8.14,8.14,0,0,1,3.09-3.88.7.7,0,0,0,.25-1,.69.69,0,0,0-.74-.33,1,1,0,0,0-.24.09,7.78,7.78,0,0,0-1.51,1.21,1.07,1.07,0,0,1-.37-.18,1.81,1.81,0,0,1-.76-1.25.69.69,0,0,0-.81-.56h0v0Zm-7.94,6.49a1.74,1.74,0,1,0,2.06,1.35A1.75,1.75,0,0,0,36.77,49.11Zm4.78-1a1.74,1.74,0,1,0,2.06,1.35A1.75,1.75,0,0,0,41.55,48.13Zm5.7.25a.33.33,0,0,0-.24.42,4.05,4.05,0,0,0,4.54,3,.32.32,0,0,0,.24-.45,4,4,0,0,0-4.53-2.93h0ZM35.57,53.63A1.74,1.74,0,1,0,37.63,55,1.75,1.75,0,0,0,35.57,53.63Zm4.78-1A1.74,1.74,0,1,0,42.41,54,1.75,1.75,0,0,0,40.35,52.65Zm4.78-1A1.74,1.74,0,1,0,47.19,53,1.75,1.75,0,0,0,45.13,51.67ZM33.7,58.29a1.74,1.74,0,1,0,2.06,1.35A1.75,1.75,0,0,0,33.7,58.29Zm4.78-1a1.74,1.74,0,1,0,2.06,1.35A1.75,1.75,0,0,0,38.48,57.31Zm4.78-1a1.74,1.74,0,1,0,2.06,1.35A1.75,1.75,0,0,0,43.26,56.33Z" transform="translate(-11.84 -10.72)"/><path class="cls-1" d="M38.07,43.27A1.86,1.86,0,1,0,36,45,1.86,1.86,0,0,0,38.07,43.27Zm5.19.49a1.86,1.86,0,1,0-2,1.68A1.86,1.86,0,0,0,43.26,43.76Zm-7-5.16a1.86,1.86,0,1,0-2,1.68A1.86,1.86,0,0,0,36.26,38.6Zm5.19.49a1.86,1.86,0,1,0-2,1.68A1.86,1.86,0,0,0,41.45,39.09Zm5.19.49a1.86,1.86,0,1,0-2,1.68A1.86,1.86,0,0,0,46.64,39.58ZM33.71,33.85a1.86,1.86,0,1,0-2,1.68A1.86,1.86,0,0,0,33.71,33.85Zm5.19.49a1.86,1.86,0,1,0-2,1.68A1.86,1.86,0,0,0,38.9,34.34Zm5.19.49a1.86,1.86,0,1,0-2,1.68A1.86,1.86,0,0,0,44.09,34.83Z" transform="translate(-11.84 -10.72)"/><path class="cls-3" d="M51.38,65.83a1,1,0,0,1,.31-.56,1,1,0,0,1,.93-.3,1.3,1.3,0,0,1,.71.41l.11.12,1-1a.28.28,0,0,0-.06-.06l-1.82-1.94-1,1,.31.33a2.32,2.32,0,0,0-1.5.7,2.55,2.55,0,0,0-.47.68,1.56,1.56,0,0,0-.22.75,1.75,1.75,0,0,0-.76.17,2.47,2.47,0,0,0-.71.4,2.39,2.39,0,0,0-.81,1.58l-.37-.4-1,1,1.88,2,1-1-.07-.08a1.24,1.24,0,0,1-.32-.83,1.11,1.11,0,0,1,.38-.93,1,1,0,0,1,.56-.25.8.8,0,0,1,.74.27l2,2.14c.51.55.62,1,.35,1.21a.76.76,0,0,1-.28.16l.81.89a1.56,1.56,0,0,0,.52-.32,1.51,1.51,0,0,0,.58-1.24,1.59,1.59,0,0,0,1.59-1L55,68.83l-.12.29c-.28.26-.68.12-1.19-.42l-2-2.13a.83.83,0,0,1-.23-.74h0Zm1.85-1.3-.83-.9.05-.05,1,1-.09.09a1.3,1.3,0,0,0-.31-.16h.21Zm-5.3,5.22-.11.1-1-1,0,0,.91,1,0-.24.09.24h0Zm5.1-.48c.75.81,1.34.83,1.73.7a.76.76,0,0,1-.56.22L53.34,70l.06.88a.74.74,0,0,1-.24.56c.16-.38.16-1-.59-1.76l-2-2.14a1.45,1.45,0,0,0-1.32-.46,1.67,1.67,0,0,0-.93.42l0,0a1.7,1.7,0,0,0-.22.24,1.79,1.79,0,0,1,.45-.62l0,0a2.48,2.48,0,0,1,.51-.28,1.43,1.43,0,0,1,.45-.13l.76.07,0-.76a1.21,1.21,0,0,1,.15-.43,1.66,1.66,0,0,1,.33-.49l0,0a1.73,1.73,0,0,1,.68-.42,2,2,0,0,0-.3.23,1.65,1.65,0,0,0-.51.93,1.48,1.48,0,0,0,.4,1.32l2,2.13h0Zm12.64-8.65-2.18-5.38A1.15,1.15,0,0,1,64,53.5l-.8-.86a.88.88,0,0,0-.5.29,1.32,1.32,0,0,0-.5,1.21,1.41,1.41,0,0,0-1.19.41,1.21,1.21,0,0,0-.4.54l.74.81a.77.77,0,0,1,.09-.13.54.54,0,0,1,.29-.15.29.29,0,0,1,.26.06c.05,0,.47,1.1,1.24,3.14a14.41,14.41,0,0,1-3.19-1.33q-.21-.23.06-.48a1.27,1.27,0,0,1,.27-.18l-.74-.78a2.6,2.6,0,0,0-.68.39,1.59,1.59,0,0,0-.36.54,1.19,1.19,0,0,0-.1.62,2.83,2.83,0,0,0-.69.08,1.55,1.55,0,0,0-.58.35,1.22,1.22,0,0,0-.44.74l.74.79a.59.59,0,0,1,.18-.38.46.46,0,0,1,.3-.13.34.34,0,0,1,.29.11c0,.05.47,1.1,1.24,3.14A14.89,14.89,0,0,1,56.35,61c-.14-.15-.12-.31.07-.48a.9.9,0,0,1,.26-.17L56,59.53a1.66,1.66,0,0,0-.77.46,1.06,1.06,0,0,0-.33,1.08,2,2,0,0,0-1.39.52,1,1,0,0,0-.35.66l.74.79a.54.54,0,0,1,.17-.37.77.77,0,0,1,.67-.16,2.81,2.81,0,0,1,.57.21L61,65l1-.91-1.78-4.38,4.52,1.83,1-.91h0v0Zm-6.81-2L61.07,64l-.32.31L55.41,62.2a4.25,4.25,0,0,0-.7-.25,1.42,1.42,0,0,0-.46,0,2,2,0,0,1,.51-.08h.83L55.41,61a.41.41,0,0,1,.14-.44h0a.93.93,0,0,0,.22.94c.2.22.63.51,3.46,1.51l1.36.48-.52-1.35C58.85,59,58.81,59,58.69,58.82a1,1,0,0,0-.84-.32h-.09a.51.51,0,0,1,.15-.07,2,2,0,0,1,.52,0l.75,0-.11-.74a.86.86,0,0,1,0-.26,1,1,0,0,1,.11-.21.92.92,0,0,0,.23.92c.2.22.63.51,3.46,1.51l1.36.48-.52-1.35c-1.22-3.18-1.26-3.23-1.38-3.36a.9.9,0,0,0-.89-.26.11.11,0,0,0-.07,0A.73.73,0,0,1,62,55l.53.06a3.06,3.06,0,0,0,.18.63l2,5-.32.31-5.58-2.25h0Zm9.61-2a5.17,5.17,0,0,0,4.73-4.45,3.53,3.53,0,0,0-3.79-4.06,5.17,5.17,0,0,0-4.73,4.45,3.52,3.52,0,0,0,3.79,4h0ZM69.34,49a2.86,2.86,0,0,1,3.1,3.31,3.88,3.88,0,0,1-.7,1.86,2.9,2.9,0,0,0,.25-1.4,3.57,3.57,0,0,0-1-2.32,3.52,3.52,0,0,0-2.26-1.15,3.74,3.74,0,0,0-.75,0A4.42,4.42,0,0,1,69.33,49h0ZM67,50.38a2.16,2.16,0,0,1,1.75-.58,2.77,2.77,0,0,1,1.82.94,3,3,0,0,1,.84,1.9A2.12,2.12,0,0,1,69,54.92a3.1,3.1,0,0,1-2.66-2.85,2.11,2.11,0,0,1,.68-1.7h0Zm-1.79,2.45a4.32,4.32,0,0,1,.39-1.34,3.57,3.57,0,0,0-.07.74,3.46,3.46,0,0,0,1,2.32,3.6,3.6,0,0,0,2.26,1.16,2.89,2.89,0,0,0,1.42-.17,4,4,0,0,1-1.92.58,2.86,2.86,0,0,1-3.1-3.31h0ZM50.3,78.9A4.51,4.51,0,0,0,48.2,80a6.5,6.5,0,0,0-.88,1,3.1,3.1,0,0,0-.58,1.18,1.77,1.77,0,0,0-1.28.51,2.68,2.68,0,0,0-.62.79l.73.79a1.24,1.24,0,0,1,.29-.36.43.43,0,0,1,.31-.12.41.41,0,0,1,.3.12L49,86.57c.51.55.62,1,.35,1.21A.82.82,0,0,1,49,88l.81.87a1.59,1.59,0,0,0,.5-.3,1.72,1.72,0,0,0,.53-1.19,2.3,2.3,0,0,0,1.31-.57,2.66,2.66,0,0,0,.52-.62l-.86-.91a.67.67,0,0,1-.26.51.43.43,0,0,1-.69,0L49.81,84.6a6.48,6.48,0,0,0,1.8-1.15,4.71,4.71,0,0,0,1.33-1.93,2,2,0,0,0-.42-2.15,2.12,2.12,0,0,0-2.2-.47Zm.34,7.88-.54.08,0,.54a1.12,1.12,0,0,1-.08.39,1.79,1.79,0,0,0-.66-1.56l-2.48-2.64a1,1,0,0,0-.79-.33.86.86,0,0,0-.23,0,1.1,1.1,0,0,1,.79-.3h.53l1.59,1.7h0l1.51,1.6a1.13,1.13,0,0,0,.79.39,2.26,2.26,0,0,1-.41.09h0Zm-.92-3.49-.76.44-1.12-1.18a2.89,2.89,0,0,1,2-2,1.18,1.18,0,0,1,1.21.24c.22.24.22.59,0,1.06a3.15,3.15,0,0,1-.68.92,3.59,3.59,0,0,1-.69.5h0Zm2.46-1.87A4.1,4.1,0,0,1,51.11,83a3.61,3.61,0,0,0,.46-.73,1.49,1.49,0,0,0-.11-1.81A1.74,1.74,0,0,0,49.6,80q-.27.07-.54.18a4.2,4.2,0,0,1,1.28-.55c.95-.23,1.35,0,1.56.27a1.33,1.33,0,0,1,.28,1.48h0Zm4.38-8.55a3.39,3.39,0,0,0-1.68.9l-1,.89A4.18,4.18,0,0,0,53,75.83a2.15,2.15,0,0,0-.29.89.88.88,0,0,0-1.06.17,2.3,2.3,0,0,0-.37.62l.74.8a1.05,1.05,0,0,1,.25-.39.43.43,0,0,1,.31-.12.41.41,0,0,1,.31.12l2.48,2.64c.51.55.62,1,.35,1.21a.82.82,0,0,1-.29.17l.82.88a1.32,1.32,0,0,0,.43-.24,1.18,1.18,0,0,0,.33-.49,2.28,2.28,0,0,0,.1-.59,3.86,3.86,0,0,0,2.28-1.32l.63-.59a5.12,5.12,0,0,0,.74-.88,3,3,0,0,0,.44-.89l.23.25,1-1-1.84-2-1,1a1.93,1.93,0,0,1,.48,1,1.19,1.19,0,0,1-.34,1.1l-1.14,1.08a1.22,1.22,0,0,1-.93.21,1.23,1.23,0,0,1-.83-.25l-.52-.56.83-.75a.76.76,0,0,1,.5-.21.56.56,0,0,1,.46.17,1.35,1.35,0,0,1,.22.28l.88-.82A1,1,0,0,0,59,77a1.31,1.31,0,0,0-1.4-.46,1.14,1.14,0,0,0,0-.73,1.64,1.64,0,0,0-.36-.71.92.92,0,0,0-.31-.23l-.88.82a1.71,1.71,0,0,1,.25.22.72.72,0,0,1,.19.55.77.77,0,0,1-.24.53l-.79.73-.6-.64a1.08,1.08,0,0,1-.21-.87,1.15,1.15,0,0,1,.29-.71l1.11-1.05a1.48,1.48,0,0,1,1.12-.39,1.33,1.33,0,0,1,.92.4l.09.1,1-1-1.86-2-1,1,.27.29,0,0Zm3.81,3.44.12-.11.93,1-.05,0-.62-.67-.11.47a2.58,2.58,0,0,0-.25-.74h0Zm-6.52-.06a1.7,1.7,0,0,0,.39,1.42l2,2.14a1.78,1.78,0,0,0,1.29.46,2.27,2.27,0,0,0,.94-.11c-.85.71-1.29.8-1.46.8H56.4v.18a2.82,2.82,0,0,0-.6-.91l-2.5-2.67,0-.68a1.81,1.81,0,0,1,.22-.61,3.63,3.63,0,0,1,.54-.76,2.14,2.14,0,0,0-.22.75h0Zm3.28-3.53,0,0,1,1-.11.1a2.24,2.24,0,0,0-.84-.27l.6-.11-.64-.69h0Zm6.62-6.55a2.33,2.33,0,0,0-2,1.38,1.56,1.56,0,0,0-.22.75,1.75,1.75,0,0,0-.76.17,2.62,2.62,0,0,0-.71.4,2.39,2.39,0,0,0-.81,1.58l-.37-.39-1,1,1.88,2,1-1L60.72,72a1.24,1.24,0,0,1-.32-.83,1.11,1.11,0,0,1,.38-.93,1,1,0,0,1,.56-.25.8.8,0,0,1,.74.27l2,2.14c.51.55.62,1,.35,1.21a.76.76,0,0,1-.28.16l.81.89a1.44,1.44,0,0,0,.52-.33,1.51,1.51,0,0,0,.58-1.24,1.59,1.59,0,0,0,1.59-1l-.83-.87-.12.29c-.28.26-.68.12-1.19-.42l-2-2.13a.83.83,0,0,1-.23-.74,1,1,0,0,1,.31-.56,1,1,0,0,1,.93-.3,1.3,1.3,0,0,1,.71.41l.11.12,1-1a.28.28,0,0,0-.06-.06l-1.82-1.94-1,1,.31.33h0Zm-3.94,6-.11.1-1-1,0,0,.91,1,0-.24.09.24h0ZM63,67.25a1.65,1.65,0,0,0-.51.93,1.48,1.48,0,0,0,.4,1.32l2,2.13c.75.81,1.34.83,1.73.7a.76.76,0,0,1-.56.22l-.86-.18.06.88a.74.74,0,0,1-.24.56c.16-.38.16-1-.59-1.76l-2-2.14a1.45,1.45,0,0,0-1.32-.46,1.67,1.67,0,0,0-.93.42l0,0a1.7,1.7,0,0,0-.22.24,1.89,1.89,0,0,1,.45-.62l0,0a2.48,2.48,0,0,1,.51-.28,1.43,1.43,0,0,1,.45-.13l.76.07,0-.76a1.21,1.21,0,0,1,.15-.43,1.66,1.66,0,0,1,.33-.49l0,0a1.73,1.73,0,0,1,.68-.42,2,2,0,0,0-.3.23h0Zm2.11-.39-.83-.9,0,0,1,1-.1.09a1.3,1.3,0,0,0-.31-.16h.22ZM70.26,60a3.39,3.39,0,0,0-1.68.9l-1,.89A4.18,4.18,0,0,0,66.73,63a2.15,2.15,0,0,0-.29.89.88.88,0,0,0-1.06.17,2.3,2.3,0,0,0-.37.62l.74.8A1.05,1.05,0,0,1,66,65a.43.43,0,0,1,.31-.12.39.39,0,0,1,.3.12l2.48,2.64c.51.55.62.95.35,1.21a.82.82,0,0,1-.29.17l.82.88a1.32,1.32,0,0,0,.43-.24,1.18,1.18,0,0,0,.33-.49,2.28,2.28,0,0,0,.1-.59,3.86,3.86,0,0,0,2.28-1.32l.63-.59a5.12,5.12,0,0,0,.74-.88,3,3,0,0,0,.44-.89l.23.25,1-1-1.84-2-1,1a1.93,1.93,0,0,1,.48,1,1.19,1.19,0,0,1-.34,1.1l-1.14,1.08a1.22,1.22,0,0,1-.93.21,1.23,1.23,0,0,1-.83-.25L70,65.79l.83-.75a.76.76,0,0,1,.5-.21.56.56,0,0,1,.46.17,1.35,1.35,0,0,1,.22.28l.88-.82a1,1,0,0,0-.2-.33,1.31,1.31,0,0,0-1.4-.46,1.14,1.14,0,0,0,0-.73,1.64,1.64,0,0,0-.36-.71.92.92,0,0,0-.31-.23l-.88.82A1.71,1.71,0,0,1,70,63a.72.72,0,0,1,.19.55.75.75,0,0,1-.24.53l-.79.73-.6-.64a1.08,1.08,0,0,1-.21-.87,1.15,1.15,0,0,1,.29-.71l1.11-1.05a1.48,1.48,0,0,1,1.12-.39,1.33,1.33,0,0,1,.92.4l.09.1,1-1-1.86-2-1,1,.27.29h0l0,0Zm3.81,3.44.12-.11.93,1-.05,0-.62-.67-.11.47a2.58,2.58,0,0,0-.25-.74h0Zm-6.52-.06a1.7,1.7,0,0,0,.39,1.42l2,2.14a1.78,1.78,0,0,0,1.29.46,2.35,2.35,0,0,0,1-.11c-.85.71-1.29.8-1.46.8h-.62v.18a2.82,2.82,0,0,0-.6-.91L67,64.68,67,64a1.81,1.81,0,0,1,.22-.61,3.63,3.63,0,0,1,.54-.76,2.14,2.14,0,0,0-.22.75h0Zm3.27-3.53.05-.05,1,1-.11.1a2.24,2.24,0,0,0-.84-.27l.6-.11-.64-.69h0Zm11.81-3.45a.48.48,0,0,1-.14.25,2.52,2.52,0,0,1-1.4.2,10.21,10.21,0,0,0-1.72,0c.65-1.19.64-2.14,0-2.85a2,2,0,0,0-2.16-.42,5.19,5.19,0,0,0-2.07,1.15,6,6,0,0,0-.89,1,3,3,0,0,0-.58,1.2,1.76,1.76,0,0,0-1.28.51,2.7,2.7,0,0,0-.59.83l.73.79a1,1,0,0,1,.25-.39.43.43,0,0,1,.31-.12.41.41,0,0,1,.31.12l2.48,2.64c.53.57.67,1,.38,1.25a.82.82,0,0,1-.29.17l.81.87a1.59,1.59,0,0,0,.5-.3,1.72,1.72,0,0,0,.53-1.19,2.3,2.3,0,0,0,1.31-.57,2.68,2.68,0,0,0,.52-.63l-.81-.85a.64.64,0,0,1-.33.45c-.3.17-.53.16-.69,0l-1.09-1.15a9,9,0,0,0,1.18-.66q1.77-.45,2.16,0a.22.22,0,0,1,0,.36.47.47,0,0,1-.14.08l.75.81a1.14,1.14,0,0,0,.47-.24,1.3,1.3,0,0,0,.41-1A2.16,2.16,0,0,0,83,57.89a2.38,2.38,0,0,0,.56-.86l-.88-.93-.06.29Zm-5,5.16-.54.08,0,.54a1.08,1.08,0,0,1-.09.42A1.85,1.85,0,0,0,76.25,61l-2.48-2.64A1,1,0,0,0,73,58l-.22,0a1,1,0,0,1,.78-.29l.56,0,1.57,1.69h0l1.54,1.63a1.1,1.1,0,0,0,1,.34,2.26,2.26,0,0,1-.57.15h0v0Zm-1-3.53-.75.44-1.11-1.19A2.82,2.82,0,0,1,75.59,56a3.16,3.16,0,0,1,1.15-.69,1.08,1.08,0,0,1,1.2.18c.22.24.23.6,0,1.08a2.8,2.8,0,0,1-.65,1,3.63,3.63,0,0,1-.71.51h0Zm5.83-.5a1.66,1.66,0,0,1-1,.54l-.68,0v.68a.92.92,0,0,1-.09.43h0a.91.91,0,0,0-.24-.86c-.46-.49-1.29-.54-2.78-.18l0,0a3.16,3.16,0,0,0,.8-1.21,1.56,1.56,0,0,0-.17-1.78,1.67,1.67,0,0,0-1.89-.36l-.3.11a4.44,4.44,0,0,1,1.14-.5c.91-.25,1.29,0,1.49.23s.58.85-.08,2.07L78,57.91l1.42-.3a10.48,10.48,0,0,1,1.56,0,4,4,0,0,0,1.58-.18.6.6,0,0,1-.08.08h0Zm3.89-8.38a8,8,0,0,0-2.55,1.78,2.26,2.26,0,0,1-.79.46c-.4.15-.69.12-.87-.07a.94.94,0,0,1-.2-1,2.22,2.22,0,0,1,.61-.89,2.56,2.56,0,0,1,1.29-.65,2,2,0,0,1,1.4.3l1.28-1.21-1.88-2-1,1,.47.51a2.82,2.82,0,0,0-1.22.37,4.63,4.63,0,0,0-1.1.75,6.59,6.59,0,0,0-1.7,2.15A2.08,2.08,0,0,0,80.56,53c.91,1,2.38.54,4.41-1.3a3.64,3.64,0,0,1,1-.7.78.78,0,0,1,.87.22c.51.54.37,1.19-.45,2a7.19,7.19,0,0,1-.64.52,1.9,1.9,0,0,1-1.09.26,1.61,1.61,0,0,1-1.12-.34l-1.29,1.22,1.81,1.92,1-.95-.35-.38a3.94,3.94,0,0,0,2.37-1.24A6.6,6.6,0,0,0,88.74,52a2,2,0,0,0-.15-2.38,1.94,1.94,0,0,0-2.24-.52h0v0ZM84.48,47l0,0,1,1,0,0ZM84,48.14l1.33,0-.33.31a2.51,2.51,0,0,0-1.39-.15l-.32.07a2,2,0,0,1,.71-.18h0Zm0,7.73,0,0-.89-1,0,0Zm.59-1H83.26l.33-.31a2.5,2.5,0,0,0,1,.17,4,4,0,0,0,.82-.08,1.62,1.62,0,0,1-.77.22Zm3.37-3a5.38,5.38,0,0,1-.39.7,2.09,2.09,0,0,0,.11-.53,1.63,1.63,0,0,0-.49-1.18,1.44,1.44,0,0,0-1.55-.39,3.86,3.86,0,0,0-1.27.83c-1.17,1.07-2.72,2.15-3.48,1.35A1.41,1.41,0,0,1,80.63,51a4.72,4.72,0,0,1,.73-1.1,2,2,0,0,0-.16.37,1.61,1.61,0,0,0,.35,1.65,1.36,1.36,0,0,0,1.59.23,2.86,2.86,0,0,0,1-.61,7.81,7.81,0,0,1,2.32-1.64,1.27,1.27,0,0,1,1.52.35c.23.24.47.68,0,1.64h0Z" transform="translate(-11.84 -10.72)"/></svg>