<svg id="Слой_1" data-name="Слой 1" xmlns="http://www.w3.org/2000/svg" viewBox="0 0 106.36 21.77"><title>back-plate</title><path d="M2.58,7.87A.63.63,0,0,1,2.81,8l.1.07L3,8.13l.17-.21h.18c.16,0,.25.06.2.07s-.21.1-.21.19,0,.35.08.27.19-.21.22-.15l0,0a.44.44,0,0,0,.49,0l0,0a.94.94,0,0,0-.07-.19c0-.07-.1-.29-.05-.33s.22-.14.2-.08,0,.19.11.17.36-.16.35-.24V7.56s.06-.08.1-.09h0l.52.28.21,0,.11,0c.07,0,0,.11-.06.13s0,.22.21.16l.06-.1L6,7.78c0-.17,0-.29.07-.25l.51.23,0,0,.09,0h0a.76.76,0,0,1,.21.1c.1.07-.1.51-.09.53h0l.09,0a.43.43,0,0,0,.32-.16V8a.81.81,0,0,1,.19-.24c.06,0-.24-.2-.28-.2S7,7.51,7.08,7.45a1.13,1.13,0,0,0,.29-.3V7.08C7.44,7,7.5,7,7.58,7s.22,0,.28-.09.14-.06.24,0l.08,0c.14,0,.12-.13,0-.26l0-.18V6.33c-.12.06-.22,0-.24,0l0-.07h0a.53.53,0,0,1-.13-.15L7.7,6a.64.64,0,0,1,.1-.16l.06,0c.08-.07.15-.08.16,0a.18.18,0,0,0,.26.08c.12-.08.39-.41.49-.45l0,.07c0,.15.07.18.24.09a1.53,1.53,0,0,1,.43-.13c.09,0,.21,0,.24.1s.17.12.27.16a.21.21,0,0,0,.14,0c.08-.2.31-.23.49-.32l.17-.09c0-.16-.07-.25-.12-.19s-.19.05-.24-.11l-.07-.14a.31.31,0,0,0-.2-.17h-.06c-.1.06-.15.14-.11.15s.13.07.09.09S9.94,5,10,5l0,0,0,0s0,.09-.06.09h0l-.15,0a1,1,0,0,0-.39.21l-.11-.06a.3.3,0,0,0-.19,0l-.24,0A.69.69,0,0,1,9,5V5A.41.41,0,0,0,9,4.91h-.1L8.8,5c-.08.07-.25,0-.38-.27l-.25,0-.2,0a.57.57,0,0,1-.6,0l-.12,0-.12,0c-.18,0-.2-.14,0-.28l.27.1.08,0a2.56,2.56,0,0,0,.32-.24s.32.09.48.18l.24-.18,0,0c.06,0,0-.09,0-.1s-.36-.05-.3-.07.18-.13.14-.2-.08-.28,0-.24l.07,0,.11,0a.63.63,0,0,1,.15.2V4a.11.11,0,0,0,.11,0l0,0V3.88l0-.11c.11,0,.17.1.13.17s-.12.26-.13.27.06,0,.13,0,.23,0,.2-.1V4A.45.45,0,0,0,9.6,3.8l-.22-.08s-.13,0-.13,0,0,.13.05.13h.11a.58.58,0,0,0,.15.19,1.85,1.85,0,0,0-.24-.16A2.05,2.05,0,0,1,9,3.75s0-.12.16-.16a4.22,4.22,0,0,0,.43-.17.38.38,0,0,0-.2,0l-.09,0A1.26,1.26,0,0,1,9,3.22H9a.1.1,0,0,1,.09-.09h0l.13,0A1.07,1.07,0,0,0,9.81,3L10,3l.17.05c.22,0,.34,0,.28,0s-.11.18,0,.16.3-.31.31-.32a1.24,1.24,0,0,1,.29-.08l.12,0a3.37,3.37,0,0,1,.34.09h0a.2.2,0,0,1,.07.12c0,.06.06.26.14.22a.76.76,0,0,1,.29-.09s.11.1.14,0a1.48,1.48,0,0,0,0-.36c0-.09.08-.26.13-.22s.28.08.36,0h.07c.25-.06.54,0,.77-.12s.31-.07.44.06l.09.08.19-.2h0l.27-.05c.32,0,.58,0,.6,0a.33.33,0,0,0,.24.18c.11,0,.28-.25.38-.32l.07-.06c.11-.09.14,0,.19.07s.2.13.25-.05.11-.08.21,0,.29.18.35-.07c0,0,.19,0,.28,0a.79.79,0,0,0,.49,0c.1,0,.17-.09.3,0s.22-.05.33-.08L18.45,2c.05.13.13.2.18.17s.19-.08.2,0,.06.17.08.07.22-.3.27-.25a.36.36,0,0,0,.39,0l.11,0c.2-.05.41-.07.61-.1s.61.08.9-.07c0,0,.07,0,.07,0,0,.2.23.13.34.21s.25-.05.38-.08h0a.29.29,0,0,1,0,.13c0,.07,0,.28.12.3a3.53,3.53,0,0,0,.59-.07h.07a2.52,2.52,0,0,1,.37.2l.13-.15.1-.13C23.18,2.12,23,2,23,1.93s.11-.21.29-.12l.18-.15.23.06.09,0L24,1.62a.36.36,0,0,1,.22,0,.88.88,0,0,0,.4-.12c.07-.05.45.05.65,0l.11-.07a.57.57,0,0,1,.14,0l.14.18h.59l.06,0a2.65,2.65,0,0,1,1.25-.17l.2,0a1.14,1.14,0,0,1,.54-.06l.12,0,.11,0A1.2,1.2,0,0,1,29,1.15l.15.08a.66.66,0,0,0,.46,0,.68.68,0,0,1,.54,0c.13,0,.33-.06.49-.06h.33l.47-.08c.05,0,.22,0,.19,0a.09.09,0,0,0,0,.14h0l.09-.06c.09-.07.17-.1.19-.08l0,0c.07.08-.19.13,0,.2l.1,0,.07-.2h.11a.49.49,0,0,0,.29-.05s.18,0,.2.15l.26-.15a.37.37,0,0,1,.29,0c.1.06.14.06.2,0s.13-.07.24,0l.15.07c0-.12.13-.17.26-.11a1.47,1.47,0,0,0,.84,0h.24c.14,0,.28,0,.43,0s.28,0,.42,0h.13a3.1,3.1,0,0,1,.56-.1l.1,0,.14.05a.81.81,0,0,1,.38,0,5,5,0,0,0,.54,0L38,1c.07,0,.18.06.28.08s.06-.05.09-.08l0,0a1.28,1.28,0,0,1,.29-.07,2.35,2.35,0,0,1,.56.23,1.17,1.17,0,0,0,.46,0c.05,0,.19-.1.19-.07a.16.16,0,0,0,.09.11h0A.58.58,0,0,1,40.36,1h.18A2.11,2.11,0,0,1,41,.89h0c0,.16.07.2.23.1h.36a5,5,0,0,1,.72-.05,1.16,1.16,0,0,0,.36.12s.18-.08.22,0a.76.76,0,0,0,.6,0,4.88,4.88,0,0,1,1.05,0s.15-.1.18-.09h0c.09.05.1.18.29.08s.36,0,.54.07.09.08.12.07S45.8.84,46,1l.1.06C46.28,1,46.66,1,47,1h.28a2,2,0,0,1,.69,0l.15,0c.24-.11.38-.14.31-.06s.2.18.17.23v.09c0,.05.1.08.13.07a.85.85,0,0,0,.14-.29L48.91,1c.07-.08.15-.21.35-.08s.24,0,.37-.05l.12,0,.38,0a2,2,0,0,0,.51,0L50.8.9,51,1c.09-.14.21-.19.26-.1h.05l.26,0a1.38,1.38,0,0,1,0-.23.42.42,0,0,0,.33.1l.12,0,.15.05a2.57,2.57,0,0,1,.28-.09h0l0-.05a1.4,1.4,0,0,1,.3-.17l.07.16v0l.33,0c.1,0,.35.09.37.06s.14,0,.25.1L54,.91c.09,0,.17-.09.27-.12l.05,0a.76.76,0,0,0,.26,0,.73.73,0,0,1,.32.15.3.3,0,0,0,.37,0l.2,0s.1-.14.17-.15a1.67,1.67,0,0,1,.29.06l.26,0c.24-.12.47-.15.5-.07s.22.28.34.26.38-.21.43-.2h0L57.6.76a.85.85,0,0,0,.5.1l.14,0h.22l.25,0c.11-.08.22-.1.23,0V.89l0,0c0,.06.19,0,.38-.05l.15-.09s-.21-.09,0-.13.12.12.14.12.29.26.5.06c0,0,.18.08.27.08l.32,0L61.6.84l.1.05c.17.08.22,0,.24-.1h0a1.86,1.86,0,0,1,.49,0h.15a1.81,1.81,0,0,1,.55.05l.06,0c.07,0,.1,0,.08-.06v0s0,0,.07,0l.18.08c.1.08.18.15.31,0s.14,0,.2,0,.19-.1.29,0l.06.07a.33.33,0,0,0,.29.06l0,0a.74.74,0,0,1,.68-.12c.16,0,.32.15.52,0a.52.52,0,0,1,.37,0c.1,0,.18.11.29.08l.11,0c.1-.05.17-.12.16-.17s0-.16.11-.16l0,0,.08.07a.62.62,0,0,0,.31.2,2.15,2.15,0,0,0,.55-.11.82.82,0,0,1,.44.17s.28,0,.35,0l.11-.09L68.9.8a1,1,0,0,0,.4.11c.07,0,.23-.11.28,0s.33,0,.45,0a4.48,4.48,0,0,1,.62.11,1.63,1.63,0,0,0,.44-.14h0c.12.12.25,0,.35,0l.13,0c.13.08.24,0,.24-.08l.21,0c.12,0,.26,0,.38.05s.49.09.68-.11l0,0,.47,0,.18.11.14.09c.06-.15.13-.23.16-.2a2.76,2.76,0,0,0,.24.23l.08-.09.29-.09L75,.92a.35.35,0,0,0,.45,0L75.57.8,76,.87c.07,0,.21-.13.26-.14h0l0,.06c0,.07.14.08.25,0l.1,0c.08,0,.18,0,.26,0s.18-.16.31,0,.16-.12.24,0,.17,0,.17,0c0-.22.13-.11.28-.06l.17.06a1.9,1.9,0,0,1,.66.06l.14-.1s.08,0,.08,0A.14.14,0,0,1,79,.9l0,0c-.07,0-.1,0-.07.08a.6.6,0,0,0,.49-.08c.2-.13.62-.54.63-.48s.21.18.42.17h.18c.19,0,.38-.11.57,0l0,0,.62-.06.26,0a2.37,2.37,0,0,1,.34-.08c.09,0,.19.08.28.08h.11a1.09,1.09,0,0,1,.49-.13c.14,0,.49.13.61,0l.2,0h.12l.4-.11,0,0c.19.14.42,0,.62.09l.19.05a1.77,1.77,0,0,1,.65,0h.17c.08,0,.15,0,.23,0l.57-.11.08,0,.32,0h.1a1.27,1.27,0,0,1,.35,0,1.23,1.23,0,0,0,.42-.1,1.59,1.59,0,0,1,.48.09l.12-.07c.08-.05.22,0,.29-.07l.06-.05c0-.1.06-.13.06-.07l0,.05s.07.09.12.1.14-.14.25,0l0,0c.12,0,.23-.06.24-.11a.1.1,0,0,1,.18,0c.08.08.34.24.4.19s.22.14.25.22l.1,0s0-.12.07-.19h0a2.78,2.78,0,0,1,.41-.13l.2,0,.21,0L92.5.08c.13,0,.49.11.55.09h.06l.1,0c.14,0,.2,0,.13.08v0l0,0a.36.36,0,0,0,.18.09l0,0c.16-.12.15-.13.23,0s.11.15.09.18-.09.11,0,.16L94,.75c.13.08.12.18,0,.23s-.47.4-.38.67H94A.65.65,0,0,1,94,2c0,.12-.4.34-.43.35a.11.11,0,0,0-.06.13s-.07.23-.25.26l-.16-.07,0,0a.43.43,0,0,0-.19.19c0,.06.08.26.31.3l.09-.24s.14,0,.14,0,.15.17.3.15l.21,0a.86.86,0,0,1,.16.26h0c-.08.08-.16.16,0,.2h0c.08-.08.17-.12.19-.09v0a1,1,0,0,1-.12.23l0,.08a1.21,1.21,0,0,0,.31.26l-.23,0c-.12,0-.27,0-.25-.14h0a.12.12,0,0,0-.1.06.34.34,0,0,0,.11.36l.21-.08c.13,0,.39-.16.52.07l0,0c.16,0,.24.07.19.09a2.19,2.19,0,0,0-.38.38l-.39-.05h0c-.06,0,0,0,0,0s.1.18.13.18.14,0,.14.12.06.27.14.29.3,0,.32-.09L95,5.23s.18-.1.21-.08l.21.13a2.61,2.61,0,0,1,.45-.14.57.57,0,0,1,.25.39l-.16.17a.45.45,0,0,1,.06.09c0,.08,0,.15-.1.15h-.19l-.22.34.08.08s0,.16-.12.07a.37.37,0,0,0-.29,0c-.15.11-.21,0-.31,0l-.06,0c-.09,0-.17,0-.18,0a.46.46,0,0,0,.41.18h.26c0,.06,0,.12,0,.15a1.68,1.68,0,0,1-.36,0v.32c-.18,0-.31-.11-.29-.15s0-.16-.18-.12l-.07.06a.39.39,0,0,0,0,.21l0,.11c.14,0,.4,0,.58,0l-.08.12-.11.17.23.27s0,0,0-.09a2.67,2.67,0,0,1,.25-.58l.17,0,.09,0a1.71,1.71,0,0,1,.8.09c.06,0,.08.11.21,0l.23-.11c.06.17-.19.27-.56.22h-.17a.4.4,0,0,1-.19,0c-.17-.11-.23,0-.3.09s0,.16.09.14l.31,0c0,.17.09.21.27.09l.18,0,.19,0c.23.06.42.18.42.27a.8.8,0,0,0,.43.54l.29-.13h.12l.18,0c.19,0,.49.06.67.07l.16,0h0a2.41,2.41,0,0,1,.3,0l.07.07.08.09a1.06,1.06,0,0,1,.16.26.48.48,0,0,1,0,.2s.1.11.27.06a5.43,5.43,0,0,0,.63-.15,1.19,1.19,0,0,0-.15-.18s-.16.11-.2.17h-.11l-.09,0a.4.4,0,0,1-.26-.24l.07-.11a.85.85,0,0,1,.14-.09l.11,0c.14,0,.27,0,.28,0s.13.18.21.14a1.27,1.27,0,0,1,.46-.1c.08,0,.31.07.27.19a1.39,1.39,0,0,1-.27.46c-.06,0-.2.09-.18.1s0,.09,0,.12-.19.14-.15.18.11.17.06.24-.3,0-.32,0-.08.1,0,.13a1,1,0,0,0,.23.08l.09.06.11.07c.23,0,.45-.13.48-.21l.12.09a.39.39,0,0,0,.22.09h.07c.09-.06.15-.06.14,0a1.25,1.25,0,0,1-.13.35c0,.07-.3,0-.33-.05a.3.3,0,0,0-.26,0l-.1,0c-.12,0-.31.07-.11.23a.51.51,0,0,1-.09.12c-.06.05-.15.07-.21.12l-.12.08a2.22,2.22,0,0,0,.38.42c.12.09,0,.59,0,.76l0,.16c0,.1,0,.17.17.16h0c.06,0,.09.09.07.11a2.38,2.38,0,0,1-.37.15l-.14,0-.15.06a.62.62,0,0,1,0-.24l-.08-.06c-.19-.13-.29,0-.38.07l-.09,0-.13.35c0,.05-.27.07-.49.1l0-.24h0l-.25,0a.94.94,0,0,0-.41.07s-.18.18-.21.14a.31.31,0,0,0-.31,0,.92.92,0,0,1-.52,0s-.18-.09-.24,0l-.07,0,0,0c-.08,0-.13-.07-.11-.13l0,0v0a.24.24,0,0,0-.16-.06h-.1a.4.4,0,0,1,0,.09s-.1.15-.25.14l-.14,0c-.11,0-.16-.09-.11-.22v0c0-.07-.1-.07-.19,0l0,.06-.06.16a4.33,4.33,0,0,0,.44.28.73.73,0,0,0,.38,0c.08,0,.42,0,.38.1s-.07.18,0,.11.35-.17.36-.12a2,2,0,0,0,.14.25s.07.16-.06.1h-.06c-.08,0-.2.1-.22.08-.2-.14-.45,0-.66-.12,0,0,0,0,0,0a1,1,0,0,0-.37.1c-.19.14-.18-.07-.28-.09l-.13,0c-.15-.06-.27-.06-.28,0a.15.15,0,0,1-.19.1h-.07l-.21,0a2.39,2.39,0,0,0-.64,0,1.29,1.29,0,0,1-.65,0c-.09-.08-.36-.26-.39-.2a.86.86,0,0,1-.3.3c-.1,0-.46,0-.51,0a.52.52,0,0,1-.39,0l-.11-.07s-.12,0-.14.08l0,0c0,.06,0,.11-.06.11s-.34,0-.27,0,.14-.09,0-.1l-.09,0h-.06a1.8,1.8,0,0,0-.25-.17c-.08-.05-.38,0-.33.11s-.05.4-.13.39a.73.73,0,0,1-.33-.2c0-.08.23,0,.26,0a.07.07,0,0,0,0-.11.24.24,0,0,0-.34,0l-.11,0-.07,0a.6.6,0,0,0-.6.09l-.31-.17-.15-.08c-.27,0-.52.12-.55.19a.39.39,0,0,0,0,.27s0,.18-.13.25l-.11,0-.14,0c-.11-.15-.09-.26,0-.25s0-.31-.07-.32a.9.9,0,0,0-.35.09,2.87,2.87,0,0,1-.39,0,2,2,0,0,0-.62.09s0,.16.09.18h0l.12-.06.32,0a1,1,0,0,1,.21,0c.06,0,.16.11.11.16a1,1,0,0,1-.44.23H87a.43.43,0,0,0-.21-.17l0,0a1,1,0,0,1-.31.07h-.11l0,0a.64.64,0,0,1,0-.14h.16c.08-.1,0-.26-.17-.36l-.12.05a.21.21,0,0,1-.27,0h0c-.14-.12-.26-.17-.27-.1a.42.42,0,0,1-.39.24h-.18l-.08,0c-.09,0-.6.08-1.13.12L83.37,14h-.1a2.16,2.16,0,0,1-.39.07H82.8c-.09,0-.19,0-.29-.06a.1.1,0,0,0-.07,0,.11.11,0,0,0,0,.08l.13.07a.54.54,0,0,0,.48,0h.22c.07,0,.12,0,.12,0a.85.85,0,0,1-.07.21v0l0,.15c.13,0,.22,0,.19,0a.19.19,0,0,1-.23,0c-.07-.08-.41.05-.49,0s-.34,0-.34.05,0,.25-.11.22h0c0-.12,0-.23-.13-.28l-.05,0c-.07,0-.13.09-.12.18h-.15a.86.86,0,0,0-.45.07s-.14-.1-.2-.17l-.12-.13-.16.19s-.13.09-.15.06-.11-.11-.14-.1l-.18.12s-.35.1-.31,0,.1-.14,0-.11a.5.5,0,0,1-.44-.13l-.19.14a1,1,0,0,1-.2,0c-.18,0-.17,0-.19.12s0,.12-.06.12h-.17a.85.85,0,0,1-.29.12A2.37,2.37,0,0,1,78.3,15c-.12-.06-.54-.07-.64.1H77.2c-.22.07-.39.1-.39,0a.45.45,0,0,0-.33-.24l-.07.16,0,.05c.12,0,.13.11,0,.12l-.07,0-.16,0a.78.78,0,0,0-.37-.15c-.09,0-.35.08-.38.15s-.06.29,0,.3.24.07.23.12a.27.27,0,0,1-.23.15l-.09,0-.22-.05c0-.17-.1-.23-.18-.15a1.05,1.05,0,0,1-.53.28c-.14,0-.25-.28-.32-.22s-.29.12-.3.06a1,1,0,0,1,0-.26h0l0,0a.26.26,0,0,0,.2-.05c.07-.07-.07-.27-.17-.23h-.09c-.19,0-.1.13-.18.16s-.18,0-.18-.08v0c0-.06-.23,0-.52.14l-.28.08-.2.06c-.21,0-.27,0-.14,0s0-.29-.29-.3h-.37c0,.15-.07.23-.2.19l-.07,0c-.17.08-.16-.07-.24-.09s-.16-.06-.19,0-.27,0-.41,0h-.22c0,.08-.09.13-.14.12s-.22.06-.21.15.28.27.26.33-.08.21-.1.21-.06-.07-.07-.14l0-.06s-.07-.07-.1-.07h0a.57.57,0,0,0-.09.18c0,.07-.19.13-.21.08s-.07-.17,0-.17.11-.09.14-.19a1,1,0,0,0,0-.44h0c-.12,0-.1,0,0,.1s0,.06,0,.07-.12.06-.13.09l0,.12a.32.32,0,0,1-.21.3l-.11,0s-.09,0-.1-.07a.13.13,0,0,1,.06-.1s.12,0,.16,0l0,0c0-.05,0-.18-.13-.3s-.67,0-1,.07l-.25,0h0c.15-.08.21-.18.13-.23a4.6,4.6,0,0,0-.51-.29l0,0,0,0a.92.92,0,0,0,.21.34l.21,0,.26.05a1.09,1.09,0,0,0-.44,0,5.22,5.22,0,0,0-.77.21s0,.14-.23.2l0-.23a.34.34,0,0,0-.12-.18l0,0c-.06,0-.12,0-.12,0v0l0,.16c-.16,0-.28-.11-.28-.36l.25-.17.11-.08a.5.5,0,0,0,.26,0s0-.11-.18-.15l-.15,0a.57.57,0,0,0-.25,0s0,.12-.07.19l0,.11A.21.21,0,0,1,66,15c0-.1-.07-.39,0-.44s.36.07.42.08h0c.11,0,.17,0,.16-.11s.18-.08,0-.16l-.06,0a2.11,2.11,0,0,0-.56,0l-.22,0-.14,0a.75.75,0,0,1-.17.48V15s0,.1.06.11l.12,0a.51.51,0,0,1,.32.18v.07l0,.05a.86.86,0,0,1-.07.21.3.3,0,0,1-.34,0c-.08-.08-.29-.25-.28-.19s-.19.2-.3.17-.37-.17-.4-.13a.35.35,0,0,1-.26.1l0,0-.09,0a.33.33,0,0,1-.23-.08.27.27,0,0,0-.24,0l-.4.16c-.06,0-.32-.14-.46-.22l-.16.13h0a.46.46,0,0,0-.36.07c-.09.07-.16.36-.18.33A.18.18,0,0,0,62,16a1.65,1.65,0,0,1-.33.18l0,0-.08-.1c.06-.11.06-.17,0-.13s-.27-.15-.39-.21-.5-.14-.49-.1,0,.17-.1.16l-.06,0c-.06,0-.07.12-.13.16s-.18,0-.18-.08v0c0-.06-.1-.07-.21,0s-.43-.07-.44,0-.09.15-.15.13-.17.12-.18.16a.18.18,0,0,1-.17.11c-.07,0-.3,0-.27,0s0,.11,0,.14h-.25L58.35,16a.08.08,0,0,0-.12,0,.33.33,0,0,0-.06.31c0,.09.08.32,0,.3s-.46-.15-.51-.27a1.07,1.07,0,0,0-.32-.36.37.37,0,0,1-.16.05h-.23c.06-.06.08-.15.06-.17s-.14-.07-.15,0-.09.16-.15.12-.24-.07-.26,0,.13.25.17.29-.09.12-.16.12l-.05,0-.4-.22c-.24.27-.49.47-.56.45s0-.24,0-.29a.22.22,0,0,1,.18-.21c.12,0,.08-.24-.09-.17s-.57-.11-.62,0-.38.44-.39.49l0,0,0,0s-.1.06-.11,0a1.74,1.74,0,0,0-.24-.17l-.07-.06,0,0c0-.07-.15-.06-.23,0s-.3.23-.34.2-.1-.13,0-.14l0,0,0,0s0-.11,0-.15H53.2c-.14.18-.2.33-.14.34s.17.1.09.17.11.29.06.34a1.13,1.13,0,0,1-.27.22h0l0,0a1.14,1.14,0,0,1,0-.3l-.14,0-.12,0a.17.17,0,0,1,.12-.15h.07l0,0c.06,0,0-.06-.11-.11v-.12c.06-.11,0-.22-.2-.25l-.09.05a.33.33,0,0,1-.34,0l-.09,0a.34.34,0,0,0-.36-.12l.17.13,0,0a.82.82,0,0,1-.34.25l-.09-.09a.35.35,0,0,0-.45-.05.44.44,0,0,1-.4-.07l-.1-.07c-.21,0-.4,0-.43.14s.21.28.14.28-.26-.07-.23-.17-.07-.37-.16-.31-.33.16-.35.09l0,0h-.14s0,.06,0,.07l.1.09.31.24c.05,0-.22.21-.45.33l-.22,0a.9.9,0,0,1-.6-.18l-.16-.12a1.54,1.54,0,0,0-.36.3l0,0-.08,0a.47.47,0,0,1-.24,0v0s0-.09.07-.1l.77-.11h0a.29.29,0,0,0-.11-.17c-.09-.06-.38-.18-.4-.12s-.09.16-.15.1-.17-.22-.14-.23a.31.31,0,0,0,.1-.25l-.17,0-.14,0A.6.6,0,0,0,47,16l0,0,.06.1c.08.1,0,.17-.1.15l-.12,0a.26.26,0,0,1-.16-.07,2.4,2.4,0,0,1-.11-.23.16.16,0,0,0-.08,0h-.05l-.1,0a.21.21,0,0,0-.14.24,1.49,1.49,0,0,1,0,.48c0,.12,0,.35-.3.33l-.25-.07-.13,0a.57.57,0,0,1-.27.19l-.08,0c-.07,0-.11-.11-.2,0l0,0a.13.13,0,0,1-.11-.17h0c.13,0,.17-.08.12-.14l0,0c-.14,0-.25,0-.26.08a1.22,1.22,0,0,1-.09.27h-.12a.94.94,0,0,0,0-.17l0,0c-.07-.08-.12,0-.15,0l-.1.1c-.18,0-.23-.09-.11-.13l.08,0s.06-.08.05-.11-.08-.06-.12-.06a1.42,1.42,0,0,0-.2,0c-.1,0-.25.06-.29,0s-.25,0-.35,0a.31.31,0,0,1-.32-.09h0a.35.35,0,0,0-.2-.15c-.15-.05-.53.11-.43.13l0,0,0,.06c0,.08-.09.13-.19.12a1.54,1.54,0,0,0-.72.13l-.24,0h-.19c-.14-.25-.29-.38-.33-.28s-.17.31-.21.24l-.06,0a.71.71,0,0,0-.18.05l-.09.05a.28.28,0,0,1-.29.07c-.07,0-.24-.16-.21-.19s.16-.08.19,0,.17.11.2,0h0l-.12-.1c-.14-.08-.28-.11-.31-.08s-.12.18-.16.23,0,.14-.08.18-.06.13-.15.08,0-.26,0-.29-.07-.08-.1-.07A.89.89,0,0,0,39,17l-.1,0s-.1-.06-.11-.05-.19.18-.38.08l-.06,0a4.73,4.73,0,0,1-.58.13h-.15l-.26,0c-.11-.15-.18-.17-.16,0s-.1.45-.25.44-.38-.34-.38-.45l-.17.06-.06,0c0,.09-.1.13-.14.08S36,17,36,17.06s0,.21,0,.23,0,.16-.07.24l-.2,0-.18,0-.34-.16a.49.49,0,0,1,0-.18l0,0C35,17,34.92,17,34.87,17s-.08.11,0,.18.09.13,0,.17a.41.41,0,0,1-.14-.08l-.07-.06a.22.22,0,0,0-.27-.06c-.08.05-.27.29-.31.29s-.2,0-.21-.05v0c0-.05.09-.12.07-.15s-.15-.06-.22,0-.19.13-.2.2-.13,0-.19,0l-.18.06c-.07.15-.16.24-.19.18s0-.25,0-.3l.08-.05.09,0a.94.94,0,0,0-.06-.15.78.78,0,0,1,0-.21s.07-.1.06-.12L33,16.71c-.17,0-.3.08-.27.11a2.13,2.13,0,0,1,0,.59l-.33,0-.3,0c-.28.16-.55.23-.59.16s-.23-.22-.3-.12l0,.08c-.06.14.12.1.19.15a.36.36,0,0,1,.11.1.13.13,0,0,1,0,.12s-.12,0-.14,0l-.12-.09A.46.46,0,0,1,31,18l-.05,0c-.07,0-.2,0-.18-.11s.06-.07.1-.08h.07c.12,0,.11-.14,0-.32l-.11-.13h-.1s0,0,0,.06l0,0v.05a.11.11,0,0,1-.11.11l0,0-.1-.05c-.11-.08-.22-.11-.23-.07s-.2.08-.39,0l-.17,0-.14.09,0,0a1.28,1.28,0,0,1-.3.07l-.1-.05c-.16-.08-.26.09-.43,0a.79.79,0,0,0-.43,0,.23.23,0,0,1-.2,0,.46.46,0,0,0-.35,0c-.14.12-.17-.05-.26,0s-.12.08-.08.16.14.08,0,.11a.23.23,0,0,1-.14-.08l-.06-.12c-.06-.17-.13-.26-.14-.19s-.1.2-.14.16a.7.7,0,0,0-.37-.1.53.53,0,0,1-.54-.11l.45-.09.08,0c.1,0,.14-.07.09-.14s-.34-.06-.35-.1A.21.21,0,0,0,26,17c-.13.06-.49.19-.52.15s-.18-.17-.22-.13a1,1,0,0,0-.14.34l.18,0,.2,0a.13.13,0,0,0,.21.09,4,4,0,0,1,.38-.22.91.91,0,0,1-.32.28l0,.23a.91.91,0,0,1-.21.11l-.09,0a.51.51,0,0,1-.26,0,.45.45,0,0,0-.32,0c-.11,0-.39.14-.38.17a.1.1,0,0,1-.07.12l0,0c-.09-.08-.16-.18-.25-.25l-.09-.07a.38.38,0,0,0-.41.1l-.2,0-.2,0c0-.13,0-.18,0-.1s-.27.24-.32.29-.21.14-.16,0v-.14a.75.75,0,0,0-.36-.14c-.14,0-.32.24-.38.21H22c-.06,0-.12.07-.18.08l-.14,0c0,.08-.12.12-.33.09h-.18l-.23,0c-.14-.1-.32-.13-.38-.07s-.2.14-.22,0l-.21.06c-.1,0-.28-.08-.29.12,0,0-.15.06-.22.06s-.19-.07-.29-.08l-.1,0c-.16,0-.23.05-.16.09s.16.11,0,.06-.46.11-.51.08a.51.51,0,0,1-.18-.21l-.1,0a.68.68,0,0,1-.56,0h0a.63.63,0,0,0-.15.18l-.14,0c-.09,0-.16-.11-.25-.15a.28.28,0,0,0-.18,0c-.05,0-.05.12-.09.13l-.18,0a4,4,0,0,0-.5.08.58.58,0,0,1-.32-.11s-.07-.18-.1-.15a1.29,1.29,0,0,0-.15.2c0,.07-.28.19-.23.21h0l0,0s0,.06-.1.1l-.07.05a1,1,0,0,0-.08.14l.15.09a1.35,1.35,0,0,0,0,.32s0,.16-.12.14-.27-.12-.19-.15,0-.25-.09-.25-.26,0-.21.07v0s0,.13,0,.15-.17,0-.18.12-.11.1-.19.05-.31-.19-.46-.29l-.08-.06a.22.22,0,0,0-.11.2h.14c.06.05,0,.08-.14.06s-.47-.13-.41-.16.13-.16.05-.21l0-.05s-.07-.12-.05-.15.16-.05.22,0l.14.17a1.27,1.27,0,0,0,.59,0v0l0-.14a.81.81,0,0,0-.16-.29s-.06-.06,0-.07.22,0,.22.09.07.25.15.25l0,0,.25-.16h0s.07,0,.06.06v0l-.06.17c.18,0,.31-.08.3-.19l0-.09,0-.08c.14-.1.11-.13-.05-.07l-.09,0-.11,0c-.11-.08-.22-.11-.22-.07a.58.58,0,0,1,0,.17.1.1,0,0,1-.05-.06.54.54,0,0,0-.3-.22c-.14,0-.47.15-.5.07l-.06,0a.71.71,0,0,0-.18.05l-.19.12c-.24.1-.45.23-.45.28s-.11.25-.24.25l-.07,0c-.07,0-.06-.13.07-.15h.05a1.56,1.56,0,0,0,.11-.26h0c.15,0,.22-.06.12-.16s-.22,0-.28,0l-.13.08c-.17,0-.23-.05-.15-.15l0-.1v0c-.08-.07-.18.05-.2.25l-.26.08-.06,0c0,.08-.1.08-.14,0h0c-.16,0-.27-.16-.45-.1s-.1.17-.16,0-.09-.14-.06-.17.14-.07.21-.11l.29.12c.08,0,.18.07.23.05l.08,0a.59.59,0,0,0,.12-.26c0-.06-.06-.2-.14-.1l-.06.06-.11,0c-.1-.18-.25.07-.39,0s-.28.06-.43.07h-.16c-.19,0-.23.14-.09.27l.19.07c.08,0,.14.1.06.18s-.14.17-.26.09-.51,0-.65-.25l0,0c-.2,0-.3,0-.23.07s.18.1.16.12h0l-.18,0-.82.17-.09-.28h0c-.09,0-.12,0-.07-.07l0,0,.1,0c.14-.05.18-.12.09-.16a2.83,2.83,0,0,0-.63,0H8a1.14,1.14,0,0,0-.26-.34c-.06-.05-.11-.2,0-.19s.26.31.3.34h0s.09,0,.1-.07l0-.12c0-.14-.06-.26-.18-.25s-.38-.18-.41-.13-.17.18-.21.13H7.36a.94.94,0,0,0-.15.06l0,.1a.39.39,0,0,0,0,.29l.09,0h0c0-.05.09,0,.09,0s-.07.19-.15.14a.69.69,0,0,0-.47,0c-.08.07,0,.3,0,.3H6.73s-.08-.05-.1,0a.61.61,0,0,1-.28,0c-.1,0-.34.09-.28.12s.1.24,0,.39l-.28,0a.77.77,0,0,0-.24.06c-.2.05-.23,0-.3-.15v0c-.18-.1,0-.38-.27-.39a1.5,1.5,0,0,0-.53.22c-.1.05-.07.06.06.13a1.19,1.19,0,0,1,.31.23s.08.16.06.17l-.13.07A.85.85,0,0,0,4.3,19l-.18,0L4,19.06l-.06.05c-.06.07-.13.09-.17.06h0c.18-.21.12-.38-.11-.53,0,0-.07-.1-.11-.14s-.11-.09-.15-.08-.09.1,0,.17l0,0s0,.08-.1.08h0c-.06-.05-.13-.09-.15-.14l-.06-.15A.55.55,0,0,0,2.69,18l-.15.07a.45.45,0,0,1-.2,0H2.1a1.2,1.2,0,0,1-.39.17l0,0c-.12-.09-.15,0-.19.06a.12.12,0,0,0,0,.14l.12.07c.15.07.2.13.12.15s-.13.21-.2.22H1.46c-.07,0-.13-.07-.19-.07-.22,0-.21-.16-.16-.2s0-.2.06-.27l.09-.06c.11-.07.1-.17,0-.24L1.15,18A.48.48,0,0,0,1,17.94c-.14,0-.28.21-.41,0L.53,17.8c-.17,0-.25-.09-.18-.2l.23.12.24.12c.26-.17.54-.26.63-.2l.05.05c.06.06.09,0,.16,0a.94.94,0,0,1,.29,0s.1,0,.11,0c.3-.28.56,0,.83,0,0,0,.08.08.12.08h.08c.09,0,.16-.06.15-.1a.31.31,0,0,1,.07-.24.83.83,0,0,1,.31-.16s.15.06.16.05a.61.61,0,0,0-.15-.18c-.1-.08-.37-.35-.3-.35s.23,0,.22.05,0,.09.1.09h.06l0,0a.12.12,0,0,1,.17.09v.06c0,.26.32.26.51.34s.31,0,.27-.15.08-.11.17-.11H5C5,17.09,5,17,5,17s0-.14-.07-.18-.07-.13,0-.13a.34.34,0,0,1,.24.29l0,.16s.07.06.11.06.1,0,.1-.07V17a.25.25,0,0,1,.16-.21c.09,0,.37,0,.42.05s.3.27.41.22.43-.11.47,0l.06,0,.08,0a.51.51,0,0,0,.14.15h0a1.09,1.09,0,0,1,.51-.11h0c0-.1.1-.12.12-.05l0,0a.63.63,0,0,0,.14,0l.4-.06c.1-.07.11-.14,0-.15s-.28-.1-.36-.08-.18-.16-.21-.15-.14-.05-.14-.08a.38.38,0,0,1,.27-.2l.16.06.1,0a.51.51,0,0,0,.4,0l0,.15c0,.07,0,.13.13.15l.11,0c.12.09.27.13.34.08l.06-.05,0,0c0-.07,0-.12,0-.1s-.13,0-.05-.07.15-.3.19-.29.13.14.19.24.59.1.54.07a.87.87,0,0,0-.24-.14s-.16-.07-.07-.08.32-.07.33-.11a.14.14,0,0,1,.22,0h0l-.29.3c.29.14.56.22.6.16s.11-.2.09-.22h0l-.08,0c-.09,0-.14-.07-.12-.11a.15.15,0,0,1,.22,0c.07.08.36.1.31,0s-.09-.15,0-.05.43.14.34.14l-.08,0s-.08.06-.08.09a.14.14,0,0,0,.08.09l.13,0,.46-.19c.13-.05.44,0,.48-.05s.11-.09,0-.16h0l-.23.2c-.2-.15-.26-.31-.15-.35h.11a1.47,1.47,0,0,1,.36,0l.13,0a.5.5,0,0,0,.43,0c.1-.06.39-.17.4-.1h0a1,1,0,0,1,.3,0l.07,0c.09.05.16.06.17,0s.06-.21.09-.21h0c.16.14.33.26.46.39a.41.41,0,0,0,.38.12h.06a.11.11,0,0,0,0-.17h0l-.23,0c-.15-.15-.24-.31-.2-.36s.2-.21.21-.14a.54.54,0,0,0,.34.26l.15,0a.61.61,0,0,0,.46-.15l0,0a.85.85,0,0,0,.23-.12c.06-.05.07.17,0,.22H16l0,0a.38.38,0,0,0-.11.16c0,.07.09.28.14.27a.63.63,0,0,0,.3-.14c.05-.06,0-.31,0-.35l0,0s.07,0,.1,0a.1.1,0,0,1,.06,0,2.34,2.34,0,0,0-.09.24.1.1,0,0,0,.06.07l.11,0c.16.05.26,0,.23,0l0,0c-.07-.07-.08-.14.05-.16a.22.22,0,0,1,.13.09l0,.05c0,.06.12.06.29,0l.11-.08,0,0c0-.1-.09-.17-.14-.16s-.21,0-.21-.11.05-.27.11-.25l0,0,.11.2c.23,0,.39-.05.37-.07v0c-.07-.1.05-.08.08-.07l.18.06c.22.09.28.21.13.28l-.1.05s0,.06,0,.08.05.06.06.06a1.15,1.15,0,0,0,.28-.09c.05,0,.07-.08.09-.13l.05-.1c.06-.12.16-.21.23-.21l.26,0a.18.18,0,0,1-.11.05c-.06,0-.19.15-.12.27l.07.1,0,0a.34.34,0,0,0,.17,0l0,0,0,0a.29.29,0,0,1,.16.12h0a.47.47,0,0,0,.28-.09l.05,0a1.72,1.72,0,0,1,0-.26,1.61,1.61,0,0,1,.35-.29s-.13.22-.11.3a.59.59,0,0,0,.49.24l.19.13.1.07a2.09,2.09,0,0,1,0-.45l.21,0c.2,0-.05.09,0,.13a.2.2,0,0,0,.14,0L21,16a.17.17,0,0,1,.23-.06l.08,0,.24.07,1.1-.22,0,0,.06.07a.67.67,0,0,1,.26.05h0c.1-.09.25,0,.32-.06l.07-.06a.87.87,0,0,1,.17-.3l.07,0h0a.92.92,0,0,1,.22.17l.27.22a.63.63,0,0,0,.48-.12l.27.15c.21.12.12-.24.33-.17a.64.64,0,0,0,.06-.1.13.13,0,0,0-.05-.07l-.29,0-.17-.35a.14.14,0,0,1,.1-.06l.05,0h0c.09-.08.14-.08.11,0a.18.18,0,0,0,.12.24c.12,0,.53-.05.72-.06s.64,0,.61,0a.62.62,0,0,1-.39.11l-.07,0-.14.1c-.12-.06-.19,0-.15.07l.07.06c.07.06.25.14.29.12s.39,0,.58-.07.08-.07.13-.1.18-.08.21-.15l0-.09c0-.11.14-.2.32-.2h.16c0,.05,0,.1-.11.1s-.28,0-.28.09a.51.51,0,0,0,.37.26c.21,0,.84,0,.95.12l.09-.19c.05-.1-.09-.17-.22-.2a.42.42,0,0,1-.17-.1l0,0s0-.1.11-.12h.11a.57.57,0,0,0,.19,0c.06,0,.2,0,.16,0s-.12.24-.05.29l.06,0,.07,0a.16.16,0,0,0,.21-.1l0-.08s-.09-.08,0-.13l0,0s.09,0,.1,0a.33.33,0,0,0,.33.15l.13,0h.09l.32-.05c.08,0,.31,0,.34.09s.2.29.25.28a.65.65,0,0,0,.23-.13s0-.23-.15-.29,0-.34.06-.3.24.16.26.13v0l0,0s0,0,0,0a2.09,2.09,0,0,0,0,.24s.06.1.12.1l0,0,.12-.09c.13-.1.22-.11.24.06a.25.25,0,0,0,.1,0h.16c.1-.11.17-.15.15-.09s0,.24.07.2.25-.12.26-.09l0,0c.13.13.35.22.4.16s-.1-.12-.16-.19l-.06-.06a1.45,1.45,0,0,1,0-.36l.08-.06s.11,0,.14,0a.12.12,0,0,1,0,.11l0,.07c0,.06,0,.14.08.18l.07,0c.1.06.15,0,.23,0l.08,0a.57.57,0,0,1,.33.16c.06.07,0,.33-.1.36l-.12-.13c-.17-.18-.2-.17-.46,0-.05,0-.13,0-.18.07l-.13.08c0,.12.19.18.37.12l.17-.05.49.16h.06a4.18,4.18,0,0,0,.52-.25h.51c.09,0,.13-.09.09-.13l0,0-.1,0-.4,0a2.15,2.15,0,0,0-.31-.29s-.06-.14.06-.19.45.17.52.18.22-.14.33-.21h.09l.3.06c.24-.06.4-.18.35-.26s0-.29.11-.25l.1-.15,0-.05c0-.06-.22,0-.58.13l-.2-.36s-.11,0-.14,0l-.08.07c-.07.1-.14.13-.15.08v0l-.08-.18c-.17-.07-.27-.08-.23,0s-.32.25-.6.26l-.27,0-.26,0a4,4,0,0,0-.91,0l-.07.09c-.13.17-.32.16-.49.23l-.19.07c0-.09.08-.18.27-.21l.15-.06.13-.05c.15-.12.17-.22,0-.23l-.08,0-.21.06a5.39,5.39,0,0,1-.6.19,4.12,4.12,0,0,1-.69-.18v.17c0,.07-.11.1-.23.07S30,14.87,30,15v.09c0,.07,0,.17-.12.15l-.21,0c.12-.05.22-.15.22-.22s-.12-.25-.27-.17l0,0c-.2-.14-.47,0-.66-.12l-.16-.08a.35.35,0,0,1-.12.24l-.08-.11s0-.13-.11,0a.17.17,0,0,0-.07.12v.05c.05.06,0,.13-.15.16s-.36-.17-.42-.21a.3.3,0,0,0-.35.07l-.33-.05h-.22s-.11,0-.11-.06,0-.14-.15-.05a.53.53,0,0,1-.31,0c-.08,0-.16-.08-.23-.08s-.09.15-.13.15l-.3,0a.71.71,0,0,1-.77.1l-.35,0a.55.55,0,0,1-.54-.14s-.1,0-.15,0l-.39.31c-.11.09-.2.24-.38.06a.22.22,0,0,0-.21,0l-.2.17c-.07-.14-.2-.21-.29-.17s-.26.08-.26,0-.25.05-.27.06l-.39-.05,0,.2v.14c-.1,0-.2.05-.21.09s-.09.14-.14.12l-.23-.13a.06.06,0,0,1,0-.09c.06,0,.1-.09,0-.15s-.48.08-.41.16.28.27.19.32l-.06,0a1.06,1.06,0,0,1-.61.09s-.07-.06-.07-.09.06-.06.1-.08a.15.15,0,0,1,.09,0l.17.15c.08-.11.09-.25,0-.31s-.5-.15-.58-.28v-.2l0,0s0-.06-.05-.05-.13.12-.18.23-.22.3-.27.17l-.21,0c-.2,0-.41.12-.62,0l-.13-.07-.54.16-.12-.12s-.09,0-.11,0l-.17.1a2.07,2.07,0,0,1-.6.11h-.1s-.09,0-.12,0a1.54,1.54,0,0,1-.64.12h0a.13.13,0,0,0-.18,0c-.05.06-.26.18-.26.06s-.15-.34-.34-.26l-.1.11-.11.11a1.48,1.48,0,0,0-.19-.18h0s-.1.05-.09.08l0,.27c-.26,0-.43-.06-.39-.1s.13-.19.09-.24H14c-.06.21-.14.33-.19.28s-.22-.17-.3-.15-.2.22-.27.24l0,0,0,0a.1.1,0,0,0-.12-.07h0l-.21,0h-.19c-.23,0-.43,0-.44,0s-.07.1-.1,0-.33-.08-.34,0a.33.33,0,0,1-.12.19h0l-.26-.19a4,4,0,0,0-.66.18l-.07-.05c-.12-.08-.2,0-.2.09s0,.07,0,.09a.27.27,0,0,1-.12.06h0L10.07,16a.91.91,0,0,0-.45-.21,1.87,1.87,0,0,1-.28.2c-.1,0-.22.27-.26.26h0c0-.1,0-.17-.15-.13s0,.12-.08.18v0s0,0,0-.13-.08-.37.05-.46L9,15.63l0,0c.05-.06-.06-.11-.24-.11l-.08.06a.25.25,0,0,1-.36,0,.3.3,0,0,0-.24,0s0,.14,0,.2l0,.06a.11.11,0,0,1,0,.19.65.65,0,0,1-.43.17l.16-.14.15-.13c-.17-.07-.31,0-.32,0s0,.22,0,.14-.29,0-.35-.05-.28-.18-.34-.12-.2.16-.17.07-.29,0-.29,0a.42.42,0,0,1-.37.29H6c-.12,0-.22.08-.34.1s-.08-.16-.18-.17l-.16,0c-.18,0-.28.08-.23.09a.22.22,0,0,1,.11.26l-.14-.06c-.14-.06-.18.15-.32,0s-.2,0-.29-.07-.2-.11-.31-.14l-.07,0c-.14,0-.21.08-.15.14s.15.22.13.24-.16.07-.19,0-.15-.13-.17-.09-.14,0-.25-.06H3.15l-.37.11,0,0c-.12-.13-.18,0-.24,0a.18.18,0,0,1-.27,0l0,0c-.08,0-.14.05-.13.09a.32.32,0,0,1-.19.25l0-.16,0-.11a2.54,2.54,0,0,1-.43,0H1.25c-.12,0-.22-.15-.36,0l0,0c-.13-.05-.21-.11-.18-.13l.37-.19.09-.08s-.13-.13,0-.19a1.31,1.31,0,0,1,.27-.12l.19-.05a.73.73,0,0,1,.2-.28s.19,0,.2-.09-.45-.49-.38-.47.27,0,.31-.09.22-.23.32-.09v.18c-.15.1-.09.22.11.28l.09.09.09.09c.14.07.26.07.26,0s.08-.26.17-.22H3l.1-.09a.64.64,0,0,1-.1.37L3,15.87l-.16.27c0,.18.16.24.23.13a4.14,4.14,0,0,1,.35-.59l0-.15c0-.09.09,0,.1,0l0,.15a1.2,1.2,0,0,0,.34-.17,6.61,6.61,0,0,1,.75-.07l.23.09c.06,0,.19,0,.2-.08s.18-.16,0-.24l0,0c-.08-.09-.08-.14,0-.12a1.28,1.28,0,0,0,.35.06c.1,0,.35.16.56.11h.21a.54.54,0,0,0,0-.13s-.06,0-.09,0H6c-.08,0-.14,0-.13-.06H6a.21.21,0,0,1,.27.18l.06,0,.1.06a4.18,4.18,0,0,1,.66-.19l-.22-.23s0-.05,0-.06H7l.3.18a1.78,1.78,0,0,1,.12-.31s.08,0,.08.09h0l.24.07a1.42,1.42,0,0,0,.15.35s.08,0,.12,0,.16-.08.18-.05a.25.25,0,0,0,.26,0l.1,0,.34-.1A4.66,4.66,0,0,1,9,14.53a.25.25,0,0,1,.17,0c.07,0,0,.37,0,.39a1.21,1.21,0,0,0,.58-.12l.17-.1s0-.06,0-.08,0,0-.07,0H9.68c0-.11.1-.17.22-.15s.4.2.36.23,0,.19.21.29a.93.93,0,0,0,.7-.17l0,0,0-.08a1.08,1.08,0,0,1,.45-.25c.16-.05.64,0,.67-.05s.17-.32.2-.27a.19.19,0,0,0,.27,0l.07-.07.14,0c.12.32.45.13.68.17a.37.37,0,0,0,.14,0s0-.06,0-.08v0l-.34,0h-.14c-.1,0-.19-.08-.28-.08h-.14a2,2,0,0,0-.23-.27c-.07-.06-.39.06-.45.07s-.21-.06-.18-.16,0-.37,0-.38h0c-.1.1-.19.26-.3.27l-.2,0a2.32,2.32,0,0,1-.37.3l-.21-.18-.07-.06a.67.67,0,0,0-.28-.14h-.06l-.26.08L10,13.19s-.12,0-.19.14l-.1.05c-.09,0-.25,0-.33.1a.12.12,0,0,1-.1,0L9,13.33c-.07,0-.14.1-.24,0l-.06-.06-.73-.12L7.73,13l-.09-.07c-.2,0-.36.09-.34.16a.47.47,0,0,1-.47.29l-.24,0c-.2,0-.09-.18-.23-.19A2,2,0,0,1,6,13.16H6c0-.1-.08-.08-.16,0l-.07.07a.42.42,0,0,1-.14,0s-.07-.09,0-.11l.13-.12c0-.17-.09-.26-.14-.21L5.38,13s0-.06,0-.12a.15.15,0,0,0-.13-.21c-.13,0-.43.05-.42.11s-.21.27-.26.32-.19.14-.2.11-.12,0-.19.06-.5.08-.56,0-.2-.08-.22,0l-.19-.07c-.14-.05-.17-.12-.08-.26s0,0-.13,0l-.14,0a.28.28,0,0,1,.23-.18l0,0,.06-.06a.3.3,0,0,0-.05-.25h0l-.42.2a4.75,4.75,0,0,0-.3-.48.48.48,0,0,0-.18.18c-.05.1-.18.24-.17.1H1.77a.13.13,0,0,1-.18,0,.17.17,0,0,0-.29.07l-.07.14a.25.25,0,0,1-.1,0h0A.72.72,0,0,1,1,12.51c0-.07,0-.26.15-.3s0-.39.06-.43a.49.49,0,0,0,.08-.17h0l-.14,0a1.52,1.52,0,0,1-.35-.22l-.07.05,0,0c0,.11,0,.21,0,.23s-.23,0-.19-.1l0-.09a.37.37,0,0,0,0-.18.45.45,0,0,0-.11-.23l-.07,0A.53.53,0,0,1,.08,11a5,5,0,0,1,.12-.54l.42,0H.78c.15-.09.21-.17.13-.17s-.22-.08-.09-.15l.09-.06L1,10a.63.63,0,0,1,.3.12l.07-.08a.65.65,0,0,1-.09-.13s0-.11.11-.06l0,0c.14-.05.1-.14-.08-.2l-.13,0h0c-.06,0-.1,0-.09,0s0-.15,0-.16S.83,9.4.85,9.36s0-.13-.12-.14-.06.3-.1.33a.66.66,0,0,1-.28,0c-.06,0-.18-.13-.17-.17l0,0s.07,0,.1,0l0,0c.08.06.13,0,.11-.12S.62,8.9.72,9,1,8.79,1,8.78s-.12-.06-.1-.1h0c.18,0,.25-.12.33-.2l0,0c0-.1,0-.2,0-.22a.56.56,0,0,1,.29,0c.07,0,0,.25,0,.3a1.21,1.21,0,0,0,.24.16.07.07,0,0,0,0-.09,1.38,1.38,0,0,1-.07-.26A.44.44,0,0,1,2,7.88L2.23,8l.1.06a1.9,1.9,0,0,1,.17-.28Zm77.69,6a.79.79,0,0,1-.34,0l-.12,0a.55.55,0,0,0-.27-.06c-.07,0,0,.19-.18.16h0a.72.72,0,0,0,0,.17c0,.05-.27,0-.28,0s-.08-.2-.16-.15l-.06,0-.06,0a.64.64,0,0,0-.3.13c-.09.06-.42,0-.44-.07l.1-.1.08-.07c-.09-.11-.22-.15-.3-.09s-.26.27-.18.29,0,.19-.08.22l-.09,0a.61.61,0,0,0,0,.11s0,.05.07.05l.14,0a.94.94,0,0,0,.36,0l0,0c0-.06.06-.15.12-.17s.15.07.22.07h.14a.58.58,0,0,1,.44.08l.14-.11.15-.12c.1.12.2.18.22.14s.18-.06.18,0a.11.11,0,0,0,.11,0H80l.18-.17a.91.91,0,0,0,.26-.4h0c-.09,0-.17,0-.17.09v0Zm-38.81.84c0,.06-.1.06-.29,0l-.09.13-.06.09c-.05.12.15.18.45.12h.13c.07,0,.11,0,.09-.06s.05-.18.21-.29l-.26-.19,0,0-.2-.2h-.22c-.11,0-.15.05-.1.1s.36.28.39.33Zm20.68-.17c.1,0,.18,0,.17,0l0,0,.18.11c.32-.11.55-.25.51-.3s-.34,0-.41.05a1.41,1.41,0,0,1-.35-.05c-.07,0-.24-.05-.28,0s-.17.14-.22.11-.22-.09-.28,0a2.24,2.24,0,0,0-.22.22.13.13,0,0,0,.12,0c.07,0,.25,0,.23,0a.16.16,0,0,0,.11.18h.11s.19-.32.3-.36Zm-17.63.14a.16.16,0,0,1,.12,0,.78.78,0,0,1,.3,0h0c0,.08-.07.2.11.21h.15a.3.3,0,0,1,.15-.27l.09,0,.1,0c.1,0,.09,0,0-.08l-.06-.1a1.14,1.14,0,0,0-.25,0l-.17,0c-.11-.07-.16-.16-.11-.21s.13-.18.1-.22-.18-.1-.23,0,0,.39-.07.44-.25.15-.28.12-.15-.08-.19,0h0c-.18,0-.28,0-.33.18v0a3.66,3.66,0,0,0-.93,0,1.49,1.49,0,0,0,.44.17l.12-.1.07-.05a.67.67,0,0,0,.17-.18s0-.09-.1,0a1,1,0,0,1-.48.1c-.06,0-.2-.2-.16-.31v-.16a.49.49,0,0,0-.4,0l-.15,0s-.06.08,0,.11.08.07.11.06h.06a.11.11,0,0,1,.17,0,.1.1,0,0,1-.14.14l-.08,0-.2.07a2.13,2.13,0,0,0-.23-.25H42a1.86,1.86,0,0,0-.09.31l.14.1.12.08c.09.12.2.11.23,0l.21.05.15,0c.52-.07,1-.06,1,0l0,0c.07,0,.16,0,.19-.07s.09-.09.13-.09a3.43,3.43,0,0,1,.34.06h.06a.09.09,0,0,0,.08-.12l0,0v0ZM9.36,17.86a.62.62,0,0,1,.43,0L10,18s.12,0,.14-.08,0-.06.12-.06h.26l.65.05.06,0,.19-.06c.24-.08.35-.16.25-.17l0,0-.06,0s0,0,.14,0,.54,0,.54,0v-.06c0-.07,0-.17,0-.21l.16-.14a.44.44,0,0,0-.43.21l-.34-.1-.14,0c0,.11-.09.2-.16.19a2,2,0,0,0-.35.09,2.24,2.24,0,0,1-.44-.13c-.12,0-.45.14-.55.22l-.09.07c-.13.11-.12.11-.22,0a.82.82,0,0,0-.22-.19l-.05,0c-.08,0-.15,0-.15.05s-.09.1-.17.1,0,.21,0,.26a.26.26,0,0,0,.27,0Zm31.25-3.62c.07.28,0,.46-.15.4l-.11,0-.1,0c-.08.12-.2.12-.27,0l-.12.11a.52.52,0,0,1-.43.12.25.25,0,0,0-.24.13s-.07.06-.09.1l-.05.07a1.15,1.15,0,0,0-.1.48l.1,0,.07,0a.39.39,0,0,0,.23-.18h-.14c-.14,0-.14-.11-.08-.16l.11-.09.39-.19c.07,0,.29.08.33.13s-.08.22-.12.22-.18.07-.18.15a.2.2,0,0,0,.3.13c.16-.1.22-.63.28-.8l.11.07c.17.1.21,0,.28,0l0-.05c-.22-.33-.34-.56-.27-.52a2.47,2.47,0,0,1,.29.24.15.15,0,0,0,.21-.17l-.16-.12-.13-.1Zm-2.37.95c.1-.29,0-.57-.12-.63H38a4.33,4.33,0,0,0-.5.08l-.36,0h-.24c-.07,0-.2.14-.16.2s-.06.23-.06.24l-.31,0-.14,0s-.08-.06-.08-.09a.12.12,0,0,1,.08-.09l.08,0c.1,0,.06-.11-.09-.24l-.15.11c-.09.06-.11.2-.14.3s.14.09.21.14.19.25.38.07h0a1.59,1.59,0,0,0,.21.08c.08,0,.18-.12.18-.17s.09-.22.19-.16.36.14.44.07h.07c.08,0,.16.14.26.05s-.07-.17-.13-.24v0a.36.36,0,0,1,.22.05c.16.07.59.32.63.18l0-.11.17-.4s-.11-.06-.12,0l-.08,0a.15.15,0,0,0,0,.22l-.06.09,0,.08c0,.11-.11.19-.18.17l0,0c-.08-.06-.17-.08-.22,0s0,.13.13.14h.11Zm36.69-.82c.07,0,.09-.07,0-.15l-.06-.05c-.06-.05.14-.12,0-.19s-.14-.09-.23,0l0,0-1-.07-.47.12-.19.05c-.16-.11-.35-.15-.42-.09s-.25.18-.29.15-.19-.06-.24,0-.09.31.09.25h.18a1.89,1.89,0,0,1,.39.05l.11,0,.08,0a2.47,2.47,0,0,0,.46-.2h0l.3.06c0-.19.13-.2.3,0l.16.14.17.16c.22.15.43.23.47.19s0-.44.12-.44ZM50.85,15.76c.13,0,.23,0,.22,0h0l-.15-.06a3.27,3.27,0,0,1-.37-.09v0l0,0a.9.9,0,0,1,.22-.13c.11,0,.2-.3.26-.29h.1s.07,0,.06-.07l0,0-.1,0c-.08,0-.19,0-.19-.1s0-.13.14-.19l.17-.08c.17-.16.33-.25.34-.2s.09.17.15.13l.06,0,.25,0h0a1,1,0,0,1,.17.16l.15-.08.07,0,.33.05a1,1,0,0,0,.31-.13l.09.06.05,0c.11,0,.21-.07.21-.14s-.1-.27-.22-.27-.41.08-.39.11-.18.1-.52.09H52a.48.48,0,0,1-.47-.15l-.09-.12a1.87,1.87,0,0,0-.39.29l-.14,0-.32,0c-.24.16-.4.37-.36.45l.13-.09a1.22,1.22,0,0,1,.23-.1l.07,0a.58.58,0,0,1,.08.39l0,.13a.87.87,0,0,1-.07.17c-.3-.06-.2.17-.3.26l-.07.07a5.2,5.2,0,0,0,.54.17Zm29.76-1.55a1,1,0,0,0,.35.11l.14,0c.17-.06.29.17.47,0l.06-.05a2.19,2.19,0,0,1,.38.1c.06,0,.15,0,.07-.13s-.33-.47-.26-.53-.17-.23-.37-.12l0,.22h0c-.16.05-.25.05-.21,0s.09-.12.06-.14-.1,0-.07.11-.07.38-.16.34-.24-.37-.3-.36-.21,0-.18.05a2.07,2.07,0,0,1,.17.16c.06.06-.18.21-.18.25Zm-3.82-.07c.09,0,0-.16-.13-.37l-.31.24a.52.52,0,0,1-.18-.06L76,13.83l-.51.11,0,0c-.09-.05-.13-.06-.2,0l-.06.05c-.12,0-.13.1,0,.11a.83.83,0,0,1,.38.22,1.65,1.65,0,0,0,.7.35h.18s.08-.07.07-.1a.11.11,0,0,0-.09-.08l-.11,0c-.15,0-.22,0-.15-.09a2.67,2.67,0,0,1,.62-.21ZM6.5,18.31l0-.08c0-.08.26-.26.33-.25s.2-.11.14-.15l-.05,0,0,0c-.06,0-.11,0-.12.07h0a.3.3,0,0,1-.2.05l-.1,0c-.14-.05-.22,0-.18,0s-.24.18-.29.08-.39,0-.39.14.08.42.18.39a1.49,1.49,0,0,0,.43-.24c.06-.07.35,0,.36.07Zm24.81-1.72c0,.15.12.28.31.29h.14l0,0a.11.11,0,0,0-.09-.15l0,0,0,0a.12.12,0,0,1,.11-.12l.06,0s.1.06.11.09l0,.09c.09,0,.18,0,.19,0a.47.47,0,0,0,0-.27L32,16.37a.54.54,0,0,0-.18,0l-.21,0a1.12,1.12,0,0,0,.05-.21.17.17,0,0,0-.14-.09l0,0c-.14.08-.22.1-.24-.08,0,0-.11,0-.17,0h0c0,.06.24.44.23.6Zm21.22-1.21c0,.08.09.14.2.14h.13c.07,0,0,0-.08-.17l-.1-.11h0a.09.09,0,0,1,.11-.06s.18,0,.2,0A.87.87,0,0,0,53,14.8L53,14.75l0,0a1.19,1.19,0,0,0-.32.18h-.12l-.17,0a.85.85,0,0,0-.23.31c0,.09.21.16.2.08s.27,0,.27.11Zm16.73-.77c0,.11.09.13.2,0a4.23,4.23,0,0,0,.48-.46l-.14-.07a.3.3,0,0,0-.34,0l-.06,0h-.29v0A.53.53,0,0,0,69,14a.17.17,0,0,0-.14,0l0,0a.49.49,0,0,0,0,.2c0,.06-.09.22-.1.23s0,0,.08-.1.41.13.41.23ZM94.8,13c.08,0,.13,0,.1.15s0,.38,0,.33.35,0,.46-.13-.07-.48-.19-.48-.38-.08-.46,0a1.48,1.48,0,0,0-.26.2l.29,0ZM8.48,7.57a.28.28,0,0,0-.26.23L8,7.92,8,8c.16.09-.11.14,0,.21s.15.11.22.17l.1.08a.25.25,0,0,0,.37,0l.07-.12v0s-.1-.06-.16,0-.25-.16-.21-.45l.33-.11.08,0a.79.79,0,0,0,.17,0l-.41,0Zm17.17,6.67s-.1,0-.14,0a.25.25,0,0,0-.32,0l.08.16c0,.08-.1.13,0,.24l.14.12c-.21.06-.29.11-.19.12s.3.05.3-.06a3.31,3.31,0,0,1,0-.4.14.14,0,0,1,.07.08s.1.18.16.17h.05l.06,0c.09,0,0-.12-.17-.19l.05-.09s.07,0,.07-.06,0-.13-.06-.14-.16,0-.15.12h0ZM47,15.43a.22.22,0,0,0,.31.08l.1-.06c.1,0,.14-.23.06-.24s-.29-.19-.48-.09-.08.08-.16,0L46.63,15a.3.3,0,0,0,0,.38l.13,0,.15,0ZM18.07,13.89c.08.19.2.31.27.27s-.11-.34-.21-.47l0-.15a.44.44,0,0,0-.13,0s-.07,0-.08.09a.57.57,0,0,0,0,.13h0s-.09,0-.1-.05a.25.25,0,0,0-.23-.16h-.1a.35.35,0,0,0,.1.13c.06,0-.06.26-.05.31h.06l.45,0Zm42.75.82c.07.11.17.15.22.1s-.16-.22-.2-.24-.27,0-.37,0h-.09c-.09,0-.19,0-.26,0l-.26-.08c-.06.17.17.34.52.38l.21-.09.23-.09Zm36.7-3.47c.14.07.21.16.15.21h0l.13.19c.22-.09.39-.26.39-.38H98c-.19,0-.25-.17-.38-.24l0,0a.24.24,0,0,0-.2,0s-.15.24-.09.34l.15-.11ZM74.44,15.15c-.12.07-.18.2-.13.28s.26.26.32.16.25-.32.3-.32l0,0c.08.06.16.1.22,0s0-.14-.09-.17a.37.37,0,0,0-.24-.05c-.1.06-.2,0-.28,0l-.13,0Zm-6.25-.71c0-.07-.1-.15-.27-.16s-.63.06-.7,0,0,.18,0,.23a.17.17,0,0,0,.25,0l.1-.06.09-.06c.11,0,.24,0,.27,0s.21,0,.23-.06ZM48,14.59a.3.3,0,0,0,.25,0s.14-.18.09-.2a.52.52,0,0,0-.38.1l-.2-.09a1,1,0,0,0-.43,0h0a.34.34,0,0,0-.07.15c0,.06.68,0,.77.07ZM12.19,4.88c-.1,0-.12-.13,0-.24l.05-.1a.72.72,0,0,0-.09-.14c-.06-.08-.1,0-.16,0l-.14,0a.22.22,0,0,0,0,.25s-.08.22,0,.33l.08.08s.15.06.18,0,.21-.1.15-.21l0,0ZM94.94,8.06a.67.67,0,0,0-.17.32l.32,0c.08,0,.15-.08.23-.08h.08c.11.05.2,0,.19,0a1.58,1.58,0,0,0-.09-.36c0-.07-.33,0-.34.06s-.17.14-.22.11Zm5,3.14c.07-.11,0-.19-.12-.18s-.47-.08-.46,0,.11.28.15.28l.29,0,0,0ZM19.8,17.26s.12,0,.17,0l.21,0s.06,0,.07,0,0-.08,0-.08L20.11,17c-.16-.07-.23-.2-.14-.29l-.14-.08,0,0c-.07,0-.14,0-.16,0a1.33,1.33,0,0,0,.09.35l-.22.08-.06,0c-.06.13-.05.19,0,.14a.5.5,0,0,1,.36,0Zm23.83-1.93a.63.63,0,0,0-.3.16l-.2-.05-.23-.08h-.14a.39.39,0,0,0,0,.15s.07.09.11.09h.18a1.14,1.14,0,0,0,.38.21c.06,0,.12-.15.09-.21h-.11s0-.07.08-.08.15-.16.12-.21Zm50.59-2.2A.28.28,0,0,0,93.9,13l0,0-.17-.13c0,.12,0,.22,0,.23s.27.07.23.11-.12.15-.07.17a1,1,0,0,0,.43,0l.14.05h0a.14.14,0,0,0-.08-.14l-.1,0-.06-.07-.05-.09Zm-83.8-9c.14.06.27,0,.29-.1l0,0a.47.47,0,0,0-.27-.21c-.19-.05-.25.14-.37.21S10,4,10,4l0,.07c0,.08.06.15.17.15V4.11a.54.54,0,0,1,.19,0l.1,0Zm60.17,10a1.2,1.2,0,0,0-.22-.08l0,0s-.08.11-.06.13l0,0c.08,0,.08.05,0,.08l0,0s0,.11,0,.14l.06,0,.36.08.1,0,.08,0a.17.17,0,0,0,0-.12l0,0c-.07,0-.12-.06-.1-.09s-.1-.16-.15-.2Zm-30.78.59c.21,0,.38-.1.37-.14s0-.1-.07,0l0,0,0,0a2.38,2.38,0,0,1-.34,0c-.13,0-.47,0-.48.07s-.21,0-.24,0a.1.1,0,0,0,0,.14h0l.07,0,.44,0,.14,0,.17,0ZM11.34,3.92c-.08.05-.12,0-.1-.07v0l0,0a.14.14,0,0,0-.1-.08v0c-.07.08-.08.18-.24.19s0,.13,0,.2a.27.27,0,0,0,.17,0l.06,0h.32C11.58,4.11,11.42,3.87,11.34,3.92ZM47.28,14.18c.12,0,.19,0,.15,0a2.32,2.32,0,0,0-.27-.26l-.06,0c-.1,0-.15.09-.25,0h0c-.14.06-.2.16-.15.2a4.66,4.66,0,0,0,.6,0ZM15.69,12.45c-.2-.13-.38-.1-.39.07l.16,0h.07c.12-.09.29-.11.36,0s.34,0,.28-.12a1.15,1.15,0,0,0-.4-.26h0ZM13,17.28c-.14,0-.22,0-.19.07l0,0,0,.07a.12.12,0,0,0,.2,0h.06l.22-.07c.25,0,.39-.11.3-.16S13.17,17.3,13,17.28Zm34-2.77c0-.07-.21-.07-.46,0l-.19.09c-.06,0,.06.1.5.19h0c.06,0,.11-.09.11-.17ZM14.84,17.92s.09-.05.11,0h0c0,.1,0,.19.19.16a.32.32,0,0,0,.14,0v-.08a.76.76,0,0,0-.15-.25.31.31,0,0,0-.37.05C14.68,17.86,14.8,18,14.84,17.92ZM3,9.8S3,9.71,3,9.7H3c-.1.06-.19.16-.29.17s-.22,0-.33-.07l-.14,0v.05c0,.06.13.1.25.1s.42.09.52,0l0-.13v0Zm13.06,4c-.1,0-.15.09-.12.19l.17.16a.48.48,0,0,0,.14.09h.08a.16.16,0,0,0,.05-.2V14c0-.07-.22-.13-.31-.13Zm48.19.64c-.09,0,0,.14.09.31l.15.09c.08,0,.34,0,.38,0s-.14-.11-.21-.17l-.05,0c-.09,0-.15-.06-.13-.08s-.15-.09-.24-.09ZM7.44,12.78c0,.07-.06.13-.05.13a.26.26,0,0,0,.12-.06,1.39,1.39,0,0,0,.23-.32,1.12,1.12,0,0,0,0-.45l0,0-.08,0a1.81,1.81,0,0,0-.18.23v0l0,.09a1.74,1.74,0,0,1,0,.4ZM74,13.31a.12.12,0,0,0,0-.2l.15-.09.09-.06a.36.36,0,0,0-.26-.13H73.9a.2.2,0,0,0-.19.25l0,.05v.13a.13.13,0,0,0,.12.09l.06,0,.08,0ZM29,16.44c0-.07.09-.07.13,0s.27.1.17,0l-.05-.07s.21-.13,0-.14c-.09,0-.2-.08-.27-.06l-.12,0a.85.85,0,0,1-.11.31l0,.05s0,.09.06.11h0c.06,0,.19-.18.22-.25Zm41-1.49c-.12,0-.08,0,.09,0a3.74,3.74,0,0,0,.66,0s0-.13,0-.15a.2.2,0,0,0-.18-.07,3.69,3.69,0,0,1-.6.16ZM4.37,18.21c.09,0,.09-.06,0-.12s-.43.13-.53.15l-.1,0a.43.43,0,0,0-.12.06s0,.07,0,.08a2.81,2.81,0,0,0,.48.12s.15-.13.13-.14-.1-.11,0-.12h.08ZM18.72,14s0-.09,0-.09a.2.2,0,0,0-.11.06,1,1,0,0,0-.08.29,2.53,2.53,0,0,1-.12.36s0,.09.08,0l.06,0c.33-.13.19-.36.21-.55v0Zm-3.76.8c-.12,0-.13.08,0,.07s.35.17.4.16.15-.13.18-.19a.84.84,0,0,0,.07-.32h0s-.12,0-.14,0l0,0a.7.7,0,0,1-.1.27l-.25,0-.1,0Zm17.55,1.12c0-.08-.17-.12-.36-.09l-.15,0c-.08,0-.09.16,0,.17s.15.07.17.17l0,.07c.07.07.16.07.2,0l0,0c-.06-.05-.08-.08,0-.13A.3.3,0,0,0,32.5,16l0-.06ZM11.54,4.8a2.26,2.26,0,0,0-.5-.16l-.24,0s-.11,0-.12.06,0,.1.05.11a1.7,1.7,0,0,0,.39.09h.15c.15.06.28,0,.28-.06Zm-9.43,5c-.2-.25-.35-.41-.35-.36a2.13,2.13,0,0,0,.08.45l0,.14a.44.44,0,0,0,.13.05s.08-.05.09-.08l0-.19Zm95.73.89c-.13,0-.16.05,0,.13s.4.28.45.24,0-.24,0-.21S98,10.69,97.84,10.68Zm-49,4a.43.43,0,0,0,.35,0c.1,0,.07-.34-.12-.35l-.16,0-.13,0C48.67,14.45,48.8,14.65,48.88,14.7ZM63.2,15a.09.09,0,0,0-.07.07c0,.06-.37.12-.55.19l-.17-.12s-.07,0-.08,0,0,.06,0,.09a3.32,3.32,0,0,0,.55.09l.15-.09C63.19,15.21,63.23,15.06,63.2,15ZM16.63,18a.11.11,0,0,0,.18.11l0,0a.69.69,0,0,1,.33-.33l0,0c0-.07-.06-.09-.15,0h-.19c-.12,0-.23.2-.23.32ZM11.56,5.31c.23,0,.14-.12-.19-.28l-.31,0h0c0,.06,0,.12,0,.13h.07a.41.41,0,0,1,.15.14h.27Zm.32,9.26c-.07.18,0,.3.19.26l.12,0c.08,0,.15-.08.23-.08s.12-.09.12-.16,0-.1,0-.11-.17,0-.17.11-.11.07-.16.06l-.27,0ZM85.8,13.35c.26.12.49.15.51.06l-.15-.05c-.1,0-.22-.1-.25-.17s-.17-.07-.26-.08-.07.12-.06.13l.23.12Zm-66.38.73c.12,0,.12-.07,0-.1l-.06,0-.17-.06-.24.4,0,.11v0s.12.07.15.06.23-.4.34-.42ZM8.29,18c.07.06.15.07.18,0h0c.24,0,.2-.25.37-.32h0a.16.16,0,0,0-.16-.13l-.05,0c-.13.07-.12.28-.37.22,0,0-.07.08-.05.1l0,.06Zm40.32-2.86c-.07,0-.09,0,0,.2h-.29a.13.13,0,0,0,.07.17h0l.17-.07A.17.17,0,0,0,48.61,15.15ZM20.85,17c-.14,0-.16,0,0,0s.39.13.41.11,0-.14-.11-.25L21,16.73s-.1-.07-.11-.06-.11.08-.1.11l0,.16ZM1.08,11.1c.07.11.17.13.24.06s.14-.27,0-.27l-.07,0-.08,0A.52.52,0,0,0,.94,11L1,11Zm56.74,4.05c.06,0,0-.12-.16-.26l-.16-.06c-.07,0-.23.08-.34.14h0a.32.32,0,0,0,.2,0h.09l.08,0c.11,0,.18,0,.16.06s.09.11.15.11Zm-11.89-.68c-.08,0-.12.1-.08.23l.08.06.07.05c.13,0,.24-.06.24-.12s-.22-.21-.3-.21Zm13.13,0c-.09-.06-.14-.12-.12-.15s0-.09,0-.12h0c-.22.06-.23.12-.06.28l0,0a1.07,1.07,0,0,0,.18.28l.12-.07c.13-.08,0-.15-.06-.21l-.08-.06ZM9.84,4.93c-.08-.18-.21-.28-.28-.23l-.33.21c-.05,0,.14.15.22.07h.08l.32-.05ZM94.07,7c0-.09-.14-.12-.25-.07l0,.05s0,.12,0,.15-.15.06-.22.1l0,0a.21.21,0,0,0,.12.09c.08,0,.43-.25.4-.33ZM13.7,12.47c.06.09.15.1.2,0s.11-.27,0-.27l-.08,0-.09,0c-.15-.07-.09.18,0,.27Zm59.13,1.17c.11-.06.15-.16.09-.22l0,0c-.21-.09-.34.06-.51.11,0,0,0,.06,0,.08s.26.06.39.05h.08Zm-48.34.24a.21.21,0,0,0-.27-.08c-.09,0-.21.2,0,.19l.13,0,.11,0c.1.07.16.06.13,0l0-.06-.05-.07ZM14.15,18c.19,0,.32-.18.28-.3l0-.1h0c-.07,0-.14,0-.15.05h0c.09.06,0,.11,0,.13l-.29.07a.13.13,0,0,0-.06.1s.07.07.1.07l.17,0Zm46.53-2.79c-.18,0-.33.14-.34.19s0,.18.06.19.1,0,.11,0v0s0-.09,0-.09l.39-.1.05,0a.11.11,0,0,0-.07-.15h-.05Zm-50.84.12c-.07-.14-.15-.14-.19,0h0c-.22,0-.16.16-.26.23s0,.21,0,.22.14-.07.16-.15a.55.55,0,0,1,.14-.18ZM13.11,3.18c0,.08.1.1.21,0s.14-.31.06-.31-.27.18-.27.26Zm74.68.33c.08,0,0-.11-.07-.17s-.29,0-.27.07a.4.4,0,0,0,.33.09Zm-69.16-1c-.24.08-.28.2-.09.26l.21-.11a.33.33,0,0,0,.14,0,.12.12,0,0,0,0-.11s-.09-.06-.13,0l-.18,0ZM17.34,17.79a.33.33,0,0,0,.07.21l.14-.11s.15-.15.29-.07l0,0c.11-.06.12-.13,0-.17a2.2,2.2,0,0,0-.56.13Zm1.18-5.09c.07.06.19,0,.26-.16V12.4c-.13,0-.34.25-.26.31Zm-.65-.45c.1.1.12.2.05.22l0,0s-.05.09,0,.12.11.06.13,0l.11-.07a.72.72,0,0,0,.21-.3l0,0a.63.63,0,0,0-.2,0l-.18,0Zm-1,.16c0,.12,0,.1.06,0l.18,0,.13,0a.54.54,0,0,0-.05-.24S16.93,12.29,16.91,12.41Zm82.59-.54a.44.44,0,0,0,.32,0l-.11-.1-.08-.07a1.3,1.3,0,0,0-.15-.18s-.13,0-.16.05.09.26.17.3ZM14.65,14.13c-.12.06-.15.11-.05.11s0,.19,0,.21a.16.16,0,0,0,.16,0l0,0c0-.06-.05-.16.1-.17s.16-.07.11-.14a.27.27,0,0,0-.19,0l-.12,0ZM88.84,3.07s0,0,0-.09,0-.06-.16.1l-.21,0s0,.06,0,.08.08.07.11.06a2.79,2.79,0,0,0,.39-.1h0s-.08-.08-.11-.08ZM48.55,15.77c-.12.05-.15.12-.08.16l.22.1s0-.08.05-.11S48.67,15.72,48.55,15.77ZM13.47,17.86a.14.14,0,0,0-.21-.07.53.53,0,0,0-.1.44c0,.09.33-.28.3-.37Zm57.64-3.54c0,.08.16.08.28,0l.11.11s.06,0,.07,0,0-.07,0-.09l-.17-.1C71.16,14.08,71.07,14.23,71.11,14.32Zm-25.4-.63c-.08,0-.13,0-.11.11h0c.16,0,.2.08.19.2v.06c0,.08.09.06.15-.05S45.8,13.71,45.71,13.69Zm28.76-.38a.15.15,0,0,0,.13.08h.05l.28-.1c.09,0,.08-.13,0-.18l-.18-.1C74.64,13.11,74.5,13.28,74.47,13.31Zm6.13-.56c-.09,0-.11.1,0,.16s.26.14.29.06S80.69,12.72,80.6,12.75ZM7.93,12.7c0,.08.09.12.19.08l.07,0,.06,0a.09.09,0,0,0,.05-.13l0,0-.1-.06c-.13-.06-.23.1-.23.18Z" transform="translate(0 0.01)"/><path d="M18.49,19.47c-.06,0-.14-.1-.18-.23l-.15.11-.13.09-.36-.06h0l-.06.17a1.79,1.79,0,0,1-.35-.15.3.3,0,0,0-.33.05l-.08.05-.09.05c-.13,0-.21.07-.2.1a.8.8,0,0,1-.13.42l0,.16v.06c0,.07-.09.13-.2.15l0-.08a.43.43,0,0,0,.06-.07l-.18-.21c.13-.25.07-.43-.13-.38s-.69.2-.64.26.12.21,0,.23l0,0-.07-.05a.91.91,0,0,0-.19-.2c-.05-.05-.21-.14-.23-.08s-.14.22-.19.22h0l-.14,0a4,4,0,0,1-.42-.17c-.08,0-.05-.22,0-.2s.14.17.21.17.28,0,.29-.07A.44.44,0,0,1,15,19.6l.14.07c.15.07.25.15.28-.07a.39.39,0,0,1,.18,0l.1,0a.18.18,0,0,0,.23-.07c0-.07-.14-.21-.19-.21a.55.55,0,0,1-.33-.23h.3c.13,0,.18-.05.13-.12s-.15-.06-.22,0h0s0,0,0-.12a.81.81,0,0,1,.48-.32c.15,0,.6,0,.61,0a.18.18,0,0,0,.21.11H17c.18,0,.14-.09.19-.15a.12.12,0,0,1,.1,0l.18,0c.19.05.31.12.26.15v0s0,.09,0,.11a.21.21,0,0,0,.14,0l0-.23a3.08,3.08,0,0,0,.5-.09,1.14,1.14,0,0,1,.37.09l0,0,.26-.19c.2.15.37.22.37.15l0-.06,0-.08a2.83,2.83,0,0,1,.31.11c.08,0,.29.12.41,0s.56-.05.54,0-.05.22,0,.21h0l.12-.15,0,0a1.16,1.16,0,0,1,.25-.09c.11,0,.45,0,.51.1s.26.26.23.15-.32-.38-.31-.42.12-.12.18-.07.26.27.42.26h.18a.9.9,0,0,0,.19.22l.05.07s0,.13,0,.14L22.4,19a1.68,1.68,0,0,1-.31.4c-.07.05-.28.14-.31.11s-.12-.09-.15-.06a.22.22,0,0,1-.25,0c-.06-.08-.35,0-.38,0s-.18-.15-.2-.07-.11.2-.18.09-.29-.27-.35-.14l-.21,0-.08,0a.5.5,0,0,0,.06.46c.08.06.28.28.25.37l.14,0h.08c.16,0,.14.05,0,.08a4.23,4.23,0,0,1-.8-.07h-.05l-.19-.05c-.09.12-.22,0-.29-.17l.2-.19.07-.07a1.58,1.58,0,0,0-.31-.32H19c-.08,0-.18,0-.19-.11s-.11-.11-.18-.05,0,.1,0,.15v0a.47.47,0,0,1-.17.07Z" transform="translate(0 0.01)"/><path d="M48.26,19c.1,0,.09,0,0,0s-.18-.22-.15-.24.12-.09.1-.11a1.08,1.08,0,0,0-.26-.12c-.1,0-.26.25-.27.26s-.06,0-.09,0v0a.26.26,0,0,0-.28-.21l0,0c-.07.14.1.17.16.25h0c.07.06.05.09,0,.07a.9.9,0,0,1-.33-.24L47,18.61a.37.37,0,0,0-.32-.13.66.66,0,0,1-.36-.05l-.07,0c-.2.06-.32.06-.27,0s.18-.21.1-.19-.26.05-.29,0-.18-.1-.21-.06a.25.25,0,0,1-.21.08c-.07,0-.2-.15-.14-.21a.54.54,0,0,1,.52,0l.21-.05L46,18a1,1,0,0,0,.24-.2l.11.1,0,0a.17.17,0,0,0,.22,0c.07-.05.33-.13.4-.08l.06,0c.07.06.15.11.22,0l0,0c0-.1,0-.16.1-.14a1.83,1.83,0,0,0,.57,0c.1,0,.37,0,.27.12s-.1.48,0,.44.2-.32.24-.37.18-.18.23-.16a.57.57,0,0,0,.31,0,1.29,1.29,0,0,0,.34-.32l.14.09.11.07a1,1,0,0,1,.21-.21h.06a.33.33,0,0,1,.16.07s0,.1-.06.1l-.32,0a.58.58,0,0,1-.4.44l-.16-.09-.08,0a.51.51,0,0,0-.32.55l-.38,0h0a.48.48,0,0,0,.06.27c0,.08.06.27,0,.23s-.24.17-.2.18.09.08,0,.11-.28.05-.29,0l0,0-.14-.08a3.82,3.82,0,0,1,.51-.23Z" transform="translate(0 0.01)"/><path d="M22.26,19.51a1.26,1.26,0,0,1,.16-.53l.22-.07s0-.1,0-.14l-.05-.07c-.07-.07-.09-.13,0-.13s.19-.05.17-.11,0-.16.07,0l.19,0c.12,0,.19-.09.13-.13l-.17-.13c.15-.08.31,0,.37.23l-.17.16,0,0c0,.07.1.11.13.1s.18-.12.28-.19l.06.11.06.11c.05.19.1.27.1.16s.1-.34.19-.35.36,0,.36.08l0,.08v0l.18.11s-.1.16-.12.18a.1.1,0,0,0,0,.13h.14c.11,0,.2-.05.2-.13a.71.71,0,0,0-.06-.3.24.24,0,0,1-.05-.27l.16.14H25c.34-.08.41-.05.45.21,0,.08,0,.08.23.23l.15.1a.84.84,0,0,1-.24.2s-.2-.13-.28-.21l-.07.12,0,.09c-.05.1-.15.13-.22.07s-.35,0-.38,0l-.52-.08h-.23c-.15,0-.3.13-.46,0a.37.37,0,0,0-.2,0c-.12,0-.28.17-.35.14a.55.55,0,0,0-.36,0l-.18,0Z" transform="translate(0 0.01)"/><path d="M27,19.49c-.09.09-.18.1-.21,0s-.06-.29,0-.32.13-.14,0-.14-.39.24-.32.28a1.41,1.41,0,0,1,.23.18.35.35,0,0,1-.18,0l0,0-.2-.15c-.24-.2-.38-.38-.33-.4s.2,0,.24,0,.25-.11.21-.16-.1-.22,0-.22a1.44,1.44,0,0,1,.49.08.26.26,0,0,0,.33-.13l.26,0a.48.48,0,0,1,.1.08s0,.07,0,.07c-.31,0-.08.27-.32.31s-.19.21-.21.37v.08Z" transform="translate(0 0.01)"/><path d="M24.57,20.07c0,.08-.12,0-.24-.16l-.21,0a.92.92,0,0,0-.18,0l-.12.16c-.1-.1-.19-.14-.22-.09s0,.18.09.23.17.23.12.28l-.06,0-.08,0a.17.17,0,0,1-.18-.21l0-.07,0-.06c-.1-.05-.18-.12-.18-.15A.19.19,0,0,0,23,19.9c-.12.06-.2.39-.2.46l-.13,0-.09,0c-.1.09-.2.05-.23-.08l0-.11v0c-.09,0-.1-.05,0-.07h0c.14,0,.19-.06.26-.12a1.13,1.13,0,0,1,.71-.24h.35a2.94,2.94,0,0,1,.81,0,.66.66,0,0,1,.14.37Z" transform="translate(0 0.01)"/><path d="M2.27,18.59c-.12,0,0,.05.15.12l.18-.06.21-.06c0-.15.09-.08.2.15L3,19a.72.72,0,0,1,.07.15v.05c0,.06,0,.07-.11,0h0l-.17.1c-.21.12-.43.09-.49-.07l-.06-.12L2.15,19a2.8,2.8,0,0,1-.28-.46l.21-.06.25-.05h0a.24.24,0,0,1,0,.13h0l-.08,0Zm.46.29c0-.05-.1-.08-.23-.05l-.11,0-.09,0c0,.14.12.25.19.24A.49.49,0,0,0,2.73,18.88Z" transform="translate(0 0.01)"/><path d="M7.5,14.64s0,.1,0,.11a.41.41,0,0,1-.27-.06c-.11-.06-.47-.1-.42-.14s.11-.19,0-.23-.28.11-.31.08v-.11c0-.11,0-.19.09-.19h.34a2.78,2.78,0,0,1,.75.18l.16,0,.25-.05c.15.13.18.25.07.27s-.34,0-.4,0-.26.11-.26.16Z" transform="translate(0 0.01)"/><path d="M79,17.64c0,.07-.05.09-.06,0l0,0-.16-.2c-.15.11-.27.23-.27.27h0a.42.42,0,0,1-.14.05.09.09,0,0,1-.06-.06v-.09c0-.1.16-.29.36-.42l.23.19a.56.56,0,0,0,.15-.08l.07-.08c.09-.14.16-.18.18-.09s.14.25.27.2l0-.15v0s0-.15-.08-.26l.16,0c.18,0,.12.1.14.18s.06.07.08.06l0,0a.64.64,0,0,1,.15.13c0,.06.18.18,0,.3l-.17,0-.08,0a.26.26,0,0,0-.25.1l0,.08,0,0c0,.1,0,.13-.07.06s-.35-.17-.38-.1Z" transform="translate(0 0.01)"/><path d="M27.08,19.22h.17c.09,0,.3.11.22.25s.08.54.21.49h.11l.08,0c.13,0,.19,0,.14-.07l0-.06,0-.07c0-.14,0-.2.09-.13a.68.68,0,0,0,.46.17c.14,0,.38.24.32.3s-.37-.09-.49-.12l-.12.06-.12,0c-.15,0-.25.11-.23.16v0l0,0a.17.17,0,0,1-.11.06l0,0-.07-.08c-.06-.1-.14-.15-.18-.12s-.2.06-.26,0,.07-.38.11-.47,0-.34-.06-.36l-.22-.08Z" transform="translate(0 0.01)"/><path d="M29.89,19.15c0,.06,0,.11,0,.12s.06.09,0,.15-.39.08-.31.06.25-.12.18-.15-.22-.12-.18-.15.19-.13.29-.22l0-.12s0-.07,0-.09l.05-.09c-.05-.07-.11-.16-.14-.19s0-.15,0-.11a.26.26,0,0,0,.23.07c.08,0,.31-.07.35,0s.29,0,.31,0,.07.1,0,.14h-.21c-.24,0-.39.08-.34.17h0l.25.05a1.16,1.16,0,0,1-.11.39c-.05.05-.37-.08-.41,0Z" transform="translate(0 0.01)"/><path d="M50.57,18.16c-.07-.07,0-.09,0-.05s.4-.15.52-.15l.07,0,.25.15c0-.17.06-.25.07-.19s.08.22.14.19a2,2,0,0,1,.24,0c.06,0,0-.08-.14-.13l.18-.18-.19-.23s0-.07,0-.07h0a.33.33,0,0,1,.2.14,1.25,1.25,0,0,1,0,.69l-.28,0h-.21l-.06,0c-.08.06-.17,0-.2-.09s-.68-.11-.75-.17Z" transform="translate(0 0.01)"/><path d="M31.93,18.86c.11.07.13.17,0,.22s.07.29-.06.27-.41-.11-.38-.13h0l.09,0c.1,0,.1-.09,0-.12l-.09,0-.12,0a2.29,2.29,0,0,1-.58,0l-.08.06c-.24.18-.15-.06-.2-.1s0-.14.09-.18l.07-.06a1,1,0,0,0,.26-.09s.12,0,.13,0,0,.15,0,.23l.06,0a.47.47,0,0,0,.18,0c.19-.15.28-.17.45-.08l.1.05Z" transform="translate(0 0.01)"/><path d="M33.15,18.86c.06.07.06.14,0,.15a.71.71,0,0,0-.21,0s-.06.12-.11.25l-.09.06c-.12.08-.42-.11-.34-.22l.22-.29c-.27,0-.44-.07-.38-.08l0,0c.11,0,.11-.11,0-.17s-.2-.1-.3-.16l0,0s0,0,.17,0a.91.91,0,0,1,.33.31h0a.46.46,0,0,0,.22.11h.05c0-.09.31,0,.37,0Z" transform="translate(0 0.01)"/><path d="M97.12,5.71c.1,0,.15.12.1.19s-.29,0-.36,0l0,0a.35.35,0,0,0,0,.12s.08.07.09.1a.13.13,0,0,1-.06.1h0a1.27,1.27,0,0,1-.23-.08l-.08,0-.14,0a1.1,1.1,0,0,1-.27-.39c0-.1.2-.4.24-.47l0,0a.46.46,0,0,1,.14,0,.14.14,0,0,1,0,.11l-.11.11c-.16.14-.19.31-.08.38s.62-.08.73,0Z" transform="translate(0 0.01)"/><path d="M39.73,18.38c.07,0,.11.05.09.09s.14.31.1.37a1.25,1.25,0,0,1-.25.27c-.07.05-.34-.09-.4-.13s-.18,0-.12.11-.17.43-.2.34a3.56,3.56,0,0,1-.1-.36v0l-.17-.26a2.21,2.21,0,0,0,.48-.1c.1,0,.34.14.38.14s.07-.13-.06-.29l.2-.14,0,0Z" transform="translate(0 0.01)"/><path d="M105.7,16.81c.13,0,.13,0,0,.06l-.09.05c-.13.08-.24-.05-.26,0l-.2.1c-.18.12-.38.18-.44.14s-.18-.2-.13-.25.21-.18.24-.16.11,0,.13,0V16.6s0-.09,0-.1.13.12.16.15.15.09.19,0,.27.09.4.1Z" transform="translate(0 0.01)"/><path d="M24.89,20c0-.16,0-.28.08-.27a1.22,1.22,0,0,1,.38.13c.06,0,.25.07.27,0s.06-.28.22-.26l0,.11,0,.14a.32.32,0,0,1-.38.24H25.3a2,2,0,0,1-.37,0c-.15,0-.19.25-.34.11l.23-.15.07,0Z" transform="translate(0 0.01)"/><path d="M55.77,18.12c-.19,0-.36,0-.38-.07s-.06-.17,0-.18h0l.2-.05a.48.48,0,0,0,.46.13l0-.14c0-.09.15-.16,0-.29s0-.13.23-.13h.16c.16.06.25.1.2.11a1.06,1.06,0,0,0-.31.11c-.09.05,0,.28,0,.35a.22.22,0,0,1-.26.21h-.14l-.16,0Z" transform="translate(0 0.01)"/><path d="M10.38,14.36a.19.19,0,0,1,.16-.25,1.59,1.59,0,0,1,.6-.09c.11.05.33.3.24.42l-.19-.14-.09-.07c-.16,0-.29,0-.27.11S10.42,14.46,10.38,14.36Z" transform="translate(0 0.01)"/><path d="M84.49,14.1c.23.07.31.19.18.26l-.09,0,0,0-.54.13h-.24c-.07,0-.08.11-.2,0s-.11-.15-.08-.21a.36.36,0,0,1,.2-.18c.1,0,.27,0,.25-.15h0a1.3,1.3,0,0,1,.29.07h.14l.14,0Z" transform="translate(0 0.01)"/><path d="M60.76,17.55a.17.17,0,0,1-.2.07c-.06,0-.28-.09-.3,0s0,.24,0,.27-.28.07-.28,0v0l0-.08a.94.94,0,0,1,.19-.33c.08-.09.51-.09.57-.14s.25-.14.27-.07v.2c.11,0,.22,0,.22.08s0,.21-.09.17v0c-.07-.16-.16-.21-.31-.14Z" transform="translate(0 0.01)"/><path d="M92.72,15.35c0,.2-.16.32-.3.28h-.14l-.09,0a2.81,2.81,0,0,0-.45.05l-.1,0-.1,0c-.18-.06-.14-.17.08-.25l.23,0,.18,0a1.49,1.49,0,0,1,.42-.15h0l.24.07Z" transform="translate(0 0.01)"/><path d="M28,19.26s0,0,0-.1-.06-.46.1-.37l.18-.17a.87.87,0,0,1,.42-.12l.1,0a2.15,2.15,0,0,1,.18.23c0,.05.05.2-.05.18a1.11,1.11,0,0,1-.36-.25l-.13.09-.15.11a1.69,1.69,0,0,1-.3.42Z" transform="translate(0 0.01)"/><path d="M9.78,14s0,0-.11,0-.26-.09-.18-.19l.08-.06a.62.62,0,0,0,.2,0c.07,0,.13-.1.2-.15h.1c.08.11.22.07.34.1h.06c.06.07,0,.21-.17.31l0,.17a.34.34,0,0,1-.1,0h0A1.73,1.73,0,0,1,10,14l-.1-.08-.08-.05-.05,0a.19.19,0,0,0,0,.15Z" transform="translate(0 0.01)"/><path d="M57.85,18.72a.21.21,0,0,1-.26-.21v-.12c0-.13,0-.27-.15-.35s0-.08,0-.13v-.07c0-.1.2-.17.5-.16l.19.21.17.13c-.13.13-.16.12-.38,0h0a2.19,2.19,0,0,0-.27.38l.09.15.12.2Z" transform="translate(0 0.01)"/><path d="M68.2,17.77a.36.36,0,0,1-.38.05,1.38,1.38,0,0,1-.3-.32s.06-.07.11-.07.11.08.15.13.26.09.26,0a.34.34,0,0,1,.09-.19h0c.2,0,.43.06.51-.18a.33.33,0,0,1,.1,0s.07.09,0,.11l0,.06C68.7,17.45,68.3,17.68,68.2,17.77Z" transform="translate(0 0.01)"/><path d="M43.36,18.24c-.23,0-.17-.17.14-.29l.31.17,0,0c.1-.05.2,0,.23.2l.18.09s0,.09,0,.11l0,0a8.1,8.1,0,0,0-.85-.33Z" transform="translate(0 0.01)"/><path d="M50.56,18.54c-.07,0-.09,0,0,0s.21.06.2.14l0,.05a.61.61,0,0,0,.23.15c.06,0,.19-.21.22.05V19a.62.62,0,0,0,.09.27l0,0-.08.09a.67.67,0,0,1-.3,0s-.07-.11-.13-.18l-.11.06,0,0s-.08-.05-.08-.1l0,0,.08-.05c.11,0,.16-.12.1-.17s-.13-.36-.2-.38Z" transform="translate(0 0.01)"/><path d="M72.89,17c0,.13-.08.19-.14.12s0-.17.2-.12l.19-.12s.09,0,.11,0,.16.15.28,0a.5.5,0,0,1,.17.07l.14.08c.16.11.26.23.23.26s-.17.08-.23,0-.26-.23-.3-.18-.18.16-.2.12v0c0-.16-.08-.23-.28-.26l-.17,0Z" transform="translate(0 0.01)"/><path d="M103.36,16.89c0,.08-.09.07-.15,0s.18-.3.21-.24l0,.05c.09.22.29,0,.43.06h0a1.3,1.3,0,0,0,.23-.24.1.1,0,0,1,.1-.07l0,0c.06.05,0,.19.19.16h0c0,.06,0,.13,0,.16h0l-.1,0a.78.78,0,0,1-.17.12l-.22.08c-.08,0-.54-.19-.56-.11Z" transform="translate(0 0.01)"/><path d="M22.34,19.92s0,.07-.08,0a.81.81,0,0,0-.49.2l.24.18s0,.06,0,.08l0,0c-.07.05-.14.06-.16,0a.2.2,0,0,0-.24-.1c-.1,0,0,.21-.09.22s-.15-.06-.1-.2.39-.29.39-.51l.25-.09.09,0A.3.3,0,0,1,22.34,19.92Z" transform="translate(0 0.01)"/><path d="M74.43,17.65c-.11-.06-.16-.15-.12-.21s.2-.21.21-.18a.23.23,0,0,0,.2.09l.06,0a.46.46,0,0,0,.1-.12l.06-.14a.79.79,0,0,1,.28.21v0a.76.76,0,0,1-.13.23s-.1,0-.14,0l-.42,0a2.35,2.35,0,0,1,.07.36.18.18,0,0,1-.13,0l0,0v-.25Z" transform="translate(0 0.01)"/><path d="M22.77,2.08a.39.39,0,0,1,0,.19.22.22,0,0,1,0-.19l-.18,0h-.13c-.13,0-.22,0-.21,0S22,1.83,22,1.73h.38a.71.71,0,0,1,.53.21l0,0-.09.1Z" transform="translate(0 0.01)"/><path d="M42.57,19.57a.28.28,0,0,1,.17-.25c.1,0,.41-.26.38-.36s-.12-.37-.07-.37.18.06.16.14.15.28.14.34a1.85,1.85,0,0,0,0,.27s-.09.09-.17.08l-.07,0,0,0a.39.39,0,0,0-.24,0c-.09.05-.15.3-.18.31s-.1,0-.1,0Z" transform="translate(0 0.01)"/><path d="M34,18.83s0,0,.15-.08.51-.05.51,0,.06.13.12.1h.07a.26.26,0,0,1,0,.22c0,.06-.24.15-.3,0l-.06-.1,0,0a.49.49,0,0,0-.21,0S34.07,18.84,34,18.83Z" transform="translate(0 0.01)"/><path d="M54.75,18c-.08.16-.19.23-.26.17s-.18-.24-.11-.28.21-.16.17-.2-.09-.15,0-.18S54.82,17.82,54.75,18Z" transform="translate(0 0.01)"/><path d="M66.73.52c0,.07-.08,0-.23-.09L66.41.35l0,0a1.19,1.19,0,0,1,.32-.16l.16,0A.41.41,0,0,1,67,.2l.07.06.46-.11V.36l0,.08c.07.11,0,.25-.16.31L67.25.54,67.17.31c-.3,0-.48.13-.46.2Z" transform="translate(0 0.01)"/><path d="M18.27,19.54c.07,0,.1,0,.07.11h.39c.22.05.38.18.36.3L19,20l-.05.09a2.36,2.36,0,0,0-.28.2s-.26,0-.34-.18l.32-.07.08,0c.05-.17,0-.31-.14-.31s-.42-.17-.35-.2Z" transform="translate(0 0.01)"/><path d="M26.44,20.3c-.18.08-.31.08-.3,0s-.07-.23,0-.21.43.06.46,0l0-.05,0-.05a.12.12,0,0,1,.19.05c.05.08,0,.27-.14.23l-.15,0-.16,0Z" transform="translate(0 0.01)"/><path d="M93.44,15.59c-.06-.1-.16-.11-.22,0l0,0,0,0c-.06,0-.13,0-.16,0s0-.14.07-.19.23-.17.3-.14.32-.17.46-.1l-.16.17-.14.15c.17,0,0,.16-.06.07Z" transform="translate(0 0.01)"/><path d="M94.26.57c-.16,0-.23-.09-.15-.23l-.17-.1S94,.13,94,.13s.23-.06.24.09v0s.08,0,.11,0,.15-.13.19-.09a.26.26,0,0,1-.06.32l-.13.06-.11,0Z" transform="translate(0 0.01)"/><path d="M46.83,19c0-.08.21-.09.4,0s.37.41.2.3l-.19,0-.33,0c-.1.14-.2.2-.24.15s.12-.3.15-.38Z" transform="translate(0 0.01)"/><path d="M98.11,17.4a.26.26,0,0,1-.22-.13c0-.07,0-.28,0-.31s.22-.12.21-.08,0,.15.05.17S98.2,17.4,98.11,17.4Z" transform="translate(0 0.01)"/><path d="M32.26,19.67c0-.06.07-.08.19-.05l.07,0,.16.06c-.08.06,0,.12.07.12h.12l.23,0c0,.12,0,.23,0,.24a1,1,0,0,1-.22.08,1.25,1.25,0,0,1-.36-.15,1.06,1.06,0,0,1-.26-.3Z" transform="translate(0 0.01)"/><path d="M9.06,13.94q0-.09.06,0c0,.08.26.25.35.29s.29,0,.25.06l0,.1s0,0,0,0l-.2,0A1.07,1.07,0,0,1,9.06,13.94Z" transform="translate(0 0.01)"/><path d="M6.51,18.65s0-.08,0-.1.1-.05.12,0a.48.48,0,0,1,.07.16c0,.06.34.11.42.27l-.32,0h0c-.1,0,0,.27-.22.16a.26.26,0,0,1-.06-.44l0,0Z" transform="translate(0 0.01)"/><path d="M17.89,19.69c.17,0,.26.1.2.14s-.25.14-.28.11-.16-.09-.18,0l0,.06s-.06.07-.1.07-.11,0-.11-.06v-.12C17.4,19.79,17.72,19.65,17.89,19.69Z" transform="translate(0 0.01)"/><path d="M8.43,18.92a.22.22,0,0,1-.29,0c-.06-.07-.18-.35-.11-.44h.06a1,1,0,0,1,.38.13c.11.06.19.14,0,.24Z" transform="translate(0 0.01)"/><path d="M2.9,7.77c-.14,0-.25,0-.24,0s.4-.18.41-.28l.05-.06.17-.2c-.16,0-.21,0-.1,0l.11.1.09.08c.12.07.16.13.09.13s-.18.18-.32.18L3,7.73l-.13,0Z" transform="translate(0 0.01)"/><path d="M7.08,7.08a1.09,1.09,0,0,1,.29.06.32.32,0,0,1-.2.06c-.11,0-.43.14-.44.31l-.21,0-.07,0c-.14-.08-.19-.16-.12-.17s.26-.09.25-.14S6.92,7.06,7.08,7.08Z" transform="translate(0 0.01)"/><path d="M38.72,18.13c.19,0,.34.07.32.12s-.11.32-.3.37l-.18,0h0a.12.12,0,0,1,0-.16h0l.1,0c.13,0,.23,0,.23-.07a.17.17,0,0,0-.17-.13C38.58,18.28,38.52,18.11,38.72,18.13Z" transform="translate(0 0.01)"/><path d="M28.56,19.23c-.15.09-.26.09-.24,0h0l.31,0c-.14-.15-.2-.26-.12-.26a4.77,4.77,0,0,1,.49.12c.17,0,.28.37.14.29l-.11,0a1,1,0,0,0-.39-.08h-.1Z" transform="translate(0 0.01)"/><path d="M71.19,16.77c0-.07.1-.12.3-.1s.4.39.24.38l0,0c0-.12-.07-.2-.24-.1l-.11.07c0,.1.07.2.08.22s0,.06-.12,0l-.06,0-.14-.08a.47.47,0,0,0,.06-.35Z" transform="translate(0 0.01)"/><path d="M38.2,17.28a.34.34,0,0,1,.26-.08s.18.14.12.2a.59.59,0,0,1-.41.1l0,0c-.19.16-.28,0-.37-.08s0-.06,0-.08h.07a.17.17,0,0,0,.27,0l.07-.07Z" transform="translate(0 0.01)"/><path d="M69.48,17.82a.23.23,0,0,1-.11,0,.64.64,0,0,1-.06-.4l.22-.07a.84.84,0,0,1,.26-.07.39.39,0,0,1,.22.09l0,0a1,1,0,0,1-.41.29l-.13.14,0,0Z" transform="translate(0 0.01)"/><path d="M44.58,18.77a.07.07,0,0,1,0-.13,1,1,0,0,1,.42,0s.09.18.13.3L45,19l-.11,0C44.79,19,44.63,18.8,44.58,18.77Z" transform="translate(0 0.01)"/><path d="M99.71,13.32c-.09-.09-.08-.17,0-.16s.28-.18.37-.16h.08l.19,0a.2.2,0,0,0,0,.27l-.12,0a1,1,0,0,1-.41,0l-.1,0Z" transform="translate(0 0.01)"/><path d="M52.88,18c.07.18,0,.33-.11.33h-.26c.09,0-.1-.28-.14-.36s-.08-.34,0-.33l0,0a1.31,1.31,0,0,1,.12.27.42.42,0,0,0,.08.13l.27-.07Z" transform="translate(0 0.01)"/><path d="M44.61,17.83c0,.17,0,.29.06.27l0,0,0,0a.15.15,0,0,1,.17.07c0,.06.08.16,0,.1s-.35,0-.42,0a.66.66,0,0,1-.28-.11v0c0-.09-.09-.24.09-.26l.26,0Z" transform="translate(0 0.01)"/><path d="M64.92,15.94s.06-.09.25-.09h.14l.25,0s.06.06.08.09,0,.07,0,.07c-.21,0-.33.06-.3.24a.81.81,0,0,1-.19,0h-.17a.27.27,0,0,0,0-.3Z" transform="translate(0 0.01)"/><path d="M44.8,19.4c.06.07,0,.12-.06.1s-.19.18-.24.17-.17-.1-.07-.16,0-.33,0-.38h0l0,0a1.71,1.71,0,0,1,.33.29Z" transform="translate(0 0.01)"/><path d="M14.93,20.94c-.25,0-.42,0-.38-.05a.92.92,0,0,1,.37.1l.13-.19c.07-.1.24-.15.37-.22h0S15.17,21,14.93,20.94Z" transform="translate(0 0.01)"/><path d="M76.64,17.65a.15.15,0,0,1,0-.22c.06-.06.3,0,.34-.06l0,0,0,0c-.1,0-.14-.1-.08-.17s.29-.05.23,0,.2.16.2.17a1.87,1.87,0,0,1-.07.18c0,.07-.49.18-.55.11Z" transform="translate(0 0.01)"/><path d="M105.57,15.53c-.09,0-.12,0-.06-.19s.55-.08.52,0-.19.24-.29.2Z" transform="translate(0 0.01)"/><path d="M81,15.68c0-.06.08-.13.28-.15s.72.09.61.16-.48,0-.52,0S81.06,15.74,81,15.68Z" transform="translate(0 0.01)"/><path d="M57.29,16.2a.93.93,0,0,1,0-.25.49.49,0,0,1,.25.12C57.65,16.16,57.3,16.32,57.29,16.2Z" transform="translate(0 0.01)"/><path d="M81.6,17.26c.1,0,.1.06,0,.18a1.08,1.08,0,0,1-.54.27.88.88,0,0,1-.12-.26l0,0s.11,0,.14,0l.14.09A1.06,1.06,0,0,1,81.6,17.26Z" transform="translate(0 0.01)"/><path d="M54.05,18.28a.34.34,0,0,1-.17-.06c-.09-.06-.39-.07-.32-.14s-.09-.27,0-.3h.1a1.22,1.22,0,0,1,.29.11c.11.05.14.36.13.39Z" transform="translate(0 0.01)"/><path d="M33.16,18.47c-.13,0-.09-.06.08-.11s.63,0,.55.12h-.06c-.15,0-.32-.1-.43-.06Z" transform="translate(0 0.01)"/><path d="M35.12,18.71a.28.28,0,0,1,.18.07,1.75,1.75,0,0,1,.29.34c0,.07-.08.18-.28.09l-.11-.11L35.12,19A.35.35,0,0,1,35.12,18.71Z" transform="translate(0 0.01)"/><path d="M37.86,19.16c.14.1.2.21.15.25a.69.69,0,0,1-.4.05c-.13,0-.38-.2-.29-.32l.18.14.18-.06.18-.07Z" transform="translate(0 0.01)"/><path d="M43.85,19.41c.16.06.3.16.3.23s0,.26-.1.28-.21,0-.23,0l0,0,0-.09c.07-.11,0-.21,0-.22s-.31-.05-.3-.08h0s.12-.11.17-.1l.13,0Z" transform="translate(0 0.01)"/><path d="M18.68,21.54c-.1,0-.15-.08-.13-.1a.16.16,0,0,1,.17,0c0,.06.28-.07.24-.09s-.1-.08-.05-.1.17,0,.14.1-.05.39-.08.39-.2-.2-.3-.23Z" transform="translate(0 0.01)"/><path d="M91.24,17.07c-.07.09-.17.12-.22.07s0-.17.19-.14l.21-.07.14-.05c.24.06.36.23.26.36l-.21-.16a.49.49,0,0,0-.3,0h-.06Z" transform="translate(0 0.01)"/><path d="M.51,16.74c-.19.07-.38.11-.4.08v0a.25.25,0,0,1,0-.08c.2-.05.33-.13.32-.34s.23-.08.35,0l0,0c0,.06,0,.1-.07.09H.71c-.1,0-.16,0-.18.09l0,.13Z" transform="translate(0 0.01)"/><path d="M53.81,18.62a.22.22,0,0,1,.23-.07c.1,0,.37.14.39.22s0,.34,0,.33-.16-.11-.21-.18S53.78,18.67,53.81,18.62Z" transform="translate(0 0.01)"/><path d="M40.44,19c0,.13-.06.19-.15.14S40,19,40.1,19s.32-.07.33-.12l0,0-.07-.07c-.08-.07-.12-.16-.08-.2l.05,0,.12-.06c.1.09,0,.43,0,.56Z" transform="translate(0 0.01)"/><path d="M35.56,18.7a.16.16,0,0,1,.19-.15.84.84,0,0,1,.42.21c0,.08-.19.18-.31,0l-.29,0h0Z" transform="translate(0 0.01)"/><path d="M80.71,0a.39.39,0,0,1,.4.27L80.87.2,80.66.14a1.23,1.23,0,0,1-.22.23l0,0h0s-.09,0-.1-.08.09-.18.18-.25l.1,0,.14,0Z" transform="translate(0 0.01)"/><path d="M64.51,18.51c-.12,0-.14-.13-.06-.22s.12-.41.17-.42h.07a2.08,2.08,0,0,1,0,.37l.15.13,0,0s-.28.15-.4.12Z" transform="translate(0 0.01)"/><path d="M55,16a.17.17,0,0,1,.22,0c0,.05,0,.33-.13.52l-.22,0-.08,0s0-.11,0-.12c.25,0,.31-.13.19-.31h0Z" transform="translate(0 0.01)"/><path d="M36.79,18.91c0-.07.17,0,.3.16l-.25.14,0,0c.05.13,0,.17-.14.08s-.27-.38-.2-.31l0,0,.07,0c.09,0,.17,0,.18-.07l0-.05v0Z" transform="translate(0 0.01)"/><path d="M14,21.43c.26-.09.42-.08.37,0v.15q0,.15-.06.09s-.17-.14-.21-.13a.28.28,0,0,1-.2,0h0l.11-.16Z" transform="translate(0 0.01)"/><path d="M76.31,15.71a.19.19,0,0,1-.3-.1l0-.09,0-.08c0-.12,0-.21,0-.18a1.28,1.28,0,0,0,.2.11S76.43,15.64,76.31,15.71Z" transform="translate(0 0.01)"/><path d="M61.35,17.41c-.07,0-.06-.07,0-.12s.21-.09.17.07l.28,0s0,.07,0,.08l-.07.06a3.32,3.32,0,0,1-.41-.06Z" transform="translate(0 0.01)"/><path d="M63,17.51c.17,0,.24,0,.16.06s-.22.15-.16.17.18.1.1.1-.33-.06-.36-.13,0-.29.1-.23l.09,0,.08,0Z" transform="translate(0 0.01)"/><path d="M50,18.38a.79.79,0,0,1-.16,0v0s0-.11,0-.11l.23-.09a1.38,1.38,0,0,1,.28-.39h0s.08.06.08.09.06.19-.16.19H50.2A2.19,2.19,0,0,1,50,18.38Z" transform="translate(0 0.01)"/><path d="M37.86,19.82s0-.09.07-.19.36-.3.37-.22-.08.39-.11.53l-.28-.1Z" transform="translate(0 0.01)"/><path d="M29.69,20c-.14,0-.19-.07-.11-.16h0l.17.07.22-.2a.22.22,0,0,1,.17,0v0l0,.07C30.18,19.93,29.82,20,29.69,20Z" transform="translate(0 0.01)"/><path d="M20.37,19.82c0-.06.09-.09.2-.06s.31.22.25.36l-.16,0-.09,0A.34.34,0,0,1,20.37,19.82Z" transform="translate(0 0.01)"/><path d="M101.21,15.31l-.11,0s-.2,0-.21.09a.43.43,0,0,1-.11.2h0l-.14,0c-.16-.05-.2-.08-.1-.06s.26-.25.41-.3l.14,0h0c.07,0,.1.1.09.11Z" transform="translate(0 0.01)"/><path d="M78,17.41a.46.46,0,0,1-.15-.05c-.07,0-.28-.05-.26.06s-.3.12-.26-.06l0-.15c0-.08.29-.1.42,0s0,0,.08.06l0,0c.06.05.08.12.07.13Z" transform="translate(0 0.01)"/><path d="M36.34,17.79c-.13.06-.2.09-.14.07s.17-.12.11-.16-.14-.17-.07-.21.24.24.11.3Z" transform="translate(0 0.01)"/><path d="M73.55,15.84h.1c-.07,0-.4-.11-.43-.08s-.18.1-.22,0l0,0,.07-.08a.94.94,0,0,1,.34-.18h.08a.6.6,0,0,1,0,.16v.17Z" transform="translate(0 0.01)"/><path d="M71.88,15.58c-.09-.08-.07-.07.05,0s.37.36.29.36S72,15.66,71.88,15.58Z" transform="translate(0 0.01)"/><path d="M94.5,15.55a.17.17,0,0,1-.22,0c0-.05-.17-.26-.12-.33s.27.17.34.19h.06l.07,0c.07,0-.06.09-.13.15Z" transform="translate(0 0.01)"/><path d="M40.09,18.28c-.13.06-.17,0-.09-.18l.27,0h.06c.1-.09.2-.16.21-.14a.34.34,0,0,1,.06.12s-.39.11-.52.17Z" transform="translate(0 0.01)"/><path d="M2.83,12.8a.13.13,0,0,1,0,.2c-.07.05-.28.13-.34.06a1.35,1.35,0,0,1-.18-.28s.07,0,.12,0,.35-.07.41,0Z" transform="translate(0 0.01)"/><path d="M42.33,18.65c-.08-.07-.08-.16,0-.2a.84.84,0,0,1,.34,0c-.08,0-.24.06-.22.08l.14.15c0,.05.14.22.11.22a3.27,3.27,0,0,1-.38-.26Z" transform="translate(0 0.01)"/><path d="M59,17.36a.53.53,0,0,1-.38.33l-.09,0h-.05a.11.11,0,0,1,0-.16l.06,0h0c.09,0,.11-.08,0-.15v-.06l0,0a.14.14,0,0,1,.17-.06l0,0,.16.14Z" transform="translate(0 0.01)"/><path d="M101.17,16.91c.12.1,0,.14-.3.09l-.19,0h-.05c0-.05-.07-.1,0-.12a1.07,1.07,0,0,1,.58.08Z" transform="translate(0 0.01)"/><path d="M45.2,19a.5.5,0,0,1,.21-.24l.06-.1c.05-.08.08-.12.18-.1a.39.39,0,0,1,.16.07s0,.08-.06.1l0,0c-.06,0-.14.07-.19.14s-.29.15-.32.1Z" transform="translate(0 0.01)"/><path d="M65.7,17.5c-.12-.07-.14-.14,0-.16l0,0c.17-.12.33-.14.45,0s0,.11,0,.11a1.29,1.29,0,0,1-.38.12H65.7Z" transform="translate(0 0.01)"/><path d="M36.84,20.2c-.06,0,.07-.12.3-.21l0-.21a.26.26,0,0,1,.09,0s.12,0,.12.06,0,.23,0,.25l-.12.06a.41.41,0,0,1-.34.09Z" transform="translate(0 0.01)"/><path d="M35.92,19.84c-.07,0-.08.06,0,.1v0a.67.67,0,0,1-.1.12s-.1,0-.11-.06v-.09a.71.71,0,0,1,.28-.41l.1,0s.06.08,0,.11a.35.35,0,0,1-.14.13l0,0Z" transform="translate(0 0.01)"/><path d="M41.5,19.19s0,.09-.1.13-.46.1-.51.05,0-.23,0-.23,0,.06.07.11.22,0,.25-.07.22,0,.27,0Z" transform="translate(0 0.01)"/><path d="M57.89,19a.38.38,0,0,1-.31,0c-.11,0-.17-.16.14-.1l.28,0A.39.39,0,0,1,58,19L58,19h-.07Z" transform="translate(0 0.01)"/><path d="M51.59,18.89c-.06-.16,0-.3.11-.3a1.9,1.9,0,0,1,.39,0,.15.15,0,0,1-.1,0c-.05,0-.23.11-.23.22V19c0,.05.22.07,0,.14a.22.22,0,0,1-.13-.09Z" transform="translate(0 0.01)"/><path d="M33.26,18.65a.18.18,0,0,1,.13-.07c.08,0,.27,0,.27.07h-.12a.38.38,0,0,0,0,.26V19l0,.05c0,.06-.1.09-.19.06v-.13A.71.71,0,0,1,33.26,18.65Z" transform="translate(0 0.01)"/><path d="M41.85,18.62a.26.26,0,0,1-.18.24l-.05,0a.17.17,0,0,1-.26,0l0,0a.12.12,0,0,1,.11-.13h.06c.16,0,.18,0,.18-.12v0a.36.36,0,0,1,.16,0v0l0,.09Z" transform="translate(0 0.01)"/><path d="M99.61,17.05c-.09,0-.08-.08,0-.12a1.2,1.2,0,0,1,.51-.08,2.85,2.85,0,0,1,.28.18.42.42,0,0,1-.2,0C100.12,17,99.7,17.07,99.61,17.05Z" transform="translate(0 0.01)"/><path d="M4,15.43c-.17,0-.27-.13-.21-.19s.29-.14.39-.08,0,.32-.19.27Z" transform="translate(0 0.01)"/><path d="M51.39,17.43c.08,0,.09.06,0,.14s-.22.22-.21.14S51.31,17.43,51.39,17.43Z" transform="translate(0 0.01)"/><path d="M72.81,17.47a.25.25,0,0,0,.12,0,.41.41,0,0,1,.19-.09v0a1.17,1.17,0,0,1,.09.24v.05c0,.06-.06.1-.12.11l0,0-.34-.19,0,0c0-.05.1-.08.13-.07Z" transform="translate(0 0.01)"/><path d="M43.06,17.17c0-.06.1-.1.23-.1l0,.19v.08c.13.11.14.18,0,.15a.74.74,0,0,1-.3-.31Z" transform="translate(0 0.01)"/><path d="M89.73,16.76c.09,0,.13.06.08.09a1.6,1.6,0,0,1-.42-.05c-.07,0-.24-.1-.21-.16S89.64,16.74,89.73,16.76Z" transform="translate(0 0.01)"/><path d="M17.08,20.37l-.23.05v0s0-.07,0-.08a.85.85,0,0,1,.22-.09c.07,0,.43.19.43.26v.05a.14.14,0,0,1-.17.05l0,0c-.06,0-.08-.14-.15-.16l-.06,0Z" transform="translate(0 0.01)"/><path d="M64.28,16.23c-.14.07-.21.05-.15-.05s.15-.37.2-.37S64.42,16.15,64.28,16.23Z" transform="translate(0 0.01)"/><path d="M99.79,15.59s-.11,0-.15,0h0l-.08,0c-.16,0-.23,0-.16-.06s.19-.09.17-.11,0-.08,0-.11h0l.2.07c.23.08.38.16.34.19a.36.36,0,0,1-.27,0Z" transform="translate(0 0.01)"/><path d="M77.3,15.56a.28.28,0,0,1,.39-.1c.14.08.06.32,0,.2l-.11,0-.24-.07Z" transform="translate(0 0.01)"/><path d="M29.51,20.07a.27.27,0,0,1,0,.1h0c-.1,0-.39-.08-.4-.16a.24.24,0,0,1,.21-.26s.12.09.11.1l-.11.13a.36.36,0,0,1,.22.1Z" transform="translate(0 0.01)"/><path d="M90.27,14c.07,0,.07.12,0,.28l-.08.12a.34.34,0,0,1-.14,0h0a.55.55,0,0,1,0-.23c0-.08,0-.27.13-.23h.07Z" transform="translate(0 0.01)"/><path d="M99.76,13.54c.16.05.17.11,0,.13s-.38-.25-.42-.27-.12-.09-.09-.11S99.6,13.49,99.76,13.54Z" transform="translate(0 0.01)"/><path d="M.36,12.27c.2.09.31.19.25.22s-.21,0-.24,0l0,0a1.05,1.05,0,0,0-.19,0S0,12.33,0,12.3s.13-.1.2-.08Z" transform="translate(0 0.01)"/><path d="M95.18,17.33c-.07,0-.07-.1,0-.17s.27-.25.28-.23a.3.3,0,0,1-.12.19c-.07,0,0,.27,0,.25l-.07,0Z" transform="translate(0 0.01)"/><path d="M43.48,18.62c0-.07,0-.1.08-.08s0,.48-.05.44v0c0-.08,0-.18,0-.26v-.06Z" transform="translate(0 0.01)"/><path d="M18.47,20.53c0,.14-.17.21-.38.16l-.18-.06s-.07-.07-.07-.1.06-.06.13,0a.33.33,0,0,0,.2,0h.3Z" transform="translate(0 0.01)"/><path d="M47.05,16.88c.06.05,0,0-.09-.05s-.46-.08-.47-.1,0-.1.14-.12h.17a3.27,3.27,0,0,1,.24.27Z" transform="translate(0 0.01)"/><path d="M76,17c0,.14-.08.2-.1.14a.48.48,0,0,1,.15-.36L76,16.72l-.15-.15C76,16.54,76,16.87,76,17Z" transform="translate(0 0.01)"/><path d="M106,16.49c.19.08.35.2.35.26s0,.21,0,.2a1,1,0,0,1-.13-.14.77.77,0,0,0-.34-.19l-.07,0s-.06-.08,0-.11.09-.07.11-.06Z" transform="translate(0 0.01)"/><path d="M55.5,18.78c0-.12,0-.17,0-.12a.34.34,0,0,1,.07.33c0,.06-.2.1-.14,0v-.1l0-.1Z" transform="translate(0 0.01)"/><path d="M52.83,18.77a.35.35,0,0,1-.19.06c-.11,0-.34,0-.3-.06A1.34,1.34,0,0,1,52.83,18.77Z" transform="translate(0 0.01)"/><path d="M49.37,18.77a.31.31,0,0,1-.3.24L49,19c-.11,0-.09-.14,0-.18l0,0c.08,0,.13,0,.12-.09l0-.05v0c.08,0,.15,0,.17,0v0l0,.11Z" transform="translate(0 0.01)"/><path d="M1.3,15.8c0,.15.06.2.07.12s-.25-.18-.26-.23v0l.1,0c.09,0,.14.16.26,0v0c.11,0,.16.1.12.17H1.3Z" transform="translate(0 0.01)"/><path d="M58.7,18.81c0,.27,0,.37,0,.24s-.12-.46-.1-.52l0,0a.3.3,0,0,1,.13,0s.1.11.08.12Z" transform="translate(0 0.01)"/><path d="M41.5,19.85q-.15-.08,0,0c.11,0,.41-.05.46,0h0a.52.52,0,0,1-.21.18c-.08,0-.22.05-.24-.1v0Z" transform="translate(0 0.01)"/><path d="M56.63,18c-.08,0,0-.13.08-.21l.11.13.06.07c.06.05.07.12,0,.16s-.19-.12-.27-.16Z" transform="translate(0 0.01)"/><path d="M34,19.64c.07,0,0,.09-.17.16l-.11,0c-.12,0-.12.09-.06.16s.13.09,0,.11a.22.22,0,0,1-.13-.05c0-.09,0-.23,0-.25l.12-.06a.4.4,0,0,1,.35-.09Z" transform="translate(0 0.01)"/><path d="M98.36,13.26a.14.14,0,0,1,0,.17c0,.05-.2,0-.22,0s-.11.07-.14,0-.07-.18,0-.22a.56.56,0,0,1,.36,0Z" transform="translate(0 0.01)"/><path d="M7.62,6.25c.1,0,.12,0,.06,0s-.17.19-.15.21,0,.08,0,.1-.14,0-.17,0,.15-.29.25-.31Z" transform="translate(0 0.01)"/><path d="M39.73,19.25c.12,0,.2.1.17.15s-.17.07-.26,0l-.18,0c-.05,0-.14.05-.15,0l-.05-.05a.12.12,0,0,1,.07-.17h0c.09.11.19,0,.28,0l.11,0Z" transform="translate(0 0.01)"/><path d="M64.27,17.45c-.08,0,0-.11.16-.16l.14,0,.05,0C64.65,17.52,64.35,17.49,64.27,17.45Z" transform="translate(0 0.01)"/><path d="M79.74,14.3a.43.43,0,0,0-.06-.09.13.13,0,0,1,.11-.17c.11,0,.35-.07.32,0l0,.07,0,.05c0,.06,0,.12,0,.13a.11.11,0,0,1-.11,0l-.2,0Z" transform="translate(0 0.01)"/><path d="M33.35,15.33c-.06-.11,0-.24.25-.3l.18,0s.11,0,.13,0a.09.09,0,0,1,0,.11c-.09,0-.22,0-.19.15a.48.48,0,0,1-.18,0l-.15,0Z" transform="translate(0 0.01)"/><path d="M31.61,15.24c-.18-.06-.2-.11-.05-.12l.13,0,.14,0c.17,0,.24.08.16.23l-.21,0-.16,0Z" transform="translate(0 0.01)"/></svg>