<svg version="1.1" 
	 xmlns="http://www.w3.org/2000/svg" xmlns:xlink="http://www.w3.org/1999/xlink" x="0px" y="0px" viewBox="0 0 400 400" xml:space="preserve">
<path d="M268.234,227.984c-0.451,0.008-0.886,0.167-1.234,0.453c-8.775,7.013-23.718,13.013-49.148,14.914
	c-1.104,0.027-1.978,0.944-1.951,2.049c0.027,1.104,0.944,1.978,2.049,1.951c0.067-0.002,0.133-0.007,0.199-0.015
	c25.937-1.939,41.719-8.075,51.352-15.773c0.872-0.679,1.028-1.935,0.349-2.807C269.463,228.258,268.864,227.973,268.234,227.984z"
	/>
<path d="M283.266,118.109c-10.529-25.267-21.427-47.733-23.211-58.75c-0.315-1.938-1.99-3.362-3.953-3.359H144
	c-1.961,0.002-3.631,1.424-3.945,3.359c-1.782,11.011-12.71,33.483-23.266,58.75S96,171.935,96,198
	c0,18.855,6.297,36.861,22.703,49.656c14.136,11.024,35.39,18.121,65.914,19.883C185.66,276.342,188,296.955,188,304
	c0-0.056-0.133,0.678-1.281,1.867s-3.1,2.663-5.547,4.148c-4.893,2.971-11.748,6.053-18.633,8.758
	c-13.77,5.409-27.641,9.383-27.641,9.383c-1.715,0.491-2.898,2.059-2.898,3.844v4c0,2.209,1.791,4,4,4h128c2.209,0,4-1.791,4-4v-4
	c-0.001-1.784-1.183-3.352-2.898-3.844c0,0-13.871-3.973-27.641-9.383c-6.885-2.705-13.74-5.787-18.633-8.758
	c-2.447-1.485-4.399-2.959-5.547-4.148S212,303.944,212,304c0-7.047,2.339-27.666,3.383-36.461
	c30.524-1.762,51.778-8.859,65.914-19.883C297.703,234.861,304,216.855,304,198C304,171.938,293.795,143.377,283.266,118.109z
	 M214.672,316.859c5.607,3.404,12.752,6.572,19.867,9.367c8.542,3.356,11.587,4.076,17.023,5.773H148.438
	c5.436-1.698,8.481-2.418,17.023-5.773c7.115-2.795,14.26-5.963,19.867-9.367c2.803-1.702,5.226-3.447,7.141-5.43
	S196,307.056,196,304c0-8.467-2.28-27.015-3.383-36.172c2.435,0.07,4.814,0.172,7.383,0.172c2.568,0,4.953-0.102,7.391-0.172
	C206.285,276.988,204,295.533,204,304c0,3.056,1.617,5.447,3.531,7.43S211.868,315.157,214.672,316.859z M276.383,241.344
	C262.015,252.549,237.932,260,200,260s-62.015-7.451-76.383-18.656S104,215.145,104,198c0-8.154,1.188-16.782,3.093-25.585
	c0.026-0.582,0.152-1.152,0.358-1.71c0.043-0.439,0.133-0.873,0.277-1.286c0.009-0.058,0.028-0.112,0.039-0.17
	c0.064-0.43,0.178-0.849,0.339-1.249h-0.012c3.804-15.663,9.795-31.765,16.078-46.805c9.761-23.364,19.492-43.158,22.641-57.195
	h106.477c3.147,14.032,12.858,33.824,22.594,57.188c6.265,15.033,12.237,31.124,16.031,46.782c0.151,0.426,0.241,0.875,0.285,1.329
	c0.144,0.417,0.234,0.855,0.275,1.298c0.035,0.146,0.078,0.29,0.101,0.439c0.119,0.336,0.215,0.68,0.268,1.035
	C294.785,180.992,296,189.741,296,198C296,215.145,290.75,230.139,276.383,241.344z"/>
<path d="M281.012,210.056c-0.209-0.062-0.427-0.088-0.645-0.08c-0.876,0.036-1.626,0.637-1.852,1.484
	c-0.86,3.061-2.224,6.245-4.391,9.406c-0.632,0.906-0.41,2.153,0.496,2.785c0.906,0.632,2.153,0.41,2.785-0.496
	c0.005-0.008,0.01-0.015,0.016-0.023c2.434-3.551,3.982-7.166,4.945-10.594C282.679,211.479,282.072,210.367,281.012,210.056z"/>
<path d="M282.023,195.969c-0.018,0-0.036,0-0.055,0c-1.105,0.013-1.99,0.919-1.977,2.023c0,0.003,0,0.005,0,0.008
	c0,1.172,0.003,2.491-0.055,3.922c-0.043,1.105,0.817,2.035,1.922,2.078c1.105,0.043,2.035-0.817,2.078-1.922
	c0.062-1.529,0.055-2.906,0.055-4.078C284.009,196.895,283.128,195.986,282.023,195.969z"/>
</svg>
