<svg xmlns="http://www.w3.org/2000/svg" viewBox="0 0 24 24">
  <path d="M12 1C8.686 1 6 3.686 6 7C6 9.838 8.6302031 13.741687 10.408203 16.054688C11.214203 17.103687 12.786797 17.103687 13.591797 16.054688C15.369797 13.741687 18 9.838 18 7C18 3.686 15.314 1 12 1 z M 12 4.8574219C13.184 4.8574219 14.142578 5.816 14.142578 7C14.142578 8.183 13.183 9.1425781 12 9.1425781C10.817 9.1425781 9.8574219 8.184 9.8574219 7C9.8574219 5.816 10.816 4.8574219 12 4.8574219 z M 6.1542969 15C5.3362969 15 4.600875 15.498812 4.296875 16.257812L3.0976562 19.257812C2.5726563 20.571813 3.538125 22 4.953125 22L19.046875 22C20.461875 22 21.427344 20.571813 20.902344 19.257812L19.703125 16.257812C19.399125 15.498812 18.663703 15 17.845703 15L17 15C16.448 15 16 15.448 16 16C16 16.552 16.448 17 17 17L17.847656 17L18.773438 19.314453C18.904438 19.643453 18.662594 20 18.308594 20L5.6914062 20C5.3374062 20 5.0965156 19.643453 5.2285156 19.314453L6.1523438 17L7 17C7.552 17 8 16.552 8 16C8 15.448 7.552 15 7 15L6.1542969 15 z" />
</svg>