<svg xmlns="http://www.w3.org/2000/svg" viewBox="0 0 24 24">
  <path d="M6 1L6 3L5 3C4.4777778 3 3.9453899 3.1913289 3.5683594 3.5683594C3.1913289 3.9453899 3 4.4777778 3 5L3 8L3 19C3 19.522222 3.1913289 20.05461 3.5683594 20.431641C3.9453899 20.808671 4.4777778 21 5 21L19 21C19.522222 21 20.05461 20.808671 20.431641 20.431641C20.808671 20.05461 21 19.522222 21 19L21 8L21 5C21 4.4777778 20.808671 3.9453899 20.431641 3.5683594C20.05461 3.1913289 19.522222 3 19 3L18 3L18 1L16 1L16 3L8 3L8 1L6 1 z M 5 9L19 9L19 19L5 19L5 9 z" />
</svg>