<svg xmlns="http://www.w3.org/2000/svg" viewBox="0 0 30 30">
  <path d="M10 3C9.366 3 8.8018906 3.3971406 8.5878906 3.9941406L3.5878906 17.994141C3.5871792 17.996134 3.5866396 17.998006 3.5859375 18L3 18 A 1.0001 1.0001 0 1 0 3 20L7 20 A 1.0001 1.0001 0 1 0 7 18L6.7714844 18L7.4863281 16L12.513672 16L13.228516 18L13.246094 18L14.830078 13.564453L11.412109 3.9941406C11.198109 3.3971406 10.634 3 10 3 z M 20.041016 8 A 1.50015 1.50015 0 0 0 18.587891 8.9960938L13.587891 22.996094 A 1.50015 1.50015 0 0 0 13.585938 23L13 23 A 1.0001 1.0001 0 1 0 13 25L14.611328 25 A 1.50015 1.50015 0 0 0 15.359375 25L17 25 A 1.0001 1.0001 0 1 0 17 23L16.769531 23L17.484375 21L22.515625 21L23.228516 23L23 23 A 1.0001 1.0001 0 1 0 23 25L24.646484 25 A 1.50015 1.50015 0 0 0 25.384766 25L27 25 A 1.0001 1.0001 0 1 0 27 23L26.414062 23 A 1.50015 1.50015 0 0 0 26.412109 22.996094L21.412109 8.9960938 A 1.50015 1.50015 0 0 0 20.041016 8 z M 10 8.9609375L11.800781 14L8.1992188 14L10 8.9609375 z M 20 13.957031L21.800781 19L18.199219 19L20 13.957031 z M 13 27 A 1.0001 1.0001 0 1 0 13 29L27 29 A 1.0001 1.0001 0 1 0 27 27L13 27 z" />
</svg>