<svg xmlns="http://www.w3.org/2000/svg" viewBox="0 0 26 26">
  <path d="M6 1C3.253906 1 1 3.253906 1 6L1 20C1 22.746094 3.253906 25 6 25L20 25C22.746094 25 25 22.746094 25 20L25 6C25 3.253906 22.746094 1 20 1 Z M 6 3L20 3C21.65625 3 23 4.34375 23 6L23 20C23 21.019531 22.496094 21.925781 21.71875 22.46875C21.058594 20.917969 18.640625 19.605469 16 19.09375C16 19.09375 14.804688 18.886719 15.40625 17.6875C16.007813 16.789063 16.5 15.707031 16.5 15.40625C16.5 15.40625 17.492188 14.613281 17.59375 13.3125C17.695313 12.113281 17.40625 12 17.40625 12C17.90625 10.601563 17.988281 5.492188 14.6875 6.09375C14.085938 4.992188 10.695313 4.101563 9.09375 7C8.292969 8.398438 7.988281 10.300781 8.6875 12C8.6875 12.101563 8.507813 11.894531 8.40625 12.59375C8.304688 13.292969 8.699219 14.3125 9 14.8125C9.101563 15.011719 9.398438 15.09375 9.5 15.09375C9.5 15.09375 9.6875 16.394531 10.6875 17.59375C10.886719 18.492188 10 19 10 19C7.359375 19.511719 4.867188 20.824219 4.1875 22.375C3.46875 21.828125 3 20.972656 3 20L3 6C3 4.34375 4.34375 3 6 3Z" />
</svg>