<svg xmlns="http://www.w3.org/2000/svg" viewBox="0 0 24 24">
  <path d="M10 4C5.582 4 2 7.582 2 12C2 16.418 5.582 20 10 20C14.418 20 18 16.418 18 12C18 7.582 14.418 4 10 4 z M 14 4C13.661 4 13.328 4.0273594 13 4.0683594C16.945 4.5613594 20 7.921 20 12C20 16.079 16.945 19.438641 13 19.931641C13.328 19.972641 13.661 20 14 20C18.418 20 22 16.418 22 12C22 7.582 18.418 4 14 4 z M 10.214844 5.5996094L10.220703 5.5996094C10.497703 5.5996094 10.722656 5.8245625 10.722656 6.1015625L10.722656 7.0566406C10.996656 7.1096406 12.351328 7.4154375 12.736328 9.1484375C12.850328 9.6604375 12.469312 10.154297 11.945312 10.154297L11.6875 10.154297C11.2855 10.154297 10.967719 9.8568906 10.886719 9.4628906C10.729719 8.7048906 10.317094 8.5644531 10.121094 8.5644531C9.9870937 8.5644531 9.3671875 8.5995625 9.3671875 9.7265625C9.3661875 11.693563 12.824219 11.080156 12.824219 14.285156C12.824219 16.613156 10.912219 16.928703 10.574219 16.970703L10.574219 17.800781C10.574219 18.077781 10.351219 18.300781 10.074219 18.300781C9.7972188 18.300781 9.5722656 18.077781 9.5722656 17.800781L9.5722656 16.970703C9.2982656 16.932703 7.6410938 16.750328 7.2460938 14.736328C7.1510938 14.251328 7.5538281 13.806641 8.0488281 13.806641L8.3105469 13.806641C8.6885469 13.806641 9.0365625 14.062594 9.1015625 14.433594C9.2885625 15.494594 9.9514062 15.443359 10.066406 15.443359C10.213406 15.443359 10.935547 15.416781 10.935547 14.300781C10.935547 12.071781 7.4765625 13.05975 7.4765625 9.71875C7.4765625 7.42875 9.3738906 7.0722969 9.7128906 7.0292969L9.7128906 6.1015625C9.7128906 5.8245625 9.9378438 5.5996094 10.214844 5.5996094 z" />
</svg>