<svg xmlns="http://www.w3.org/2000/svg" viewBox="0 0 64 64">
  <path d="M35.96875 5.0078125C26.00075 5.0078125 26 13 26 13C30.002 13.445 32 18 36 18C38.494545 18 40.072059 17.870508 41.105469 17.707031C42.20256 19.075206 43 20.912428 43 23.5L43 27.5L43 30.160156C40.664277 30.618723 39.5625 31.976563 39.5625 31.976562C39.5625 31.976562 35.071828 30.316391 32.923828 34.775391C32.923828 34.775391 39.046297 35.077719 41.904297 39.136719C43.531297 41.447719 42.425781 45.970703 42.425781 45.970703C42.425781 45.970703 48.910078 40.384453 51.830078 39.689453C54.750078 38.994453 55.996094 38.714844 55.996094 38.714844C55.996094 34.874844 53.426 32.042 50 33C50 33 49.175806 30.686423 46 30.123047L46 27.5C46 24.912428 46.79744 23.075206 47.894531 21.707031C48.927941 21.870508 50.505455 22 53 22C59 22 58 18 63 17C63 17 60.84425 10.007812 54.03125 10.007812C49.80625 10.007812 46 13 46 16C46 16 48.972234 13.920203 52.240234 13.533203L52.970703 15.087891C52.479409 15.210692 50.344452 15.802445 48.121094 17.408203C47.214409 18.063031 46.338911 18.979816 45.535156 20.025391C44.677543 16.936383 42.756227 14.764046 40.878906 13.408203C38.655548 11.802445 36.520591 11.210692 36.029297 11.087891L36.759766 9.5332031C40.027766 9.9202031 43 12 43 12C43 9 40.19375 5.0078125 35.96875 5.0078125 z M 18 34C14.876 34 6 37.035156 6 37.035156L6 54L14.441406 51.259766C15.437406 50.827766 16.566266 50.812609 17.572266 51.224609C17.572266 51.224609 30.6915 56.482906 31.5625 56.878906C32.4325 57.274906 34.54 58 35 58C36.31 58 37.454453 57.473516 37.814453 57.353516C39.048453 56.939516 46.162109 55.136719 46.162109 55.136719C46.162109 55.136719 55.514891 48.442141 56.462891 47.619141C57.410891 46.796141 58 46.126 58 45C58 43.343 56.657 42 55 42C52.781 42 50.898641 43.380797 43.181641 48.466797L35.091797 48.570312L29.085938 44.173828L29.328125 43.443359C29.328125 43.443359 31.658203 44.122875 34.158203 44.921875C38.618203 46.346875 40 43.559828 40 42.423828C40 40.092828 38.655969 39.415578 37.042969 38.767578C34.744969 37.845578 33.351453 37.485422 30.564453 36.482422C25.924453 34.812422 23.349 34 18 34 z" />
</svg>