<svg xmlns="http://www.w3.org/2000/svg" viewBox="0 0 64 64">
  <path d="M46 2C46 3.95 45.770391 6.1303906 45.400391 8.1503906C45.020391 10.200391 44.490703 12.220859 43.720703 14.130859C43.340703 15.070859 42.910156 15.969844 42.410156 16.839844C42.440156 17.079844 42.449219 17.320312 42.449219 17.570312C42.859219 17.500312 43.279453 17.449219 43.689453 17.449219C44.399453 17.449219 45.110781 17.549766 45.800781 17.759766C46.220781 17.019766 46.599219 16.27 46.949219 15.5C47.889219 13.36 48.570078 11.140391 49.080078 8.9003906C49.570078 6.6303906 49.91 4.43 50 2L46 2 z M 26.183594 6.0019531C24.676387 5.995918 22.928984 6.4166406 20.990234 7.3691406C15.820234 9.9091406 14.470469 13.679766 15.980469 16.759766C17.140469 19.119766 19.649609 20.390937 23.099609 19.710938C23.649609 17.540937 25.110078 15.4 27.330078 13.5C28.850078 12.18 30.430234 11.240937 31.990234 10.710938C31.910234 10.170937 31.740234 9.6408594 31.490234 9.1308594C30.540234 7.2121094 28.695605 6.0120117 26.183594 6.0019531 z M 34.802734 12.404297 A 6.15 8.551 49.253 0 0 28.632812 15.011719 A 6.15 8.551 49.253 1 0 36.660156 24.330078 A 6.15 8.551 49.253 0 0 34.802734 12.404297 z M 44.164062 19.474609C43.502813 19.417109 42.834688 19.479922 42.179688 19.669922C41.619688 21.819922 40.170703 23.949844 37.970703 25.839844C37.430703 26.299844 36.880078 26.719844 36.330078 27.089844C35.480078 30.699844 36.869922 33.349531 39.419922 34.519531C42.499922 35.939531 46.119609 34.670078 48.349609 29.830078C50.579609 24.990078 49.199375 21.42 46.109375 20C45.479375 19.71 44.825312 19.532109 44.164062 19.474609 z M 18.787109 21.892578 A 6.15 7.994 51.435 0 0 12.847656 24.003906 A 6.15 7.994 51.435 0 0 20.515625 33.621094 A 6.15 7.994 51.435 0 0 18.787109 21.892578 z M 53.103516 26.03125C52.522266 26.010156 51.957656 26.072969 51.410156 26.230469C51.290156 27.640469 50.879922 29.129922 50.169922 30.669922C49.549922 32.009922 48.799453 33.169375 47.939453 34.109375C49.699453 35.759375 50.740703 38.320312 50.220703 41.570312C50.670703 41.750313 51.150391 41.869453 51.650391 41.939453C55.020391 42.369453 58.089531 40.079062 58.769531 34.789062C59.449531 29.499062 57.059453 26.510078 53.689453 26.080078C53.491953 26.055078 53.297266 26.038281 53.103516 26.03125 z M 26.720703 28.240234C26.510703 28.350234 26.299844 28.479141 26.089844 28.619141C26.079844 28.709141 26.059062 28.790859 26.039062 28.880859C25.579062 31.140859 24.099766 33.319453 21.759766 35.189453C21.579766 35.339453 21.390937 35.479609 21.210938 35.599609C20.930937 37.579609 21.619766 39.329375 23.009766 40.609375C25.509766 42.909375 29.360703 42.810859 32.970703 38.880859C34.520703 37.200859 35.360859 35.54 35.630859 34L35.630859 33.990234C34.590859 32.630234 34.060078 30.919531 34.080078 29.019531C34.010078 28.939531 33.939375 28.870781 33.859375 28.800781C33.759375 28.710781 33.660547 28.619062 33.560547 28.539062C32.470547 28.949063 31.380078 29.160156 30.330078 29.160156C29.030078 29.160156 27.800703 28.840234 26.720703 28.240234 z M 46.470703 35.470703C45.080703 36.510703 43.500078 37.070312 41.830078 37.070312C40.730078 37.070312 39.630078 36.819844 38.580078 36.339844C38.420078 36.269844 38.259375 36.189375 38.109375 36.109375C37.359375 36.899375 36.669844 37.929219 36.089844 39.199219C33.859844 44.039219 35.240078 47.619062 38.330078 49.039062C41.410078 50.459063 45.029766 49.189609 47.259766 44.349609C49.099766 40.359609 48.480703 37.230703 46.470703 35.470703 z M 10.689453 36.720703C6.8294531 38.320703 5.4895312 41.279922 6.2695312 44.169922C7.1495312 47.439922 10.439844 49.409531 15.589844 48.019531C19.539844 46.949531 21.549375 44.72 21.859375 42.25C21.789375 42.2 21.720156 42.140078 21.660156 42.080078C20.120156 40.660078 19.259922 38.849375 19.169922 36.859375C17.719922 37.579375 16.249844 37.949219 14.839844 37.949219C13.319844 37.949219 11.899453 37.520703 10.689453 36.720703 z M 32.400391 42.089844C30.210391 43.739844 28.230547 44.130859 26.810547 44.130859C26.050547 44.130859 25.319375 44.019062 24.609375 43.789062C24.029375 44.459063 23.480234 45.270234 22.990234 46.240234C20.560234 50.980234 21.800313 54.610156 24.820312 56.160156C27.850312 57.700156 31.509453 56.579844 33.939453 51.839844C34.449453 50.849844 34.8 49.909297 35 49.029297C34.19 48.159297 33.609063 47.109922 33.289062 45.919922C32.999063 44.869922 32.930547 43.729297 33.060547 42.529297C32.860547 42.369297 32.630391 42.219844 32.400391 42.089844 z M 19.560547 48.519531C18.560547 49.119531 17.409375 49.589219 16.109375 49.949219C14.829375 50.289219 13.589453 50.470703 12.439453 50.470703C11.569453 50.470703 10.740703 50.370156 9.9707031 50.160156C9.9007031 50.230156 9.8395313 50.299141 9.7695312 50.369141C6.1595312 54.289141 6.3808594 58.119922 8.8808594 60.419922C11.380859 62.719922 15.210313 62.619219 18.820312 58.699219C19.850312 57.579219 20.569766 56.460625 21.009766 55.390625C20.499766 54.630625 20.120156 53.769844 19.910156 52.839844C19.630156 51.599844 19.639453 50.270859 19.939453 48.880859C19.869453 48.800859 19.790937 48.720391 19.710938 48.650391C19.660937 48.610391 19.610547 48.559531 19.560547 48.519531 z" />
</svg>