<svg xmlns="http://www.w3.org/2000/svg" viewBox="0 0 26 26">
  <path d="M23.632813 5.027344C23.433594 4.800781 23.152344 4.671875 22.855469 4.660156C20.5625 4.601563 17.65625 2.148438 15.738281 1.183594C14.550781 0.59375 13.769531 0.199219 13.179688 0.0976563C13.117188 0.0898438 13.058594 0.0859375 13 0.0859375C12.941406 0.0859375 12.882813 0.0898438 12.820313 0.0976563C12.230469 0.203125 11.449219 0.59375 10.265625 1.1875C8.34375 2.148438 5.441406 4.601563 3.144531 4.660156C2.847656 4.671875 2.566406 4.800781 2.367188 5.027344C2.164063 5.253906 2.0625 5.554688 2.074219 5.863281C2.570313 15.886719 6.164063 22.089844 12.472656 25.691406C12.636719 25.785156 12.816406 25.835938 13 25.835938C13.179688 25.835938 13.363281 25.785156 13.527344 25.691406C19.835938 22.089844 23.429688 15.886719 23.921875 5.863281C23.9375 5.554688 23.835938 5.253906 23.632813 5.027344 Z M 11.824219 6.335938C11.847656 6.3125 11.882813 6.296875 11.914063 6.296875L13.980469 6.296875C14.011719 6.296875 14.046875 6.3125 14.070313 6.335938C14.09375 6.359375 14.105469 6.390625 14.105469 6.425781L13.9375 15.320313C13.9375 15.386719 13.878906 15.441406 13.8125 15.441406L12.140625 15.441406C12.074219 15.441406 12.019531 15.390625 12.015625 15.320313L11.789063 6.425781C11.789063 6.394531 11.800781 6.359375 11.824219 6.335938 Z M 13.972656 18.957031C13.699219 19.203125 13.375 19.328125 13.003906 19.328125C12.621094 19.328125 12.292969 19.203125 12.023438 18.957031C11.753906 18.707031 11.613281 18.398438 11.613281 18.042969C11.613281 17.675781 11.753906 17.355469 12.023438 17.097656C12.292969 16.84375 12.621094 16.714844 13.003906 16.714844C13.375 16.714844 13.699219 16.84375 13.972656 17.097656C14.246094 17.355469 14.386719 17.675781 14.386719 18.042969C14.386719 18.398438 14.246094 18.707031 13.972656 18.957031Z" />
</svg>