<svg xmlns="http://www.w3.org/2000/svg" viewBox="0 0 240.95 77.17">
<path d="M71.89,45.41h-.3c-.54,0-.99,.44-.99,.99v2.35l-.74-.47c-.16-.1-.34-.15-.52-.15-.28,0-.55,.12-.75,.34-.32,.37-.32,.92,0,1.29,.82,.95,1.4,1.97,1.72,3.01,.13,.42,.51,.7,.94,.7h.64c.54,0,.99-.44,.99-.98v-6.08c0-.54-.44-.99-.99-.99h0ZM77.86,2.84c-1.12-.52-2.39-.78-4.03-.78-.47,0-1.34,.12-2.84,.67-1.37,.51-1.92,.94-2.16,1.2l-1.44,1.68-1.52-1.7c-.21-.2-.76-.61-2.14-1.15-1.19-.46-2.16-.7-2.94-.7-1.34,0-2.58,.25-3.7,.74-.46,.2-.69,.71-.55,1.19,.13,.42,.52,.7,.94,.7,.06,0,.11,0,.17-.02,.39-.07,.79-.1,1.3-.1h.04c1.27,0,2.5,.42,3.66,1.23,1.54,1.09,2.39,2.73,2.39,4.63v12.85c0,3.43-.96,5.68-2.79,6.49-.44,.2-.68,.69-.55,1.16,.12,.43,.51,.73,.95,.73h.1c2.09-.22,2.85-1.15,3.1-1.45l1.61-1.99,1.47,2.09c.56,.8,1.59,1.25,3.15,1.38h.08c.45,0,.85-.31,.96-.75,.12-.47-.12-.95-.57-1.14-1.86-.8-2.84-3.04-2.84-6.51l-.05-12.86c0-1.93,.77-3.49,2.27-4.61,1.14-.83,2.42-1.25,3.83-1.25,.51,0,1.02,.05,1.49,.13,.06,.01,.12,.02,.18,.02,.42,0,.81-.27,.94-.68,.15-.47-.07-.98-.52-1.19h0Zm4.72,47.63v-4.17c0-.54-.44-.98-.99-.98h-.26c-.54,0-.99,.44-.99,.98v6.18c0,.54,.44,.99,.99,.99h.64c.43,0,.81-.28,.94-.69,.1-.31,.22-.61,.36-.9,.21-.42,.08-.93-.29-1.21-.12-.1-.27-.16-.41-.19h.01Zm1.37-48.15h-.3c-.54,0-.99,.44-.99,.99v3.77c-.13,.03-.26,.09-.37,.17-.37,.28-.49,.77-.3,1.19,.19,.41,.33,.83,.44,1.27,.11,.44,.5,.75,.96,.75h.56c.54,0,.99-.44,.99-.99V3.32c0-.54-.44-.99-.99-.99h0Zm-12.05,64.26h-.69c-.44,0-.83,.3-.95,.72-.27,.97-.69,1.93-1.26,2.84-.25,.39-.18,.91,.15,1.23,.19,.18,.44,.28,.69,.28,.19,0,.38-.05,.55-.17l.24-.16v2.18c0,.54,.44,.99,.99,.99h.3c.54,0,.99-.44,.99-.99v-5.95c0-.54-.44-.98-.99-.98h-.02ZM50.4,10.48h.64c.43,0,.81-.28,.94-.69,.1-.31,.22-.61,.36-.91,.2-.42,.08-.93-.29-1.21-.12-.1-.26-.16-.41-.18V3.32c0-.54-.44-.99-.99-.99h-.26c-.54,0-.99,.44-.99,.99v6.17c0,.54,.44,.99,.99,.99h.01Zm3.64,62.76c-.99-.42-2-1.17-3.03-2.25-1.65-1.68-2.45-3.2-2.45-4.64v-12.85c0-1.78,.87-3.4,2.65-4.92,.94-.76,1.81-1.28,2.64-1.57,.47-.16,.74-.65,.64-1.13-.1-.46-.5-.78-.96-.78h-.08c-1.48,.12-2.91,.42-4.27,.89-1.88,.68-2.62,1.26-2.9,1.54l-2.11,2.1c-.19,.19-.29,.6-.29,.87v15.86c0,1.74-.25,3.18-.73,4.28-.19,.43-.05,.93,.33,1.2,.17,.12,.37,.18,.57,.18s.4-.06,.57-.18l1.33,1.24c.86,.8,2.89,1.81,7.66,2.06h.05c.46,0,.86-.32,.96-.77,.11-.47-.14-.94-.58-1.13Zm54.75-27.43c-1.12-.52-2.38-.78-4.03-.78-.47,0-1.35,.12-2.84,.67-1.53,.57-2.03,1.05-2.16,1.2l-1.44,1.68-1.47-1.64c-.14-.16-.65-.6-2.2-1.2-1.19-.46-2.16-.7-2.93-.7-1.34,0-2.58,.25-3.7,.74-.46,.2-.69,.71-.55,1.19,.13,.42,.52,.7,.94,.7,.06,0,.11,0,.17-.02,.39-.07,.79-.1,1.3-.1h.04c1.26,0,2.5,.42,3.66,1.23,1.54,1.09,2.39,2.74,2.39,4.63v12.85c0,3.43-.96,5.67-2.79,6.49-.44,.2-.68,.69-.55,1.16,.12,.43,.51,.73,.95,.73h.11c2.08-.22,2.84-1.14,3.1-1.45l1.61-1.99,1.47,2.09c.56,.8,1.6,1.25,3.15,1.38h.08c.45,0,.85-.31,.96-.75,.12-.47-.12-.95-.57-1.14-1.86-.8-2.84-3.05-2.84-6.51l-.05-12.86c0-1.93,.77-3.49,2.27-4.62,1.14-.83,2.42-1.25,3.82-1.25,.52,0,1.02,.04,1.49,.13,.06,0,.12,.02,.18,.02,.42,0,.8-.27,.94-.68,.15-.47-.07-.98-.52-1.19h0Zm-79.2,1.64c-1.97-1.13-3.95-1.86-6.05-2.22-.06,0-.11,0-.17,0-.44,0-.84,.3-.95,.74-.13,.5,.15,1.01,.63,1.18,.73,.25,1.45,.57,2.14,.95,3.43,1.87,4.15,4.35,4.15,6.09,0,2.29-1.5,4.04-4.44,5.19-1.13,.43-2.29,.73-3.45,.9-.51,.07-.88,.54-.84,1.05,.04,.51,.47,.91,.98,.91h.02c3.42-.06,6.32-.72,8.59-1.95,2.76-1.46,4.05-3.5,4.05-6.42,0-1.62-.49-4.04-4.67-6.41h.01Zm-19.65,21.76v-9.67c0-.1-.02-.19-.05-.28v-9.89c0-.27-.11-.53-.3-.71l-1.69-1.62c-1.13-1.09-2.47-1.64-4.07-1.68h-.02c-.43,0-.82,.29-.94,.7-.13,.43,.05,.88,.43,1.12,.23,.14,.45,.31,.65,.5,.79,.73,1.22,1.69,1.22,2.71l.05,15.86c0,3-.75,5.12-2.16,6.13-.42,.3-.54,.86-.28,1.3,.18,.31,.51,.49,.85,.49,.14,0,.29-.03,.42-.1,.59-.28,1.14-.67,1.69-1.19l1.15-1.08,1.29,.9c.59,.41,1.17,.75,1.72,1.02,.14,.07,.28,.1,.43,.1,.31,0,.61-.15,.8-.41,.28-.39,.23-.92-.1-1.26-.71-.72-1.09-1.74-1.09-2.93h0Zm217.67-21.27c.38,.2,.76,.43,1.11,.67,1.65,1.14,2.88,2.57,3.65,4.26,.16,.35,.51,.58,.9,.58h1.98c.09,0,.17,0,.26-.03,.08,.02,.17,.04,.26,.04h.21c.54,0,.99-.44,.99-.99v-6.17c0-.54-.44-.99-.99-.99h-.21c-.54,0-.99,.44-.99,.99v4.44l-3.22-2.87c-.71-.63-1.76-1.21-3.14-1.72-.11-.04-.23-.06-.34-.06-.38,0-.74,.22-.9,.58-.21,.47-.02,1.03,.44,1.27h0Zm-56.12,21.45v-9.86c0-.11-.02-.21-.06-.31l.06-9.77c0-.27-.11-.52-.3-.71l-1.76-1.73c-1.1-1.08-2.42-1.62-4.04-1.66h-.03c-.44,0-.82,.29-.95,.71-.13,.43,.05,.89,.43,1.12,.22,.13,.43,.29,.63,.47,.82,.73,1.27,1.71,1.27,2.74v15.86c0,3.17-.78,5.38-2.25,6.4-.42,.29-.55,.85-.3,1.29,.18,.32,.51,.5,.86,.5,.13,0,.27-.03,.4-.08,.63-.28,1.22-.69,1.82-1.25l1.15-1.08,1.29,.9c.86,.6,1.7,1.05,2.5,1.35,.11,.04,.23,.06,.34,.06,.36,0,.7-.2,.87-.53,.23-.44,.1-.98-.31-1.26-1.48-1.04-1.64-2.55-1.64-3.16h.02Zm27.17,3.52c-1.32-.46-2.97-1.71-5.21-3.91-3.7-3.74-4.86-4.6-5.18-4.79l-3.6-2.19,4-1.31c4.8-1.57,7.13-3.96,7.13-7.31,0-2.48-1.51-4.47-4.61-6.1-1.68-.88-3.49-1.52-5.39-1.9-.07,0-.13-.02-.19-.02-.43,0-.83,.29-.95,.72-.14,.49,.13,1.01,.61,1.19,.41,.15,.81,.32,1.22,.51,2.92,1.36,4.4,3.35,4.4,5.92,0,2.2-1.46,4.04-4.22,5.32-1.97,.92-3.93,1.38-5.98,1.38-.45,0-.84,.3-.95,.74-.11,.43,.08,.89,.47,1.11,5.43,3.04,7.86,5.51,7.86,8.01,0,1.12-.48,2.07-1.31,2.62-.28,.18-.45,.56-.45,.89,0,.31,.14,.6,.39,.78,.17,.13,.38,.2,.6,.2,.09,0,.17-.01,.26-.03,.73-.2,1.4-.64,2.06-1.34l1.35-1.45,1.42,1.39c1.04,1.01,2.87,1.53,5.44,1.53,.19,0,.39-.01,.59-.03,.46-.05,.82-.4,.88-.86s-.22-.89-.65-1.05v-.02Zm-11.18-55.7c0-4.19-1.71-7.67-5.22-10.66-1.69-1.44-3.56-2.55-5.55-3.29-.11-.04-.23-.06-.35-.06-.36,0-.7,.19-.87,.53-.23,.44-.1,.98,.31,1.27,.79,.55,1.55,1.24,2.26,2.04,2.32,2.62,3.49,5.91,3.49,9.77s-1.17,7.12-3.47,9.83c-1.36,1.6-2.92,2.76-4.62,3.44-.48,.19-.72,.71-.58,1.2,.13,.42,.52,.7,.94,.7,.07,0,.14,0,.21-.02,3.1-.67,5.79-2,8.23-4.08,3.51-2.98,5.22-6.47,5.22-10.66h0Zm28.88,55.42c-.87-.48-1.77-1.16-2.68-2.02-1.16-1.09-2.01-2.22-2.53-3.34-.16-.35-.51-.57-.89-.57h-2c-.07,0-.14,0-.21,.02-.07-.01-.14-.02-.21-.02h-.21c-.54,0-.99,.44-.99,.98v5.71c0,.54,.44,.98,.99,.98h.21c.54,0,.99-.44,.99-.98v-3.83l3.26,3.07c.81,.76,2,1.36,3.53,1.8,.09,.03,.18,.04,.27,.04,.39,0,.76-.23,.91-.61,.19-.46,0-.99-.43-1.24h-.01Zm17.53-12.04c-2.77-1.19-7.05-1.79-12.74-1.79-1.49,0-3.07-.35-4.69-1.03-2.5-1.07-3.76-2.62-3.76-4.6,0-2.36,1.17-4.29,3.31-5.44,.46-.25,.95-.47,1.47-.64,.48-.16,.75-.65,.65-1.14-.1-.46-.5-.78-.96-.78h-.1c-2.44,.24-4.44,.71-5.96,1.39-3.05,1.41-4.47,3.7-4.47,7.21,0,4.54,5.42,6.93,16.1,7.12,2.73,.07,4.73,.42,6.13,1.06,2.08,.97,3.2,2.71,3.24,5.02,.02,1.81-.57,3.37-1.7,4.52-.48,.48-1.04,.89-1.68,1.22-.44,.23-.65,.75-.48,1.22,.15,.39,.52,.64,.92,.64,.07,0,.15,0,.23-.03,1.21-.29,2.38-.67,3.47-1.12,3.66-1.48,5.44-3.52,5.44-6.25,0-3.17-1.4-5.26-4.42-6.59h0Zm-69.06-28.6c.43,0,.81-.28,.94-.7,.15-.49-.1-1.01-.58-1.2-1.71-.68-3.28-1.85-4.65-3.45-2.32-2.71-3.49-6.02-3.49-9.84s1.17-7.15,3.49-9.77c.7-.79,1.46-1.48,2.26-2.04,.41-.29,.54-.83,.31-1.27-.17-.33-.52-.53-.87-.53-.12,0-.23,.02-.35,.06-1.99,.75-3.86,1.85-5.55,3.29-3.51,2.99-5.21,6.47-5.21,10.66s1.71,7.68,5.21,10.66c2.46,2.09,5.17,3.43,8.29,4.09,.07,.01,.14,.02,.2,.02v.02Zm-28.66,41.25c-.99-.42-2.01-1.17-3.03-2.25-1.65-1.69-2.45-3.2-2.45-4.64v-12.85c0-1.78,.87-3.4,2.65-4.92,.92-.75,1.81-1.28,2.64-1.57,.46-.17,.74-.65,.63-1.13-.1-.46-.5-.78-.96-.78h-.08c-1.48,.12-2.91,.42-4.27,.89-1.86,.68-2.62,1.25-2.9,1.54l-2.11,2.1c-.2,.2-.3,.59-.29,.87v15.86c0,1.74-.24,3.18-.73,4.29-.19,.43-.05,.93,.33,1.2,.17,.12,.37,.18,.57,.18s.4-.06,.57-.18l1.33,1.24c.86,.8,2.89,1.81,7.66,2.06h.05c.46,0,.86-.31,.96-.76,.11-.47-.14-.94-.58-1.13v-.02Zm-21.29-27.93h-.3c-.54,0-.99,.44-.99,.98v3.77c-.13,.03-.26,.09-.37,.17-.37,.28-.49,.77-.3,1.19,.18,.41,.33,.84,.44,1.27,.11,.44,.5,.75,.96,.75h.57c.54,0,.99-.44,.99-.99v-6.18c0-.54-.44-.98-.99-.98v.02ZM141.22,3.83c-.84-.98-1.86-1.49-3.13-1.57h-.06c-.44,0-.82,.29-.95,.71-.13,.44,.07,.92,.48,1.14l.23,.13c1.01,.6,1.57,1.54,1.57,2.64,0,.6-.21,1.36-5.6,14.47l-1.59,3.87-1.92-3.72c-5.64-10.89-6.41-13.51-6.41-14.71s.54-2.21,1.52-2.77c.42-.24,.6-.76,.43-1.21-.15-.39-.52-.63-.92-.63-.07,0-.14,0-.21,.02-.38,.08-.79,.22-1.2,.41-.64,.3-1.1,.64-1.36,1.02l-1.23,1.8-1.64-1.44c-1.03-.9-1.67-1.32-2.08-1.54-.29-.13-.6-.23-.93-.29-.06,0-.12-.02-.17-.02-.4,0-.76,.24-.91,.62-.17,.43-.02,.93,.37,1.19,.09,.06,.18,.12,.27,.19,.87,.67,1.36,1.65,1.36,2.74,0,.6-.21,1.36-5.6,14.47l-1.59,3.87-1.92-3.72c-5.64-10.89-6.41-13.51-6.41-14.71s.6-2.27,1.61-2.82c.4-.22,.58-.67,.46-1.11-.11-.44-.52-.74-.97-.74-1.23,0-2.01,.45-2.63,1.49l-1.21,2.07-1.77-1.62c-.68-.62-1.39-1.1-2.1-1.43-.13-.06-.27-.09-.41-.09-.34,0-.67,.18-.85,.49-.26,.43-.14,.99,.26,1.29,.45,.33,.85,.74,1.2,1.22,.14,.18,.39,.53,1.41,2.7l10.58,22.88c.16,.35,.51,.57,.89,.57l1.96-.02c.4,0,.77-.25,.91-.63l8.37-21.74,10.1,21.81c.16,.35,.51,.57,.89,.57l1.96-.02c.4,0,.77-.25,.91-.63l8.44-21.85c.34-.9,.75-1.7,1.2-2.38,.24-.37,.22-.85-.07-1.19l-1.53-1.79h-.01Zm12.81,62.76h-.69c-.44,0-.83,.3-.95,.72-.27,.97-.69,1.93-1.27,2.84-.25,.39-.18,.91,.15,1.23,.19,.18,.44,.28,.69,.28,.19,0,.38-.05,.55-.17l.24-.16v2.18c0,.54,.44,.99,.99,.99h.3c.54,0,.99-.44,.99-.99v-5.95c0-.54-.44-.98-.99-.98h-.01Zm0-21.16h-.3c-.54,0-.99,.44-.99,.99v2.35l-.74-.47c-.16-.1-.34-.15-.52-.15-.28,0-.55,.12-.75,.34-.32,.37-.32,.92,0,1.29,.82,.95,1.4,1.97,1.71,3.01,.13,.42,.51,.7,.94,.7h.65c.54,0,.99-.44,.99-.98v-6.08c0-.54-.44-.99-.99-.99h0Z"/><path class="b" d="M73.79,7.32c.8-.59,1.69-.88,2.68-.88,1.7,0,2.99,.6,3.88,1.8,.71,.96,1.06,2.1,1.06,3.42v.69h6.15c.03-.06,.03-.18,0-.37V.34h-6.15v1.99c-1.81-1.54-4.11-2.29-6.88-2.26-.92,0-2.1,.26-3.52,.79-1.42,.52-2.4,1.11-2.96,1.76-.53-.59-1.5-1.16-2.94-1.71-1.43-.56-2.6-.83-3.49-.83-2.84-.03-5.29,.85-7.35,2.63V.34h-6.1V12.36h6.1v-.46c0-1.29,.48-2.5,1.43-3.61,1.08-1.26,2.4-1.88,3.98-1.85,.86,0,1.71,.29,2.54,.88,1.05,.74,1.57,1.76,1.57,3.05v12.85c0,3.27-.85,4.9-2.54,4.9-.43,0-.9-.11-1.39-.32l-.04,5.27c.83,.34,1.71,.51,2.63,.51,2.53,0,4.39-.74,5.6-2.22,.96,1.36,2.6,2.1,4.95,2.22,1.14,.06,2.2-.18,3.19-.74l-.05-5.27-1.25,.55c-1.7,0-2.54-1.63-2.54-4.9l-.05-12.85c0-1.29,.49-2.31,1.48-3.05h.01Zm9.85,1.37V3.32h.3v6.17h-.56c-.12-.5-.29-.98-.5-1.45l.76,.64h0Zm-32.6,.81h-.64V3.32h.26v5.83l.8-.69c-.16,.34-.3,.68-.41,1.04h0Zm17.69,13.79c0,4.82,1.78,6.7,3.44,7.41-1.23-.1-2.05-.43-2.43-.96l-2.22-3.16-2.44,3c-.2,.24-.75,.92-2.44,1.09,1.64-.73,3.37-2.63,3.37-7.39V10.43c0-2.23-1-4.16-2.81-5.44-1.34-.94-2.76-1.41-4.23-1.41h-.11c-.48,0-.94,.04-1.4,.12,1-.44,2.1-.65,3.3-.65h.11c.27,0,.99,.06,2.47,.64,1.44,.56,1.8,.92,1.82,.94l2.23,2.48,2.17-2.54s.35-.4,1.75-.92c1.42-.52,2.18-.6,2.5-.6h.16c1.33,0,2.47,.23,3.45,.68-.51-.1-1.07-.15-1.67-.15-1.62,0-3.1,.48-4.41,1.44-1.76,1.32-2.68,3.19-2.68,5.41l.05,12.86h.02Zm66.24,10.24l9.16-23.72c1.11-2.9,2.77-4.35,4.99-4.35,.56,0,1.2,.12,1.94,.37V.71c-.43-.37-1.25-.55-2.45-.55-2.37,0-4.11,.79-5.22,2.36-1.29-1.51-2.96-2.27-4.99-2.27-1.42,0-2.39,.18-2.91,.55l-.05,4.81c.19-.09,.42-.14,.69-.14,.49,0,.95,.12,1.36,.37,.42,.25,.63,.57,.63,.97,0,.31-1.82,4.89-5.46,13.73-4.13-7.98-6.19-12.59-6.19-13.82,0-.89,.54-1.34,1.62-1.34,.46,0,.92,.08,1.39,.23l-.05-4.72c-1.45-.52-2.56-.79-3.33-.79-.86,0-1.78,.22-2.75,.67-.97,.45-1.69,1.01-2.15,1.69-.99-.86-1.8-1.46-2.45-1.8-.83-.4-1.8-.6-2.91-.6-1.6,0-2.8,.35-3.61,1.06V5.85c.56-.46,1.12-.69,1.71-.69,.49,0,.94,.15,1.34,.46,.4,.31,.6,.71,.6,1.2,0,.31-1.82,4.89-5.45,13.73-4.13-7.98-6.2-12.59-6.2-13.82,0-.89,.55-1.34,1.66-1.34,.46,0,.91,.08,1.34,.23V.9c-.77-.52-2.05-.79-3.84-.79-1.91,0-3.34,.82-4.3,2.45-1.82-1.66-3.81-2.5-5.96-2.5-1.26,0-2.3,.35-3.1,1.06V5.85c.59-.49,1.14-.72,1.66-.69,1.11,.09,1.99,.59,2.63,1.48,.19,.25,.59,1.03,1.2,2.36l11.37,24.59,5.82-.05,7.44-19.33,8.97,19.37,5.82-.05h.03Zm-15.74-26.76l-9.21,23.91-1.95,.02-10.58-22.88c-.97-2.09-1.28-2.57-1.51-2.88-.4-.56-.87-1.03-1.4-1.42,.63,.29,1.24,.71,1.85,1.26l2.67,2.44,1.83-3.12c.43-.74,.9-1,1.77-1h.04c-1.45,.79-2.13,2.28-2.13,3.69,0,1.3,.5,3.54,6.52,15.17l2.9,5.6,2.4-5.84c5.67-13.81,5.67-14.07,5.67-14.84,0-1.4-.62-2.65-1.74-3.52-.11-.08-.22-.16-.33-.23,.26,.05,.49,.12,.7,.21,.27,.15,.84,.51,1.84,1.39l2.48,2.17,1.86-2.72c.09-.13,.33-.39,.96-.68,.36-.17,.69-.28,.99-.34-1.25,.72-2.01,2.02-2.01,3.63,0,1.3,.5,3.54,6.52,15.17l2.9,5.6,2.4-5.84c5.67-13.81,5.67-14.07,5.67-14.84,0-1.44-.75-2.71-2.06-3.49-.09-.05-.17-.1-.26-.15,1.01,.07,1.78,.46,2.45,1.23l1.53,1.79c-.48,.71-.92,1.56-1.3,2.57l-8.44,21.85-1.95,.02-11.07-23.92h0Zm36.55,22.52c3.93,3.35,8.67,5.02,14.21,5.02s10.29-1.67,14.22-5.02c3.93-3.34,5.89-7.39,5.89-12.14s-1.97-8.79-5.89-12.14c-3.93-3.34-8.67-5.02-14.22-5.02s-10.28,1.67-14.21,5.02c-3.93,3.34-5.9,7.39-5.9,12.14s1.97,8.79,5.9,12.14Zm25.84-21.99c3.28,2.79,4.87,6.03,4.87,9.91s-1.59,7.12-4.87,9.91c-2.3,1.96-4.87,3.24-7.8,3.86,1.86-.75,3.54-1.99,5.01-3.72,2.46-2.89,3.7-6.41,3.7-10.47s-1.26-7.61-3.74-10.42c-.76-.85-1.57-1.59-2.43-2.19,1.91,.71,3.65,1.75,5.26,3.12h0Zm-11.62-2.44c2.87,0,5.3,1.13,7.31,3.4,2,2.27,3.01,5.09,3.01,8.48s-1,6.22-3.01,8.58c-2,2.36-4.44,3.54-7.31,3.54s-5.26-1.18-7.28-3.54-3.03-5.22-3.03-8.58,1-6.22,3.01-8.48c2-2.27,4.44-3.4,7.3-3.4Zm-13.02,2.44c1.61-1.37,3.35-2.4,5.26-3.12-.86,.61-1.67,1.34-2.43,2.19-2.48,2.8-3.74,6.31-3.74,10.42s1.25,7.58,3.73,10.48c1.48,1.73,3.17,2.98,5.03,3.72-2.95-.62-5.54-1.91-7.85-3.87-3.28-2.79-4.87-6.03-4.87-9.91s1.59-7.12,4.87-9.91h0ZM31.25,45.73c-3.17-1.82-6.53-2.73-10.08-2.73-1.94,0-3.88,.18-5.82,.55-2.4,.49-4.21,1.17-5.41,2.03-1.54-1.48-3.41-2.22-5.59-2.22-1.82,0-3.27,.23-4.35,.7v4.71c.4-.18,1.06-.28,1.99-.28,.49,0,.94,.18,1.34,.55,.4,.37,.6,.8,.6,1.29l.05,15.86c0,3.27-.85,4.9-2.54,4.9-.46,0-.94-.11-1.43-.32v5.18c.8,.34,1.63,.51,2.5,.51,1.94,0,3.7-.74,5.27-2.22,2.03,1.42,3.99,2.13,5.87,2.13,1.45,0,2.62-.15,3.51-.46l-.05-5.5c-.52,.59-1.31,.88-2.36,.88-1.45,0-2.17-.71-2.17-2.13v-6.75c3.27,1.14,6.33,1.71,9.2,1.71,4.01,0,7.35-.72,10.03-2.17,3.39-1.79,5.09-4.5,5.09-8.14,0-3.27-1.88-5.96-5.64-8.09h-.01Zm-22.51,26.19l-1.95-1.36-1.73,1.63c-.47,.45-.95,.78-1.44,1.02,1.36-.97,2.57-2.95,2.57-6.93l-.04-15.87c0-1.29-.55-2.52-1.54-3.43-.26-.24-.52-.44-.81-.62,1.36,.03,2.45,.48,3.41,1.4l1.69,1.62v10.17h.04v9.68c0,1.49,.5,2.74,1.37,3.62-.51-.25-1.04-.56-1.58-.94h.01Zm7.56-13.9c-1.28-.29-2.54-.58-3.77-.86v-7.12c1.79-1.14,3.98-1.73,6.56-1.76,2.13,0,4.08,.49,5.87,1.48,2.09,1.14,3.14,2.6,3.14,4.39,0,1.42-1.06,2.54-3.19,3.37-1.63,.62-3.27,.92-4.9,.92-1.2,0-2.44-.15-3.72-.44v.02Zm13.46,1.42c-2.15,1.16-4.88,1.77-8.15,1.83,1.23-.18,2.45-.49,3.66-.95,4.2-1.64,5.08-4.23,5.08-6.11,0-2.02-.81-4.86-4.67-6.96-.73-.4-1.49-.74-2.28-1.02,1.97,.34,3.86,1.03,5.72,2.1,3.74,2.11,4.17,4.18,4.17,5.55,0,2.55-1.09,4.27-3.53,5.55h0Zm39.62-14.24c-2.25-1.42-4.93-2.13-8.04-2.13h-5.73c-2.22,0-4.35,.35-6.38,1.06-1.69,.62-2.9,1.28-3.61,1.99-.74-1.76-2.03-2.64-3.88-2.64-.55,0-1.57,.29-3.05,.88v4.76c.71-.34,1.37-.51,1.99-.51,.49,0,.95,.18,1.36,.55,.42,.37,.63,.8,.63,1.29v15.86c0,3.27-.85,4.9-2.54,4.9-.46,0-.94-.11-1.43-.32v5.27c.8,.34,1.49,.51,2.08,.51,.96,0,1.79-.2,2.5-.6,.53-.28,1.22-.82,2.08-1.62,1.88,1.76,5.62,2.63,11.24,2.63h3.79c1.54,0,3.2-.21,4.97-.62,1.77-.42,3.12-.93,4.05-1.55v1.48h6.15v-11.79h-6.15c0,1.64-.46,3.16-1.39,4.58-1.14,1.66-2.6,2.5-4.39,2.5h-6.89c-1.08,0-2.28-.69-3.61-2.08-1.26-1.29-1.9-2.39-1.9-3.28v-3.37c2.62,.03,4.25,.06,4.9,.09,.83,0,1.57,.27,2.22,.81,.65,.54,.97,1.18,.97,1.92,0,.8-.05,1.33-.14,1.57h5.27c.21-.46,.32-1.02,.32-1.66,0-2.68-1.03-4.58-3.1-5.69,.8-.37,1.52-1.16,2.15-2.38,.63-1.22,.95-2.33,.95-3.35,0-.65-.11-1.2-.32-1.66h-5.27c.09,.22,.14,.69,.14,1.43,0,.89-.34,1.66-1.02,2.31s-1.47,.97-2.36,.97h-4.72v-3.84c0-1.17,.65-2.31,1.94-3.42,1.17-.95,2.19-1.43,3.05-1.43h6.7c1.82,0,3.39,.71,4.71,2.13,1.17,1.26,1.76,2.61,1.76,4.02v.6h6.15v-11.93h-6.15v1.76Zm1.83,22.39h.69v5.94h-.3v-4.02l-1.77,1.18c.63-1,1.09-2.04,1.38-3.11h0Zm-20.61-19.74c-2.02,1.73-3.02,3.63-3.02,5.69v12.85c0,1.7,.89,3.45,2.73,5.33,1.12,1.17,2.23,1.99,3.35,2.47-4.84-.25-6.51-1.31-7.04-1.79l-1.99-1.86-.58,.54c.49-1.12,.81-2.64,.81-4.68v-16.03l2.11-2.1c.14-.14,.74-.66,2.54-1.31,1.27-.44,2.62-.72,4.01-.83-.95,.34-1.92,.91-2.93,1.74v-.02Zm21.01-1.42h.3v6.08h-.64c-.36-1.18-1-2.31-1.91-3.37l2.25,1.42v-4.13Zm40.76-1.08c-1.82-1.54-4.11-2.3-6.89-2.27-.92,0-2.1,.26-3.51,.79-1.42,.52-2.4,1.11-2.96,1.76-.52-.58-1.5-1.16-2.94-1.71-1.43-.55-2.6-.83-3.49-.83-2.84-.03-5.29,.85-7.35,2.64v-2.36h-6.1v12.02h6.1v-.46c0-1.29,.48-2.5,1.43-3.61,1.08-1.26,2.4-1.88,3.98-1.85,.86,0,1.71,.29,2.54,.88,1.05,.74,1.57,1.76,1.57,3.05v12.85c0,3.27-.85,4.9-2.54,4.9-.43,0-.9-.11-1.39-.32l-.05,5.27c.83,.34,1.71,.51,2.64,.51,2.53,0,4.39-.74,5.59-2.22,.95,1.36,2.6,2.1,4.95,2.22,1.14,.06,2.2-.19,3.19-.74l-.05-5.27-1.25,.55c-1.7,0-2.54-1.63-2.54-4.9l-.05-12.85c0-1.29,.49-2.31,1.48-3.05,.8-.59,1.69-.88,2.68-.88,1.69,0,2.99,.6,3.88,1.8,.71,.96,1.06,2.1,1.06,3.42v.69h6.15c.03-.06,.03-.18,0-.37v-11.65h-6.15v1.99h.02Zm-30.38,7.16h-.64v-6.18h.26v5.83l.8-.69c-.16,.34-.3,.68-.41,1.04h-.01Zm24.73-5.92c-1.61,0-3.1,.48-4.41,1.44-1.76,1.32-2.68,3.18-2.68,5.41l.05,12.86c0,4.82,1.78,6.7,3.44,7.41-1.23-.1-2.05-.43-2.43-.96l-2.22-3.16-2.43,3c-.2,.24-.75,.92-2.44,1.1,1.63-.73,3.37-2.63,3.37-7.39v-12.85c0-2.23-1-4.16-2.81-5.44-1.34-.94-2.76-1.41-4.23-1.41h-.11c-.48,0-.94,.04-1.4,.12,1-.44,2.09-.65,3.3-.65h.11c.27,0,.99,.06,2.47,.64,1.44,.56,1.8,.92,1.82,.94l2.23,2.48,2.17-2.53s.35-.4,1.75-.92c1.42-.52,2.18-.6,2.5-.6h.16c1.33,0,2.47,.23,3.45,.68-.51-.1-1.07-.15-1.67-.15v-.02Zm7.88,5.12v-5.37h.3v6.18h-.57c-.12-.5-.29-.99-.5-1.45l.76,.64h0Zm36.93-6.5c-2.25-1.42-4.93-2.13-8.05-2.13h-5.73c-2.22,0-4.35,.35-6.38,1.06-1.69,.62-2.9,1.28-3.61,1.99-.74-1.76-2.03-2.64-3.88-2.64-.55,0-1.57,.29-3.05,.88v4.76c.71-.34,1.37-.51,1.99-.51,.49,0,.95,.18,1.36,.55s.62,.8,.62,1.29v15.86c0,3.27-.85,4.9-2.54,4.9-.46,0-.94-.11-1.43-.32v5.27c.8,.34,1.49,.51,2.08,.51,.96,0,1.79-.2,2.5-.6,.53-.28,1.22-.82,2.08-1.62,1.88,1.76,5.62,2.63,11.24,2.63h3.79c1.54,0,3.2-.21,4.97-.62,1.77-.42,3.12-.93,4.05-1.55v1.48h6.15v-11.79h-6.15c0,1.64-.46,3.16-1.39,4.58-1.14,1.66-2.6,2.5-4.39,2.5h-6.89c-1.08,0-2.28-.69-3.6-2.08-1.27-1.29-1.9-2.39-1.9-3.28v-3.37c2.62,.03,4.25,.06,4.9,.09,.83,0,1.57,.27,2.22,.81,.65,.54,.97,1.18,.97,1.92,0,.8-.05,1.33-.14,1.57h5.27c.21-.46,.32-1.02,.32-1.66,0-2.68-1.03-4.58-3.1-5.69,.8-.37,1.52-1.16,2.15-2.38,.63-1.22,.95-2.33,.95-3.35,0-.65-.11-1.2-.32-1.66h-5.27c.09,.22,.14,.69,.14,1.43,0,.89-.34,1.66-1.02,2.31-.68,.65-1.47,.97-2.36,.97h-4.72v-3.84c0-1.17,.65-2.31,1.94-3.42,1.17-.95,2.19-1.43,3.05-1.43h6.7c1.82,0,3.39,.71,4.71,2.13,1.17,1.26,1.76,2.61,1.76,4.02v.6h6.15v-11.93h-6.15v1.76h.01Zm1.83,22.39h.69v5.94h-.3v-4.02l-1.77,1.18c.63-1,1.09-2.04,1.38-3.11h0Zm-20.61-19.74c-2.02,1.73-3.02,3.63-3.02,5.69v12.85c0,1.7,.89,3.45,2.73,5.33,1.12,1.17,2.23,1.99,3.36,2.47-4.84-.25-6.51-1.31-7.04-1.79l-1.99-1.86-.58,.54c.49-1.12,.81-2.64,.81-4.68v-16.03l2.11-2.1c.14-.14,.74-.66,2.54-1.31,1.27-.44,2.62-.72,4.01-.83-.95,.34-1.92,.91-2.93,1.74v-.02Zm21-1.42h.3v6.08h-.65c-.36-1.18-1-2.31-1.91-3.37l2.25,1.42v-4.13h0Zm48.05,24.39c-.37,.25-.77,.37-1.2,.37-.96,0-2.63-1.19-5.04-3.56-2.84-2.87-4.69-4.56-5.55-5.09,5.64-1.85,8.46-4.9,8.46-9.15,0-3.24-1.88-5.84-5.64-7.81-3.05-1.6-6.41-2.45-10.08-2.54-1.85-.06-3.78,.11-5.78,.51-2.4,.49-4.22,1.18-5.46,2.08-1.51-1.48-3.38-2.22-5.59-2.22-1.42,0-2.87,.31-4.35,.92v4.72c.68-.34,1.34-.51,1.99-.51,.49,0,.95,.18,1.36,.56,.42,.37,.63,.8,.63,1.29v15.86c0,3.42-.85,5.13-2.54,5.13-.46,0-.94-.11-1.43-.32v5.18c.8,.34,1.63,.51,2.5,.51,1.94,0,3.7-.74,5.27-2.22,2.03,1.42,3.99,2.13,5.87,2.13,1.45,0,2.64-.15,3.56-.46l-.05-5.13c-.74,.52-1.54,.68-2.4,.46-1.45-.34-2.17-1.05-2.17-2.13v-6.93c2.62,.77,4.53,1.25,5.73,1.43,4.65,2.59,6.98,4.72,6.98,6.38,0,.77-.35,1.16-1.06,1.16-.22,0-.45-.05-.69-.14v4.85c.89,.43,1.63,.65,2.22,.65,1.66,0,3.14-.69,4.44-2.08,1.42,1.39,3.68,2.08,6.8,2.08,1.35,0,2.8-.37,4.35-1.11l-.05-5.59c-.34,.25-.69,.49-1.06,.74l-.02-.02Zm-31.48,1.36l-1.95-1.36-1.73,1.63c-.51,.48-1.01,.83-1.54,1.07,1.4-.97,2.68-3,2.68-7.21v-15.86c0-1.32-.57-2.56-1.61-3.48-.25-.22-.51-.41-.78-.58,1.37,.03,2.45,.48,3.38,1.38l1.76,1.73-.06,10.08h.06v9.87c0,.7,.18,2.64,2.06,3.96-.73-.27-1.49-.68-2.28-1.23h0Zm7.49-14.16c-1.23-.28-2.47-.55-3.7-.83l.05-7.12c1.85-1.17,4.04-1.76,6.56-1.76,2.03,0,3.93,.42,5.69,1.25,2.19,1.02,3.28,2.4,3.28,4.16,0,1.42-1.03,2.6-3.1,3.56-1.73,.8-3.39,1.2-4.99,1.2-1.08,0-2.34-.15-3.79-.46Zm20.06,15.9c-2.27,0-3.92-.43-4.75-1.25l-2.14-2.09-2.04,2.19c-.61,.65-1.14,.94-1.6,1.06v-.06c1.08-.71,1.76-1.94,1.76-3.44,0-2.93-2.5-5.59-8.36-8.87h.17c2.02,0,4.12-.5,6.22-1.47,3.96-1.83,4.79-4.39,4.79-6.21,0-2.05-.86-4.9-4.97-6.81-.42-.2-.85-.38-1.29-.54,1.82,.36,3.53,.97,5.13,1.81,3.65,1.92,4.08,3.9,4.08,5.22,0,1.83-.67,4.48-6.45,6.38l-6.03,1.98,5.42,3.3c.17,.1,1.18,.8,4.99,4.64,2.35,2.32,4.08,3.62,5.58,4.15-.17,.02-.34,.03-.5,.03v-.02Zm37.51-15.12c-3.02-1.29-7.52-1.94-13.5-1.94-1.23,0-2.54-.29-3.93-.88-1.73-.74-2.59-1.68-2.59-2.82,0-1.66,.77-2.91,2.31-3.74,1.23-.68,2.77-1.02,4.62-1.02,2.25,0,4.27,.6,6.06,1.8,1.88,1.29,3.07,3.02,3.56,5.18h7.72v-12.02h-6.06v3.05c-1.11-.99-2.77-1.82-4.99-2.5-2-.58-3.91-.88-5.73-.88-5.15-.06-9.09,.52-11.84,1.76-3.73,1.73-5.59,4.72-5.59,8.97,0,5.83,5.99,8.85,17.98,9.06,2.43,.06,4.22,.35,5.36,.88,1.39,.65,2.1,1.74,2.13,3.28,.03,3.27-2.41,4.9-7.31,4.9-1.11,0-2.31-.08-3.61-.25-1.29-.17-2.71-.98-4.25-2.43-1.63-1.54-2.48-3.02-2.54-4.44h-7.77v11.56h6.06v-2.26c2.1,1.97,5.86,3.02,11.28,3.14,4.28,.09,8.14-.57,11.56-1.99,4.44-1.79,6.66-4.47,6.66-8.05,0-3.94-1.86-6.73-5.59-8.37h0Zm.42-12.45h.21v6.18h-.21v-6.18Zm-4.86,2.31l4.34,3.86h-1.98c-.85-1.86-2.18-3.42-3.99-4.66-.39-.26-.8-.51-1.21-.73,1.54,.57,2.38,1.13,2.83,1.53h.01Zm-23.08,24.8h-.21v-5.71h.21v5.71Zm4.93-1.47l-4.51-4.24h2c.57,1.24,1.49,2.46,2.75,3.64,.98,.92,1.93,1.64,2.88,2.17-1.62-.46-2.57-1.04-3.13-1.57h0Zm19.74,.57c-1.06,.44-2.17,.8-3.33,1.07,.74-.38,1.38-.84,1.93-1.4,1.32-1.34,2.01-3.14,1.99-5.22-.05-2.7-1.41-4.78-3.81-5.9-1.53-.7-3.66-1.08-6.52-1.15-6.92-.12-15.14-1.29-15.14-6.14,0-3.12,1.2-5.07,3.9-6.32,1.42-.64,3.31-1.07,5.65-1.3-.57,.19-1.12,.43-1.62,.71-2.46,1.33-3.82,3.57-3.82,6.31,0,1.66,.76,3.96,4.36,5.51,1.75,.74,3.46,1.11,5.08,1.11,5.55,0,9.71,.58,12.35,1.71,2.64,1.16,3.82,2.91,3.82,5.68,0,1.45-.5,3.59-4.83,5.33h0Z"/>
</svg>
