<svg xmlns="http://www.w3.org/2000/svg" viewBox="0 0 129.04 9.07"><path d="M8.44,4.11c-.23,1.08-.44,2.08-.6,3.05h-.03c-.13-.95-.33-1.93-.53-2.97L6.4,.16h-1.68l-.95,3.97c-.25,1.11-.49,2.15-.64,3.07h-.03c-.14-.87-.35-1.99-.57-3.06L1.71,.16H0L2.15,8.93h1.73l1.01-4.13c.26-1,.43-1.85,.57-2.79h.03c.12,.95,.27,1.78,.49,2.79l.91,4.13h1.7L10.97,.16h-1.63l-.91,3.96Zm6.21,4.82h1.6V.16h-1.6V8.93ZM26.15,3.22c0,1.34,.03,2.47,.14,3.65h-.03c-.4-.95-.92-1.97-1.5-2.94L22.51,.16h-1.84V8.93h1.48v-3.14c0-1.44-.03-2.6-.09-3.74h.05c.43,.98,1,2.04,1.56,3.01l2.29,3.87h1.67V.16h-1.48V3.22Zm7.54,1.82h3.31v-1.3h-3.31V1.47h3.5V.16h-5.1V8.93h5.3v-1.31h-3.7v-2.58ZM50.42,0c-2.47,0-4.18,1.9-4.18,4.61,0,2.56,1.56,4.47,4.05,4.47s4.19-1.68,4.19-4.62c0-2.51-1.51-4.45-4.06-4.45Zm-.05,7.79c-1.54,0-2.43-1.42-2.43-3.22s.85-3.28,2.43-3.28,2.42,1.56,2.42,3.22c0,1.83-.87,3.28-2.42,3.28Zm8.1,1.15h1.6v-3.74h3.23v-1.3h-3.23V1.47h3.48V.16h-5.08V8.93ZM77.29,1.34c.72,0,1.3,.16,1.72,.34l.34-1.28c-.33-.17-1.07-.39-2.12-.39-2.68,0-4.7,1.74-4.7,4.63,0,2.68,1.69,4.43,4.48,4.43,1.07,0,1.9-.21,2.28-.39l-.26-1.26c-.43,.18-1.11,.31-1.74,.31-1.94,0-3.06-1.22-3.06-3.16,0-2.11,1.29-3.23,3.07-3.23Zm10.25,3.45v-.04c.83-.29,1.6-1.05,1.6-2.19,0-.76-.27-1.37-.76-1.77-.6-.49-1.44-.7-2.71-.7-.92,0-1.81,.08-2.42,.2V8.93h1.59v-3.61h.81c.91,.03,1.31,.39,1.57,1.54,.24,1.09,.46,1.81,.59,2.07h1.64c-.17-.34-.4-1.35-.69-2.45-.21-.85-.59-1.46-1.22-1.69Zm-1.74-.64h-.95V1.38c.16-.04,.48-.08,.99-.08,1.04,0,1.71,.45,1.71,1.4,0,.87-.66,1.45-1.74,1.45Zm7.47,4.78h1.6V.16h-1.6V8.93ZM105.85,.16l-1.21,3.52c-.34,1.03-.64,2.11-.87,3.06h-.04c-.22-.98-.49-2.02-.81-3.05l-1.15-3.53h-2.11l-.59,8.77h1.5l.19-3.53c.07-1.2,.12-2.59,.16-3.74h.03c.23,1.09,.55,2.29,.88,3.41l1.17,3.75h1.22l1.29-3.8c.39-1.11,.76-2.29,1.04-3.36h.04c-.01,1.18,.05,2.55,.11,3.68l.17,3.58h1.56l-.51-8.77h-2.08Zm8.42,4.88h3.31v-1.3h-3.31V1.47h3.5V.16h-5.1V8.93h5.3v-1.31h-3.7v-2.58ZM126.19,.16h-2.04l-2.81,8.77h1.65l.75-2.49h2.77l.79,2.49h1.73L126.19,.16Zm-2.19,5.08l.68-2.16c.14-.52,.29-1.13,.42-1.64h.02c.13,.51,.27,1.11,.44,1.64l.69,2.16h-2.25Z"/></svg>
