<svg xmlns="http://www.w3.org/2000/svg" viewBox="0 0 987.39 982.12">

  <rect class="cls-1" y="9.56" width="968" height="963"/>
  <path d="M61.84,982.12v-196.52h124.77v-51.65h.06l.12-68.26h184.59s-.19-165.61-.19-165.61l-.04-19.33h94.25v182.9h209.01l-.1-204.29-167.45.18-19.33.04v-96.58h19.32l163.15-.04.04-175.55h19.29c16.24,0,19.15,0,23.38.02,4.53.01,10.59.03,36.19.04h.52c1.46,0,9.61,0,39.75,0l-.02-106.5-.02-19.29h198.25s0,38.56,0,38.56h-159.67s.03,125.87.03,125.87h-19.29c-24.05,0-26.06,0-29.03-.02-2.81-.01-6.48-.03-30.54-.04h-3.28c-.74,0-2.86.01-37.01.01l-.04,156.2-.02,19.25-19.26.02-163.12.04v19.39l186.7-.2v19.31l.12,242.87v19.28h-286.14v-182.83h-17.08l.19,165.56.04,19.29-184.71.02-.06,33.35.02,6.33v80.29h-124.77v157.88h-38.64ZM.47,982.12v-10c0-44.88-.04-70.53-.06-92.6l-.02-14.62c-.07-44.04-.16-104.49-.16-120.95v-19.32h125.04v-20.37s-125.27,0-125.27,0v-403.01h19.32l105.71.08v-20.01H.44V.52s19.26-.02,19.26-.02L286.1.22l.02,19.29.04,106.51h24.16V.14h19.28l359.76-.14h19.29v19.29l-.03,106.45h18.58V.74h260.18v38.63h-221.54v125.01h-95.79l.02-125.8-321.18.12v125.95s-101.26,0-101.26,0l-.02-19.3-.05-106.53-208.57.22.02,203.72h124.65v97.19l-19.32-.02-105.69-.09v325.86h125.16s0,19.28,0,19.28l.05,58.96v19.33H38.87c0,51.39.04,76.53.08,100.9l.06,42.28c.04,26.42.07,50.11.09,65.66v10.01s-38.63,0-38.63,0ZM187,441.21l-.03-58.58v-19.3l19.29.02,165.57.02v-175.77s19.3.02,19.3.02l54.76.08,19.25.02.02,19.25c.02,36.1.11,73.09.2,108.87.12,43.12.25,96.33.25,125.36v19.32h-19.32c-10.83,0-17.72-.01-27.82-.03-10.49-.02-24.44-.04-49.84-.06h-.11c-25.45-.02-50.86-.04-76.3-.04-32.71,0-60,.03-85.9.1l-19.3.05v-19.33ZM329.63,340.08l-124.53-.1-19.31-.02v-97.23h61.87l-.02-55.08h101.27v152.43h-19.28ZM628.35,337.19l-121.78-.08h-19.32l.04-19.3.4-155.93c-8.39-.02-17.43-.03-27.75-.03-9.54,0-19.07,0-28.61.02h-6.39c-14.67.02-17.2.04-19.05.05-1.88.01-3.08.02-15.46.02h-19.28V59.62s257.21-1.44,257.21-1.44l19.38-.08v19.37l-.1,240.43-.02,19.29h-19.26ZM609.08,298.53l.08-201.76-199.45,1.11v25.34h13.22c.18,0,.35,0,.52.01h0s1.48,0,1.48,0c11.97-.01,23.86-.03,35.76-.03,17.84,0,32.59.03,46.42.1l19.24.08-.04,19.22-.4,155.88,83.18.06ZM340.93,640.28l-19.29.02-240.43.1h-19.37s.08-19.38.08-19.38l1.44-257.22h102.31s0,19.29,0,19.29c0,12.37,0,13.57-.02,15.46-.01,1.85-.02,4.38-.04,19.05v6.39c-.01,9.54-.02,19.07-.02,28.61,0,10.32,0,19.36.03,27.75l155.93-.4,19.3-.04v19.32s.08,121.78.08,121.78v19.26ZM302.21,518.58l-155.88.4-19.22.04-.08-19.24c-.07-13.83-.1-28.58-.1-46.42,0-11.9.01-23.79.03-35.76v-1.48s0,0,0,0c0-.17,0-.35,0-.52v-13.22h-25.34s-1.11,199.45-1.11,199.45l201.76-.08-.06-83.18ZM206.25,226.18l-125.58-.22-19.26-.02v-19.26l-.09-126.28v-19.39l19.37.09,125.34.53,19.16.09.04,19.17.32,125.98.04,19.35-19.34-.04Z"/>
  <polygon points="215.23 80.91 215.21 71.67 205.99 71.63 80.64 71.1 71.32 71.06 71.32 80.39 71.41 206.68 71.41 215.95 80.69 215.96 206.27 216.18 215.57 216.2 215.55 206.9 215.23 80.91"/>
  <polygon points="196.96 197.6 196.69 90.15 89.89 89.7 89.97 197.41 196.96 197.6"/>
  <path d="M71.84,972.12v-176.52h124.77v-51.65h.04l.1-58.97.02-9.29h184.62s-.2-175.62-.2-175.62l-.02-9.32h74.23v182.9h229.02l-.11-224.3-177.46.19-9.32.02v-76.56h9.32l173.15-.04.04-166.23v-9.32h9.29c33.61,0,10.04.03,59.57.06,9.81.01-24.9,0,50.28,0l-.02-116.5v-9.29s9.27,0,9.27,0h168.96s0,18.56,0,18.56h-159.67s.03,116.55.03,116.55v9.32h-9.29c-46.77,0-10.04-.03-59.56-.06-9.74,0,12.38.01-50.29.01l-.04,166.2v9.27s-9.29.01-9.29.01l-173.11.04v39.4l177.42-.19h9.28s0,9.29,0,9.29l.12,242.87v9.28h-266.14v-182.83h-37.09l.2,175.57.02,9.28h-9.3l-175.37.02-.09,49.69h.03v70.29h-124.77v157.88h-18.64Z"/>
  <path d="M276.17,136.02h44.16V10.14h9.28l359.76-.14h9.29v9.29l-.03,116.45h38.58V10.74h240.18v18.63h-221.54v125.01h-75.79v-9.32l.02-116.49-341.19.13v116.63s0,9.32,0,9.32h-81.28v-9.32s-.06-116.52-.06-116.52l-228.57.24.02,223.71h124.65v77.18h-9.31s-115.71-.11-115.71-.11v345.87h115.88s9.28,0,9.28,0v9.29l.05,58.97v9.32H28.87c0,58.75.04,84.92.08,111.62.06,41.89.13,83.79.15,107.23H10.47c0-55.04-.05-81.16-.08-107.23-.08-52.57-.16-105.68-.16-120.94v-9.32h125.05l-.03-40.37H19.32s-9.32,0-9.32,0v-383.01h9.32l115.71.09v-40.02H10.44V19.78s0-9.27,0-9.27h9.28s247.12-.27,247.12-.27h9.28s.01,9.28.01,9.28l.05,116.5Z"/>
  <polygon points="266.93 197.65 257.64 197.65 257.64 206.97 257.66 252.73 195.79 252.73 195.79 329.97 205.11 329.98 329.63 330.08 338.91 330.08 338.91 197.65 266.93 197.65"/>
  <polygon points="320.34 216.29 276.21 216.29 276.23 262.05 276.24 271.37 214.43 271.37 214.43 311.42 320.35 311.51 320.34 216.29"/>
  <path d="M381.83,373.36v-166.46s.01-9.3.01-9.3h9.28s54.75.09,54.75.09h9.27s0,9.28,0,9.28c.02,36.05.11,72.46.2,108.88.13,49.19.25,98.22.25,125.34v9.32h-9.32c-22.06,0-27.79-.04-77.66-.08-54.06-.04-107.94-.08-162.34.06l-9.28.02v-9.3l-.03-58.59v-9.29h9.28s175.58.03,175.58.03Z"/>
  <path d="M400.41,216.19l36.18.05c.03,33.02.12,66.31.2,99.61.08,32.71.16,65.61.17,116.02h-68.34c-50.99-.04-101.81-.08-153.06.03l-.02-40,175.58.03h9.28v-175.74Z"/>
</svg>