 <svg id="a" xmlns="http://www.w3.org/2000/svg" viewBox="0 0 391.66 360"><path class="b" d="M131.66,0c-4,0-7.6,2-10,5.2L21.66,154.8c-34.4,52-27.2,122.01,17.2,166.41,25.6,25.6,59.6,38.4,93.2,38.4s67.6-12.8,93.2-38.4c44.4-44.4,51.2-114.41,16.4-166.41L141.66,5.2c-2.4-3.2-6-5.2-10-5.2Zm.4,33.2l90,134.8c28.4,42.8,22.8,100-13.6,136.4-42,42-110.8,42-152.8,0-36.4-36.4-42-93.6-13.6-136.4L132.06,33.2Zm168.03,78.58c-2.35,0-4.73,.72-6.83,2.22-5.6,3.6-7.2,11.2-3.2,16.8l66.4,100c18,26.8,14.4,62.8-8.4,86-16.8,16.8-41.6,23.6-64.8,18-6.4-1.6-12.81,2.4-14.41,8.8-1.6,5.6,2.01,12,8.41,13.6,7.2,2,14.8,2.8,22.4,2.8,24,0,48-9.6,65.2-26.8,30.8-30.8,35.6-79.6,11.6-116l-66.4-100c-2.25-3.5-6.06-5.44-9.97-5.42Z"/></svg>