 <svg id="a" xmlns="http://www.w3.org/2000/svg" viewBox="0 0 279.86 296"><path class="b" d="M46.69,0c-1.28,0-2.48,.61-3.23,1.65C38.06,9.06,0,64.28,0,148s38.06,138.94,43.45,146.35c.75,1.04,1.95,1.65,3.23,1.65H233.17c1.28,0,2.47-.61,3.23-1.64,5.4-7.41,43.46-62.53,43.46-145.85S241.8,9.2,236.41,1.67c-.75-1.05-1.96-1.67-3.25-1.67H46.69Zm2.19,8h62.29c-2.3,8.49-4.4,17.83-6.24,28H62.45c2.19-5.97,4.53-11.72,7.04-17.16,.47-1,.05-2.19-.95-2.67-.26-.12-.54-.19-.83-.19-.8-.01-1.53,.45-1.86,1.19-2.75,5.97-5.31,12.27-7.67,18.84h-25.3c7.08-14.89,13.54-24.53,16-28Zm66.43,0h48.95c2.33,8.43,4.45,17.78,6.32,28h-61.59c1.87-10.22,3.99-19.57,6.31-28Zm53.09,0h36.52c4.6,8.53,8.79,17.9,12.49,28h-42.77c-1.84-10.17-3.94-19.51-6.24-28Zm41.05,0h21.51c2.45,3.5,8.83,13.16,15.85,28h-25.13c-3.61-10.05-7.72-19.4-12.23-28ZM31.05,40h25.73c-3.44,10.07-6.41,20.78-8.85,32H19.08c3.68-12.29,7.88-22.96,11.98-32Zm29.95,0h43.24c-1.72,10.02-3.21,20.69-4.43,32H52.03c2.48-11.25,5.48-21.96,8.97-32Zm47.31,0h62.94c1.73,10,3.24,20.67,4.47,32H103.84c1.23-11.33,2.74-22,4.47-32Zm67.01,0h44.34c.43,.15,.9,.15,1.34,0h27.62c4.1,9.06,8.3,19.72,11.99,32h-80.86c-1.22-11.31-2.71-21.98-4.43-32ZM40,48c-4.39,0-8,3.61-8,8s3.61,8,8,8,8-3.61,8-8-3.6-8-8-8Zm40,0c-4.39,0-8,3.61-8,8s3.61,8,8,8,8-3.61,8-8-3.6-8-8-8Zm59.86,0c-4.39,0-8,3.61-8,8s3.61,8,8,8,8-3.61,8-8-3.61-8-8-8Zm60,0c-4.39,0-8,3.61-8,8s3.61,8,8,8,8-3.61,8-8-3.61-8-8-8Zm40,0c-4.39,0-8,3.61-8,8s3.61,8,8,8,8-3.61,8-8-3.61-8-8-8Zm-199.86,4c2.24,0,4,1.77,4,4s-1.77,4-4,4-4-1.77-4-4,1.77-4,4-4Zm40,0c2.24,0,4,1.77,4,4s-1.77,4-4,4-4-1.77-4-4,1.77-4,4-4Zm59.86,0c2.23,0,4,1.77,4,4s-1.77,4-4,4-4-1.77-4-4,1.77-4,4-4Zm60,0c2.23,0,4,1.77,4,4s-1.77,4-4,4-4-1.77-4-4,1.77-4,4-4Zm40,0c2.23,0,4,1.77,4,4s-1.77,4-4,4-4-1.77-4-4,1.77-4,4-4ZM17.96,76h29.11c-4.56,22.32-7.07,46.6-7.07,72,0,23.9,2.24,46.78,6.3,68H16.85c-5.16-19.46-8.85-42.27-8.85-68,0-27.52,4.23-51.69,9.96-72Zm33.21,0h48.23c-2.25,22.23-3.55,46.46-3.55,72,0,7.46,.11,14.82,.31,22.05,.03,1.1,.95,1.98,2.05,1.95s1.98-.95,1.95-2.05c-.2-7.2-.31-14.52-.31-21.95,0-25.57,1.31-49.81,3.58-72h72.69c2.27,22.19,3.58,46.43,3.58,72,0,24-1.11,46.92-3.12,68H50.38c-4.1-21.16-6.38-44.07-6.38-68,0-25.45,2.56-49.74,7.17-72Zm128.98,0h81.56c5.83,20.5,10.14,44.87,10.14,72.51,0,25.51-3.66,48.15-8.8,67.49h-29.51c4.06-21.22,6.3-44.1,6.3-68,0-.67,0-1.34,0-2.02,0-1.1-.88-2.01-1.98-2.02-.02,0-.04,0-.06,0-1.1,.03-1.98,.94-1.95,2.05h0c0,.66,0,1.32,0,1.99,0,23.93-2.27,46.84-6.38,68h-48.89c2-21.12,3.12-44.02,3.12-68,0-25.54-1.3-49.77-3.55-72Zm52.51,7.97c-1.1-.02-2.01,.87-2.03,1.97,0,.13,0,.27,.04,.4,1.34,7.75,2.44,15.71,3.27,23.86,.11,1.1,1.09,1.9,2.19,1.8s1.9-1.09,1.8-2.19h0c-.84-8.25-1.95-16.31-3.31-24.15-.15-.96-.98-1.68-1.95-1.69Zm4.34,36c-1.1-.02-2.02,.86-2.04,1.96,0,.07,0,.14,0,.21,.27,3.94,.49,7.92,.63,11.93-.02,1.1,.86,2.02,1.96,2.04,1.1,.02,2.02-.86,2.04-1.96,0-.07,0-.14,0-.21-.15-4.06-.36-8.09-.63-12.07-.06-1.05-.91-1.87-1.96-1.89Zm-138.52,60.01c-1.1,.07-1.94,1.01-1.88,2.11,.37,8.22,.87,16.26,1.48,24.07,.04,1.1,.96,1.97,2.07,1.93,1.1-.04,1.97-.96,1.93-2.07,0-.06,0-.12-.01-.17-.61-7.77-1.11-15.76-1.48-23.93-.03-1.1-.95-1.97-2.06-1.94h-.06ZM17.96,220h29.11c2.29,11.2,5.12,21.89,8.39,32H29.26c-3.95-9.15-7.88-19.9-11.3-32Zm33.22,0h126.59c.4,.13,.83,.13,1.23,0h49.66c-2.33,11.22-5.17,21.93-8.48,32H106.34c-.15-.04-.3-.06-.45-.06-.18,0-.36,.02-.53,.06H59.66c-3.32-10.07-6.16-20.78-8.48-32Zm181.6,0h29.17c-3.42,12.1-7.36,22.85-11.32,32h-26.23c3.27-10.11,6.09-20.8,8.38-32Zm-192.78,8c-4.39,0-8,3.61-8,8s3.61,8,8,8,8-3.61,8-8-3.6-8-8-8Zm40,0c-4.39,0-8,3.61-8,8s3.61,8,8,8,8-3.61,8-8-3.6-8-8-8Zm59.86,0c-4.39,0-8,3.61-8,8s3.61,8,8,8,8-3.61,8-8-3.61-8-8-8Zm60,0c-4.39,0-8,3.61-8,8s3.61,8,8,8,8-3.61,8-8-3.61-8-8-8Zm40,0c-4.39,0-8,3.61-8,8s3.61,8,8,8,8-3.61,8-8-3.61-8-8-8Zm-199.86,4c2.24,0,4,1.77,4,4s-1.77,4-4,4-4-1.77-4-4,1.77-4,4-4Zm40,0c2.24,0,4,1.77,4,4s-1.77,4-4,4-4-1.77-4-4,1.77-4,4-4Zm59.86,0c2.23,0,4,1.77,4,4s-1.77,4-4,4-4-1.77-4-4,1.77-4,4-4Zm60,0c2.23,0,4,1.77,4,4s-1.77,4-4,4-4-1.77-4-4,1.77-4,4-4Zm40,0c2.23,0,4,1.77,4,4s-1.77,4-4,4-4-1.77-4-4,1.77-4,4-4Zm-208.8,24h25.72c3.95,11.56,8.52,22.27,13.62,32h-21.52c-2.67-3.76-10.05-14.87-17.82-32Zm29.97,0h43.16c2.01,11.71,4.33,22.41,6.93,32h-36.19c-5.2-9.65-9.87-20.37-13.91-32Zm47.23,0h110.58c-4.04,11.63-8.71,22.35-13.91,32h-36.52c1.82-6.71,3.54-13.83,5.08-21.61,.23-1.08-.45-2.14-1.53-2.38-.15-.03-.31-.05-.47-.04-.95,.02-1.75,.71-1.92,1.64-1.6,8.1-3.39,15.5-5.29,22.39h-49.01c-2.62-9.51-4.98-20.23-7.02-32Zm114.83,0h25.77c-7.78,17.13-15.19,28.24-17.86,32h-21.52c5.1-9.73,9.67-20.44,13.62-32Z"/></svg>