 <svg xmlns="http://www.w3.org/2000/svg" viewBox="0 0 504 468.4"><path class="b" d="M292,0c-8.84,0-16,7.16-16,16s7.16,16,16,16,16-7.16,16-16S300.84,0,292,0Zm-88,108c-8.84,0-16,7.16-16,16s7.16,16,16,16,16-7.16,16-16-7.16-16-16-16Zm48,92c-8.84,0-16,7.16-16,16s7.16,16,16,16,16-7.16,16-16-7.16-16-16-16Zm-105.2,4c-12.8,0-24.39,4.8-33.59,14l-19.2,19.2c-4.4,4.4-10.4,6.8-16.4,6.8H12c-6.8,0-12,5.2-12,12v200.4c0,6.8,5.2,12,12,12H492c6.8,0,12-5.2,12-12v-200.4c0-6.8-5.2-12-12-12h-65.6c-6.4,0-12-2.4-16.4-6.8l-19.2-19.2c-8.8-8.8-20.79-14-33.59-14-20.4,0-38.4,12.8-44.8,32.4l-19.2,58c-6,17.6-22.4,29.6-41.2,29.6s-35.2-12-41.2-29.6l-19.2-58c-6.4-19.2-24.4-32.4-44.8-32.4Z"/></svg>