<svg viewBox="0 0 408.87 480"><path d="M215.53,.08c-2.03,.28-3.96,1.35-5.28,3.11-25.15,33.3-38.87,75.65-41.14,125.89-2.7-2.69-5.43-5.34-8.22-7.92l-.19-1.92c-.27-2.77-7.14-68.03-50-92.78C67.84,1.72,7.87,28.38,5.34,29.53L0,31.95l.69,5.81c.32,2.68,8.24,65.97,49.69,92.44,15.79,10.09,32.09,13.55,47.05,13.55,21.68,0,40.51-7.28,50.95-12.31,7.04,6.42,13.8,13.18,20.25,20.28v8.84c-20.67,2.59-38.31,15.05-48,32.53-10.92-19.7-31.92-33.09-56-33.09C29.34,160,.62,188.71,.62,224s28.71,64,64,64c.22,0,.44-.03,.66-.03-5.57,9.6-8.66,20.54-8.66,32.03,0,35.29,28.71,64,64,64,.22,0,.43-.04,.66-.05-5.57,9.6-8.66,20.56-8.66,32.05,0,35.29,28.71,64,64,64s64-28.71,64-64c0-11.52-3.1-22.45-8.66-32.05,.22,0,.43,.05,.66,.05,35.29,0,64-28.71,64-64,0-11.43-3.08-22.42-8.66-32.03,.22,0,.43,.03,.66,.03,35.29,0,64-28.71,64-64s-28.71-64-64-64c-24.08,0-45.08,13.39-56,33.09-9.69-17.48-27.33-29.94-48-32.53v-16.59c0-3.15,.19-6.16,.28-9.25,6.43-4.56,15.52-9.51,25.8-14.12,8.28,6.15,33.9,23.41,61.28,23.41,5.06,0,10.17-.59,15.25-1.95,37.67-10.1,56.11-58.07,56.88-60.11l2.02-5.36-4.42-3.64c-1.68-1.38-41.62-33.72-79.31-23.63-30.94,8.29-48.89,42.1-54.75,55.06-7.84,3.39-15.15,7.02-21.5,10.66,3.93-40.46,16.19-74.82,36.88-102.2,2.66-3.52,1.97-8.54-1.56-11.2-1.77-1.34-3.89-1.83-5.92-1.55ZM66.97,32c12.28-.08,24.86,2.05,35.72,8.31,24.1,13.91,34.8,45.43,39.23,64.64-15.45-12.17-31.99-22.89-49.59-32.05-3.93-2.05-8.76-.51-10.8,3.41-2.04,3.91-.52,8.74,3.41,10.78,17.8,9.26,34.46,20.26,49.94,32.77-17.23,6.95-48.04,14.64-75.88-3.14C30.69,98.64,20.47,57.32,17.56,41.86c9.31-3.47,28.94-9.73,49.41-9.86Zm208.36,31.42c20.73-1.02,42.13,11.9,51.42,18.34-5.5,11.7-20.39,38.59-43.67,44.83-19.76,5.29-41.78-5.37-54.47-13.22,12.66-4.54,25.71-8.09,36.95-9.44,4.38-.53,7.51-4.51,6.98-8.89-.51-4.39-4.47-7.48-8.88-6.98-10.46,1.26-21.94,4.05-33.27,7.72,7.74-12.28,19.88-26.66,36.11-31.02,2.9-.78,5.85-1.2,8.81-1.34Zm113.08,106.19c-1.04,.09-2.06,.38-3.05,.89l-14.17,7.42c-3.91,2.05-5.43,6.88-3.38,10.8,1.43,2.72,4.21,4.28,7.09,4.28,1.25,0,2.52-.29,3.7-.91l14.17-7.44c3.91-2.05,5.43-6.88,3.38-10.8-1.54-2.93-4.64-4.51-7.75-4.25Zm-323.78,6.39c26.47,0,48,21.53,48,48s-21.53,48-48,48-48-21.53-48-48,21.53-48,48-48Zm112,0c26.47,0,48,21.53,48,48,0,23.06-17.67,37.34-28.19,43.8-8.13,4.99-14.94,12.54-19.8,21.42-4.86-8.9-11.71-16.46-19.84-21.44-10.53-6.43-28.17-20.66-28.17-43.78,0-26.47,21.53-48,48-48Zm112,0c26.47,0,48,21.53,48,48s-21.53,48-48,48-48-21.53-48-48,21.53-48,48-48Zm24,40c-4.42,0-8,3.58-8,8,0,8.82-7.18,16-16,16-4.42,0-8,3.58-8,8s3.58,8,8,8c17.65,0,32-14.35,32-32,0-4.42-3.58-8-8-8Zm72.58,5.45c-4.53-.14-8.15,3.25-8.33,7.66-.18,4.42,3.26,8.15,7.67,8.33l15.98,.66h.34c4.27,0,7.81-3.37,7.98-7.67,.18-4.42-3.26-8.13-7.67-8.31l-15.98-.66ZM121.03,254.17c6.11,10.51,15.36,19.9,27.42,27.27,11.88,7.26,20.17,23.11,20.17,38.56,0,26.47-21.53,48-48,48s-48-21.53-48-48c0-14.83,6.7-28.58,18.38-37.75,12.82-5.83,23.4-15.73,30.03-28.08Zm111.23,.12c6.73,12.46,17.48,22.44,30.5,28.2,.14,.14,.21,.31,.36,.44,11.12,9.17,17.5,22.68,17.5,37.06,0,26.47-21.53,48-48,48s-48-21.53-48-48c0-15.42,8.29-31.27,20.17-38.56,12.19-7.49,21.4-16.74,27.47-27.14Zm140.34,10.73c-3.08-.51-6.3,.81-8.08,3.61-2.36,3.73-1.25,8.68,2.48,11.05l13.52,8.56c1.33,.84,2.8,1.23,4.27,1.23,2.65,0,5.24-1.32,6.77-3.72,2.36-3.74,1.26-8.67-2.47-11.03l-13.52-8.56c-.93-.59-1.94-.97-2.97-1.14Zm-35.48,30.78c-1.04,.09-2.07,.38-3.05,.89-3.91,2.05-5.43,6.88-3.38,10.8l7.42,14.16c1.43,2.73,4.21,4.3,7.09,4.3,1.25,0,2.52-.29,3.7-.91,3.91-2.05,5.43-6.9,3.38-10.81l-7.42-14.17c-1.54-2.93-4.64-4.51-7.75-4.25Zm-80.5,16.19c-4.42,0-8,3.58-8,8,0,8.82-7.18,16-16,16-4.42,0-8,3.58-8,8s3.58,8,8,8c17.65,0,32-14.35,32-32,0-4.42-3.58-8-8-8Zm-80,38.95c6.63,11.94,17.01,21.51,29.5,27.22,11.75,9.17,18.5,22.9,18.5,37.83,0,26.47-21.53,48-48,48s-48-21.53-48-48c0-14.83,6.7-28.59,18.38-37.77,12.54-5.7,22.97-15.29,29.62-27.28Zm24,57.05c-4.42,0-8,3.58-8,8,0,8.82-7.18,16-16,16-4.42,0-8,3.58-8,8s3.58,8,8,8c17.65,0,32-14.35,32-32,0-4.42-3.58-8-8-8Z"/></svg>
