<?xml version="1.0" encoding="utf-8"?>
<svg xmlns="http://www.w3.org/2000/svg" viewBox="0 0 48 48" width="144" height="144">
  <path d="M24 3C19.605332 3 16 6.6053321 16 11L16 26.71875C14.224901 28.670026 13 31.158796 13 34C13 40.051668 17.948332 45 24 45C30.051668 45 35 40.051668 35 34C35 31.158796 33.775099 28.670026 32 26.71875L32 11C32 6.6053321 28.394668 3 24 3 z M 24 7C26.233332 7 28 8.7666679 28 11L28 27.304688 A 2.0002 2.0002 0 0 0 28.664062 28.792969C30.099438 30.080664 31 31.920519 31 34C31 37.890332 27.890332 41 24 41C20.109668 41 17 37.890332 17 34C17 31.920519 17.900562 30.080664 19.335938 28.792969 A 2.0002 2.0002 0 0 0 20 27.304688L20 11C20 8.7666679 21.766668 7 24 7 z M 23.970703 14.972656 A 2.0002 2.0002 0 0 0 22 17L22 29.419922 A 5 5 0 0 0 24 39 A 5 5 0 0 0 26 29.423828L26 17 A 2.0002 2.0002 0 0 0 23.970703 14.972656 z" fill="#FFFFFF" />
</svg>