<svg xmlns="http://www.w3.org/2000/svg" viewBox="0 0 47.1 50.04"><path d="M45.89,17.36v-.02l-10.35,1.53h0c-3.84,.59-10.83,2.24-14.52,6.65-.62,.74-1.77,2.11-1.85,4.04-.09,2.15,1.16,3.59,2.08,4.65,.4,.46,.9,1.04,.91,1.31,0,.22-.35,1.8-9.97,4.17l-1.6-10.77-.31-2.07,5.17-.77c.29-.04,.54-.21,.71-.44l1.36-1.98,.38-.55c.16-.23,.22-.52,.17-.79-.05-.28-.21-.52-.44-.68l-.14-.1-2.21-1.5c-.22-.16-.49-.21-.75-.18l-9.38,1.39-2.01,.3c-.29,.04-.52,.19-.69,.41-.04,.05-.06,.1-.08,.15-.02,.05-.05,.1-.06,.16-.02,.05-.04,.1-.03,.14-.03,.11-.03,.22-.01,.33l.61,4.14c.08,.57,.62,.97,1.19,.88l4.14-.61,.31,2.07,1.62,10.94c-2.53,.57-5.57,1.18-9.27,1.83-.57,.1-.95,.64-.85,1.21,.1,.56,.62,.94,1.18,.86h.03c20.31-3.54,23.04-6.31,23.02-8.56,0-1.04-.73-1.87-1.42-2.67-.8-.92-1.63-1.87-1.57-3.18,.05-1.12,.67-1.96,1.37-2.79,3.13-3.74,9.37-5.26,12.54-5.81-3.89,1.71-7.4,3.82-8.06,6.08-.21,.74-.25,1.85,.76,2.97,1.5,1.65,4.71,1.54,8.11,1.42,3.27-.12,6.98-.25,8.13,1.4,0,0,.58,.77,.6,1.87,.07,3.9-10.59,9.08-27.16,13.19-.56,.14-.9,.71-.76,1.27,.13,.53,.64,.86,1.17,.78,.03,0,.07,0,.1-.02,10.79-2.68,28.87-8.22,28.75-15.26-.03-1.8-.94-2.99-1.01-3.07-1.77-2.53-5.89-2.38-9.88-2.24-2.65,.09-5.65,.2-6.49-.73-.39-.44-.38-.74-.3-.99,.66-2.27,7.74-5.7,17.21-8.34,.56-.15,.88-.73,.73-1.29-.14-.51-.64-.81-1.16-.74h-.02ZM4.8,25.55l-.31-2.07,9.95-1.47,1.14,.78-.89,1.29-9.89,1.47h0ZM11.79,8.32l2.7,2.68c.23,.23,.57,.34,.89,.29s.61-.25,.77-.54l4.28-7.9,9.13,10.09c.22,.25,.55,.38,.89,.34,.32-.05,.62-.23,.79-.52l2.7-4.63,8.4,7.62,2.61-.39-10.51-9.66c-.22-.22-.55-.33-.87-.28h0c-.31,.05-.59,.24-.75,.51l-2.66,4.55L20.99,.35c-.23-.25-.56-.38-.9-.34-.35,.03-.64,.24-.8,.54l-4.32,7.97-2.73-2.7c-.24-.24-.56-.35-.9-.29-.33,.05-.62,.26-.76,.56L3.8,19.34l2.54-.38,5.45-10.66v.02Z"/></svg>