
<svg xmlns="http://www.w3.org/2000/svg" viewBox="0 0 50 50">
  <path d="M37.058594 12.980469C36.246094 12.949219 35.492188 13.414063 35.160156 14.15625C34.824219 14.898438 34.96875 15.765625 35.53125 16.359375L41.675781 23L3 23C2.277344 22.988281 1.609375 23.367188 1.246094 23.992188C0.878906 24.613281 0.878906 25.386719 1.246094 26.007813C1.609375 26.632813 2.277344 27.011719 3 27L41.675781 27L35.53125 33.640625C35.03125 34.164063 34.855469 34.914063 35.066406 35.605469C35.277344 36.296875 35.84375 36.820313 36.546875 36.976563C37.253906 37.132813 37.988281 36.894531 38.46875 36.359375L48.972656 25L38.46875 13.640625C38.109375 13.242188 37.597656 13 37.058594 12.980469Z" />
</svg>