<svg xmlns="http://www.w3.org/2000/svg" viewBox="0 0 100 100" width="400" height="400">
  <path d="M44.5 8C43.116667 8 42 9.1166667 42 10.5L42 13L42 15 A 1.0001 1.0001 0 0 0 42.167969 15.554688L43 16.802734L43 28.5L43 32.410156L40.617188 33.724609C35.90912 36.294428 33 41.141465 33 46.5L33 89.5C33 91.961404 35.038596 94 37.5 94L61.5 94C63.961404 94 66 91.961404 66 89.5L66 46.5C66 41.141465 63.09088 36.294428 58.382812 33.724609L56 32.410156L56 28.5L56 16.802734L56.832031 15.554688 A 1.0001 1.0001 0 0 0 57 15L57 13L57 10.5C57 9.1166667 55.883333 8 54.5 8L44.5 8 z M 44.5 10L54.5 10C54.716667 10 55 10.283333 55 10.5L55 13L55 14.697266L54.167969 15.945312 A 1.0001 1.0001 0 0 0 54.134766 16L44.865234 16 A 1.0001 1.0001 0 0 0 44.832031 15.945312L44 14.697266L44 13L44 10.5C44 10.283333 44.283333 10 44.5 10 z M 45 17L54 17L54 28L45 28L45 17 z M 45 29L54 29L54 33 A 1.0001 1.0001 0 0 0 54.517578 33.875L57.416016 35.474609 A 1.0001 1.0001 0 0 0 57.421875 35.478516C61.511495 37.709247 64 41.86 64 46.5L64 89.5C64 90.838596 62.838596 92 61.5 92L37.5 92C36.161404 92 35 90.838596 35 89.5L35 46.5C35 41.86 37.488464 37.70924 41.578125 35.478516 A 1.0001 1.0001 0 0 0 41.583984 35.474609L44.482422 33.875 A 1.0001 1.0001 0 0 0 45 33L45 29 z M 39.5 52 A 0.50005 0.50005 0 0 0 39 52.5L39 56.5 A 0.50005 0.50005 0 0 0 39.5 57L59.5 57 A 0.50005 0.50005 0 0 0 60 56.5L60 52.5 A 0.50005 0.50005 0 0 0 59.5 52L58.5 52 A 0.50005 0.50005 0 1 0 58.5 53L59 53L59 56L40 56L40 53L49.5 53 A 0.50005 0.50005 0 1 0 49.5 52L39.5 52 z M 52.5 52 A 0.50005 0.50005 0 1 0 52.5 53L55.5 53 A 0.50005 0.50005 0 1 0 55.5 52L52.5 52 z M 39.5 60 A 0.50005 0.50005 0 0 0 39 60.5L39 76.5 A 0.50005 0.50005 0 0 0 39.5 77L59.5 77 A 0.50005 0.50005 0 0 0 60 76.5L60 60.5 A 0.50005 0.50005 0 0 0 59.5 60L39.5 60 z M 40 61L59 61L59 76L40 76L40 61 z" fill="#FFFFFF" />
</svg>