<?xml version="1.0" encoding="utf-8"?>
<svg xmlns="http://www.w3.org/2000/svg" viewBox="0 0 30 30" width="480" height="480">
  <path d="M26 0C25.81275 0.000125 25.624969 0.0704375 25.480469 0.2109375L24.939453 0.734375L24.193359 0.62890625C23.794359 0.57290625 23.421563 0.84323437 23.351562 1.2402344L23.222656 1.9824219L22.556641 2.3359375C22.200641 2.5249375 22.057375 2.9602656 22.234375 3.3222656L22.566406 4L22.234375 4.6777344C22.057375 5.0397344 22.198687 5.4770156 22.554688 5.6660156L23.220703 6.0195312L23.351562 6.7617188C23.421563 7.1587187 23.792406 7.4270938 24.191406 7.3710938L24.9375 7.265625L25.480469 7.7890625C25.770469 8.0690625 26.229531 8.0690625 26.519531 7.7890625L27.060547 7.265625L27.806641 7.3710938C28.205641 7.4270938 28.578437 7.1567656 28.648438 6.7597656L28.777344 6.0175781L29.443359 5.6640625C29.799359 5.4750625 29.942625 5.0397344 29.765625 4.6777344L29.433594 4L29.765625 3.3222656C29.942625 2.9602656 29.799359 2.5229844 29.443359 2.3339844L28.777344 1.9804688L28.648438 1.2382812C28.578437 0.84128125 28.205641 0.57290625 27.806641 0.62890625L27.060547 0.734375L26.519531 0.2109375C26.375031 0.0709375 26.18725 -0.000125 26 0 z M 7 2C5.895 2 5 2.895 5 4L5 26C5 27.105 5.895 28 7 28L23 28C24.105 28 25 27.105 25 26L25 15.722656C24.694 15.899656 24.351 16 24 16C23.742 16 23.481375 15.949656 23.234375 15.847656C22.486375 15.537656 22 14.809 22 14L22 9.3710938C22 9.0970937 22.056109 8.8309844 22.162109 8.5839844C21.817109 8.2429844 21.556688 7.8152656 21.429688 7.3222656C20.315687 6.6152656 19.864609 5.226 20.349609 4C20.086609 3.335 20.105609 2.626 20.349609 2L7 2 z M 14 6L16 6L16 11L17.328125 12.992188C17.766125 13.649187 18 14.420937 18 15.210938L18 23C18 23.552 17.552 24 17 24L13 24C12.448 24 12 23.552 12 23L12 15.210938C12 14.420937 12.233875 13.649187 12.671875 12.992188L14 11L14 6 z M 24 9.3710938L24 14L26 12L28 14L28 9.3710938C27.971 9.3710938 27.942109 9.3789062 27.912109 9.3789062C27.857109 9.3789062 27.802094 9.3760469 27.746094 9.3730469C27.255094 9.7780469 26.643 10 26 10C25.357 10 24.744906 9.7780469 24.253906 9.3730469C24.197906 9.3760469 24.143891 9.3789062 24.087891 9.3789062C24.057891 9.3789062 24.029 9.3720937 24 9.3710938 z" fill="#FFFFFF" />
</svg>