<svg xmlns="http://www.w3.org/2000/svg" viewBox="0 0 48 48" >
  <path d="M37.5,8H20.926c-1.955,0-3.807,0.749-5.213,2.108l-9.909,9.578C4.624,20.827,3.975,22.358,3.975,24s0.649,3.173,1.829,4.313l9.909,9.578C17.119,39.251,18.971,40,20.926,40H37.5c3.584,0,6.5-2.916,6.5-6.5v-19C44,10.916,41.084,8,37.5,8z M35.561,29.439c0.586,0.586,0.586,1.535,0,2.121C35.268,31.854,34.884,32,34.5,32s-0.768-0.146-1.061-0.439L28,26.121l-5.439,5.439C22.268,31.854,21.884,32,21.5,32s-0.768-0.146-1.061-0.439c-0.586-0.586-0.586-1.535,0-2.121L25.879,24l-5.439-5.439c-0.586-0.586-0.586-1.535,0-2.121s1.535-0.586,2.121,0L28,21.879l5.439-5.439c0.586-0.586,1.535-0.586,2.121,0s0.586,1.535,0,2.121L30.121,24L35.561,29.439z" />
</svg>