<svg xmlns="http://www.w3.org/2000/svg" viewBox="0 0 26 26">
  <path d="M13 0.1875C5.925781 0.1875 0.1875 5.925781 0.1875 13C0.1875 20.074219 5.925781 25.8125 13 25.8125C20.074219 25.8125 25.8125 20.074219 25.8125 13C25.8125 5.925781 20.074219 0.1875 13 0.1875 Z M 11.9375 2.75C12.007813 2.742188 12.085938 2.753906 12.15625 2.75C11.972656 2.957031 11.875 3.222656 11.875 3.5L11.875 4C11.875 4.621094 12.378906 5.125 13 5.125C13.621094 5.125 14.125 4.621094 14.125 4L14.125 3.5C14.125 3.222656 14.027344 2.957031 13.84375 2.75C18.863281 3.15625 22.84375 7.136719 23.25 12.15625C23.042969 11.972656 22.777344 11.875 22.5 11.875L22 11.875C21.957031 11.871094 21.917969 11.871094 21.875 11.875C21.253906 11.910156 20.777344 12.441406 20.8125 13.0625C20.847656 13.683594 21.378906 14.160156 22 14.125L22.5 14.125C22.777344 14.125 23.042969 14.027344 23.25 13.84375C22.84375 18.863281 18.863281 22.84375 13.84375 23.25C14.027344 23.042969 14.125 22.777344 14.125 22.5L14.125 22C14.132813 21.652344 13.984375 21.320313 13.714844 21.101563C13.445313 20.878906 13.089844 20.796875 12.75 20.875C12.226563 20.992188 11.859375 21.464844 11.875 22L11.875 22.5C11.875 22.777344 11.972656 23.042969 12.15625 23.25C7.148438 22.84375 3.167969 18.878906 2.75 13.875C2.960938 14.046875 3.226563 14.136719 3.5 14.125L4 14.125C4.621094 14.125 5.125 13.621094 5.125 13C5.125 12.378906 4.621094 11.875 4 11.875L3.5 11.875C3.457031 11.871094 3.417969 11.871094 3.375 11.875C3.148438 11.882813 2.933594 11.960938 2.75 12.09375C3.175781 7.175781 7.039063 3.25 11.9375 2.75 Z M 13 6.0625C12.546875 6.0625 12.359375 6.457031 12.34375 6.6875L12.09375 11.71875C11.695313 12.003906 11.4375 12.472656 11.4375 13C11.4375 13.867188 12.132813 14.5625 13 14.5625C13.054688 14.5625 13.101563 14.535156 13.15625 14.53125L16.21875 17.25C16.390625 17.402344 16.824219 17.519531 17.1875 17.15625C17.550781 16.792969 17.429688 16.363281 17.28125 16.1875L14.5625 13.0625C14.5625 13.042969 14.5625 13.019531 14.5625 13C14.5625 12.445313 14.277344 11.96875 13.84375 11.6875L13.65625 6.6875C13.644531 6.457031 13.449219 6.0625 13 6.0625Z" />
</svg>