
<svg xmlns="http://www.w3.org/2000/svg" viewBox="0 0 50 50">
  <path d="M25 5C23.355469 5 22 6.355469 22 8C22 8.152344 22.007813 8.292969 22.03125 8.4375L5.71875 19L3 19C2.96875 19 2.9375 19 2.90625 19C2.390625 19.046875 1.996094 19.480469 2 20L2 44C2 44.550781 2.449219 45 3 45L47 45C47.550781 45 48 44.550781 48 44L48 20C48 19.449219 47.550781 19 47 19L44.28125 19L27.96875 8.4375C27.992188 8.292969 28 8.152344 28 8C28 6.355469 26.644531 5 25 5 Z M 25 7C25.5625 7 26 7.4375 26 8C26 8.5625 25.5625 9 25 9C24.4375 9 24 8.5625 24 8C24 7.4375 24.4375 7 25 7 Z M 22.96875 10.21875C23.503906 10.710938 24.226563 11 25 11C25.773438 11 26.496094 10.710938 27.03125 10.21875L40.625 19L9.375 19 Z M 4 21L5.6875 21C5.851563 21.042969 6.023438 21.042969 6.1875 21L43.84375 21C43.996094 21.039063 44.160156 21.039063 44.3125 21L46 21L46 43L4 43 Z M 11 26C9.355469 26 8 27.355469 8 29L8 35C8 36.644531 9.355469 38 11 38C12.644531 38 14 36.644531 14 35L14 34L12 34L12 35C12 35.566406 11.566406 36 11 36C10.433594 36 10 35.566406 10 35L10 29C10 28.433594 10.433594 28 11 28C11.566406 28 12 28.433594 12 29L12 30L14 30L14 29C14 27.355469 12.644531 26 11 26 Z M 16 26L16 38L21 38L21 36L18 36L18 26 Z M 25 26C23.355469 26 22 27.355469 22 29L22 35C22 36.644531 23.355469 38 25 38C26.644531 38 28 36.644531 28 35L28 29C28 27.355469 26.644531 26 25 26 Z M 33 26C31.355469 26 30 27.355469 30 29L30 31.625L34 33.625L34 35C34 35.566406 33.566406 36 33 36C32.433594 36 32 35.566406 32 35L32 34L30 34L30 35C30 36.644531 31.355469 38 33 38C34.644531 38 36 36.644531 36 35L36 32.375L32 30.375L32 29C32 28.433594 32.433594 28 33 28C33.566406 28 34 28.433594 34 29L34 30L36 30L36 29C36 27.355469 34.644531 26 33 26 Z M 38 26L38 38L43 38L43 36L40 36L40 33L42 33L42 31L40 31L40 28L43 28L43 26 Z M 25 28C25.566406 28 26 28.433594 26 29L26 35C26 35.566406 25.566406 36 25 36C24.433594 36 24 35.566406 24 35L24 29C24 28.433594 24.433594 28 25 28Z" />
</svg>