<?xml version="1.0" encoding="utf-8"?>
<svg xmlns="http://www.w3.org/2000/svg" viewBox="0 0 50 50" width="500" height="500">
  <path d="M41.027344 1.8125C40.8125 1.808594 40.601563 1.871094 40.425781 1.992188C40.425781 1.992188 39.121094 2.925781 35.597656 3.945313C32.074219 4.964844 26.417969 6 18 6C17.621094 6 17.273438 6.214844 17.105469 6.554688L2.179688 36.40625C1.90625 36.789063 1.933594 37.308594 2.246094 37.65625C2.261719 37.675781 2.277344 37.691406 2.289063 37.703125C2.308594 37.722656 2.324219 37.738281 2.34375 37.753906C2.34375 37.757813 2.34375 37.757813 2.34375 37.757813C2.363281 37.773438 2.378906 37.785156 2.398438 37.796875C2.675781 38.035156 14.480469 48 34 48C34.382813 48 34.730469 47.78125 34.898438 47.4375L47.914063 20.839844C48.066406 20.535156 48.058594 20.171875 47.882813 19.878906C47.710938 19.585938 47.402344 19.402344 47.0625 19.386719C46.660156 19.371094 46.289063 19.59375 46.117188 19.957031L33.394531 45.964844C27.089844 45.890625 21.675781 44.753906 17.238281 43.285156C20.789063 43.785156 24.855469 43.863281 29.359375 43.078125C29.675781 43.023438 29.945313 42.820313 30.089844 42.53125L46.105469 9.796875C46.269531 9.476563 46.246094 9.09375 46.050781 8.792969C45.855469 8.492188 45.511719 8.324219 45.15625 8.34375C44.789063 8.367188 44.464844 8.585938 44.3125 8.914063L28.53125 41.15625C20.839844 42.394531 14.523438 41.082031 10.171875 39.5C10.226563 39.503906 10.28125 39.515625 10.339844 39.519531C14.695313 40.042969 20.171875 40.082031 24.707031 37.902344C24.910156 37.804688 25.074219 37.640625 25.171875 37.4375L41.898438 3.25C42.046875 2.945313 42.03125 2.585938 41.855469 2.296875C41.675781 2.003906 41.367188 1.824219 41.027344 1.8125 Z M 38.886719 4.855469L23.550781 36.199219C19.644531 37.96875 14.640625 38.023438 10.578125 37.535156C7.554688 37.175781 5.566406 36.667969 4.441406 36.355469L18.636719 7.960938C26.8125 7.902344 32.535156 6.910156 36.152344 5.867188C37.390625 5.507813 38.085938 5.1875 38.886719 4.855469Z" fill="#FFFFFF" />
</svg>