<svg xmlns="http://www.w3.org/2000/svg" viewBox="0 0 50 50">
  <path d="M25 1.0175781C24.71 1.0175781 24.420969 1.1318281 24.230469 1.3613281C23.567469 2.1623281 8 21.097047 8 31.998047C8 41.373047 15.626 49 25 49C34.374 49 42 41.374 42 32C42 21.098 26.433484 2.1623281 25.771484 1.3613281C25.580984 1.1318281 25.29 1.0175781 25 1.0175781 z M 14 31C14.553 31 15 31.448 15 32C15 40.606 23.768578 41.956766 24.142578 42.009766C24.689578 42.087766 25.068234 42.593625 24.990234 43.140625C24.918234 43.639625 24.491953 44 24.001953 44C23.954953 44 23.905422 43.997234 23.857422 43.990234C23.749422 43.975234 13 42.321 13 32C13 31.448 13.447 31 14 31 z" />
</svg>