
<svg xmlns="http://www.w3.org/2000/svg" viewBox="0 0 100 100">
  <path d="M39.5 28 A 1.0001 1.0001 0 0 0 38.5 29L38.5 33L11.5 33 A 1.0001 1.0001 0 0 0 10.5 34L10.5 66 A 1.0001 1.0001 0 0 0 11.5 67L38.5 67L38.5 71 A 1.0001 1.0001 0 0 0 39.599609 71.994141L55.916016 70.363281C56.627542 71.914033 58.186662 73 60 73C62.127829 73 63.908318 71.506905 64.373047 69.517578L89.599609 66.994141 A 1.0001 1.0001 0 0 0 90.5 66L90.5 34 A 1.0001 1.0001 0 0 0 89.599609 33.005859L39.599609 28.005859 A 1.0001 1.0001 0 0 0 39.5 28 z M 40.5 30.103516L88.5 34.904297L88.5 65.095703L64.5 67.496094L64.5 65.484375L87.048828 63.230469 A 0.50005 0.50005 0 0 0 87.5 62.732422L87.5 37.267578 A 0.50005 0.50005 0 0 0 87.048828 36.769531L86.048828 36.669922L80.072266 36.072266 A 0.50005 0.50005 0 0 0 80.021484 36.068359 A 0.50059574 0.50059574 0 0 0 79.972656 37.068359L85.951172 37.664062L86.5 37.71875L86.5 62.28125L64.5 64.480469L64.5 60.5C64.5 58.506381 63.172069 56.865724 61.371094 56.277344C61.537419 56.099434 61.721062 55.944228 61.847656 55.722656C62.26389 54.994139 62.5 54.043668 62.5 53C62.5 51.734428 62.16231 50.603829 61.556641 49.84375 A 0.50005 0.50005 0 0 0 61.476562 49.761719C61.350349 47.670819 59.621697 46 57.5 46C56.486822 46 55.601 46.413836 54.917969 47.054688C54.164296 45.272875 52.728692 44 51 44C49.709745 44 48.562617 44.723313 47.767578 45.816406C46.972539 46.909499 46.5 48.382745 46.5 50C46.5 51.617255 46.972539 53.090501 47.767578 54.183594C48.562617 55.276687 49.709745 56 51 56C52.728805 56 54.164944 54.726769 54.917969 52.945312C55.601 53.586164 56.486822 54 57.5 54C57.528718 54 57.555408 53.992795 57.583984 53.992188C57.684269 54.641146 57.873356 55.234355 58.152344 55.722656C58.278938 55.944228 58.462581 56.099434 58.628906 56.277344C56.827931 56.865724 55.5 58.506381 55.5 60.5L55.5 65.378906L43.5 66.580078L43.5 33.419922L61.900391 35.259766 A 0.50005 0.50005 0 1 0 62 34.265625L43.048828 32.371094 A 0.50005 0.50005 0 0 0 43 32.367188 A 0.50005 0.50005 0 0 0 42.5 32.867188L42.5 67.132812 A 0.50005 0.50005 0 0 0 43.048828 67.628906L55.5 66.384766L55.5 68.394531L40.5 69.896484L40.5 30.103516 z M 65.179688 34.583984 A 0.50005 0.50005 0 0 0 65.128906 35.582031L70.949219 36.166016 A 0.50062913 0.50062913 0 1 0 71.050781 35.169922L65.228516 34.587891 A 0.50005 0.50005 0 0 0 65.179688 34.583984 z M 12.5 35L38.5 35L38.5 38L16 38 A 0.50005 0.50005 0 0 0 15.5 38.5L15.5 61.5 A 0.50005 0.50005 0 0 0 16 62L38.5 62L38.5 65L12.5 65L12.5 35 z M 74.007812 35.466797 A 0.50005 0.50005 0 0 0 73.958984 36.464844L76.941406 36.763672 A 0.50005 0.50005 0 1 0 77.041016 35.769531L74.058594 35.470703 A 0.50005 0.50005 0 0 0 74.007812 35.466797 z M 16.5 39L38.5 39L38.5 61L16.5 61L16.5 39 z M 51 45C52.362352 45 53.613112 46.154133 54.185547 47.945312C54.173918 47.964036 54.159801 47.981103 54.148438 48L51.5 48L51.5 47.5 A 0.50005 0.50005 0 0 0 50.992188 46.992188 A 0.50005 0.50005 0 0 0 50.5 47.5L50.5 48.5L50.5 51.5L50.5 52.5 A 0.50005 0.50005 0 1 0 51.5 52.5L51.5 52L54.148438 52C54.159801 52.018897 54.173918 52.035964 54.185547 52.054688C53.613663 53.845989 52.362544 55 51 55C50.081255 55 49.228883 54.49311 48.576172 53.595703C47.923461 52.698296 47.5 51.420745 47.5 50C47.5 48.579255 47.923461 47.301704 48.576172 46.404297C49.228883 45.50689 50.081255 45 51 45 z M 57.5 47C59.162781 47 60.5 48.337219 60.5 50C60.5 51.305352 59.670495 52.399835 58.511719 52.814453C58.538145 52.04992 58.720261 51.371886 58.978516 50.876953 A 1 1 0 0 0 58.5 49 A 1 1 0 0 0 57.90625 50.802734C57.64761 51.440846 57.5 52.189941 57.5 53C56.302318 53 55.28432 52.297754 54.800781 51.285156 A 0.50005 0.50005 0 0 0 54.349609 51L51.5 51L51.5 49L54.349609 49 A 0.50005 0.50005 0 0 0 54.800781 48.714844C55.28432 47.702246 56.302318 47 57.5 47 z M 71.964844 47 A 0.50005 0.50005 0 0 0 71.5 47.5L71.5 52.5 A 0.50005 0.50005 0 0 0 72.015625 53L82.015625 52.699219 A 0.50005 0.50005 0 0 0 82.5 52.199219L82.5 47.800781 A 0.50005 0.50005 0 0 0 82.015625 47.300781L72.015625 47 A 0.50005 0.50005 0 0 0 71.964844 47 z M 72.5 48.015625L81.5 48.285156L81.5 51.714844L72.5 51.984375L72.5 48.015625 z M 61.238281 51.386719C61.395936 51.851848 61.5 52.400597 61.5 53C61.5 53.889332 61.287985 54.68833 60.980469 55.226562C60.672953 55.764795 60.31615 56 60 56C59.68385 56 59.327047 55.764795 59.019531 55.226562C58.813245 54.865509 58.655478 54.380229 58.570312 53.835938C59.80356 53.489909 60.794385 52.576423 61.238281 51.386719 z M 60 57C61.938742 57 63.5 58.561258 63.5 60.5L63.5 68.5C63.5 70.438742 61.938742 72 60 72C58.061258 72 56.5 70.438742 56.5 68.5L56.5 60.5C56.5 58.561258 58.061258 57 60 57 z" />
</svg>