<?xml version="1.0" encoding="utf-8"?>
<svg xmlns="http://www.w3.org/2000/svg" viewBox="0 0 30 30" width="480" height="480">
  <path d="M12.003906 2.1523438C12.003906 2.1523438 10.109016 2.1080938 9.0410156 3.2460938C7.9730156 4.3830938 8.1367188 6.2714844 8.1367188 6.2714844C8.1367188 6.2714844 10.031609 6.3176875 11.099609 5.1796875C12.167609 4.0416875 12.003906 2.1523438 12.003906 2.1523438 z M 17.996094 2.1523438C17.996094 2.1523438 17.832391 4.0426875 18.900391 5.1796875C19.967391 6.3166875 21.861328 6.2714844 21.861328 6.2714844C21.861328 6.2714844 22.026984 4.3830938 20.958984 3.2460938C19.890984 2.1080938 17.996094 2.1523438 17.996094 2.1523438 z M 5.3886719 3.4375C5.3886719 3.4375 4.1343594 4.8592031 4.3183594 6.4082031C4.5023594 7.9572031 6.0527344 9.046875 6.0527344 9.046875C6.0527344 9.046875 6.0595469 9.0381094 6.0605469 9.0371094C6.3875469 9.3071094 7.5919688 10.215984 8.9179688 10.083984C10.469969 9.9299844 11.589844 8.3984375 11.589844 8.3984375C11.589844 8.3984375 10.190672 7.1194375 8.6386719 7.2734375C7.7546719 7.3614375 7.0209219 7.8929375 6.5449219 8.3359375C6.8729219 7.7749375 7.2260469 6.9492188 7.1230469 6.0742188C6.9390469 4.5252187 5.3886719 3.4375 5.3886719 3.4375 z M 24.611328 3.4375C24.611328 3.4375 23.060953 4.5271719 22.876953 6.0761719C22.772953 6.9511719 23.126078 7.7749375 23.455078 8.3359375C22.979078 7.8919375 22.245328 7.3614375 21.361328 7.2734375C19.809328 7.1194375 18.410156 8.4003906 18.410156 8.4003906C18.410156 8.4003906 19.530031 9.9319375 21.082031 10.085938C22.407031 10.217937 23.612453 9.3071094 23.939453 9.0371094C23.940453 9.0381094 23.947266 9.0488281 23.947266 9.0488281C23.947266 9.0488281 25.497641 7.9572031 25.681641 6.4082031C25.865641 4.8582031 24.611328 3.4375 24.611328 3.4375 z M 2.3554688 9.2753906C2.3554688 9.2753906 1.5865625 11.008641 2.2265625 12.431641C2.8665625 13.854641 4.671875 14.427734 4.671875 14.427734C4.671875 14.427734 4.6786875 14.411203 4.6796875 14.408203C5.0856875 14.532203 6.54675 14.906391 7.71875 14.275391C9.09175 13.535391 9.5351562 11.693359 9.5351562 11.693359C9.5351562 11.693359 7.7529063 11.049062 6.3789062 11.789062C5.7149063 12.147063 5.2722813 12.761734 4.9882812 13.302734C5.0892812 12.703734 5.1097344 11.955437 4.8027344 11.273438C4.1637344 9.8504375 2.3554688 9.2753906 2.3554688 9.2753906 z M 27.644531 9.2753906C27.644531 9.2753906 25.836266 9.8504375 25.197266 11.273438C24.891266 11.954437 24.911719 12.703734 25.011719 13.302734C24.727719 12.761734 24.285094 12.147062 23.621094 11.789062C22.247094 11.049062 20.464844 11.693359 20.464844 11.693359C20.464844 11.693359 20.90825 13.537344 22.28125 14.277344C23.45325 14.908344 24.914312 14.534156 25.320312 14.410156C25.321313 14.413156 25.328125 14.429688 25.328125 14.429688C25.328125 14.429688 27.134438 13.854641 27.773438 12.431641C28.413438 11.008641 27.644531 9.2753906 27.644531 9.2753906 z M 8.8496094 15.027344C8.8496094 15.027344 6.9976094 15.42625 6.2246094 16.78125C5.8516094 17.43425 5.8017031 18.188875 5.8457031 18.796875C5.6167031 18.233875 5.2390937 17.586969 4.6210938 17.167969C3.3290938 16.292969 1.4902344 16.753906 1.4902344 16.753906C1.4902344 16.753906 1.7451094 18.631859 3.0371094 19.505859C4.3291094 20.380859 6.1699219 19.921875 6.1699219 19.921875C6.1699219 19.921875 6.1670156 19.906297 6.1660156 19.904297C6.5710156 19.796297 8.0157344 19.341641 8.6777344 18.181641C9.4497344 16.826641 8.8496094 15.027344 8.8496094 15.027344 z M 21.150391 15.027344C21.150391 15.027344 20.551219 16.826641 21.324219 18.181641C21.986219 19.341641 23.430937 19.79725 23.835938 19.90625C23.835938 19.90825 23.832031 19.921875 23.832031 19.921875C23.832031 19.921875 25.672844 20.382813 26.964844 19.507812C28.256844 18.632812 28.511719 16.753906 28.511719 16.753906C28.511719 16.753906 26.669906 16.292969 25.378906 17.167969C24.760906 17.586969 24.38425 18.233875 24.15625 18.796875C24.20125 18.188875 24.150344 17.43425 23.777344 16.78125C23.004344 15.42625 21.150391 15.027344 21.150391 15.027344 z M 10.337891 18.720703C10.337891 18.720703 8.6068594 19.493516 8.1308594 20.978516C7.8598594 21.824516 8.0544844 22.707313 8.2714844 23.320312C7.8874844 22.796312 7.2736875 22.143625 6.4296875 21.890625C4.9356875 21.442625 3.3183594 22.431641 3.3183594 22.431641C3.3183594 22.431641 4.1231875 24.147703 5.6171875 24.595703C6.9170933 24.985501 8.2459262 24.320774 8.5859375 24.132812C9.2515589 24.825823 10.047155 25.291313 10.898438 25.607422C10.606884 25.832984 10.348941 26.103918 10.164062 26.453125 A 1 1 0 0 0 10.099609 26.568359C10.096718 26.574588 10.092694 26.579667 10.089844 26.585938 A 1 1 0 0 0 10 27 A 1 1 0 0 0 11 28 A 1 1 0 0 0 11.910156 27.414062C12.006536 27.202002 12.271506 26.994148 12.939453 26.804688C13.470332 26.654105 14.207742 26.551108 15 26.445312C15.792258 26.551108 16.529668 26.654105 17.060547 26.804688C17.728494 26.994149 17.99346 27.202002 18.089844 27.414062L18.091797 27.414062 A 1 1 0 0 0 19 28 A 1 1 0 0 0 20 27 A 1 1 0 0 0 19.908203 26.585938L19.910156 26.585938C19.907306 26.579667 19.903282 26.574588 19.900391 26.568359 A 1 1 0 0 0 19.833984 26.447266C19.649368 26.100573 19.391613 25.831822 19.101562 25.607422C19.952845 25.291313 20.748441 24.825823 21.414062 24.132812C21.751893 24.319745 23.081305 24.987934 24.382812 24.597656C25.876812 24.149656 26.683594 22.433594 26.683594 22.433594C26.683594 22.433594 25.066266 21.444578 23.572266 21.892578C22.728266 22.145578 22.112516 22.798266 21.728516 23.322266C21.945516 22.709266 22.140141 21.823516 21.869141 20.978516C21.393141 19.492516 19.662109 18.720703 19.662109 18.720703C19.662109 18.720703 18.704641 20.356797 19.181641 21.841797C19.315879 22.260013 19.551252 22.614763 19.816406 22.917969C19.816406 22.917969 19.814453 22.919922 19.814453 22.919922C18.794917 23.807103 17.112636 24.142439 15.337891 24.378906C15.224286 24.394043 15.113382 24.409161 15 24.423828C14.886618 24.409161 14.775714 24.394043 14.662109 24.378906C12.887363 24.142439 11.20313 23.80515 10.183594 22.917969C10.449233 22.614487 10.686207 22.258676 10.820312 21.839844C11.296312 20.355844 10.337891 18.720703 10.337891 18.720703 z" />
</svg>