<svg xmlns="http://www.w3.org/2000/svg" viewBox="0 0 30 30">
  <path d="M15 5C6 5 0.19726562 14.408203 0.19726562 14.408203L0.19726562 14.435547C0.082350414 14.598369 0 14.7857 0 15C0 15.192109 0.068085697 15.361256 0.16210938 15.513672L0.16210938 15.544922C0.16110937 15.544922 5 25 15 25C25 25 29.837891 15.544922 29.837891 15.544922L29.837891 15.513672C29.931914 15.361256 30 15.192109 30 15C30 14.7857 29.91765 14.598369 29.802734 14.435547L29.802734 14.408203C29.802734 14.408203 24 5 15 5 z M 15 8C18.866 8 22 11.134 22 15C22 18.866 18.866 22 15 22C11.134 22 8 18.866 8 15C8 11.134 11.134 8 15 8 z M 15 12C13.343 12 12 13.343 12 15C12 16.657 13.343 18 15 18C16.657 18 18 16.657 18 15C18 13.343 16.657 12 15 12 z" />
</svg>