<svg id="Слой_1" data-name="Слой 1" xmlns="http://www.w3.org/2000/svg" viewBox="0 0 464 464"><title>fairs-without-inner</title><path d="M232,0C104.07,0,0,104.08,0,232S104.07,464,232,464,464,359.92,464,232,359.93,0,232,0Zm0,16c119.1,0,216,96.9,216,216S351.1,448,232,448,16,351.1,16,232,112.9,16,232,16Zm0,80c-17.64,0-32,14-32,31.28S221.34,184,232,184s32-39.45,32-56.72S249.64,96,232,96Zm0,16c8.82,0,16,6.85,16,15.28s-9,27.2-16,36.75c-7-9.55-16-28.5-16-36.75S223.18,112,232,112Zm-73.33,14.33a32.25,32.25,0,0,0-22.84,9.5c-12.47,12.47-12.7,32.55-.5,44.75,9.68,9.68,38.67,19.73,54,19.73,4,0,7.12-.68,8.69-2.25,7.54-7.54-5.28-50.53-17.48-62.73a30.81,30.81,0,0,0-21.91-9Zm146.66,0a30.8,30.8,0,0,0-21.91,9c-12.2,12.2-25,55.17-17.48,62.72,1.57,1.57,4.66,2.25,8.69,2.25,15.37,0,44.37-10,54.05-19.72,12.2-12.2,12-32.28-.5-44.75a32.24,32.24,0,0,0-22.84-9.52Zm-146.66,16a14.84,14.84,0,0,1,10.59,4.31c5.82,5.82,12.82,25.54,14.66,37.23-13.16-1.9-32.23-9.56-37.28-14.61-6-6-5.74-15.88.5-22.12A16.26,16.26,0,0,1,158.67,142.33Zm146.66,0a16.24,16.24,0,0,1,11.53,4.83c6.24,6.24,6.46,16.16.5,22.12-5.05,5.05-24.12,12.68-37.28,14.59,1.83-11.7,8.83-31.4,14.66-37.22a14.79,14.79,0,0,1,10.59-4.33ZM127.28,200C110,200,96,214.36,96,232s14,32,31.28,32S184,242.66,184,232,144.54,200,127.28,200ZM232,200a32,32,0,1,0,32,32,32,32,0,0,0-32-32Zm104.72,0C319.46,200,280,221.34,280,232s39.45,32,56.72,32S368,249.64,368,232,354,200,336.72,200ZM127.28,216c8.25,0,27.2,9,36.75,16-9.55,7-28.5,16-36.75,16S112,240.82,112,232,118.85,216,127.28,216ZM232,216a16,16,0,1,1-16,16A16,16,0,0,1,232,216Zm104.72,0c8.43,0,15.28,7.18,15.28,16s-6.85,16-15.28,16-27.2-9-36.75-16C309.52,225,328.47,216,336.72,216ZM189.39,263.69c-15.38,0-44.37,10.06-54,19.73-12.2,12.2-12,32.28.5,44.75a32.26,32.26,0,0,0,22.84,9.5,30.4,30.4,0,0,0,21.91-9c12.21-12.21,25-55.17,17.47-62.72-1.57-1.56-4.65-2.25-8.67-2.25Zm85.22,0c-4,0-7.1.68-8.67,2.25-7.54,7.54,5.26,50.53,17.47,62.73a30.83,30.83,0,0,0,21.91,9,32.67,32.67,0,0,0,22.84-9.52c12.47-12.47,12.7-32.55.5-44.75C319,273.74,290,263.69,274.61,263.69ZM232,280c-10.66,0-32,39.46-32,56.72S214.36,368,232,368s32-14,32-31.28S242.66,280,232,280Zm-48.08.12c-1.83,11.7-8.83,31.41-14.66,37.23a14.86,14.86,0,0,1-10.59,4.31,16.24,16.24,0,0,1-11.53-4.83c-6.24-6.24-6.46-16.16-.5-22.12,5.05-5,24.12-12.68,37.28-14.59Zm96.16,0c13.16,1.9,32.23,9.56,37.28,14.61,6,6,5.74,15.89-.5,22.12a16.22,16.22,0,0,1-11.53,4.83,14.82,14.82,0,0,1-10.59-4.33c-5.82-5.82-12.82-25.53-14.66-37.23ZM232,300c7,9.55,16,28.5,16,36.75S240.82,352,232,352s-16-6.85-16-15.28S225,309.51,232,300Z"/></svg>