
<svg xmlns="http://www.w3.org/2000/svg" viewBox="0 0 464 464"><path d="M232,0C104.07,0,0,104.08,0,232s104.07,232,232,232,232-104.08,232-232S359.93,0,232,0Zm0,16c119.1,0,216,96.9,216,216s-96.9,216-216,216S16,351.1,16,232,112.9,16,232,16Zm-31.8,21.45c-8.25,.43-16.24,3.88-22.38,10.02l-8.73,8.73c-3.36,3.36-8.04,5.28-12.84,5.28h-12.33c-13.9,0-26.28,8.27-31.56,21.05l-4.8,11.42c-1.83,4.49-5.32,7.98-9.86,9.83l-11.34,4.75c-12.8,5.3-21.08,17.71-21.08,31.59v12.33c0,4.87-1.89,9.45-5.33,12.89l-8.69,8.67c-9.81,9.82-12.73,24.4-7.45,37.16l4.7,11.41c1.84,4.51,1.83,9.49,0,13.98l-4.69,11.42c-5.3,12.82-2.41,27.42,7.39,37.22l8.67,8.69c3.47,3.48,5.39,8.03,5.39,12.83v12.27c-.07,9.1,3.49,17.72,10.02,24.25,3.19,3.2,6.9,5.69,11.06,7.41l11.33,4.66c2.28,.98,4.34,2.34,5.95,3.97,1.62,1.62,2.98,3.66,3.95,5.88l4.67,11.39c1.72,4.16,4.23,7.9,7.45,11.12,6.42,6.43,14.92,9.95,23.84,9.95h.27l12.38,.06h.03c4.41,0,7.98-3.55,8-7.95,.02-4.42-3.55-8.01-7.97-8.03l-12.47-.06c-4.8,.19-9.33-1.83-12.77-5.27-1.73-1.72-3.07-3.72-3.97-5.89l-4.72-11.56c-1.86-4.23-4.35-7.92-7.39-10.95-3.08-3.09-6.77-5.55-11.06-7.39l-11.42-4.7c-2.19-.9-4.16-2.23-5.86-3.92-3.48-3.47-5.36-8.03-5.33-12.88v-12.33c0-9.07-3.58-17.64-10.08-24.14l-8.67-8.69c-5.2-5.21-6.75-12.96-3.92-19.8l4.72-11.47c3.44-8.42,3.43-17.68-.02-26.12l-4.7-11.44c-2.8-6.77-1.23-14.52,3.98-19.73l8.67-8.69c6.46-6.46,10.02-15.05,10.02-24.2v-12.31c0-7.4,4.4-14,11.23-16.83l11.3-4.73c8.37-3.42,15.13-10.19,18.53-18.5l4.78-11.41c2.81-6.79,9.4-11.19,16.8-11.19h12.33c9.01,0,17.82-3.63,24.16-9.97l8.72-8.73c5.23-5.22,12.98-6.8,19.75-3.98l11.36,4.69c8.38,3.53,17.66,3.55,26.16,.08l11.47-4.72c6.78-2.85,14.54-1.3,19.77,3.92l8.69,8.69c6.46,6.46,15.05,10.02,24.2,10.02h12.33c4.79,0,9.48,1.94,12.88,5.33,1.58,1.58,2.95,3.65,3.91,5.84l4.69,11.38c1.66,4.13,4.17,7.88,7.42,11.12,3.22,3.23,6.96,5.73,11.12,7.45l11.25,4.62c2.44,1.08,4.41,2.38,6.02,3.98,3.41,3.39,5.3,8,5.34,12.89v12.33c0,9.01,3.62,17.8,9.95,24.14l8.73,8.73c5.22,5.23,6.77,12.98,3.92,19.81l-4.67,11.38c-3.49,8.28-3.47,17.84,.05,26.2,1.71,4.08,6.4,5.96,10.48,4.27,4.07-1.72,5.98-6.41,4.27-10.48-1.86-4.42-1.88-9.44-.03-13.84l4.69-11.39c5.34-12.79,2.45-27.42-7.38-37.25l-8.73-8.73c-3.36-3.35-5.28-8.03-5.28-12.83v-12.39c-.06-9.18-3.62-17.76-10.02-24.16-3-2.99-6.66-5.45-11.06-7.39l-11.42-4.69c-2.19-.9-4.19-2.24-5.92-3.98-1.73-1.72-3.03-3.68-3.91-5.84l-4.78-11.58c-1.85-4.22-4.32-7.89-7.33-10.91-6.37-6.37-15.18-10.02-24.19-10.02h-12.33c-4.88,0-9.45-1.89-12.89-5.33l-8.67-8.69c-9.83-9.84-24.46-12.72-37.22-7.39l-11.39,4.69c-4.53,1.84-9.47,1.84-13.94-.05l-11.42-4.69c-4.79-1.99-9.83-2.82-14.78-2.56Zm31.8,58.55c-17.64,0-32,14.03-32,31.28s21.34,56.72,32,56.72,32-39.45,32-56.72-14.36-31.28-32-31.28Zm0,16c8.82,0,16,6.85,16,15.28s-9.02,27.2-16,36.75c-6.98-9.55-16-28.5-16-36.75s7.18-15.28,16-15.28Zm-73.33,14.33c-8.22,0-16.52,3.17-22.84,9.5-12.47,12.47-12.7,32.55-.5,44.75,9.68,9.68,38.67,19.73,54.05,19.73,4.02,0,7.12-.68,8.69-2.25,7.54-7.54-5.28-50.53-17.48-62.73-6.01-6.01-13.92-9-21.91-9Zm146.66,0c-7.98,0-15.9,3-21.91,9.02-12.2,12.2-25.03,55.17-17.48,62.72,1.57,1.57,4.66,2.25,8.69,2.25,15.37,0,44.37-10.04,54.05-19.72,12.2-12.2,11.98-32.28-.5-44.75-6.33-6.34-14.62-9.52-22.84-9.52Zm-146.66,16c4.05,0,7.81,1.53,10.59,4.31,5.82,5.82,12.82,25.54,14.66,37.23-13.16-1.9-32.23-9.56-37.28-14.61-5.96-5.96-5.74-15.88,.5-22.12,3.11-3.1,7.21-4.81,11.53-4.81Zm146.66,0c4.32,0,8.42,1.72,11.53,4.83,6.24,6.24,6.46,16.16,.5,22.12-5.05,5.05-24.12,12.68-37.28,14.59,1.83-11.7,8.83-31.4,14.66-37.22,2.78-2.8,6.55-4.33,10.59-4.33Zm-178.05,57.67c-17.26,0-31.28,14.36-31.28,32s14.03,32,31.28,32,56.72-21.34,56.72-32-39.46-32-56.72-32Zm104.72,0c-17.65,0-32,14.35-32,32s14.35,32,32,32,32-14.35,32-32-14.35-32-32-32Zm104.72,0c-17.26,0-56.72,21.34-56.72,32s39.45,32,56.72,32,31.28-14.36,31.28-32-14.03-32-31.28-32Zm-209.44,16c8.25,0,27.2,9.02,36.75,16-9.55,6.98-28.5,16-36.75,16s-15.28-7.18-15.28-16,6.85-16,15.28-16Zm104.72,0c8.82,0,16,7.18,16,16s-7.18,16-16,16-16-7.18-16-16,7.18-16,16-16Zm104.72,0c8.43,0,15.28,7.18,15.28,16s-6.85,16-15.28,16-27.2-9.02-36.75-16c9.55-6.98,28.5-16,36.75-16Zm-147.33,47.69c-15.38,0-44.37,10.06-54.05,19.73-12.2,12.2-11.98,32.28,.5,44.75,6.33,6.33,14.62,9.5,22.84,9.5s15.9-3,21.91-9.02c12.21-12.21,25.01-55.17,17.47-62.72-1.57-1.56-4.65-2.25-8.67-2.25Zm85.22,0c-4.02,0-7.1,.68-8.67,2.25-7.54,7.54,5.26,50.53,17.47,62.73,6.01,6.01,13.92,9.02,21.91,9.02s16.52-3.19,22.84-9.52c12.47-12.47,12.7-32.55,.5-44.75-9.66-9.68-38.67-19.73-54.05-19.73Zm135.2,7.78c-2.05,0-4.1,.78-5.66,2.34l-8.73,8.73c-6.42,6.42-9.95,15-9.95,24.11l-.06,12.39c-.02,4.42,3.55,8.01,7.97,8.03h.03c4.41,0,7.98-3.55,8-7.95l.06-12.42c0-4.87,1.87-9.44,5.27-12.84l8.73-8.73c3.13-3.13,3.13-8.18,0-11.31-1.56-1.56-3.61-2.34-5.66-2.34Zm-177.81,8.53c-10.66,0-32,39.46-32,56.72s14.36,31.28,32,31.28,32-14.03,32-31.28-21.34-56.72-32-56.72Zm-48.08,.12c-1.83,11.7-8.83,31.41-14.66,37.23-2.78,2.78-6.55,4.31-10.59,4.31-4.32,0-8.42-1.72-11.53-4.83-6.24-6.24-6.46-16.16-.5-22.12,5.05-5.04,24.12-12.68,37.28-14.59Zm96.16,0c13.16,1.9,32.23,9.56,37.28,14.61,5.96,5.96,5.74,15.89-.5,22.12-3.11,3.11-7.2,4.83-11.53,4.83-4.05,0-7.81-1.54-10.59-4.33-5.82-5.82-12.82-25.53-14.66-37.23Zm-48.08,19.84c6.98,9.55,16,28.5,16,36.75s-7.18,15.28-16,15.28-16-6.85-16-15.28,9.02-27.2,16-36.75Zm133.91,39.95c-1.04,0-2.11,.21-3.12,.64-8.36,3.53-14.91,10.08-18.45,18.5l-4.69,11.39c-2.85,6.81-9.45,11.2-16.83,11.2h-12.31c-9.14,0-17.75,3.57-24.2,10.03l-8.67,8.67c-5.22,5.22-12.99,6.75-19.81,3.92l-11.42-4.7c-4.1-1.66-8.77,.26-10.45,4.34-1.68,4.09,.28,8.77,4.36,10.45l11.39,4.69c4.26,1.78,8.72,2.64,13.14,2.64,8.86,0,17.55-3.47,24.11-10.02l8.67-8.69c3.44-3.44,8.02-5.33,12.89-5.33l12.33-.02c13.86,0,26.24-8.25,31.59-21.08l4.69-11.38c1.9-4.49,5.41-8,9.91-9.91,4.07-1.72,5.97-6.41,4.25-10.48-1.29-3.05-4.24-4.89-7.36-4.89Zm-182.5,58.17c-2.05,0-4.09,.78-5.66,2.34-3.13,3.13-3.13,8.18,0,11.31,6.55,6.54,15.24,10,24.11,10,4.41,0,8.86-.85,13.12-2.61,4.08-1.69,6.02-6.37,4.33-10.45-1.7-4.09-6.38-6.02-10.45-4.33-6.7,2.78-14.68,1.21-19.8-3.92-1.56-1.56-3.61-2.34-5.66-2.34Z"/></svg>