<svg id="Слой_1" data-name="Слой 1" xmlns="http://www.w3.org/2000/svg" viewBox="0 0 209.19 202.18"><defs><style>.cls-1{fill:none;stroke:#000;stroke-linecap:round;stroke-linejoin:round;}</style></defs><title>frame</title><polyline class="cls-1" points="2.79 96.28 2.79 41.66 5.55 41.66"/><polyline class="cls-1" points="40.51 5.58 40.51 2.83 99.93 2.83"/><rect class="cls-1" x="2.79" y="2.83" width="8.53" height="8.53"/><rect class="cls-1" x="5.55" y="5.58" width="5.77" height="5.77"/><path class="cls-1" d="M439.75,293.88H419.1v20.65h0a20.64,20.64,0,0,1,20.65-20.65Z" transform="translate(-407.77 -282.52)"/><line class="cls-1" x1="15.48" y1="19.59" x2="15.48" y2="7.09"/><line class="cls-1" x1="19.13" y1="15.85" x2="7.06" y2="15.85"/><polyline class="cls-1" points="7.06 15.85 2.79 15.85 2.79 32.01"/><polyline class="cls-1" points="15.48 7.09 15.48 2.83 44.88 2.83"/><polyline class="cls-1" points="2.79 41.66 2.79 32.01 5.77 32.01 5.77 18.88 8.52 18.88 8.52 32.01"/><polyline class="cls-1" points="31.98 2.83 31.98 5.58 18.4 5.58 18.4 8.55 31.98 8.55"/><path class="cls-1" d="M448.28,288.1h-5.77v8.53h-2.33A18.33,18.33,0,0,0,421.85,315v2.32h-8.53v6.9" transform="translate(-407.77 -282.52)"/><polyline class="cls-1" points="206.37 96.28 206.37 41.66 203.61 41.66"/><polyline class="cls-1" points="168.65 5.58 168.65 2.83 109.23 2.83"/><rect class="cls-1" x="605.61" y="285.35" width="8.53" height="8.53" transform="translate(811.97 296.7) rotate(180)"/><rect class="cls-1" x="605.61" y="288.1" width="5.77" height="5.77" transform="translate(809.22 299.46) rotate(180)"/><path class="cls-1" d="M585,293.88h20.66v20.65h0A20.65,20.65,0,0,0,585,293.88Z" transform="translate(-407.77 -282.52)"/><line class="cls-1" x1="193.68" y1="19.59" x2="193.68" y2="7.09"/><line class="cls-1" x1="190.04" y1="15.85" x2="202.1" y2="15.85"/><polyline class="cls-1" points="202.1 15.85 206.37 15.85 206.37 32.01"/><polyline class="cls-1" points="193.68 7.09 193.68 2.83 164.28 2.83"/><polyline class="cls-1" points="206.37 41.66 206.37 32.01 203.39 32.01 203.39 18.88 200.64 18.88 200.64 32.01"/><polyline class="cls-1" points="177.18 2.83 177.18 5.58 190.76 5.58 190.76 8.55 177.18 8.55"/><path class="cls-1" d="M576.43,288.1h5.77v8.53h2.32A18.33,18.33,0,0,1,602.85,315v2.32h8.53v6.9" transform="translate(-407.77 -282.52)"/><rect class="cls-1" x="102.25" y="0.5" width="4.65" height="4.65"/><rect class="cls-1" x="99.93" y="1.66" width="2.33" height="2.33"/><rect class="cls-1" x="106.91" y="1.66" width="2.33" height="2.33"/><polyline class="cls-1" points="2.79 105.9 2.79 160.52 5.55 160.52"/><polyline class="cls-1" points="40.51 196.6 40.51 199.36 99.93 199.36"/><rect class="cls-1" x="2.79" y="190.83" width="8.53" height="8.53"/><rect class="cls-1" x="5.55" y="190.83" width="5.77" height="5.77"/><path class="cls-1" d="M439.75,473.35H419.1V452.7h0a20.65,20.65,0,0,0,20.65,20.65Z" transform="translate(-407.77 -282.52)"/><line class="cls-1" x1="15.48" y1="182.6" x2="15.48" y2="195.09"/><line class="cls-1" x1="19.13" y1="186.34" x2="7.06" y2="186.34"/><polyline class="cls-1" points="7.06 186.34 2.79 186.34 2.79 170.18"/><polyline class="cls-1" points="15.48 195.09 15.48 199.36 44.88 199.36"/><polyline class="cls-1" points="2.79 160.52 2.79 170.18 5.77 170.18 5.77 183.31 8.52 183.31 8.52 170.18"/><polyline class="cls-1" points="31.98 199.36 31.98 196.6 18.4 196.6 18.4 193.63 31.98 193.63"/><path class="cls-1" d="M448.28,479.12h-5.77v-8.53h-2.33a18.33,18.33,0,0,1-18.33-18.32v-2.33h-8.53V443" transform="translate(-407.77 -282.52)"/><polyline class="cls-1" points="206.37 105.9 206.37 160.52 203.61 160.52"/><polyline class="cls-1" points="168.65 196.6 168.65 199.36 109.23 199.36"/><rect class="cls-1" x="605.61" y="473.35" width="8.53" height="8.53" transform="translate(811.97 672.71) rotate(180)"/><rect class="cls-1" x="605.61" y="473.35" width="5.77" height="5.77" transform="translate(809.22 669.95) rotate(180)"/><path class="cls-1" d="M585,473.35h20.66V452.7h0A20.66,20.66,0,0,1,585,473.35Z" transform="translate(-407.77 -282.52)"/><line class="cls-1" x1="193.68" y1="182.6" x2="193.68" y2="195.09"/><line class="cls-1" x1="190.04" y1="186.34" x2="202.1" y2="186.34"/><polyline class="cls-1" points="202.1 186.34 206.37 186.34 206.37 170.18"/><polyline class="cls-1" points="193.68 195.09 193.68 199.36 164.28 199.36"/><polyline class="cls-1" points="206.37 160.52 206.37 170.18 203.39 170.18 203.39 183.31 200.64 183.31 200.64 170.18"/><polyline class="cls-1" points="177.18 199.36 177.18 196.6 190.76 196.6 190.76 193.63 177.18 193.63"/><path class="cls-1" d="M576.43,479.12h5.77v-8.53h2.32a18.32,18.32,0,0,0,18.33-18.32v-2.33h8.53V443" transform="translate(-407.77 -282.52)"/><rect class="cls-1" x="102.25" y="197.03" width="4.65" height="4.65"/><rect class="cls-1" x="99.93" y="198.19" width="2.33" height="2.33"/><rect class="cls-1" x="106.91" y="198.19" width="2.33" height="2.33"/><rect class="cls-1" x="408.27" y="381.29" width="4.65" height="4.65" transform="translate(386.44 -309.51) rotate(90)"/><rect class="cls-1" x="409.43" y="378.96" width="2.33" height="2.33" transform="translate(382.95 -312.99) rotate(90)"/><rect class="cls-1" x="409.43" y="385.94" width="2.33" height="2.33" transform="translate(389.93 -306.02) rotate(90)"/><rect class="cls-1" x="611.81" y="381.29" width="4.65" height="4.65" transform="translate(589.98 -513.05) rotate(90)"/><rect class="cls-1" x="612.97" y="378.96" width="2.33" height="2.33" transform="translate(586.49 -516.53) rotate(90)"/><rect class="cls-1" x="612.97" y="385.94" width="2.33" height="2.33" transform="translate(593.47 -509.56) rotate(90)"/></svg>