<svg xmlns="http://www.w3.org/2000/svg" viewBox="0 0 48 48">
  <path d="M11.5 6C8.462 6 6 8.462 6 11.5L6 29.402344L13.505859 22.142578C15.028859 20.668578 17.612812 20.670578 19.132812 22.142578L25.310547 28.119141L27.359375 26.138672C28.877375 24.670672 31.470328 24.670672 32.986328 26.138672L42 34.857422L42 11.5C42 8.462 39.538 6 36.5 6L11.5 6 z M 30.5 13C32.981 13 35 15.019 35 17.5C35 19.981 32.981 22 30.5 22C28.019 22 26 19.981 26 17.5C26 15.019 28.019 13 30.5 13 z M 30.5 16 A 1.5 1.5 0 0 0 30.5 19 A 1.5 1.5 0 0 0 30.5 16 z M 16.318359 24.009766C16.053859 24.009766 15.790297 24.106328 15.591797 24.298828L6 33.576172L6 36.5C6 39.365 8.1922344 41.717609 10.990234 41.974609L23.154297 30.207031L17.046875 24.298828C16.848375 24.106328 16.582859 24.009766 16.318359 24.009766 z M 30.173828 28.009766C29.908203 28.009766 29.643266 28.104922 29.447266 28.294922L15.277344 42L36.5 42C38.786 42 40.744219 40.604141 41.574219 38.619141L30.902344 28.294922C30.705844 28.104922 30.439453 28.009766 30.173828 28.009766 z"/>
</svg>