<svg xmlns="http://www.w3.org/2000/svg" viewBox="0 0 24 24">
  <path d="M15.634,3.634l-3.069-3.069c-0.312-0.312-0.819-0.312-1.131,0L8.366,3.634C7.862,4.138,8.219,5,8.931,5h6.137 C15.781,5,16.138,4.138,15.634,3.634z" fill="#FFFFFF" />
  <path d="M12,9c-0.828,0-1.5-0.671-1.5-1.5v-4C10.5,2.671,11.172,2,12,2s1.5,0.671,1.5,1.5v4C13.5,8.329,12.828,9,12,9z" fill="#FFFFFF" />
  <path d="M8.366,20.366l3.069,3.069c0.312,0.312,0.819,0.312,1.131,0l3.069-3.069C16.138,19.862,15.781,19,15.069,19H8.931 C8.219,19,7.862,19.862,8.366,20.366z" fill="#FFFFFF" />
  <path d="M12,22c-0.828,0-1.5-0.671-1.5-1.5v-4c0-0.829,0.672-1.5,1.5-1.5s1.5,0.671,1.5,1.5v4C13.5,21.329,12.828,22,12,22z" fill="#FFFFFF" />
  <path d="M7.5,10.5H5V8.931c0-0.713-0.862-1.07-1.366-0.566l-3.069,3.069c-0.312,0.312-0.312,0.819,0,1.131 l3.069,3.069C4.138,16.138,5,15.781,5,15.069V13.5h2.5C8.328,13.5,9,12.829,9,12S8.328,10.5,7.5,10.5z" opacity=".35" fill="#FFFFFF" />
  <path d="M23.434,11.434l-3.069-3.069C19.862,7.862,19,8.219,19,8.931V10.5h-2.5c-0.828,0-1.5,0.671-1.5,1.5 s0.672,1.5,1.5,1.5H19v1.569c0,0.713,0.862,1.07,1.366,0.566l3.069-3.069C23.747,12.253,23.747,11.747,23.434,11.434z" opacity=".35" fill="#FFFFFF" />
</svg>