
<svg xmlns="http://www.w3.org/2000/svg" width="512">
  <path d="M14 21C9.6 21 6 24.6 6 29L6 94C6 95.7 7.3 97 9 97C10.7 97 12 95.7 12 94L12 87L21 87L21 101L19 101C17.3 101 16 102.3 16 104C16 105.7 17.3 107 19 107L114 107C118.4 107 122 103.4 122 99L122 29C122 24.6 118.4 21 114 21L14 21 z M 14 27L21 27L21 41L12 41L12 29C12 27.9 12.9 27 14 27 z M 37 27L91 27C96.5 27 101 31.5 101 37L101 91C101 96.5 96.5 101 91 101L37 101C31.5 101 27 96.5 27 91L27 37C27 31.5 31.5 27 37 27 z M 107 27L114 27C115.1 27 116 27.9 116 29L116 41L107 41L107 27 z M 12 47L21 47L21 61L12 61L12 47 z M 107 47L116 47L116 61L107 61L107 47 z M 55.753906 51.876953C54.207031 51.900391 52.800781 53.175391 52.800781 54.900391L52.800781 73.099609C52.800781 75.399609 55.300781 76.899219 57.300781 75.699219L73.099609 66.599609C75.099609 65.399609 75.099609 62.600391 73.099609 61.400391L57.300781 52.300781C56.800781 52.000781 56.269531 51.869141 55.753906 51.876953 z M 12 67L21 67L21 81L12 81L12 67 z M 107 67L116 67L116 81L107 81L107 67 z M 107 87L116 87L116 99C116 100.1 115.1 101 114 101L107 101L107 87 z" />
</svg>