<?xml version="1.0" encoding="utf-8"?>
<svg xmlns="http://www.w3.org/2000/svg" viewBox="0 0 64 64" width="512" height="512">
  <path d="M32.730469 3.4570312C32.426297 3.4156406 32.113672 3.5159844 31.888672 3.7402344L23.402344 12.226562C18.637344 16.991563 16.776828 23.747781 18.423828 30.300781C18.487828 30.557781 18.412969 30.805281 18.167969 30.988281C12.267969 35.413281 7.6644687 41.357734 4.8554688 48.177734L4.6445312 48.689453C3.4725313 47.845453 1.8283906 47.941141 0.77539062 48.994141C-0.39360938 50.164141 -0.39360938 52.068281 0.77539062 53.238281L9.2617188 61.722656C9.8467188 62.306656 10.614812 62.599609 11.382812 62.599609C12.151813 62.599609 12.918906 62.307656 13.503906 61.722656C14.556906 60.668656 14.651594 59.025516 13.808594 57.853516L14.320312 57.642578C21.140312 54.833578 27.085734 50.229437 31.552734 44.273438C31.693734 44.084437 31.939266 44.007266 32.197266 44.072266C38.751266 45.719266 45.508437 43.85775 50.273438 39.09375L63.707031 25.658203C63.996031 25.373203 64.081828 24.941406 63.923828 24.566406C63.767828 24.195406 63.403953 23.953125 63.001953 23.953125L62.990234 23.953125L49.613281 24.095703C49.448281 24.003703 49.263313 23.962609 49.070312 23.974609L49.232422 20.445312C49.245422 20.166313 49.141312 19.895266 48.945312 19.697266C48.749313 19.498266 48.472219 19.384391 48.199219 19.400391L37.052734 19.792969L37.357422 11.804688C37.367422 11.531688 37.264219 11.264359 37.074219 11.068359C36.884219 10.872359 36.603656 10.746625 36.347656 10.765625L32.898438 10.798828L33.589844 4.5585938C33.635844 4.1365938 33.410344 3.730875 33.027344 3.546875C32.931594 3.500875 32.831859 3.4708281 32.730469 3.4570312 z M 31.291016 7.171875L30.789062 11.699219C30.758063 11.984219 30.850016 12.268469 31.041016 12.480469C31.232016 12.692469 31.523969 12.798547 31.792969 12.810547L35.320312 12.777344L35.015625 20.792969C35.005625 21.070969 35.111594 21.340109 35.308594 21.537109C35.505594 21.734109 35.776781 21.840078 36.050781 21.830078L47.1875 21.439453L47.039062 24.693359L42.037109 26.617188L38.960938 23.539062C38.708937 23.287063 38.341094 23.18825 37.996094 23.28125C37.652094 23.37225 37.381109 23.640375 37.287109 23.984375L35.398438 30.910156L31.935547 30.414062L30.716797 26.757812C30.542797 26.234813 29.978172 25.951953 29.451172 26.126953C28.927172 26.301953 28.643359 26.866625 28.818359 27.390625L29.958984 30.810547L27.90625 31.837891C27.41225 32.084891 27.211984 32.685688 27.458984 33.179688C27.633984 33.530687 27.987469 33.732422 28.355469 33.732422C28.505469 33.732422 28.657781 33.699906 28.800781 33.628906L31.351562 32.353516L35.990234 33.015625C36.035234 33.021625 36.079047 33.024391 36.123047 33.025391C36.126047 33.025391 36.129813 33.027344 36.132812 33.027344C36.248812 33.027344 36.36175 33.003844 36.46875 32.964844C36.50475 32.951844 36.535313 32.929109 36.570312 32.912109C36.636313 32.879109 36.701766 32.846781 36.759766 32.800781C36.793766 32.772781 36.819609 32.737078 36.849609 32.705078C36.896609 32.656078 36.942516 32.607828 36.978516 32.548828C37.004516 32.507828 37.020063 32.461016 37.039062 32.416016C37.057063 32.373016 37.084656 32.336062 37.097656 32.289062L38.763672 26.175781L41.080078 28.492188C41.359078 28.771187 41.777484 28.86075 42.146484 28.71875L48.939453 26.105469L60.5625 25.982422L48.859375 37.681641C44.596375 41.944641 38.547547 43.608719 32.685547 42.136719C31.648547 41.875719 30.575156 42.244813 29.910156 43.132812C25.701156 48.744813 20.048547 53.122922 13.560547 55.794922L12.326172 56.302734L6.1992188 50.175781L6.7070312 48.941406C9.3780313 42.453406 13.756781 36.799828 19.425781 32.548828C20.256781 31.924828 20.625234 30.853406 20.365234 29.816406C18.891234 23.951406 20.557312 17.905578 24.820312 13.642578L31.291016 7.171875 z M 16.332031 38.095703C16.076281 38.095828 15.8205 38.193672 15.625 38.388672L14.210938 39.802734C13.819937 40.193734 13.819938 40.825797 14.210938 41.216797C14.405938 41.411797 14.661969 41.509766 14.917969 41.509766C15.173969 41.509766 15.43 41.411797 15.625 41.216797L17.039062 39.802734C17.430062 39.411734 17.430062 38.779672 17.039062 38.388672C16.843563 38.193172 16.587781 38.095578 16.332031 38.095703 z M 19.867188 41.630859C19.611187 41.630859 19.355156 41.728828 19.160156 41.923828L17.746094 43.339844C17.355094 43.730844 17.355094 44.363906 17.746094 44.753906C17.941094 44.948906 18.197125 45.046875 18.453125 45.046875C18.709125 45.046875 18.965156 44.948906 19.160156 44.753906L20.574219 43.337891C20.965219 42.946891 20.965219 42.313828 20.574219 41.923828C20.379219 41.728828 20.123188 41.630859 19.867188 41.630859 z M 23.404297 45.166016C23.148422 45.166016 22.892266 45.265438 22.697266 45.460938L21.28125 46.875C20.89025 47.266 20.89025 47.898063 21.28125 48.289062C21.47625 48.484063 21.732281 48.582031 21.988281 48.582031C22.244281 48.582031 22.500312 48.484063 22.695312 48.289062L24.111328 46.873047C24.502328 46.482047 24.502328 45.851937 24.111328 45.460938C23.915828 45.265438 23.660172 45.166016 23.404297 45.166016 z M 2.8964844 50.117188C3.1527344 50.117063 3.4099687 50.214656 3.6054688 50.410156L12.089844 58.894531C12.479844 59.284531 12.479844 59.918594 12.089844 60.308594C11.700844 60.699594 11.066781 60.699594 10.675781 60.308594L2.1894531 51.824219C1.7994531 51.434219 1.7994531 50.800156 2.1894531 50.410156C2.3839531 50.215156 2.6402344 50.117312 2.8964844 50.117188 z" fill="#FFFFFF" />
</svg>