
<svg xmlns="http://www.w3.org/2000/svg" viewBox="0 0 50 50">
  <path d="M25 5C24.083334 5 23.268559 5.3797556 22.751953 5.9609375C22.235347 6.5421194 22 7.2777779 22 8C22 8.1446819 22.015897 8.2891834 22.035156 8.4335938L5.7050781 19L3 19 A 1.0001 1.0001 0 0 0 2 20L2 44 A 1.0001 1.0001 0 0 0 3 45L47 45 A 1.0001 1.0001 0 0 0 48 44L48 20 A 1.0001 1.0001 0 0 0 47 19L44.294922 19L27.964844 8.4335938C27.984103 8.2891834 28 8.1446819 28 8C28 7.2777779 27.764653 6.5421194 27.248047 5.9609375C26.731441 5.3797556 25.916666 5 25 5 z M 25 7C25.416666 7 25.601893 7.1202444 25.751953 7.2890625C25.902014 7.4578806 26 7.7222221 26 8C26 8.2777779 25.902014 8.5421194 25.751953 8.7109375C25.601893 8.8797556 25.416666 9 25 9C24.583334 9 24.398107 8.8797556 24.248047 8.7109375C24.097986 8.5421194 24 8.2777779 24 8C24 7.7222221 24.097986 7.4578806 24.248047 7.2890625C24.398107 7.1202444 24.583334 7 25 7 z M 22.955078 10.220703C23.470636 10.691636 24.189073 11 25 11C25.810927 11 26.529364 10.691636 27.044922 10.220703L40.613281 19L9.3867188 19L22.955078 10.220703 z M 4 21L5.8730469 21 A 1.0001 1.0001 0 0 0 6.1054688 21L43.894531 21 A 1.0001 1.0001 0 0 0 44.134766 21L46 21L46 43L4 43L4 21 z M 11.5 26C9.5761905 26 8 27.57619 8 29.5L8 34.5C8 36.42381 9.5761905 38 11.5 38C13.42381 38 15 36.42381 15 34.5L15 29.5C15 27.57619 13.42381 26 11.5 26 z M 17 26L17 32L17 34L17 38L19 38L19 34L20 34C22.209804 34 24 32.209804 24 30C24 27.790196 22.209804 26 20 26L17 26 z M 26 26L26 38L32 38L32 36L28 36L28 33L31 33L31 31L28 31L28 28L32 28L32 26L26 26 z M 34 26L34 38L36 38L36 30.480469L38.255859 38L41 38L41 26L39 26L39 33.519531L36.744141 26L34 26 z M 11.5 28C12.37619 28 13 28.62381 13 29.5L13 34.5C13 35.37619 12.37619 36 11.5 36C10.62381 36 10 35.37619 10 34.5L10 29.5C10 28.62381 10.62381 28 11.5 28 z M 19 28L20 28C21.190196 28 22 28.809804 22 30C22 31.190196 21.190196 32 20 32L19 32L19 28 z" />
</svg>