<svg xmlns="http://www.w3.org/2000/svg" viewBox="0 0 100 100">
  <path d="M57.970703 12 A 1.0001 1.0001 0 0 0 57.683594 12.050781L42.835938 17L29 17C27.35503 17 26 18.35503 26 20L26 87L24 87 A 1.0001 1.0001 0 1 0 24 89L30.941406 89L57.888672 91.994141 A 1.0001 1.0001 0 0 0 59 91L59 89L76 89 A 1.0001 1.0001 0 1 0 76 87L74 87L74 20C74 18.35503 72.64497 17 71 17L59 17L59 13 A 1.0001 1.0001 0 0 0 57.970703 12 z M 57 14.388672L57 87.832031 A 1.0001 1.0001 0 0 0 57 88.158203L57 89.882812L32 87.105469L32 22.720703L57 14.388672 z M 29 19L36.835938 19L30.683594 21.050781 A 1.0001 1.0001 0 0 0 30 22L30 87L28 87L28 20C28 19.43497 28.43497 19 29 19 z M 59 19L71 19C71.56503 19 72 19.43497 72 20L72 87L59 87L59 22L68.5 22C68.781469 22 69 22.218531 69 22.5L69 29.5 A 0.50005 0.50005 0 1 0 70 29.5L70 22.5C70 21.677469 69.322531 21 68.5 21L59 21L59 19 z M 69.492188 33.992188 A 0.50005 0.50005 0 0 0 69 34.5L69 84.5 A 0.50005 0.50005 0 1 0 70 84.5L70 34.5 A 0.50005 0.50005 0 0 0 69.492188 33.992188 z M 51 53.5C50.041667 53.5 49.260256 53.877378 48.751953 54.449219C48.24365 55.02106 48 55.763889 48 56.5C48 57.236111 48.24365 57.97894 48.751953 58.550781C49.260256 59.122622 50.041667 59.5 51 59.5C51.958333 59.5 52.739744 59.122622 53.248047 58.550781C53.75635 57.97894 54 57.236111 54 56.5C54 55.763889 53.75635 55.02106 53.248047 54.449219C52.739744 53.877378 51.958333 53.5 51 53.5 z M 51 54.5C51.708333 54.5 52.176923 54.747622 52.501953 55.113281C52.826983 55.47894 53 55.986111 53 56.5C53 57.013889 52.826983 57.52106 52.501953 57.886719C52.176923 58.252378 51.708333 58.5 51 58.5C50.291667 58.5 49.823077 58.252378 49.498047 57.886719C49.173017 57.52106 49 57.013889 49 56.5C49 55.986111 49.173017 55.47894 49.498047 55.113281C49.823077 54.747622 50.291667 54.5 51 54.5 z" />
</svg>