<svg xmlns="http://www.w3.org/2000/svg" viewBox="0 0 50 50">
  <path d="M25 3C12.3 3 2 11.9 2 23C2 29.5 5.5 35.099219 11 38.699219C11 38.899219 10.999219 39.300781 10.699219 40.300781C10.299219 41.600781 9.5992188 43.4 8.1992188 45.5L7.1992188 47L9 47C15.2 47 18.800781 43.000781 19.300781 42.300781C21.100781 42.700781 23 43 25 43C37.7 43 48 34.1 48 23C48 11.9 37.7 3 25 3 z M 25 5C36.6 5 46 13.1 46 23C46 32.9 36.6 41 25 41C23.2 41 21.499219 40.800391 19.699219 40.400391L18.5 40.099609L17.800781 41C17.100781 41.8 14.8 44.200781 11 44.800781C11.7 43.500781 12.299609 42.200781 12.599609 40.800781C12.899609 39.800781 12.900391 39.199219 12.900391 38.699219L12.900391 37.599609L12 37C6.9 33.6 4 28.5 4 23C4 13.1 13.4 5 25 5 z M 25 12.599609C23 12.599609 21.400781 13.200391 20.300781 14.400391C19.100781 15.600391 18.6 17.199609 18.5 19.099609L21 19.099609C21.1 17.999609 21.299609 17.000391 21.599609 16.400391C22.199609 15.300391 23.300391 14.699219 24.900391 14.699219C26.100391 14.699219 27.099609 14.999219 27.599609 15.699219C28.099609 16.299219 28.400391 17.1 28.400391 18C28.400391 18.7 28.200781 19.300391 27.800781 19.900391C27.600781 20.300391 27.3 20.600391 27 20.900391L25.900391 22C24.800391 23.1 24.100781 24.000781 23.800781 24.800781C23.500781 25.600781 23.300781 26.7 23.300781 28L25.800781 28C25.800781 26.8 25.899219 26 26.199219 25.5C26.499219 24.9 27.1 24.200781 28 23.300781C29.3 22.100781 30.1 21.199609 30.5 20.599609C30.9 19.999609 31.099609 19.199219 31.099609 18.199219C31.099609 16.599219 30.500391 15.199219 29.400391 14.199219C28.300391 13.099219 26.8 12.599609 25 12.599609 z M 23.300781 30.300781L23.300781 33.199219L26 33.199219L26 30.300781L23.300781 30.300781 z" />
</svg>