<svg xmlns="http://www.w3.org/2000/svg" viewBox="0 0 48 48">
  <path d="M23.001953 4C22.90243 3.9963516 22.801219 4.0025312 22.699219 4.0195312C22.581219 4.0395312 19.790172 4.5310625 17.701172 7.1640625C17.680172 7.1910625 17.665484 7.2200469 17.646484 7.2480469C16.686484 7.2970469 15.686297 7.4958594 14.654297 7.8808594C8.0202969 10.358859 7.1569375 17.204375 6.5859375 21.734375C6.4779375 22.592375 6.3750469 23.402125 6.2480469 24.078125C5.6440469 27.312125 3.8032813 37.154734 11.488281 42.052734C13.482281 43.323734 16.144688 44.337891 18.804688 44.337891C20.729688 44.337891 22.653312 43.805937 24.320312 42.460938C27.098312 40.220937 28.366156 36.283469 29.160156 33.105469C30.883156 26.211469 29.916125 18.481687 26.578125 12.429688C25.500125 10.476688 23.652031 8.7199375 21.332031 7.8359375C22.298031 7.1659375 23.152359 6.9875156 23.193359 6.9785156C24.010359 6.8425156 24.561781 6.0709063 24.425781 5.2539062C24.306781 4.5381563 23.698617 4.0255391 23.001953 4 z M 15.603516 12.929688C15.987516 12.929687 16.371063 13.076141 16.664062 13.369141C17.250062 13.954141 17.250062 14.904234 16.664062 15.490234C15.687062 16.468234 15.661672 18.512359 15.638672 20.318359C15.627672 21.139359 14.958672 21.798828 14.138672 21.798828L14.119141 21.798828C13.290141 21.787828 12.627672 21.109297 12.638672 20.279297C12.668672 18.021297 12.703969 15.209141 14.542969 13.369141C14.835969 13.076141 15.219516 12.929688 15.603516 12.929688 z M 21.703125 21.986328C22.08675 21.995703 22.467406 22.151172 22.753906 22.451172C23.325906 23.050172 23.303125 23.999312 22.703125 24.570312C21.558125 25.661313 21.754578 26.505203 22.267578 28.158203C22.347578 28.415203 22.425094 28.670828 22.496094 28.923828C22.717094 29.722828 22.248219 30.548531 21.449219 30.769531C21.315219 30.806531 21.180828 30.824219 21.048828 30.824219C20.391828 30.824219 19.787516 30.388609 19.603516 29.724609C19.541516 29.499609 19.471391 29.273875 19.400391 29.046875C18.879391 27.363875 18.090812 24.821391 20.632812 22.400391C20.932813 22.114891 21.3195 21.976953 21.703125 21.986328 z M 36.878906 22.601562C35.301473 22.584336 33.640297 23.019813 32.013672 23.914062C31.981672 23.932063 31.946062 23.945891 31.914062 23.962891C32.139062 27.197891 31.881516 30.475797 31.103516 33.591797C31.033516 33.872797 30.953 34.164078 30.875 34.455078C31.469 34.750078 32.081828 35.066453 32.673828 35.439453C33.373828 35.881453 33.584578 36.806812 33.142578 37.507812C32.857578 37.959812 32.369094 38.207031 31.871094 38.207031C31.598094 38.207031 31.320266 38.133563 31.072266 37.976562C30.724266 37.756563 30.345891 37.547609 29.962891 37.349609C29.134891 39.568609 27.9615 41.777172 26.1875 43.451172C26.5415 43.486172 26.886844 43.509766 27.214844 43.509766C29.368844 43.508766 30.969062 42.816828 32.164062 42.298828C32.478063 42.162828 32.76525 42.036313 33.03125 41.945312C36.09925 40.891312 38.406031 39.507797 40.082031 37.716797C42.475031 35.152797 44.289094 30.563047 43.121094 26.748047C42.712094 25.411047 41.750406 24.274344 40.441406 23.527344C40.238406 23.902344 40.121516 24.424578 39.978516 25.142578C39.645516 26.812578 39.190891 29.098828 36.462891 30.798828C36.215891 30.951828 35.942875 31.025391 35.671875 31.025391C35.170875 31.025391 34.680484 30.775359 34.396484 30.318359C33.958484 29.615359 34.173953 28.691906 34.876953 28.253906C36.502953 27.240906 36.738109 26.057594 37.037109 24.558594C37.161109 23.938594 37.293828 23.276719 37.548828 22.636719C37.327203 22.615719 37.104254 22.604023 36.878906 22.601562 z M 12.597656 30.960938C12.792328 30.970781 12.989031 31.019125 13.175781 31.109375C15.210781 32.091375 17.742859 33.314766 18.630859 35.759766C18.913859 36.537766 18.511422 37.397641 17.732422 37.681641C17.563422 37.743641 17.390703 37.771484 17.220703 37.771484C16.607703 37.771484 16.032547 37.393203 15.810547 36.783203C15.338547 35.485203 13.495141 34.596547 11.869141 33.810547C11.123141 33.450547 10.810875 32.552641 11.171875 31.806641C11.441875 31.246391 12.013641 30.931406 12.597656 30.960938 z"/>
</svg>