
<svg xmlns="http://www.w3.org/2000/svg" viewBox="0 0 50 50">
  <path d="M10.875 0C10.652344 0.0234375 10.441406 0.125 10.28125 0.28125L0.28125 10.28125C0.0859375 10.46875 -0.0234375 10.730469 -0.0234375 11C-0.0234375 11.269531 0.0859375 11.53125 0.28125 11.71875L10.28125 21.71875C10.679688 22.117188 11.320313 22.117188 11.71875 21.71875C12.117188 21.320313 12.117188 20.679688 11.71875 20.28125L3.4375 12L33 12C41.253906 12 48 18.746094 48 27C48 35.203125 41.339844 41.914063 33.15625 42C33.105469 42 33.050781 42 33 42L16 42L16 42.6875C15.941406 42.882813 15.941406 43.085938 16 43.28125L16 44L33 44C33.03125 44 33.0625 44 33.09375 44C33.105469 44 33.113281 44 33.125 44C33.179688 44 33.226563 43.96875 33.28125 43.96875C42.496094 43.8125 50 36.25 50 27C50 17.75 42.496094 10.1875 33.28125 10.03125C33.242188 10.019531 33.199219 10.007813 33.15625 10C33.101563 10 33.054688 10 33 10L3.4375 10L11.71875 1.71875C12.042969 1.417969 12.128906 0.941406 11.933594 0.546875C11.742188 0.148438 11.308594 -0.0703125 10.875 0 Z M 0 42L0 44L2 44L2 42 Z M 4 42L4 44L6 44L6 42 Z M 8 42L8 44L10 44L10 42 Z M 12 42L12 44L14 44L14 42Z" />
</svg>