<?xml version="1.0" encoding="utf-8"?>
<svg xmlns="http://www.w3.org/2000/svg" viewBox="0 0 128 128" width="512" height="512">
  <path d="M23 55c0 1.7 1.3 3 3 3h11c1.7 0 3-1.3 3-3s-1.3-3-3-3H26C24.3 52 23 53.3 23 55zM36.1 73.4l-4.3 2.5c-1.4.8-1.9 2.7-1.1 4.1.6 1 1.6 1.5 2.6 1.5.5 0 1-.1 1.5-.4l4.3-2.5c1.4-.8 1.9-2.7 1.1-4.1C39.4 73.1 37.6 72.6 36.1 73.4zM44.6 38c.8-1.4.3-3.3-1.1-4.1l-8.7-5c-1.4-.8-3.3-.3-4.1 1.1-.8 1.4-.3 3.3 1.1 4.1l8.7 5c.5.3 1 .4 1.5.4C43 39.5 44 39 44.6 38zM14 52A3 3 0 1 0 14 58 3 3 0 1 0 14 52zM62 65.2c-1.7 0-3 1.3-3 3V116c0 6.1 4.9 11 11 11h28c6.1 0 11-4.9 11-11V68.2c0-11.2-5.2-21.8-14-28.7V4c0-1.7-1.3-3-3-3H76c-1.7 0-3 1.3-3 3v12c0 1.7 1.3 3 3 3h13v14H79v-5c0-1.7-1.3-3-3-3s-3 1.3-3 3v11.5c-4.1 3.2-7.6 7.4-10 12-.8 1.5-.2 3.3 1.3 4 .4.2.9.3 1.4.3 1.1 0 2.1-.6 2.7-1.6 0 0 0 0 0 0 0 0 0 0 0 0l1.2-2c0-.1.1-.1.1-.2.9-1.3 2.7-1.8 4.1-.9 1.4.9 1.8 2.7 1 4.1-2.4 3.9-3.7 8.4-3.7 12.9V76c0 1.7-1.3 3-3 3s-3-1.3-3-3v-7.8C65 66.5 63.7 65.2 62 65.2zM79 13V7h10v6H79zM82 75c0-1.7 1.3-3 3-3h18v34H85c-1.7 0-3-1.3-3-3V75z" fill="#FFFFFF" />
</svg>