
<svg xmlns="http://www.w3.org/2000/svg" viewBox="0 0 48 48">
  <path d="M7.5 9 A 1.50015 1.50015 0 1 0 7.5 12L40.5 12 A 1.50015 1.50015 0 1 0 40.5 9L7.5 9 z M 7.5 16 A 1.50015 1.50015 0 1 0 7.5 19L40.5 19 A 1.50015 1.50015 0 1 0 40.5 16L7.5 16 z M 7.5 23C6.672 23 6 23.672 6 24.5C6 25.328 6.672 26 7.5 26L29 26L29 23L7.5 23 z M 32.160156 23.009766C31.970531 22.984266 31.77375 23.01125 31.59375 23.09375C31.24275 23.25875 31.009766 23.618813 31.009766 24.007812L31.009766 41.234375C31.009766 41.662375 31.282641 42.0415 31.681641 42.1875C32.080641 42.3325 32.528781 42.217719 32.800781 41.886719L35.814453 38.267578L38.808594 44.859375C39.251594 45.834375 40.397 46.268078 41.375 45.830078L42.337891 45.400391C43.322891 44.959391 43.7585 43.801313 43.3125 42.820312L40.289062 36.273438L45.193359 36.273438C45.621359 36.273438 46.000484 35.904859 46.146484 35.505859C46.292484 35.106859 46.175516 34.657719 45.853516 34.386719L32.683594 23.240234C32.533094 23.113734 32.349781 23.035266 32.160156 23.009766 z M 7.5 30C6.672 30 6 30.672 6 31.5C6 32.328 6.672 33 7.5 33L29 33L29 30L7.5 30 z M 7.5 37C6.672 37 6 37.672 6 38.5C6 39.328 6.672 40 7.5 40L29 40L29 37L7.5 37 z"/>
</svg>