<?xml version="1.0" encoding="utf-8"?>
<svg xmlns="http://www.w3.org/2000/svg" viewBox="0 0 48 48" width="144" height="144">
  <path d="M23.970703 3.9726562 A 2.0002 2.0002 0 0 0 22 6L22 15 A 2.0002 2.0002 0 1 0 26 15L26 6 A 2.0002 2.0002 0 0 0 23.970703 3.9726562 z M 11.251953 9.2519531 A 2.0002 2.0002 0 0 0 9.8574219 12.685547L16.222656 19.050781 A 2.0002 2.0002 0 1 0 19.050781 16.222656L12.685547 9.8574219 A 2.0002 2.0002 0 0 0 11.251953 9.2519531 z M 36.689453 9.2519531 A 2.0002 2.0002 0 0 0 35.314453 9.8574219L28.949219 16.222656 A 2.0002 2.0002 0 1 0 31.777344 19.050781L38.142578 12.685547 A 2.0002 2.0002 0 0 0 36.689453 9.2519531 z M 6 22 A 2.0002 2.0002 0 1 0 6 26L15 26 A 2.0002 2.0002 0 1 0 15 22L6 22 z M 33 22 A 2.0002 2.0002 0 1 0 33 26L42 26 A 2.0002 2.0002 0 1 0 42 22L33 22 z M 17.595703 28.34375 A 2.0002 2.0002 0 0 0 16.222656 28.949219L9.8574219 35.314453 A 2.0002 2.0002 0 1 0 12.685547 38.142578L19.050781 31.777344 A 2.0002 2.0002 0 0 0 17.595703 28.34375 z M 30.34375 28.34375 A 2.0002 2.0002 0 0 0 28.949219 31.777344L35.314453 38.142578 A 2.0002 2.0002 0 1 0 38.142578 35.314453L31.777344 28.949219 A 2.0002 2.0002 0 0 0 30.34375 28.34375 z M 23.970703 30.972656 A 2.0002 2.0002 0 0 0 22 33L22 42 A 2.0002 2.0002 0 1 0 26 42L26 33 A 2.0002 2.0002 0 0 0 23.970703 30.972656 z" fill="#FFFFFF" />
</svg>