
<svg xmlns="http://www.w3.org/2000/svg" viewBox="0 0 80 80">
  <path d="M5 14L5 68L56 68L54 66L7 66L7 16L73 16L73 61L75 63L75 14 Z M 13 22L13 60L48 60L46 58L15 58L15 48.527344L29.972656 38.230469L34.039063 41.277344C34.160156 41.703125 34.554688 42 35 42C35 42 35.003906 42 35.003906 42L41.503906 46.867188L50.011719 40.257813L65 51.5L65 53L67 55L67 22 Z M 15 24L65 24L65 37C64.449219 37 64 37.449219 64 38C64 38.550781 64.449219 39 65 39L65 43C64.449219 43 64 43.449219 64 44C64 44.550781 64.449219 45 65 45L65 49L63.492188 47.871094C63.804688 47.691406 64 47.359375 64 47C64 46.449219 63.550781 46 63 46C62.535156 46 62.132813 46.320313 62.027344 46.769531L55.492188 41.871094C55.804688 41.691406 56 41.359375 56 41C56 40.449219 55.550781 40 55 40C54.535156 40 54.132813 40.320313 54.027344 40.769531L49.988281 37.742188L49.96875 37.757813C49.859375 37.3125 49.457031 37 49 37C48.449219 37 48 37.449219 48 38C48 38.367188 48.203125 38.707031 48.527344 38.878906L42 43.953125C41.972656 43.417969 41.53125 43 41 43C40.6875 43 40.394531 43.144531 40.203125 43.394531L33.800781 38.597656C33.929688 38.425781 34 38.214844 34 38C34 37.449219 33.550781 37 33 37C32.6875 37 32.390625 37.148438 32.203125 37.402344L30.027344 35.769531L23.589844 40.191406C23.417969 40.066406 23.210938 40 23 40C22.449219 40 22 40.449219 22 41C22 41.089844 22.011719 41.175781 22.035156 41.261719L18 44.035156C18 44.023438 18 44.011719 18 44C18 43.449219 17.550781 43 17 43C16.449219 43 16 43.449219 16 44C16 44.425781 16.273438 44.808594 16.675781 44.945313L15 46.097656L15 42C15.550781 42 16 41.550781 16 41C16 40.449219 15.550781 40 15 40L15 36C15.550781 36 16 35.550781 16 35C16 34.449219 15.550781 34 15 34 Z M 21 31C20.449219 31 20 31.449219 20 32C20 32.550781 20.449219 33 21 33C21.550781 33 22 32.550781 22 32C22 31.449219 21.550781 31 21 31 Z M 25 31C24.449219 31 24 31.449219 24 32C24 32.550781 24.449219 33 25 33C25.550781 33 26 32.550781 26 32C26 31.449219 25.550781 31 25 31 Z M 37 31C36.449219 31 36 31.449219 36 32C36 32.550781 36.449219 33 37 33C37.550781 33 38 32.550781 38 32C38 31.449219 37.550781 31 37 31 Z M 41 31C40.449219 31 40 31.449219 40 32C40 32.550781 40.449219 33 41 33C41.550781 33 42 32.550781 42 32C42 31.449219 41.550781 31 41 31 Z M 53 31C52.449219 31 52 31.449219 52 32C52 32.550781 52.449219 33 53 33C53.550781 33 54 32.550781 54 32C54 31.449219 53.550781 31 53 31 Z M 57 31C56.449219 31 56 31.449219 56 32C56 32.550781 56.449219 33 57 33C57.550781 33 58 32.550781 58 32C58 31.449219 57.550781 31 57 31 Z M 19 34C18.449219 34 18 34.449219 18 35C18 35.550781 18.449219 36 19 36C19.550781 36 20 35.550781 20 35C20 34.449219 19.550781 34 19 34 Z M 23 34C22.449219 34 22 34.449219 22 35C22 35.550781 22.449219 36 23 36C23.550781 36 24 35.550781 24 35C24 34.449219 23.550781 34 23 34 Z M 27 34C26.449219 34 26 34.449219 26 35C26 35.550781 26.449219 36 27 36C27.550781 36 28 35.550781 28 35C28 34.449219 27.550781 34 27 34 Z M 31 34C30.449219 34 30 34.449219 30 35C30 35.550781 30.449219 36 31 36C31.550781 36 32 35.550781 32 35C32 34.449219 31.550781 34 31 34 Z M 35 34C34.449219 34 34 34.449219 34 35C34 35.550781 34.449219 36 35 36C35.550781 36 36 35.550781 36 35C36 34.449219 35.550781 34 35 34 Z M 39 34C38.449219 34 38 34.449219 38 35C38 35.550781 38.449219 36 39 36C39.550781 36 40 35.550781 40 35C40 34.449219 39.550781 34 39 34 Z M 43 34C42.449219 34 42 34.449219 42 35C42 35.550781 42.449219 36 43 36C43.550781 36 44 35.550781 44 35C44 34.449219 43.550781 34 43 34 Z M 47 34C46.449219 34 46 34.449219 46 35C46 35.550781 46.449219 36 47 36C47.550781 36 48 35.550781 48 35C48 34.449219 47.550781 34 47 34 Z M 51 34C50.449219 34 50 34.449219 50 35C50 35.550781 50.449219 36 51 36C51.550781 36 52 35.550781 52 35C52 34.449219 51.550781 34 51 34 Z M 55 34C54.449219 34 54 34.449219 54 35C54 35.550781 54.449219 36 55 36C55.550781 36 56 35.550781 56 35C56 34.449219 55.550781 34 55 34 Z M 59 34C58.449219 34 58 34.449219 58 35C58 35.550781 58.449219 36 59 36C59.550781 36 60 35.550781 60 35C60 34.449219 59.550781 34 59 34 Z M 63 34C62.449219 34 62 34.449219 62 35C62 35.550781 62.449219 36 63 36C63.550781 36 64 35.550781 64 35C64 34.449219 63.550781 34 63 34 Z M 17 37C16.449219 37 16 37.449219 16 38C16 38.550781 16.449219 39 17 39C17.550781 39 18 38.550781 18 38C18 37.449219 17.550781 37 17 37 Z M 21 37C20.449219 37 20 37.449219 20 38C20 38.550781 20.449219 39 21 39C21.550781 39 22 38.550781 22 38C22 37.449219 21.550781 37 21 37 Z M 25 37C24.449219 37 24 37.449219 24 38C24 38.550781 24.449219 39 25 39C25.550781 39 26 38.550781 26 38C26 37.449219 25.550781 37 25 37 Z M 37 37C36.449219 37 36 37.449219 36 38C36 38.550781 36.449219 39 37 39C37.550781 39 38 38.550781 38 38C38 37.449219 37.550781 37 37 37 Z M 41 37C40.449219 37 40 37.449219 40 38C40 38.550781 40.449219 39 41 39C41.550781 39 42 38.550781 42 38C42 37.449219 41.550781 37 41 37 Z M 45 37C44.449219 37 44 37.449219 44 38C44 38.550781 44.449219 39 45 39C45.550781 39 46 38.550781 46 38C46 37.449219 45.550781 37 45 37 Z M 53 37C52.449219 37 52 37.449219 52 38C52 38.550781 52.449219 39 53 39C53.550781 39 54 38.550781 54 38C54 37.449219 53.550781 37 53 37 Z M 57 37C56.449219 37 56 37.449219 56 38C56 38.550781 56.449219 39 57 39C57.550781 39 58 38.550781 58 38C58 37.449219 57.550781 37 57 37 Z M 61 37C60.449219 37 60 37.449219 60 38C60 38.550781 60.449219 39 61 39C61.550781 39 62 38.550781 62 38C62 37.449219 61.550781 37 61 37 Z M 19 40C18.449219 40 18 40.449219 18 41C18 41.550781 18.449219 42 19 42C19.550781 42 20 41.550781 20 41C20 40.449219 19.550781 40 19 40 Z M 39 40C38.449219 40 38 40.449219 38 41C38 41.550781 38.449219 42 39 42C39.550781 42 40 41.550781 40 41C40 40.449219 39.550781 40 39 40 Z M 43 40C42.449219 40 42 40.449219 42 41C42 41.550781 42.449219 42 43 42C43.550781 42 44 41.550781 44 41C44 40.449219 43.550781 40 43 40 Z M 59 40C58.449219 40 58 40.449219 58 41C58 41.550781 58.449219 42 59 42C59.550781 42 60 41.550781 60 41C60 40.449219 59.550781 40 59 40 Z M 63 40C62.449219 40 62 40.449219 62 41C62 41.550781 62.449219 42 63 42C63.550781 42 64 41.550781 64 41C64 40.449219 63.550781 40 63 40 Z M 61 43C60.449219 43 60 43.449219 60 44C60 44.550781 60.449219 45 61 45C61.550781 45 62 44.550781 62 44C62 43.449219 61.550781 43 61 43 Z M 46.453125 46.453125L50.179688 58.089844L50.351563 58.261719L64.597656 72.503906L64.597656 72.507813L70.070313 77.980469L70.609375 78.515625C72.578125 80.484375 75.796875 80.484375 77.765625 78.515625L78.519531 77.765625C80.488281 75.796875 80.488281 72.578125 78.519531 70.609375L58.089844 50.179688 Z M 50.609375 49.886719L56.472656 51.761719C56.472656 51.765625 56.472656 51.769531 56.46875 51.777344C56.390625 52.183594 56.203125 52.613281 56.03125 52.785156C55.863281 52.957031 55.429688 53.140625 55.019531 53.222656C54.613281 53.304688 54.304688 53.304688 54.304688 53.304688L53.304688 53.304688L53.304688 54.304688C53.304688 54.304688 53.304688 54.613281 53.222656 55.019531C53.140625 55.429688 52.957031 55.863281 52.785156 56.03125C52.613281 56.203125 52.183594 56.390625 51.777344 56.46875C51.769531 56.472656 51.765625 56.472656 51.761719 56.472656L49.886719 50.609375 Z M 58.167969 53.082031L71.09375 66.011719L66.015625 71.09375L53.085938 58.167969C53.464844 58.015625 53.851563 57.792969 54.199219 57.449219C54.839844 56.804688 55.0625 56.023438 55.183594 55.414063C55.207031 55.300781 55.191406 55.308594 55.207031 55.207031C55.308594 55.191406 55.300781 55.207031 55.414063 55.183594C56.023438 55.0625 56.804688 54.839844 57.449219 54.199219C57.796875 53.851563 58.015625 53.464844 58.167969 53.082031 Z M 72.503906 67.425781L75.152344 70.070313L70.070313 75.152344L67.425781 72.507813 Z M 76.5625 71.484375L77.105469 72.027344C78.308594 73.226563 78.308594 75.148438 77.105469 76.347656L76.351563 77.105469C75.148438 78.304688 73.226563 78.304688 72.027344 77.105469L71.484375 76.5625Z" />
</svg>