<svg xmlns="http://www.w3.org/2000/svg" viewBox="0 0 50 50">
  <path d="M10.394531 5C8.535156 5 7 6.523438 7 8.382813L7 9L9 9L9 8.382813C9 7.609375 9.609375 7 10.394531 7C11.179688 7 12 7.714844 12 8.382813L12 9L9 9L9 17.308594C9 17.742188 9.359375 18 9.796875 18L10 18C10.484375 18 11 17.691406 11 17.308594L11 13C11 12.449219 11.449219 12 12 12C12.550781 12 13 12.449219 13 13L13 17.308594C13 18.792969 11.597656 20 10 20L9.796875 20C8.253906 20 7 18.84375 7 17.308594L7 9L5 9C3.347656 9 2 10.347656 2 12L2 35.109375C2 36.761719 3.347656 38 5 38L45 38C46.652344 38 48 36.761719 48 35.109375L48 12C48 10.347656 46.652344 9 45 9L14 9L14 8.382813C14 6.414063 12.253906 5 10.394531 5 Z M 21 17L39 17C39.550781 17 40 17.449219 40 18C40 18.550781 39.550781 19 39 19L21 19C20.449219 19 20 18.550781 20 18C20 17.449219 20.449219 17 21 17 Z M 21 22L39 22C39.550781 22 40 22.449219 40 23C40 23.550781 39.550781 24 39 24L21 24C20.449219 24 20 23.550781 20 23C20 22.449219 20.449219 22 21 22 Z M 21 27L39 27C39.550781 27 40 27.449219 40 28C40 28.550781 39.550781 29 39 29L21 29C20.449219 29 20 28.550781 20 28C20 27.449219 20.449219 27 21 27 Z M 45.089844 39.988281C45.058594 39.992188 45.03125 40 45 40L16.753906 40L41.3125 43.988281C41.421875 44.003906 41.535156 44 41.648438 44C43.105469 44 44.75 42.691406 44.996094 41.167969Z" />
</svg>