<svg xmlns="http://www.w3.org/2000/svg" viewBox="0 0 470.13 409.69"><path d="M326.69,0c-5.12,0-10.04,1.91-13.75,5.62l-11.88,11.88,25.62,25.62c8.98,8.98,11.48,22.46,6.25,33.75,3.95-1.84,8.12-2.5,12.5-2.5,8.05,0,15.62,3.09,21.25,8.75l41.88,41.88c7.5,7.46,11.52,17.23,11.56,27.81,.04,10.62-4.02,20.59-11.56,28.12l-36.56,36.56-16.88,17.19-157.5,157.19,1.88,1.88c3.71,3.71,8.79,5.94,14.06,5.94s10.04-1.91,13.75-5.62l237.19-237.19c3.71-3.71,5.62-8.48,5.62-13.75s-1.91-10.35-5.62-14.06l-42.19-41.88c-3.24-3.24-8.28-3.91-12.19-1.56-7.3,4.38-17.07,3.2-23.12-2.81-6.17-6.17-7.34-15.59-2.81-23.12,2.34-3.95,1.68-8.95-1.56-12.19L340.76,5.62c-3.71-3.71-8.95-5.62-14.06-5.62Zm-69.69,10c-5.12,0-10.35,1.6-14.06,5.31l-36.88,36.88c.62,.39,1.33,.7,1.88,1.25l7.19,7.19c3.91,3.91,3.91,10.16,0,14.06-1.95,1.95-4.61,2.81-7.19,2.81s-4.92-.86-6.88-2.81l-7.19-7.19c-.55-.55-.86-1.25-1.25-1.88L5.76,252.5c-7.66,7.7-7.7,20.16,0,27.81l42.19,41.88c3.24,3.24,8.24,3.95,12.19,1.56,7.3-4.41,17.07-3.24,23.12,2.81,6.17,6.17,7.34,15.59,2.81,23.12-2.34,3.95-1.68,8.95,1.56,12.19l41.88,41.88c3.71,3.71,8.79,5.94,14.06,5.94s10.04-1.91,13.75-5.62l186.88-187.19c-.51-.35-1.09-.47-1.56-.94l-6.88-7.19c-3.91-3.91-3.91-10.16,0-14.06s10.16-3.91,14.06,0l7.19,7.19c.47,.47,.59,1.05,.94,1.56l36.56-36.56c3.71-3.75,5.62-8.79,5.62-14.06s-1.91-10.08-5.62-13.75l-41.88-41.88c-3.24-3.24-8.55-3.95-12.5-1.56-7.3,4.38-17.07,3.24-23.12-2.81-6.17-6.17-7.34-15.59-2.81-23.12,2.34-3.95,1.68-8.95-1.56-12.19l-41.88-42.19c-3.71-3.71-8.63-5.31-13.75-5.31Zm-27.81,68.75c2.54,0,5.23,.86,7.19,2.81l6.88,7.19c3.91,3.91,3.91,10.16,0,14.06-1.95,1.95-4.3,3.12-6.88,3.12s-5.23-1.17-7.19-3.12l-7.19-6.88c-3.91-3.91-3.91-10.47,0-14.38,1.95-1.95,4.65-2.81,7.19-2.81Zm28.44,28.44c2.54,0,4.92,.86,6.88,2.81l7.19,7.19c3.91,3.91,3.91,10.16,0,14.06-1.95,1.95-4.61,2.81-7.19,2.81s-4.92-.86-6.88-2.81l-7.19-7.19c-3.91-3.91-3.91-10.16,0-14.06,1.95-1.95,4.65-2.81,7.19-2.81Zm28.12,28.12c2.54,0,5.23,.86,7.19,2.81l6.88,7.19c3.91,3.91,3.91,10.16,0,14.06-1.95,1.95-4.3,3.12-6.88,3.12s-5.23-1.17-7.19-3.12l-7.19-6.88c-3.91-3.91-3.91-10.47,0-14.38,1.95-1.95,4.65-2.81,7.19-2.81Zm28.44,28.44c2.54,0,4.92,.86,6.88,2.81l7.19,7.19c3.91,3.91,3.91,10.16,0,14.06-1.95,1.95-4.61,2.81-7.19,2.81s-4.92-.86-6.88-2.81l-7.19-7.19c-3.91-3.91-3.91-10.16,0-14.06,1.95-1.95,4.65-2.81,7.19-2.81Z"/></svg>