<svg xmlns="http://www.w3.org/2000/svg" viewBox="0 0 64 64">
  <path d="M58 6.2011719C54.192 10.009172 39.999406 9.9599375 30.066406 16.335938C23.245406 20.714937 19.476703 30.684906 17.595703 37.628906C31.438703 19.893906 46.9375 15.988281 46.9375 15.988281C41.391647 19.607289 36.603119 23.411686 32.548828 27.037109L32.519531 27.017578C27.59896 31.078066 23.23677 35.93977 19.59375 40.599609C17.98761 42.597488 16.929873 44.067473 16.494141 44.699219C16.500456 44.696194 16.515068 44.692498 16.521484 44.689453C11.257955 52.038519 8.171875 58 8.171875 58L13 56C13.015058 55.934949 15.931724 50.132349 21.179688 42.998047C26.455019 41.221903 34.660709 38.485409 41.019531 34.726562C38.575531 33.840562 36.001953 32.996094 36.001953 32.996094C36.001953 32.996094 39.813375 31.3565 44.609375 32.3125C44.925375 32.0675 45.233344 31.820359 45.527344 31.568359C48.283344 29.205359 50.550328 25.760016 52.361328 22.166016C49.275328 21.665016 45.005859 22 45.005859 22C48.037859 19.64 51.742172 19.112578 53.826172 19.017578C56.668172 12.402578 58 6.2011719 58 6.2011719 z M 51.8125 41.921875C47.3125 41.875 40 42.25 40 46C40 50 51.964844 50.000891 51.964844 52.837891C51.964844 56.000891 24 56 17 56L17 58C17 58 56 62.315 56 53C56 48 43 48 43 46C43 44 55 44 55 44L55 42C54.5 42 53.3125 41.9375 51.8125 41.921875 z"/>
</svg>